<?xml version="1.0" standalone="no"?>
<!DOCTYPE svg PUBLIC "-//W3C//DTD SVG 20010904//EN"
 "http://www.w3.org/TR/2001/REC-SVG-20010904/DTD/svg10.dtd">
<svg version="1.0" xmlns="http://www.w3.org/2000/svg"
 width="742.000000pt" height="665.000000pt" viewBox="0 0 742.000000 665.000000"
 preserveAspectRatio="xMidYMid meet">

<g transform="translate(0.000000,665.000000) scale(0.100000,-0.100000)"
fill="#000000" stroke="none">
<path d="M3300 5415 c-11 -13 -10 -14 3 -9 11 4 35 -9 69 -37 44 -36 48 -38
23 -10 -16 18 -42 41 -56 52 -24 17 -28 17 -39 4z"/>
<path d="M3254 5378 l-19 -23 23 19 c21 18 27 26 19 26 -2 0 -12 -10 -23 -22z"/>
<path d="M3194 5328 l-19 -23 23 19 c21 18 27 26 19 26 -2 0 -12 -10 -23 -22z"/>
<path d="M3430 5324 c0 -4 19 -23 43 -44 110 -96 187 -161 187 -157 0 3 -52
50 -115 106 -63 56 -115 99 -115 95z"/>
<path d="M3149 5293 c-13 -16 -12 -17 4 -4 9 7 17 15 17 17 0 8 -8 3 -21 -13z"/>
<path d="M3065 5229 c-76 -62 -88 -79 -17 -24 55 43 80 66 70 65 -2 -1 -25
-19 -53 -41z"/>
<path d="M1649 5153 c-30 -21 -119 -83 -197 -138 l-142 -99 0 -1758 c0 -967 3
-1758 6 -1758 4 0 70 33 148 74 307 161 899 426 952 426 18 0 24 -8 29 -40 4
-22 11 -43 17 -46 6 -4 -39 -32 -98 -63 -101 -53 -400 -234 -624 -378 -52 -34
-169 -108 -259 -164 -90 -57 -165 -108 -167 -114 -3 -6 -3 -64 -2 -128 l3
-116 100 79 100 79 403 1 c221 0 402 -2 402 -5 0 -3 -41 -55 -92 -116 l-92
-110 -408 3 c-357 3 -408 1 -408 -12 0 -29 58 -136 99 -182 28 -32 68 -60 119
-85 74 -37 79 -38 186 -38 86 0 118 4 141 17 l30 17 -31 1 c-18 0 -45 7 -60
15 -16 8 -37 15 -46 15 -9 0 -20 5 -23 10 -3 6 -25 10 -47 10 -88 0 -26 8 115
15 97 4 147 3 147 -3 0 -6 -12 -25 -27 -43 -25 -29 1 -18 214 91 l243 125 67
100 c274 407 639 819 889 1004 337 249 857 488 1507 692 105 33 215 69 244 81
61 24 103 59 103 87 0 28 -66 79 -127 98 -30 9 -65 29 -80 46 -23 25 -24 29
-8 23 11 -4 50 -16 86 -26 97 -26 159 -56 199 -95 19 -19 46 -38 60 -43 l24
-9 -44 -46 c-59 -61 -309 -205 -321 -185 -14 21 -11 26 22 33 17 4 28 9 25 12
-3 3 -20 0 -37 -6 -25 -9 -34 -8 -40 1 -12 19 -23 -17 -15 -52 5 -26 1 -32
-24 -45 -28 -14 -32 -14 -55 2 -13 10 -25 21 -25 24 0 3 18 11 41 18 23 7 39
14 37 17 -3 2 -24 -3 -48 -11 -30 -10 -47 -12 -54 -5 -19 19 -36 10 -36 -19 0
-16 -7 -34 -15 -41 -8 -7 -15 -29 -15 -50 0 -35 -4 -40 -94 -103 -108 -76
-209 -174 -263 -255 -32 -49 -100 -219 -90 -228 5 -5 1194 630 2340 1249 142
77 178 101 224 151 156 169 175 404 48 591 -56 81 -129 137 -292 222 l-138 71
-195 -123 c-194 -124 -195 -124 -216 -104 -28 26 -41 24 -18 -3 l19 -23 -22
19 c-13 10 -20 22 -18 26 5 8 -57 60 -71 60 -4 0 0 -8 9 -18 14 -15 15 -19 2
-19 -8 0 -12 4 -9 8 2 4 0 10 -6 14 -6 4 -8 10 -5 15 4 6 -310 252 -362 283
-13 8 -258 -141 -249 -151 3 -3 12 1 20 7 11 10 16 9 24 -6 10 -17 11 -17 30
0 16 15 22 16 28 5 4 -7 4 -10 0 -6 -5 4 -18 -2 -29 -13 -12 -11 -28 -17 -37
-14 -8 3 1 -8 20 -24 19 -17 36 -29 37 -27 4 4 93 -82 93 -89 0 -7 -118 -85
-129 -85 -17 0 -13 -17 5 -24 23 -9 24 -8 17 12 -6 14 -4 15 9 5 8 -7 18 -10
22 -6 4 4 5 -9 2 -29 -5 -39 9 -53 42 -41 9 3 14 3 10 -2 -10 -10 11 -37 23
-29 5 3 9 10 9 15 0 6 -5 7 -12 3 -6 -4 -8 -3 -5 3 4 6 22 10 41 8 30 -2 36 2
42 24 4 14 6 30 5 34 -1 5 3 6 8 2 11 -6 4 -30 -29 -96 -19 -36 -23 -39 -38
-27 -9 8 -54 36 -99 63 -45 27 -79 53 -76 58 3 6 2 7 -4 4 -6 -4 -23 -1 -40 5
-27 10 -36 7 -119 -49 -209 -141 -253 -164 -277 -152 -12 7 -76 45 -142 84
-66 40 -210 125 -320 190 -292 173 -845 506 -1064 641 l-84 52 -41 -27 c-22
-14 -96 -63 -163 -108 l-121 -82 -81 57 c-44 31 -163 114 -263 184 -101 70
-199 138 -218 151 -473 330 -704 489 -714 493 -7 3 -37 -12 -67 -33z m3921
-998 c0 -2 -15 -12 -32 -20 l-33 -16 25 20 c24 20 40 26 40 16z m55 -33 c-3
-3 -11 0 -18 7 -9 10 -8 11 6 5 10 -3 15 -9 12 -12z m-145 -32 c-8 -5 -19 -10
-25 -10 -5 0 -3 5 5 10 8 5 20 10 25 10 6 0 3 -5 -5 -10z m-46 -25 c-4 -8 -12
-15 -20 -15 -8 0 -14 -5 -14 -11 0 -5 -5 -7 -11 -3 -8 5 26 36 48 43 1 1 0 -6
-3 -14z m311 -35 c10 -11 16 -20 13 -20 -3 0 -13 9 -23 20 -10 11 -16 20 -13
20 3 0 13 -9 23 -20z m-329 -55 c9 -8 11 -15 6 -15 -5 0 -15 7 -22 15 -7 8 -9
15 -6 15 4 0 14 -7 22 -15z m473 -48 c8 -10 7 -14 -2 -14 -8 0 -14 6 -14 14 0
7 1 13 2 13 2 0 8 -6 14 -13z m-2629 -52 c13 -14 20 -28 17 -31 -4 -4 -65 -6
-136 -5 l-129 2 -25 -33 c-30 -39 -43 -83 -28 -92 25 -16 7 -26 -45 -26 -56 0
-56 0 -49 27 3 15 15 45 26 67 10 22 19 43 19 48 0 4 -63 7 -141 5 -80 -1
-143 2 -146 7 -4 5 6 20 21 33 27 23 28 23 310 23 l283 0 23 -25z m2421 -57
c8 -18 13 -36 11 -40 -1 -5 5 -8 14 -8 9 0 14 -7 13 -17 -2 -10 3 -29 11 -43
8 -14 15 -31 16 -38 5 -32 14 -41 30 -35 12 4 15 3 10 -5 -4 -7 -11 -12 -16
-12 -11 0 -37 38 -42 60 -2 8 -8 20 -15 27 -6 7 -19 36 -28 65 -24 73 -31 76
-44 24 -13 -52 -26 -63 -16 -13 9 39 23 67 34 67 5 0 15 -15 22 -32z m-161 -2
c0 -2 -7 -7 -16 -10 -8 -3 -12 -2 -9 4 6 10 25 14 25 6z m7 -98 c-3 -8 -6 -5
-6 6 -1 11 2 17 5 13 3 -3 4 -12 1 -19z m-2247 -109 c85 -41 139 -101 159
-177 5 -18 50 -44 226 -126 265 -126 512 -231 740 -316 94 -35 172 -65 174
-67 2 -1 6 -26 9 -54 4 -48 3 -52 -14 -45 -10 4 -84 23 -164 42 -231 55 -559
153 -720 215 -41 16 -78 25 -83 20 -10 -10 -10 -442 0 -468 6 -14 25 -15 192
-10 177 6 580 30 724 42 l67 6 0 -53 c0 -30 -6 -61 -12 -70 -8 -9 -119 -46
-266 -87 -317 -90 -469 -139 -646 -207 -77 -29 -141 -52 -142 -51 -2 1 1 20 6
42 5 22 10 230 10 462 l0 422 -22 15 c-12 9 -30 16 -40 16 -17 0 -18 -26 -18
-452 0 -284 -4 -467 -11 -491 -5 -20 -20 -44 -32 -51 -37 -24 -280 -36 -713
-35 -447 1 -483 4 -518 52 -20 27 -21 40 -20 265 1 254 14 393 64 716 25 154
36 200 62 253 56 115 160 188 301 212 29 5 183 9 342 8 l290 -2 55 -26z m2186
-456 c-8 -16 -20 -35 -28 -43 -7 -8 -12 -13 -11 -11 2 2 -2 10 -9 18 -8 10 -8
12 3 8 8 -3 21 7 31 25 21 38 34 40 14 3z m-118 -47 c-7 -8 -15 -12 -17 -10
-2 2 -11 -1 -21 -6 -10 -5 -20 -6 -24 -3 -4 4 8 12 26 19 45 16 51 16 36 0z
m-308 -14 c0 -1 -32 -45 -72 -98 -68 -91 -72 -95 -101 -88 -42 9 -225 77 -271
101 l-39 20 49 6 c27 4 121 20 209 36 137 24 225 33 225 23z m356 -49 c-27
-54 -41 -58 -67 -21 -12 18 -16 27 -9 21 17 -16 31 -17 28 -2 -2 6 3 14 11 17
9 3 11 0 6 -7 -5 -9 -1 -9 14 1 12 7 21 17 21 22 0 5 3 7 6 4 3 -4 -1 -19 -10
-35z m-481 -212 c76 -22 91 -30 93 -49 4 -28 8 -28 -178 3 -83 14 -155 23
-160 20 -12 -7 -16 3 -24 57 l-7 46 93 -25 c51 -14 134 -37 183 -52z m-332
-81 c0 -28 -3 -54 -7 -57 -3 -3 -6 22 -6 57 0 35 3 60 6 57 4 -3 7 -29 7 -57z
m81 -12 c-2 -29 1 -55 6 -58 4 -3 79 -1 165 3 86 5 159 6 163 2 4 -3 0 -18 -8
-33 -13 -23 -30 -29 -150 -57 -203 -48 -203 -48 -196 -29 3 9 6 63 6 120 0 57
4 104 8 104 4 0 7 -24 6 -52z m434 12 c50 -22 61 -43 38 -69 -17 -18 -104 -47
-113 -37 -3 3 5 23 18 45 22 39 22 41 4 61 -24 26 -5 26 53 0z m-1975 -889
c-27 -26 -42 -30 -118 -36 -62 -5 -401 -2 -432 5 -9 2 -33 35 -33 46 0 12 48
14 308 14 l307 -1 -32 -28z m-123 -141 c0 -3 -18 -20 -40 -37 l-39 -33 -242 0
c-154 0 -240 3 -233 10 5 5 32 22 60 37 l51 28 222 0 c121 0 221 -2 221 -5z
m-220 -215 l-65 -65 -304 2 -304 3 94 62 94 63 275 0 275 0 -65 -65z m-239
-254 c-39 -43 -77 -84 -85 -90 -11 -9 -107 -11 -375 -9 -199 2 -360 6 -358 10
1 4 51 43 112 87 l110 81 333 0 334 0 -71 -79z"/>
<path d="M2602 3495 c-77 -18 -131 -60 -164 -125 -23 -46 -33 -98 -63 -301
-19 -135 -35 -262 -35 -281 0 -72 74 -142 163 -153 29 -4 160 -5 292 -3 223 3
243 5 280 25 51 27 94 69 110 108 21 51 89 555 81 600 -10 51 -76 118 -131
134 -57 16 -465 13 -533 -4z m326 -71 c30 -21 28 -58 -4 -83 -34 -27 -157 -30
-192 -5 -26 18 -29 60 -5 86 22 24 167 26 201 2z m218 -196 c4 -5 4 -11 0 -15
-4 -5 -156 -9 -338 -11 -266 -2 -329 0 -326 10 3 7 27 16 54 19 69 9 601 6
610 -3z"/>
<path d="M2344 2446 c-34 -28 -38 -84 -9 -116 25 -28 87 -27 115 2 28 31 26
83 -5 113 -31 31 -66 32 -101 1z"/>
<path d="M3034 2446 c-34 -28 -38 -84 -9 -116 28 -31 97 -28 124 6 28 36 26
66 -5 103 -32 38 -72 41 -110 7z"/>
<path d="M2305 5170 c-19 -8 -19 -9 3 -9 31 -1 98 -36 105 -56 4 -8 18 -15 32
-15 14 0 28 7 32 15 6 18 73 55 100 56 14 0 13 2 -5 10 -27 10 -66 3 -100 -18
-21 -13 -28 -13 -57 1 -44 21 -85 27 -110 16z"/>
<path d="M2954 5138 l-19 -23 23 19 c21 18 27 26 19 26 -2 0 -12 -10 -23 -22z"/>
<path d="M3670 5117 c0 -3 50 -49 112 -103 61 -54 108 -93 105 -86 -9 14 -217
195 -217 189z"/>
<path d="M2854 5058 l-19 -23 23 19 c12 11 22 21 22 23 0 8 -8 2 -26 -19z"/>
<path d="M2809 5023 c-13 -16 -12 -17 4 -4 9 7 17 15 17 17 0 8 -8 3 -21 -13z"/>
<path d="M3942 4878 c25 -25 70 -64 100 -87 l53 -43 -50 46 c-27 26 -72 65
-100 87 l-50 41 47 -44z"/>
<path d="M2589 4853 c-13 -16 -12 -17 4 -4 9 7 17 15 17 17 0 8 -8 3 -21 -13z"/>
<path d="M2539 4813 c-13 -16 -12 -17 4 -4 16 13 21 21 13 21 -2 0 -10 -8 -17
-17z"/>
<path d="M2449 4743 l-24 -28 28 24 c25 23 32 31 24 31 -2 0 -14 -12 -28 -27z"/>
<path d="M4110 4736 c0 -2 8 -10 18 -17 15 -13 16 -12 3 4 -13 16 -21 21 -21
13z"/>
<path d="M4560 4616 c0 -2 8 -10 18 -17 15 -13 16 -12 3 4 -13 16 -21 21 -21
13z"/>
<path d="M4280 4585 c13 -14 26 -25 28 -25 3 0 -5 11 -18 25 -13 14 -26 25
-28 25 -3 0 5 -11 18 -25z"/>
<path d="M4615 4570 c10 -11 20 -20 23 -20 3 0 -3 9 -13 20 -10 11 -20 20 -23
20 -3 0 3 -9 13 -20z"/>
<path d="M4670 4525 c13 -14 26 -25 28 -25 3 0 -5 11 -18 25 -13 14 -26 25
-28 25 -3 0 5 -11 18 -25z"/>
<path d="M4729 4476 c13 -16 51 -41 51 -33 0 2 -15 14 -32 27 -21 15 -28 17
-19 6z"/>
<path d="M4835 4390 c10 -11 20 -20 23 -20 3 0 -3 9 -13 20 -10 11 -20 20 -23
20 -3 0 3 -9 13 -20z"/>
<path d="M4923 4323 c9 -14 87 -77 87 -70 0 3 -21 22 -47 43 -26 21 -44 33
-40 27z"/>
<path d="M5030 4237 c0 -3 17 -17 37 -33 20 -15 33 -23 29 -16 -8 13 -66 56
-66 49z"/>
<path d="M5161 4127 c2 -1 15 -11 29 -22 l25 -20 -19 23 c-11 12 -24 22 -29
22 -6 0 -8 -1 -6 -3z"/>
<path d="M5420 3730 c-9 -6 -10 -10 -3 -10 6 0 15 5 18 10 8 12 4 12 -15 0z"/>
<path d="M5544 3664 c3 -8 2 -12 -4 -9 -17 11 -11 -12 8 -26 9 -7 14 -10 10
-5 -4 5 -1 15 7 23 8 8 15 20 15 26 0 7 -4 6 -10 -3 -6 -10 -10 -11 -10 -2 0
6 -5 12 -11 12 -6 0 -8 -7 -5 -16z"/>
<path d="M5055 2520 c-13 -6 -15 -9 -5 -9 8 0 22 4 30 9 18 12 2 12 -25 0z"/>
<path d="M4705 2395 c-39 -17 -21 -18 25 0 19 7 28 14 20 14 -8 0 -28 -6 -45
-14z"/>
</g>
</svg>
