<?xml version="1.0" encoding="UTF-8" standalone="no"?>
<!-- Created with Inkscape (http://www.inkscape.org/) -->

<svg
   xmlns:dc="http://purl.org/dc/elements/1.1/"
   xmlns:cc="http://creativecommons.org/ns#"
   xmlns:rdf="http://www.w3.org/1999/02/22-rdf-syntax-ns#"
   xmlns:svg="http://www.w3.org/2000/svg"
   xmlns="http://www.w3.org/2000/svg"
   xmlns:sodipodi="http://sodipodi.sourceforge.net/DTD/sodipodi-0.dtd"
   xmlns:inkscape="http://www.inkscape.org/namespaces/inkscape"
   width="16.933332mm"
   height="16.933332mm"
   viewBox="0 0 16.933332 16.933332"
   version="1.1"
   id="svg33916"
   inkscape:version="0.92.0 r15299"
   sodipodi:docname="S9_barcelona.svg">
  <defs
     id="defs33910" />
  <sodipodi:namedview
     id="base"
     pagecolor="#ffffff"
     bordercolor="#666666"
     borderopacity="1.0"
     inkscape:pageopacity="0.0"
     inkscape:pageshadow="2"
     inkscape:zoom="0.35"
     inkscape:cx="-463.7143"
     inkscape:cy="80.571391"
     inkscape:document-units="mm"
     inkscape:current-layer="layer1"
     showgrid="false"
     fit-margin-top="0"
     fit-margin-left="0"
     fit-margin-right="0"
     fit-margin-bottom="0"
     inkscape:window-width="1920"
     inkscape:window-height="1017"
     inkscape:window-x="-8"
     inkscape:window-y="-8"
     inkscape:window-maximized="1" />
  <metadata
     id="metadata33913">
    <rdf:RDF>
      <cc:Work
         rdf:about="">
        <dc:format>image/svg+xml</dc:format>
        <dc:type
           rdf:resource="http://purl.org/dc/dcmitype/StillImage" />
        <dc:title></dc:title>
      </cc:Work>
    </rdf:RDF>
  </metadata>
  <g
     inkscape:label="Capa 1"
     inkscape:groupmode="layer"
     id="layer1"
     transform="translate(-89.051194,-153.21785)">
    <g
       transform="matrix(2.7312753,0,0,2.7312797,634.76426,-612.83586)"
       id="g33896">
      <path
         inkscape:connector-curvature="0"
         id="path15220"
         d="m -199.80156,280.47428 h 6.19979 v 6.19978 h -6.19979 z m 0,0"
         style="fill:#e63f5e;fill-opacity:1;fill-rule:nonzero;stroke:none;stroke-width:0.35277775" />
      <path
         inkscape:connector-curvature="0"
         id="path15222"
         d="m -199.43776,284.12334 c -0.008,0.80476 0.66835,1.16166 1.39182,1.16166 0.88883,0 1.36012,-0.44785 1.36012,-1.04729 0,-0.7414 -0.73312,-0.89299 -0.97014,-0.95222 -0.81993,-0.21085 -0.97565,-0.24253 -0.97565,-0.49336 0,-0.27559 0.26596,-0.3707 0.49472,-0.3707 0.34313,0 0.62287,0.10061 0.64492,0.49336 h 0.69591 c 0,-0.75515 -0.62701,-1.05283 -1.30914,-1.05283 -0.5898,0 -1.22232,0.31972 -1.22232,0.98944 0,0.61186 0.49058,0.80063 0.97565,0.92879 0.48093,0.12817 0.97014,0.18743 0.97014,0.54021 0,0.33486 -0.38447,0.40651 -0.63665,0.40651 -0.38448,0 -0.72347,-0.16951 -0.72347,-0.60357 z m 0,0"
         style="fill:#ffffff;fill-opacity:1;fill-rule:nonzero;stroke:none;stroke-width:0.35277775" />
      <path
         inkscape:connector-curvature="0"
         id="path15224"
         d="m -195.10659,283.58175 c 0.0662,-0.0332 0.11989,-0.0785 0.16399,-0.13504 0.0441,-0.0565 0.0772,-0.12128 0.0992,-0.19569 0.022,-0.0744 0.0331,-0.15158 0.0331,-0.23427 0,-0.0744 -0.0124,-0.15018 -0.0358,-0.22324 -0.0234,-0.0744 -0.0579,-0.14055 -0.10335,-0.19982 -0.0455,-0.0578 -0.1006,-0.1047 -0.16674,-0.13917 -0.0662,-0.0346 -0.14056,-0.0523 -0.22462,-0.0523 -0.0786,0 -0.14883,0.018 -0.21222,0.0523 -0.062,0.0346 -0.11576,0.0799 -0.15848,0.1378 -0.0441,0.0565 -0.0772,0.12128 -0.0992,0.19293 -0.022,0.073 -0.0331,0.14609 -0.0331,0.22187 0,0.0799 0.01,0.15571 0.0303,0.23011 0.0207,0.0731 0.051,0.13921 0.0923,0.19844 0.04,0.0579 0.0923,0.10612 0.1571,0.14196 0.0648,0.0358 0.1378,0.0537 0.22324,0.0537 0.091,0 0.16812,-0.0166 0.23427,-0.0496 m -0.56362,1.08038 c 0.0786,0.0813 0.17501,0.12266 0.29077,0.12266 0.12264,0 0.22324,-0.0358 0.30041,-0.10612 0.0785,-0.0716 0.14194,-0.15846 0.18879,-0.26045 0.0468,-0.10199 0.0799,-0.21086 0.1006,-0.32798 0.0207,-0.11712 0.0331,-0.22049 0.04,-0.31143 l -0.01,-0.0109 c -0.091,0.13367 -0.19706,0.22736 -0.31971,0.28384 -0.12127,0.0565 -0.26182,0.0854 -0.42168,0.0854 -0.14056,0 -0.27836,-0.0303 -0.41341,-0.0923 -0.13505,-0.0606 -0.24805,-0.1433 -0.34313,-0.24804 -0.0868,-0.10061 -0.15158,-0.21635 -0.19155,-0.34452 -0.0413,-0.12954 -0.062,-0.26045 -0.062,-0.39275 0,-0.16947 0.0275,-0.32794 0.0827,-0.47402 0.0551,-0.14746 0.13367,-0.27425 0.23427,-0.38309 0.10197,-0.10886 0.22324,-0.19568 0.3638,-0.2577 0.14194,-0.0634 0.29766,-0.0951 0.46991,-0.0951 0.25081,0 0.45613,0.0496 0.61736,0.1488 0.16123,0.0992 0.29077,0.23016 0.38723,0.39275 0.0965,0.16259 0.16399,0.3459 0.20119,0.55121 0.0386,0.20395 0.0565,0.41067 0.0565,0.61874 0,0.20394 -0.0234,0.40929 -0.0703,0.61461 -0.0469,0.20394 -0.12127,0.38862 -0.22463,0.55534 -0.10335,0.16539 -0.23702,0.29905 -0.39962,0.40101 -0.16262,0.10198 -0.36105,0.15296 -0.59532,0.15296 -0.14194,0 -0.27285,-0.0194 -0.3955,-0.0579 -0.12126,-0.04 -0.22875,-0.0992 -0.32384,-0.17776 -0.0937,-0.0786 -0.16949,-0.17501 -0.22875,-0.28801 -0.0606,-0.11303 -0.0992,-0.24254 -0.11851,-0.38862 h 0.6339 c 0.022,0.11162 0.073,0.20669 0.1502,0.28938"
         style="fill:#ffffff;fill-opacity:1;fill-rule:nonzero;stroke:none;stroke-width:0.35277775" />
    </g>
  </g>
</svg>
