<?xml version="1.0" standalone="no"?>
<!DOCTYPE svg PUBLIC "-//W3C//DTD SVG 20010904//EN"
 "http://www.w3.org/TR/2001/REC-SVG-20010904/DTD/svg10.dtd">
<svg version="1.0" xmlns="http://www.w3.org/2000/svg"
 width="275.000000pt" height="183.000000pt" viewBox="0 0 275.000000 183.000000"
 preserveAspectRatio="xMidYMid meet">
<metadata>
Created by potrace 1.16, written by Peter Selinger 2001-2019
</metadata>
<g transform="translate(0.000000,183.000000) scale(0.100000,-0.100000)"
fill="#000000" stroke="none">
<path d="M2096 1439 c-10 -6 -55 -47 -100 -91 -196 -194 -346 -286 -703 -433
-51 -21 -93 -42 -93 -46 0 -14 56 -11 121 6 86 23 199 73 350 155 218 120 378
200 398 200 13 0 30 -19 51 -57 79 -139 226 -248 363 -268 39 -6 47 -5 47 9 0
9 -12 18 -27 22 -93 20 -146 57 -203 139 -33 48 -81 161 -111 264 -20 67 -47
112 -66 111 -5 0 -16 -5 -27 -11z"/>
<path d="M1586 820 c-30 -36 -33 -50 -11 -50 12 0 15 -15 15 -77 0 -43 3 -122
7 -175 6 -93 7 -98 29 -98 13 0 25 7 28 18 2 9 2 105 -2 212 -6 168 -9 195
-23 198 -9 2 -28 -11 -43 -28z"/>
<path d="M1777 822 c-11 -12 -17 -36 -17 -72 0 -29 -7 -100 -17 -159 -20 -133
-21 -153 -5 -158 20 -7 41 58 52 158 5 51 13 96 18 101 4 4 32 -23 61 -61 29
-38 74 -90 101 -115 41 -38 56 -46 87 -46 52 0 94 28 133 89 19 28 36 51 40
51 4 0 15 -29 24 -64 22 -80 50 -126 76 -126 26 0 26 1 -12 77 -28 56 -32 78
-39 181 -4 64 -8 118 -8 120 -4 9 -23 -1 -28 -15 -23 -67 -89 -193 -115 -220
-66 -68 -123 -33 -223 134 -26 45 -63 96 -80 113 -30 29 -32 30 -48 12z"/>
<path d="M2464 821 c-44 -27 -78 -78 -78 -117 0 -22 11 -46 32 -73 58 -73 58
-107 -1 -177 -31 -37 -33 -44 -11 -44 24 0 70 36 93 74 31 49 27 86 -14 139
-61 80 -62 91 -10 146 63 68 58 94 -11 52z"/>
<path d="M1335 818 c-114 -40 -168 -178 -116 -295 49 -106 223 -137 271 -49
20 38 5 47 -43 26 -65 -30 -107 -26 -145 13 -69 71 -64 192 10 237 42 25 78
25 130 -1 28 -14 44 -17 51 -10 17 17 -9 60 -48 77 -40 16 -68 17 -110 2z"/>
</g>
</svg>
