<?xml version="1.0" encoding="UTF-8"?>
<svg version="1.1" xmlns="http://www.w3.org/2000/svg" width="270" height="125">
<path d="M0 0 C89.1 0 178.2 0 270 0 C270 41.25 270 82.5 270 125 C180.9 125 91.8 125 0 125 C0 83.75 0 42.5 0 0 Z " fill="#FBFCFD" transform="translate(0,0)"/>
<path d="M0 0 C0.84498047 -0.00128906 1.68996094 -0.00257813 2.56054688 -0.00390625 C3.44935547 -0.00003906 4.33816406 0.00382813 5.25390625 0.0078125 C6.13884766 0.00394531 7.02378906 0.00007812 7.93554688 -0.00390625 C8.78181641 -0.00261719 9.62808594 -0.00132812 10.5 0 C11.27915771 0.00112793 12.05831543 0.00225586 12.86108398 0.00341797 C14.81640625 0.1328125 14.81640625 0.1328125 16.81640625 1.1328125 C17.52734375 3.09375 17.52734375 3.09375 18.19140625 5.5078125 C19.07853339 8.27898689 19.60230414 9.89577088 21.56640625 12.0703125 C24.56432649 13.48599706 27.60575391 14.33014942 30.81640625 15.1328125 C29.05211426 20.10490812 26.42248965 24.56719311 23.81640625 29.1328125 C23.17703125 28.8646875 22.53765625 28.5965625 21.87890625 28.3203125 C20.86828125 27.9284375 19.85765625 27.5365625 18.81640625 27.1328125 C18.14996094 26.86855469 17.48351562 26.60429688 16.796875 26.33203125 C8.28351788 23.1861147 1.5798186 23.13841005 -6.765625 26.890625 C-14.23918637 30.73003132 -18.58857099 34.86883353 -22.10546875 42.65625 C-24.85345558 51.51751187 -24.51785797 60.29206597 -20.62109375 68.7578125 C-16.31456963 76.22583197 -10.41757797 81.4405751 -1.953125 83.73828125 C1.45297343 84.22349414 4.57489056 83.88865616 8.00390625 83.6328125 C14.15058733 83.54844629 17.15254973 84.39288509 21.75390625 88.5078125 C25.81640625 92.66939787 25.81640625 92.66939787 25.81640625 95.1328125 C24.70265625 95.5659375 23.58890625 95.9990625 22.44140625 96.4453125 C18.64128291 97.83192369 18.64128291 97.83192369 16.81640625 101.1328125 C16.1377757 103.1287847 15.46998706 105.12849801 14.81640625 107.1328125 C12.7150924 109.23412635 8.27494303 108.31795991 5.37890625 108.3203125 C4.58935547 108.33255859 3.79980469 108.34480469 2.98632812 108.35742188 C0.9283319 108.36268529 -1.12921384 108.25487535 -3.18359375 108.1328125 C-5.91713612 105.39927013 -5.90938378 102.85496037 -6.5234375 99.12890625 C-6.85021484 98.14083984 -6.85021484 98.14083984 -7.18359375 97.1328125 C-11.20715072 95.79162684 -14.9721121 95.65719891 -19.18359375 96.1328125 C-20.5347258 97.10863009 -21.87306319 98.10310991 -23.18359375 99.1328125 C-28.77068783 97.95658217 -32.70859619 93.60781006 -36.62109375 89.6953125 C-38.18359375 87.1328125 -38.18359375 87.1328125 -37.99609375 83.8828125 C-37.18359375 81.1328125 -37.18359375 81.1328125 -36.18359375 80.1328125 C-35.67037351 75.98498331 -35.41382849 72.3516075 -37.68359375 68.7578125 C-40.91222684 66.53124043 -40.91222684 66.53124043 -48.18359375 64.1328125 C-48.18359375 57.8628125 -48.18359375 51.5928125 -48.18359375 45.1328125 C-39.43359375 41.1328125 -39.43359375 41.1328125 -37.18359375 41.1328125 C-35.99967676 37.43307191 -35.90773621 33.99481812 -36.18359375 30.1328125 C-37.17091117 28.79006081 -38.16954118 27.45548977 -39.18359375 26.1328125 C-38.83592656 22.09452432 -37.57620318 19.96200053 -34.87109375 17.0078125 C-33.97970703 16.01394531 -33.97970703 16.01394531 -33.0703125 15 C-31.19807474 13.14714358 -29.39719421 11.56224276 -27.18359375 10.1328125 C-23.67748696 10.3893569 -22.15570365 11.1514059 -19.18359375 13.1328125 C-15.55703093 13.60584243 -13.70814383 13.42558464 -10.49609375 11.6328125 C-7.88877165 8.81408591 -6.91314838 6.44810289 -5.76171875 2.83984375 C-4.6561882 -0.4244593 -3.20984924 0.0046534 0 0 Z " fill="#024590" transform="translate(53.18359375,7.8671875)"/>
<path d="M0 0 C0 1.65 0 3.3 0 5 C-0.99 5 -1.98 5 -3 5 C-3 11.6 -3 18.2 -3 25 C-2.01 25 -1.02 25 0 25 C0 34.57 0 44.14 0 54 C-1.98 53.34 -3.96 52.68 -6 52 C-4.02 52.99 -2.04 53.98 0 55 C0 56.32 0 57.64 0 59 C-3.50032472 57.66242344 -6.77506527 56.12951464 -10.0703125 54.34765625 C-11.52606689 53.56165039 -11.52606689 53.56165039 -13.01123047 52.75976562 C-17.28940252 50.42780294 -21.56563158 48.09257427 -25.83398438 45.74267578 C-27.86945214 44.62228953 -29.90704622 43.50575298 -31.94726562 42.39404297 C-34.59895051 40.94509322 -37.23847804 39.47631844 -39.875 38 C-41.06826904 37.35236694 -41.06826904 37.35236694 -42.28564453 36.69165039 C-47.61791362 33.66090616 -47.61791362 33.66090616 -49.4453125 30.5 C-49.62835938 29.675 -49.81140625 28.85 -50 28 C-50.226875 27.18789062 -50.45375 26.37578125 -50.6875 25.5390625 C-51.05629534 22.54260039 -50.71062322 20.30632076 -50 17.375 C-49.79375 16.43398438 -49.5875 15.49296875 -49.375 14.5234375 C-47.20523986 10.54143451 -43.13651968 9.63982163 -38.97085571 8.39233398 C-36.77529905 7.80740563 -34.573442 7.26530146 -32.36328125 6.73828125 C-31.16048775 6.44500191 -31.16048775 6.44500191 -29.93339539 6.14579773 C-28.25082845 5.73705972 -26.56752961 5.33132389 -24.88354492 4.9284668 C-22.30769212 4.31134814 -19.73483588 3.68274484 -17.16210938 3.05273438 C-15.52099848 2.65556699 -13.87972773 2.25905942 -12.23828125 1.86328125 C-11.47155594 1.6758284 -10.70483063 1.48837555 -9.91487122 1.29524231 C-6.48196844 0.47988426 -3.55110041 0 0 0 Z " fill="#024590" transform="translate(94,40)"/>
<path d="M0 0 C0.8971875 0.309375 0.8971875 0.309375 1.8125 0.625 C1.1525 1.285 0.4925 1.945 -0.1875 2.625 C0.4725 2.955 1.1325 3.285 1.8125 3.625 C1.83933987 6.60422593 1.85926037 9.58321295 1.875 12.5625 C1.88337891 13.41263672 1.89175781 14.26277344 1.90039062 15.13867188 C1.90361328 15.94755859 1.90683594 16.75644531 1.91015625 17.58984375 C1.91539307 18.3387085 1.92062988 19.08757324 1.92602539 19.85913086 C1.8125 21.625 1.8125 21.625 0.8125 22.625 C2.1442627 23.29088135 2.1442627 23.29088135 3.50292969 23.97021484 C19.15771484 31.79760742 19.15771484 31.79760742 34.8125 39.625 C34.8125 40.285 34.8125 40.945 34.8125 41.625 C37.46478812 42.70025194 40.09618454 43.71956151 42.8125 44.625 C42.8125 45.945 42.8125 47.265 42.8125 48.625 C39.31217528 47.28742344 36.03743473 45.75451464 32.7421875 43.97265625 C31.28643311 43.18665039 31.28643311 43.18665039 29.80126953 42.38476562 C25.52309748 40.05280294 21.24686842 37.71757427 16.97851562 35.36767578 C14.94304786 34.24728953 12.90545378 33.13075298 10.86523438 32.01904297 C8.21354949 30.57009322 5.57402196 29.10131844 2.9375 27.625 C1.74423096 26.97736694 1.74423096 26.97736694 0.52685547 26.31665039 C-4.80541362 23.28590616 -4.80541362 23.28590616 -6.6328125 20.125 C-6.81585938 19.3 -6.99890625 18.475 -7.1875 17.625 C-7.41953125 16.81417969 -7.6515625 16.00335938 -7.890625 15.16796875 C-8.24827411 12.10442174 -7.76270683 9.90258139 -6.9375 6.9375 C-6.68484375 5.98488281 -6.4321875 5.03226563 -6.171875 4.05078125 C-4.89001762 0.89191842 -3.54075538 -0.60698664 0 0 Z " fill="#0E64A2" transform="translate(51.1875,50.375)"/>
<path d="M0 0 C1.32 0 2.64 0 4 0 C4 7.92 4 15.84 4 24 C2.081875 24.226875 0.16375 24.45375 -1.8125 24.6875 C-2.89144531 24.81511719 -3.97039062 24.94273438 -5.08203125 25.07421875 C-8 25 -8 25 -9.86328125 23.89453125 C-11.47549527 21.20750789 -11.39789965 19.11435179 -11.375 16 C-11.38273437 14.948125 -11.39046875 13.89625 -11.3984375 12.8125 C-11 10 -11 10 -9.73828125 8.13671875 C-6.63087765 6.10468628 -3.62078923 6.8219284 0 7 C0 4.69 0 2.38 0 0 Z " fill="#044791" transform="translate(115,67)"/>
<path d="M0 0 C1.65 0 3.3 0 5 0 C6.4765625 1.5390625 6.4765625 1.5390625 7.625 3.625 C8.00914062 4.29789062 8.39328125 4.97078125 8.7890625 5.6640625 C10.22178407 8.42782863 11.60780071 11.21560142 13 14 C13.33 9.38 13.66 4.76 14 0 C15.32 0 16.64 0 18 0 C18 7.59 18 15.18 18 23 C16.35 23 14.7 23 13 23 C9 16 9 16 5 9 C4.67 13.62 4.34 18.24 4 23 C2.68 23 1.36 23 0 23 C0 15.41 0 7.82 0 0 Z " fill="#054992" transform="translate(149,69)"/>
<path d="M0 0 C2.35499617 0 4.71190524 -0.04358604 7.0625 -0.1875 C10 0 10 0 11.671875 1.03125 C13.71464248 4.05935237 13.31549205 7.17264134 13.1875 10.6875 C13.16719727 11.7403418 13.16719727 11.7403418 13.14648438 12.81445312 C13.11120182 14.54329829 13.05739583 16.27174765 13 18 C11.68 18 10.36 18 9 18 C9 13.38 9 8.76 9 4 C7.02 4 5.04 4 3 4 C3 8.62 3 13.24 3 18 C1.68 18 0.36 18 -1 18 C-1 13.38 -1 8.76 -1 4 C-2.98 4 -4.96 4 -7 4 C-7 8.62 -7 13.24 -7 18 C-8.32 18 -9.64 18 -11 18 C-11 12.39 -11 6.78 -11 1 C-6.95113846 0.32518974 -3.95322461 -0.10403223 0 0 Z " fill="#0B5E9E" transform="translate(165,45)"/>
<path d="M0 0 C4.0743356 0.84881992 5.54405875 2.30225596 8 5.625 C8.3125 8.9375 8.3125 8.9375 8 11.625 C4.37 11.625 0.74 11.625 -3 11.625 C-2.67 12.615 -2.34 13.605 -2 14.625 C0.97 14.955 3.94 15.285 7 15.625 C7 16.615 7 17.605 7 18.625 C5.06372231 18.73307131 3.12572244 18.8106225 1.1875 18.875 C-0.43091797 18.94460937 -0.43091797 18.94460937 -2.08203125 19.015625 C-5 18.625 -5 18.625 -6.85546875 16.88671875 C-8.75459446 13.13383893 -8.77277062 9.72214235 -8 5.625 C-5.56887157 2.12131491 -4.17862962 0.87054784 0 0 Z " fill="#145298" transform="translate(225,44.375)"/>
<path d="M0 0 C4.0743356 0.84881992 5.54405875 2.30225596 8 5.625 C8.3125 8.9375 8.3125 8.9375 8 11.625 C4.37 11.625 0.74 11.625 -3 11.625 C-2.67 12.615 -2.34 13.605 -2 14.625 C0.97 14.955 3.94 15.285 7 15.625 C7 16.615 7 17.605 7 18.625 C5.06440687 18.76004138 3.126128 18.85701129 1.1875 18.9375 C-0.43091797 19.02451172 -0.43091797 19.02451172 -2.08203125 19.11328125 C-5 18.625 -5 18.625 -6.85546875 16.35546875 C-8.4324946 12.59321255 -8.85591462 9.63003447 -8 5.625 C-5.56226471 2.18349135 -4.14182881 0.862881 0 0 Z " fill="#2867A4" transform="translate(142,44.375)"/>
<path d="M0 0 C1.41569064 -0.08167446 2.83276805 -0.13949698 4.25 -0.1875 C5.43335938 -0.23970703 5.43335938 -0.23970703 6.640625 -0.29296875 C9.73540261 0.09131655 10.93644413 0.63629055 13 3 C13.29642569 5.71229503 13.38061189 7.99739732 13.25 10.6875 C13.23195313 11.38939453 13.21390625 12.09128906 13.1953125 12.81445312 C13.14826213 14.54355436 13.07651873 16.27195205 13 18 C10.87527424 18.05386629 8.75016348 18.09273071 6.625 18.125 C5.44164062 18.14820312 4.25828125 18.17140625 3.0390625 18.1953125 C0 18 0 18 -2 16 C-2.25 13 -2.25 13 -2 10 C0 8 0 8 2.1640625 7.8046875 C3.38222656 7.83949219 3.38222656 7.83949219 4.625 7.875 C5.85089844 7.90207031 5.85089844 7.90207031 7.1015625 7.9296875 C8.04128906 7.96449219 8.04128906 7.96449219 9 8 C8.67 7.01 8.34 6.02 8 5 C5.03 4.67 2.06 4.34 -1 4 C-0.67 2.68 -0.34 1.36 0 0 Z " fill="#0F5297" transform="translate(250,45)"/>
<path d="M0 0 C1.41569064 -0.08167446 2.83276805 -0.13949698 4.25 -0.1875 C5.43335938 -0.23970703 5.43335938 -0.23970703 6.640625 -0.29296875 C9.73540261 0.09131655 10.93644413 0.63629055 13 3 C13.29642569 5.71229503 13.38061189 7.99739732 13.25 10.6875 C13.23195312 11.38939453 13.21390625 12.09128906 13.1953125 12.81445312 C13.14826213 14.54355436 13.07651873 16.27195205 13 18 C10.87527424 18.05386629 8.75016348 18.09273071 6.625 18.125 C5.44164062 18.14820312 4.25828125 18.17140625 3.0390625 18.1953125 C0 18 0 18 -2 16 C-2.25 13 -2.25 13 -2 10 C0 8 0 8 2.1640625 7.8046875 C3.38222656 7.83949219 3.38222656 7.83949219 4.625 7.875 C5.85089844 7.90207031 5.85089844 7.90207031 7.1015625 7.9296875 C8.04128906 7.96449219 8.04128906 7.96449219 9 8 C8.67 7.01 8.34 6.02 8 5 C5.03 4.67 2.06 4.34 -1 4 C-0.67 2.68 -0.34 1.36 0 0 Z " fill="#044A93" transform="translate(183,45)"/>
<path d="M0 0 C1.60332791 -0.08121924 3.20784026 -0.13929134 4.8125 -0.1875 C6.15248047 -0.23970703 6.15248047 -0.23970703 7.51953125 -0.29296875 C10 0 10 0 11.8125 1.03125 C13.6607518 4.09545693 13.31355351 7.22587659 13.1875 10.6875 C13.17396484 11.38939453 13.16042969 12.09128906 13.14648438 12.81445312 C13.11120182 14.54329829 13.05739583 16.27174765 13 18 C10.87561661 18.08078641 8.7503677 18.13909141 6.625 18.1875 C5.44164062 18.22230469 4.25828125 18.25710937 3.0390625 18.29296875 C1.53472656 18.14794922 1.53472656 18.14794922 0 18 C-2.15502531 14.76746204 -2.46856135 13.74849077 -2 10 C-0.9375 8.1875 -0.9375 8.1875 1 7 C4.6875 6.8125 4.6875 6.8125 8 7 C8 5.68 8 4.36 8 3 C5.36 3 2.72 3 0 3 C0 2.01 0 1.02 0 0 Z " fill="#1B5599" transform="translate(214,74)"/>
<path d="M0 0 C2.5 2.1875 2.5 2.1875 4 5 C4 6.65 4 8.3 4 10 C0.04 10 -3.92 10 -8 10 C-7.34 11.32 -6.68 12.64 -6 14 C-3.81458448 14.6993514 -3.81458448 14.6993514 -1.375 14.75 C-0.14910156 14.83507812 -0.14910156 14.83507812 1.1015625 14.921875 C1.72804687 14.94765625 2.35453125 14.9734375 3 15 C3 15.99 3 16.98 3 18 C-6.80989656 18.60889013 -6.80989656 18.60889013 -10.6875 16.625 C-12.76292656 12.47414688 -12.7238133 8.53891258 -12 4 C-9.317803 -0.69384475 -4.9945044 -1.18721826 0 0 Z " fill="#034590" transform="translate(135,74)"/>
<path d="M0 0 C1.32 0 2.64 0 4 0 C4.33 4.62 4.66 9.24 5 14 C6.98 14 8.96 14 11 14 C11 9.38 11 4.76 11 0 C12.32 0 13.64 0 15 0 C15 5.94 15 11.88 15 18 C5.0390625 18.1953125 5.0390625 18.1953125 2 18 C0 16 0 16 -0.1953125 12.3046875 C-0.182009 10.82799892 -0.15814835 9.35137642 -0.125 7.875 C-0.11146484 6.74384766 -0.11146484 6.74384766 -0.09765625 5.58984375 C-0.0740687 3.72642746 -0.03819719 1.86317407 0 0 Z " fill="#064992" transform="translate(172,74)"/>
<path d="M0 0 C0 5.28 0 10.56 0 16 C-3.63 16 -7.26 16 -11 16 C-11 11.38 -11 6.76 -11 2 C-2.25 0 -2.25 0 0 0 Z " fill="#EAF0F6" transform="translate(80,48)"/>
<path d="M0 0 C1.47726563 0.05414063 1.47726563 0.05414063 2.984375 0.109375 C3.73203125 0.15578125 4.4796875 0.2021875 5.25 0.25 C5.25 1.24 5.25 2.23 5.25 3.25 C3.97125 3.37375 2.6925 3.4975 1.375 3.625 C-2.09790936 3.94042399 -2.09790936 3.94042399 -4.75 6.25 C-5.06923475 8.58560151 -5.06923475 8.58560151 -5 11.1875 C-5.00515625 12.06277344 -5.0103125 12.93804687 -5.015625 13.83984375 C-4.90833837 16.51105634 -4.90833837 16.51105634 -2.75 19.25 C-0.78638136 19.82748803 -0.78638136 19.82748803 1.375 19.9375 C2.65375 20.040625 3.9325 20.14375 5.25 20.25 C5.25 21.24 5.25 22.23 5.25 23.25 C3.50215533 23.38560864 1.75126074 23.48227209 0 23.5625 C-0.97453125 23.62050781 -1.9490625 23.67851563 -2.953125 23.73828125 C-5.75 23.25 -5.75 23.25 -8.078125 21.171875 C-10.11984108 17.60364223 -10.28502155 15.28064365 -10.25 11.1875 C-10.2603125 9.97964844 -10.270625 8.77179687 -10.28125 7.52734375 C-9.75 4.25 -9.75 4.25 -8.078125 1.83203125 C-5.16025186 -0.15075167 -3.49356948 -0.16636045 0 0 Z " fill="#03438F" transform="translate(113.75,39.75)"/>
<path d="M0 0 C1.65 0 3.3 0 5 0 C5 7.92 5 15.84 5 24 C3.35 24 1.7 24 0 24 C0 16.08 0 8.16 0 0 Z " fill="#16559A" transform="translate(200,39)"/>
<path d="M0 0 C3.3 0 6.6 0 10 0 C10 1.32 10 2.64 10 4 C8.35 4 6.7 4 5 4 C5 8.62 5 13.24 5 18 C3.35 18 1.7 18 0 18 C0 12.06 0 6.12 0 0 Z " fill="#2B63A1" transform="translate(191,74)"/>
<path d="M0 0 C1.98 0.99 1.98 0.99 4 2 C4 2.66 4 3.32 4 4 C7.3 3.67 10.6 3.34 14 3 C14 3.99 14 4.98 14 6 C10.7 6 7.4 6 4 6 C4.66 7.32 5.32 8.64 6 10 C8.18541552 10.6993514 8.18541552 10.6993514 10.625 10.75 C11.85089844 10.83507812 11.85089844 10.83507812 13.1015625 10.921875 C13.72804687 10.94765625 14.35453125 10.9734375 15 11 C15 11.99 15 12.98 15 14 C5.19010344 14.60889013 5.19010344 14.60889013 1.3125 12.625 C-0.73428103 8.53143795 -0.3084768 4.49005117 0 0 Z " fill="#094B94" transform="translate(123,78)"/>
<path d="M0 0 C5.9290797 1.69827911 11.22037453 4.51769655 16.6875 7.3125 C24.04821766 11.06172209 31.45218653 14.64123677 39 18 C39 19.32 39 20.64 39 22 C35.38278476 20.6234906 32.01540031 19.01467702 28.61328125 17.171875 C27.59169922 16.61886719 26.57011719 16.06585938 25.51757812 15.49609375 C24.45990234 14.91988281 23.40222656 14.34367187 22.3125 13.75 C21.27416016 13.18925781 20.23582031 12.62851563 19.16601562 12.05078125 C5.13742289 4.434003 5.13742289 4.434003 0 1 C0 0.67 0 0.34 0 0 Z " fill="#0C4D94" transform="translate(55,77)"/>
<path d="M0 0 C1.32 0 2.64 0 4 0 C4 7.92 4 15.84 4 24 C2.68 24 1.36 24 0 24 C0 16.08 0 8.16 0 0 Z " fill="#00438F" transform="translate(209,39)"/>
<path d="M0 0 C1.4370809 -0.05422947 2.87475462 -0.09289723 4.3125 -0.125 C5.11300781 -0.14820313 5.91351563 -0.17140625 6.73828125 -0.1953125 C9 0 9 0 12 2 C12.22137393 4.62697064 12.28162025 7.00893964 12.1875 9.625 C12.17396484 10.33140625 12.16042969 11.0378125 12.14648438 11.765625 C12.1111104 13.51074128 12.05730221 15.25546608 12 17 C11.01 16.34 10.02 15.68 9 15 C8.8125 12.375 8.8125 12.375 9 10 C7.35 10 5.7 10 4 10 C4 9.34 4 8.68 4 8 C5.65 8 7.3 8 9 8 C8.67 7.01 8.34 6.02 8 5 C5.03 4.67 2.06 4.34 -1 4 C-0.67 2.68 -0.34 1.36 0 0 Z " fill="#195A9C" transform="translate(250,45)"/>
<path d="M0 0 C0 1.32 0 2.64 0 4 C-1.65 4.33 -3.3 4.66 -5 5 C-5.33 9.29 -5.66 13.58 -6 18 C-7.32 18 -8.64 18 -10 18 C-10 12.39 -10 6.78 -10 1 C-4 0 -4 0 0 0 Z " fill="#014C94" transform="translate(247,45)"/>
<path d="M0 0 C0 1.32 0 2.64 0 4 C-1.65 4.33 -3.3 4.66 -5 5 C-5.33 9.29 -5.66 13.58 -6 18 C-7.32 18 -8.64 18 -10 18 C-10 12.39 -10 6.78 -10 1 C-4 0 -4 0 0 0 Z " fill="#064A93" transform="translate(133,45)"/>
<path d="M0 0 C0 1.32 0 2.64 0 4 C-4.09252102 5.14259358 -8.18595462 6.28183875 -12.28027344 7.41796875 C-13.67343402 7.80506605 -15.06633951 8.19308264 -16.45898438 8.58203125 C-18.45897379 9.14043285 -20.45985258 9.69553894 -22.4609375 10.25 C-23.66540527 10.58515625 -24.86987305 10.9203125 -26.11083984 11.265625 C-29 12 -29 12 -31 12 C-31 11.34 -31 10.68 -31 10 C-27.48064771 8.70427326 -23.95926349 7.41415725 -20.4375 6.125 C-19.44685547 5.76019531 -18.45621094 5.39539062 -17.43554688 5.01953125 C-3.70028409 0 -3.70028409 0 0 0 Z " fill="#074891" transform="translate(94,34)"/>
<path d="M0 0 C2.1640625 0.0234375 2.1640625 0.0234375 4.625 0.375 C5.85089844 0.54128906 5.85089844 0.54128906 7.1015625 0.7109375 C7.72804687 0.80632813 8.35453125 0.90171875 9 1 C9 2.98 9 4.96 9 7 C4.545 8.485 4.545 8.485 0 10 C-2 8 -2 8 -2.25 5 C-2 2 -2 2 0 0 Z " fill="#115499" transform="translate(183,53)"/>
<path d="M0 0 C5.40983607 -0.36065574 5.40983607 -0.36065574 7.6875 1.03125 C9.708874 4.063311 9.31526465 7.17888614 9.1875 10.6875 C9.17396484 11.38939453 9.16042969 12.09128906 9.14648438 12.81445312 C9.11120182 14.54329829 9.05739583 16.27174765 9 18 C7.68 18 6.36 18 5 18 C4.67 13.38 4.34 8.76 4 4 C2.68 3.67 1.36 3.34 0 3 C0 2.01 0 1.02 0 0 Z " fill="#145197" transform="translate(169,45)"/>
<path d="M0 0 C2.97 0 5.94 0 9 0 C9 0.66 9 1.32 9 2 C7.35 2.33 5.7 2.66 4 3 C4 7.62 4 12.24 4 17 C2.68 17 1.36 17 0 17 C0 11.39 0 5.78 0 0 Z " fill="#01448F" transform="translate(154,46)"/>
<path d="M0 0 C1.4540625 0.0309375 1.4540625 0.0309375 2.9375 0.0625 C2.9375 3.6925 2.9375 7.3225 2.9375 11.0625 C1.2875 11.3925 -0.3625 11.7225 -2.0625 12.0625 C-4.0625 10.0625 -4.0625 10.0625 -4.29296875 7.93359375 C-4.27169922 6.72896484 -4.27169922 6.72896484 -4.25 5.5 C-4.24355469 4.69433594 -4.23710938 3.88867188 -4.23046875 3.05859375 C-3.95251882 -0.24448563 -3.39650266 0.06931638 0 0 Z " fill="#ECF1F6" transform="translate(112.0625,76.9375)"/>
<path d="M0 0 C2.875 2.1875 2.875 2.1875 5 5 C5 6.65 5 8.3 5 10 C1.04 10 -2.92 10 -7 10 C-7 9.34 -7 8.68 -7 8 C-4.36 8 -1.72 8 1 8 C0.36020151 5.96758273 0.36020151 5.96758273 -1 4 C-3.55519921 3.18828772 -3.55519921 3.18828772 -6 3 C-6.99 4.32 -7.98 5.64 -9 7 C-9.33 5.68 -9.66 4.36 -10 3 C-6.70681908 -0.03985931 -4.44506654 -0.72572515 0 0 Z " fill="#044791" transform="translate(145,45)"/>
<path d="M0 0 C1.32 0 2.64 0 4 0 C4.03738281 0.96421875 4.07476562 1.9284375 4.11328125 2.921875 C4.17902344 4.18515625 4.24476563 5.4484375 4.3125 6.75 C4.37050781 8.00296875 4.42851562 9.2559375 4.48828125 10.546875 C5.00455901 14.03076463 5.6253256 15.47889796 8 18 C5.125 18.125 5.125 18.125 2 18 C0 16 0 16 -0.1953125 12.3046875 C-0.182009 10.82799892 -0.15814835 9.35137642 -0.125 7.875 C-0.11146484 6.74384766 -0.11146484 6.74384766 -0.09765625 5.58984375 C-0.0740687 3.72642746 -0.03819719 1.86317407 0 0 Z " fill="#2364A2" transform="translate(172,74)"/>
<path d="M0 0 C1.32 0 2.64 0 4 0 C4 5.94 4 11.88 4 18 C2.68 18 1.36 18 0 18 C0 12.06 0 6.12 0 0 Z " fill="#165398" transform="translate(204,74)"/>
<path d="M0 0 C0 3.63 0 7.26 0 11 C-2.31 11 -4.62 11 -7 11 C-7 8.03 -7 5.06 -7 2 C-1.125 0 -1.125 0 0 0 Z " fill="#FCFDFD" transform="translate(62,52)"/>
<path d="M0 0 C1.15113281 0.54527344 2.30226562 1.09054688 3.48828125 1.65234375 C4.62934326 2.19266235 4.62934326 2.19266235 5.79345703 2.74389648 C7.48622381 3.54598378 9.17860096 4.34889383 10.87060547 5.15258789 C15.39067211 7.29813625 19.91654569 9.42921883 24.45703125 11.53125 C25.32352295 11.93480713 26.19001465 12.33836426 27.08276367 12.75415039 C28.7589872 13.53439196 30.43749873 14.30973946 32.1184082 15.07983398 C32.87597412 15.43376221 33.63354004 15.78769043 34.4140625 16.15234375 C35.0838916 16.46163818 35.7537207 16.77093262 36.44384766 17.08959961 C38 18 38 18 39 20 C35.11978359 19.39263512 32.09754809 18.21421331 28.61328125 16.41796875 C27.59169922 15.89783203 26.57011719 15.37769531 25.51757812 14.84179688 C24.45990234 14.29587891 23.40222656 13.74996094 22.3125 13.1875 C14.99159438 9.42025558 7.71524334 5.89093506 0 3 C0 2.01 0 1.02 0 0 Z " fill="#BDD1E2" transform="translate(47,71)"/>
<path d="M0 0 C2.1640625 0.0234375 2.1640625 0.0234375 4.625 0.375 C5.85089844 0.54128906 5.85089844 0.54128906 7.1015625 0.7109375 C7.72804687 0.80632812 8.35453125 0.90171875 9 1 C9 1.33 9 1.66 9 2 C7.02 2.33 5.04 2.66 3 3 C3 3.99 3 4.98 3 6 C5.64 5.67 8.28 5.34 11 5 C11 5.99 11 6.98 11 8 C7.36733941 10.32490278 4.23998354 10.39259107 0 10 C-2.14915785 6.77626323 -2.38286803 5.73296326 -2 2 C-1.34 1.34 -0.68 0.68 0 0 Z " fill="#075197" transform="translate(214,82)"/>
<path d="M0 0 C1.65 0 3.3 0 5 0 C5 5.61 5 11.22 5 17 C4.01 16.67 3.02 16.34 2 16 C2 13.03 2 10.06 2 7 C1.01 7 0.02 7 -1 7 C-0.67 4.69 -0.34 2.38 0 0 Z " fill="#F5F7FA" transform="translate(47,55)"/>
<path d="M0 0 C2.875 2.25 2.875 2.25 5 5 C5 6.32 5 7.64 5 9 C1.7 9 -1.6 9 -5 9 C-5 8.67 -5 8.34 -5 8 C-3.02 8 -1.04 8 1 8 C0.36020151 5.96758273 0.36020151 5.96758273 -1 4 C-3.95411203 2.91164294 -5.37831087 2.74796387 -8.3125 3.9375 C-8.869375 4.288125 -9.42625 4.63875 -10 5 C-7.72128672 -0.04572227 -5.53761719 -0.65148438 0 0 Z " fill="#054B93" transform="translate(228,45)"/>
<path d="M0 0 C3.96 0 7.92 0 12 0 C12 0.33 12 0.66 12 1 C8.37 1 4.74 1 1 1 C1.33 1.99 1.66 2.98 2 4 C4.97 4.33 7.94 4.66 11 5 C11 5.99 11 6.98 11 8 C7.04 8 3.08 8 -1 8 C-1.66 6.68 -2.32 5.36 -3 4 C-2.01 3.67 -1.02 3.34 0 3 C0 2.01 0 1.02 0 0 Z " fill="#2D6CA7" transform="translate(221,55)"/>
<path d="M0 0 C1.62490954 -0.02698189 3.24994633 -0.04638757 4.875 -0.0625 C5.77992188 -0.07410156 6.68484375 -0.08570312 7.6171875 -0.09765625 C10 0 10 0 12 1 C11.34 3.31 10.68 5.62 10 8 C7.03 8 4.06 8 1 8 C1 7.67 1 7.34 1 7 C3.31 7 5.62 7 8 7 C8 5.68 8 4.36 8 3 C5.36 3 2.72 3 0 3 C0 2.01 0 1.02 0 0 Z " fill="#12579A" transform="translate(214,74)"/>
<path d="M0 0 C1.43655854 -0.08131463 2.8744483 -0.13933559 4.3125 -0.1875 C5.51326172 -0.23970703 5.51326172 -0.23970703 6.73828125 -0.29296875 C9.47851584 0.06198392 10.29171079 0.89366282 12 3 C11.01 4.485 11.01 4.485 10 6 C9.34 5.67 8.68 5.34 8 5 C6.46331135 4.77532169 4.92031946 4.59203195 3.375 4.4375 C2.55773437 4.35371094 1.74046875 4.26992188 0.8984375 4.18359375 C0.27195313 4.12300781 -0.35453125 4.06242187 -1 4 C-0.67 2.68 -0.34 1.36 0 0 Z " fill="#195B9C" transform="translate(183,45)"/>
<path d="M0 0 C2.19510603 0.25361783 4.38228739 0.57765908 6.5625 0.9375 C8.35880859 1.22947266 8.35880859 1.22947266 10.19140625 1.52734375 C11.11824219 1.68332031 12.04507813 1.83929688 13 2 C13 2.99 13 3.98 13 5 C9.04 5 5.08 5 1 5 C0.34 3.68 -0.32 2.36 -1 1 C-0.67 0.67 -0.34 0.34 0 0 Z " fill="#074E95" transform="translate(136,58)"/>
<path d="M0 0 C0.66 0 1.32 0 2 0 C2 0.66 2 1.32 2 2 C5.3 1.67 8.6 1.34 12 1 C12 1.99 12 2.98 12 4 C8.7 4 5.4 4 2 4 C2 5.32 2 6.64 2 8 C1.01 7.67 0.02 7.34 -1 7 C-1.04254356 5.00045254 -1.04080783 2.99958364 -1 1 C-0.67 0.67 -0.34 0.34 0 0 Z " fill="#003E8C" transform="translate(125,80)"/>
<path d="M0 0 C0.33 0 0.66 0 1 0 C1 4.62 1 9.24 1 14 C0.01 13.34 -0.98 12.68 -2 12 C-2.1875 9.375 -2.1875 9.375 -2 7 C-3.65 7 -5.3 7 -7 7 C-7 6.34 -7 5.68 -7 5 C-5.35 5 -3.7 5 -2 5 C-1.67 4.01 -1.34 3.02 -1 2 C-0.67 1.34 -0.34 0.68 0 0 Z " fill="#003D8B" transform="translate(261,48)"/>
<path d="M0 0 C0.99 0.33 1.98 0.66 3 1 C3 5.29 3 9.58 3 14 C2.01 14 1.02 14 0 14 C0 9.38 0 4.76 0 0 Z " fill="#003D8B" transform="translate(164,49)"/>
<path d="M0 0 C-0.99 1.485 -0.99 1.485 -2 3 C-1.34 3.33 -0.68 3.66 0 4 C-1.98 4.33 -3.96 4.66 -6 5 C-6 7.97 -6 10.94 -6 14 C-6.33 14 -6.66 14 -7 14 C-6.98839844 13.15695313 -6.97679687 12.31390625 -6.96484375 11.4453125 C-6.95582031 10.34960938 -6.94679687 9.25390625 -6.9375 8.125 C-6.92589844 7.03445312 -6.91429687 5.94390625 -6.90234375 4.8203125 C-6.80255697 2.04822454 -6.80255697 2.04822454 -8 0 C-4.94736336 -0.98120464 -3.05263664 -0.98120464 0 0 Z " fill="#2465A2" transform="translate(61,49)"/>
<path d="M0 0 C0.99 0 1.98 0 3 0 C3 3.96 3 7.92 3 12 C2.01 12.33 1.02 12.66 0 13 C0 8.71 0 4.42 0 0 Z " fill="#003D8B" transform="translate(172,74)"/>
<path d="M0 0 C1.32 0 2.64 0 4 0 C4.33 2.97 4.66 5.94 5 9 C2.5625 8.25 2.5625 8.25 0 7 C-1.32284898 4.07083439 -1.04059132 3.12177395 0 0 Z " fill="#064791" transform="translate(45,63)"/>
<path d="M0 0 C1.98 0 3.96 0 6 0 C6 1.65 6 3.3 6 5 C3.69 5 1.38 5 -1 5 C-0.67 3.35 -0.34 1.7 0 0 Z " fill="#D9E5EF" transform="translate(253,55)"/>
<path d="M0 0 C1.98 0 3.96 0 6 0 C6 1.65 6 3.3 6 5 C3.69 5 1.38 5 -1 5 C-0.67 3.35 -0.34 1.7 0 0 Z " fill="#DAE5EF" transform="translate(186,55)"/>
<path d="M0 0 C0.33 0.66 0.66 1.32 1 2 C-4.61 3.32 -10.22 4.64 -16 6 C-16 5.34 -16 4.68 -16 4 C-13.71144298 3.13656269 -11.4198072 2.2840189 -9.125 1.4375 C-8.47402344 1.19064453 -7.82304688 0.94378906 -7.15234375 0.68945312 C-2.2265625 -1.11328125 -2.2265625 -1.11328125 0 0 Z " fill="#1A5C9D" transform="translate(79,40)"/>
<path d="M0 0 C1.4540625 0.0309375 1.4540625 0.0309375 2.9375 0.0625 C2.6075 1.7125 2.2775 3.3625 1.9375 5.0625 C0.2875 5.0625 -1.3625 5.0625 -3.0625 5.0625 C-3.625 3.125 -3.625 3.125 -4.0625 1.0625 C-3.0625 0.0625 -3.0625 0.0625 0 0 Z " fill="#E5ECF3" transform="translate(220.0625,83.9375)"/>
<path d="M0 0 C2.97 0 5.94 0 9 0 C9 1.32 9 2.64 9 4 C3.25 5.125 3.25 5.125 1 4 C0.67 2.68 0.34 1.36 0 0 Z " fill="#0A4C94" transform="translate(192,74)"/>
<path d="M0 0 C0.33 0 0.66 0 1 0 C1 4.95 1 9.9 1 15 C-5.75 15 -5.75 15 -9 12 C-6.36 11.67 -3.72 11.34 -1 11 C-0.67 7.37 -0.34 3.74 0 0 Z " fill="#3473AB" transform="translate(262,48)"/>
<path d="M0 0 C0.66 0.33 1.32 0.66 2 1 C1.67 7.93 1.34 14.86 1 22 C0.67 22 0.34 22 0 22 C0 16.06 0 10.12 0 4 C-1.32 3.67 -2.64 3.34 -4 3 C-2.68 2.01 -1.36 1.02 0 0 Z " fill="#003889" transform="translate(53,50)"/>
<path d="M0 0 C1.98 0 3.96 0 6 0 C6.33 1.32 6.66 2.64 7 4 C4.36 4 1.72 4 -1 4 C-0.67 2.68 -0.34 1.36 0 0 Z " fill="#E4ECF3" transform="translate(139,49)"/>
<path d="M0 0 C1.98 0 3.96 0 6 0 C6.33 1.32 6.66 2.64 7 4 C4.69 4 2.38 4 0 4 C0 2.68 0 1.36 0 0 Z " fill="#EDF3F7" transform="translate(222,49)"/>
<path d="M0 0 C1.65 0 3.3 0 5 0 C5.33 1.32 5.66 2.64 6 4 C3.69 4 1.38 4 -1 4 C-0.67 2.68 -0.34 1.36 0 0 Z " fill="#ECF1F6" transform="translate(128,77)"/>
<path d="M0 0 C1.65 0 3.3 0 5 0 C5 1.65 5 3.3 5 5 C4.34 5 3.68 5 3 5 C2.67 4.34 2.34 3.68 2 3 C-0.97 3 -3.94 3 -7 3 C-7 2.67 -7 2.34 -7 2 C-4.69 2 -2.38 2 0 2 C0 1.34 0 0.68 0 0 Z " fill="#3472AB" transform="translate(134,79)"/>
<path d="M0 0 C0.66 0.66 1.32 1.32 2 2 C1.625 4.625 1.625 4.625 1 7 C1.99 7.33 2.98 7.66 4 8 C2.68 8 1.36 8 0 8 C0 8.99 0 9.98 0 11 C-0.66 11 -1.32 11 -2 11 C-1.34 7.37 -0.68 3.74 0 0 Z " fill="#3470A9" transform="translate(45,55)"/>
<path d="M0 0 C0.33 1.32 0.66 2.64 1 4 C3.31 4.33 5.62 4.66 8 5 C7.67 5.66 7.34 6.32 7 7 C4.69 7 2.38 7 0 7 C-1.33332095 4.3333581 -0.67102033 2.83319697 0 0 Z " fill="#003F8C" transform="translate(250,56)"/>
<path d="M0 0 C2.97 0 5.94 0 9 0 C9 0.99 9 1.98 9 3 C6.36 3 3.72 3 1 3 C0.67 2.01 0.34 1.02 0 0 Z " fill="#003A89" transform="translate(110,40)"/>
<path d="M0 0 C0.33 0 0.66 0 1 0 C1.33 2.97 1.66 5.94 2 9 C3.32 9.33 4.64 9.66 6 10 C5.01 10.99 4.02 11.98 3 13 C0.75393573 11.22555028 0.04918998 10.41647515 -0.29296875 7.51953125 C-0.25816406 6.62621094 -0.22335938 5.73289062 -0.1875 4.8125 C-0.16042969 3.91144531 -0.13335937 3.01039062 -0.10546875 2.08203125 C-0.07066406 1.39496094 -0.03585938 0.70789063 0 0 Z " fill="#185D9E" transform="translate(123,78)"/>
<path d="M0 0 C0 0.99 0 1.98 0 3 C-2.97 3 -5.94 3 -9 3 C-9 2.34 -9 1.68 -9 1 C-5.94152152 0.45627049 -3.11227195 0 0 0 Z " fill="#003C8B" transform="translate(232,60)"/>
<path d="M0 0 C0 0.99 0 1.98 0 3 C-2.97 3 -5.94 3 -9 3 C-9 2.34 -9 1.68 -9 1 C-5.94152152 0.45627049 -3.11227195 0 0 0 Z " fill="#003D8B" transform="translate(149,60)"/>
<path d="M0 0 C1.32 0 2.64 0 4 0 C4 1.32 4 2.64 4 4 C2.02 4 0.04 4 -2 4 C-1.34 2.68 -0.68 1.36 0 0 Z " fill="#0C5297" transform="translate(243,45)"/>
<path d="M0 0 C3.4375 1.3125 3.4375 1.3125 7 3 C7.33 3.99 7.66 4.98 8 6 C4.22454612 4.90931332 1.52956528 4.0916909 -1 1 C-0.67 0.67 -0.34 0.34 0 0 Z " fill="#77A4C8" transform="translate(47,71)"/>
<path d="M0 0 C0.763125 0.0825 1.52625 0.165 2.3125 0.25 C1.125 2.25 1.125 2.25 -0.6875 4.25 C-3.375 4.5 -3.375 4.5 -5.6875 4.25 C-3.34903846 0.31153846 -3.34903846 0.31153846 0 0 Z " fill="#145699" transform="translate(182.6875,67.75)"/>
<path d="M0 0 C1.32 0 2.64 0 4 0 C4 1.65 4 3.3 4 5 C2.68 5 1.36 5 0 5 C0 3.35 0 1.7 0 0 Z " fill="#4172AA" transform="translate(204,67)"/>
<path d="M0 0 C2.64 0 5.28 0 8 0 C5.4345406 2.5654594 3.52313332 2.54046087 0 3 C0 2.01 0 1.02 0 0 Z " fill="#013F8D" transform="translate(214,74)"/>
</svg>
