<?xml version="1.0" encoding="UTF-8" standalone="no"?>
<!-- Created with Inkscape (http://www.inkscape.org/) -->

<svg
   xmlns:dc="http://purl.org/dc/elements/1.1/"
   xmlns:cc="http://creativecommons.org/ns#"
   xmlns:rdf="http://www.w3.org/1999/02/22-rdf-syntax-ns#"
   xmlns:svg="http://www.w3.org/2000/svg"
   xmlns="http://www.w3.org/2000/svg"
   xmlns:sodipodi="http://sodipodi.sourceforge.net/DTD/sodipodi-0.dtd"
   xmlns:inkscape="http://www.inkscape.org/namespaces/inkscape"
   width="64"
   height="64"
   id="svg6790"
   version="1.1"
   inkscape:version="0.92.4 (5da689c313, 2019-01-14)"
   sodipodi:docname="RL2 Lleida.svg">
  <defs
     id="defs6792">
    <inkscape:perspective
       sodipodi:type="inkscape:persp3d"
       inkscape:vp_x="0 : 526.18109 : 1"
       inkscape:vp_y="0 : 1000 : 0"
       inkscape:vp_z="744.09448 : 526.18109 : 1"
       inkscape:persp3d-origin="372.04724 : 350.78739 : 1"
       id="perspective6798" />
    <inkscape:perspective
       id="perspective6782"
       inkscape:persp3d-origin="0.5 : 0.33333333 : 1"
       inkscape:vp_z="1 : 0.5 : 1"
       inkscape:vp_y="0 : 1000 : 0"
       inkscape:vp_x="0 : 0.5 : 1"
       sodipodi:type="inkscape:persp3d" />
  </defs>
  <sodipodi:namedview
     id="base"
     pagecolor="#ffffff"
     bordercolor="#666666"
     borderopacity="1.0"
     inkscape:pageopacity="0.0"
     inkscape:pageshadow="2"
     inkscape:zoom="5"
     inkscape:cx="-21.637905"
     inkscape:cy="31.113439"
     inkscape:document-units="px"
     inkscape:current-layer="layer1"
     showgrid="false"
     inkscape:window-width="1520"
     inkscape:window-height="1008"
     inkscape:window-x="392"
     inkscape:window-y="0"
     inkscape:window-maximized="0" />
  <metadata
     id="metadata6795">
    <rdf:RDF>
      <cc:Work
         rdf:about="">
        <dc:format>image/svg+xml</dc:format>
        <dc:type
           rdf:resource="http://purl.org/dc/dcmitype/StillImage" />
        <dc:title></dc:title>
      </cc:Work>
    </rdf:RDF>
  </metadata>
  <g
     inkscape:label="Capa 1"
     inkscape:groupmode="layer"
     id="layer1"
     transform="translate(-388.96948,-414.61609)">
    <rect
       style="fill:#6eaf25;fill-opacity:1;stroke:none;stroke-width:0.2;stroke-miterlimit:4;stroke-dasharray:none;stroke-opacity:1"
       id="rect854"
       width="64"
       height="64"
       x="388.96948"
       y="414.61609" />
    <path
       inkscape:connector-curvature="0"
       id="path4523"
       style="font-style:normal;font-variant:normal;font-weight:bold;font-stretch:normal;font-size:35px;line-height:23.4375px;font-family:'Helvetica Neue LT Std';-inkscape-font-specification:'Helvetica Neue LT Std Bold';letter-spacing:0px;word-spacing:0px;fill:#ffffff;fill-opacity:1;stroke:none;stroke-width:0.89888626px;stroke-linecap:butt;stroke-linejoin:miter;stroke-opacity:1"
       d="m 392.63683,460.83161 h 4.73593 v -10.416 h 4.73595 c 2.38304,0 3.25784,1.232 3.58965,4.032 0.24132,2.128 0.18099,4.704 0.75414,6.384 h 4.73593 c -0.84462,-1.49333 -0.81446,-4.62933 -0.90496,-6.30933 -0.15082,-2.688 -0.81446,-5.488 -3.13718,-6.23467 v -0.0747 c 2.38306,-1.19466 3.40867,-3.54666 3.40867,-6.68266 0,-4.032 -2.44338,-7.35467 -6.30453,-7.35467 h -11.6136 z m 4.73593,-22.10133 h 5.18842 c 2.11157,0 3.25785,1.12 3.25785,3.696 0,2.688 -1.14628,3.808 -3.25785,3.808 h -5.18842 z" />
    <path
       inkscape:connector-curvature="0"
       id="path4525"
       style="font-style:normal;font-variant:normal;font-weight:bold;font-stretch:normal;font-size:35px;line-height:23.4375px;font-family:'Helvetica Neue LT Std';-inkscape-font-specification:'Helvetica Neue LT Std Bold';letter-spacing:0px;word-spacing:0px;fill:#ffffff;fill-opacity:1;stroke:none;stroke-width:0.89888626px;stroke-linecap:butt;stroke-linejoin:miter;stroke-opacity:1"
       d="m 414.43591,460.83161 h 15.23342 v -4.928 h -10.49749 v -21.728 h -4.73593 z" />
    <path
       inkscape:connector-curvature="0"
       id="path5108"
       style="font-style:normal;font-variant:normal;font-weight:bold;font-stretch:normal;font-size:35px;line-height:23.4375px;font-family:'Helvetica Neue LT Std';-inkscape-font-specification:'Helvetica Neue LT Std Bold';letter-spacing:0px;word-spacing:0px;fill:#ffffff;fill-opacity:1;stroke:none;stroke-width:1px;stroke-linecap:butt;stroke-linejoin:miter;stroke-opacity:1"
       d="m 437.344,444.74094 c 0,-2.76266 1.008,-6.01066 4.144,-6.01066 2.27733,0 3.92,1.568 3.92,4.032 -0.0373,3.21066 -3.17334,4.816 -5.488,6.384 -4.51734,3.06133 -8.21334,5.63733 -8.25067,11.68533 h 19.18933 v -4.55467 h -12.35733 c 1.904,-2.688 4.96533,-4.18133 7.54133,-6.01066 2.576,-1.82934 4.66667,-3.99467 4.66667,-7.91467 0,-5.11467 -4.18133,-8.176 -8.96,-8.176 -6.27199,0 -9.66933,4.592 -9.48266,10.56533 z" />
  </g>
</svg>
