<?xml version="1.0" standalone="no"?>
<!DOCTYPE svg PUBLIC "-//W3C//DTD SVG 20010904//EN"
 "http://www.w3.org/TR/2001/REC-SVG-20010904/DTD/svg10.dtd">
<svg version="1.0" xmlns="http://www.w3.org/2000/svg"
 width="300.000000pt" height="200.000000pt" viewBox="0 0 300.000000 200.000000"
 preserveAspectRatio="xMidYMid meet">

<g transform="translate(0.000000,200.000000) scale(0.100000,-0.100000)"
fill="#000000" stroke="none">
<path d="M2166 1463 c-187 -180 -340 -283 -566 -380 -257 -111 -290 -126 -290
-136 0 -15 107 -2 180 23 88 29 257 111 432 208 190 107 306 162 338 162 20 0
30 -9 48 -48 46 -97 154 -205 256 -256 58 -29 171 -60 186 -51 24 15 7 34 -40
44 -143 31 -223 132 -305 386 -24 75 -49 143 -56 151 -27 33 -58 16 -183 -103z"/>
<path d="M1750 917 c-18 -14 -50 -58 -50 -68 0 -4 8 -9 17 -11 14 -2 16 -14
14 -66 -1 -35 3 -121 10 -191 12 -126 12 -128 35 -123 13 2 25 12 28 21 3 9 2
113 -2 231 -6 180 -9 215 -22 217 -8 2 -22 -3 -30 -10z"/>
<path d="M2695 901 c-39 -23 -83 -75 -91 -107 -9 -36 2 -67 41 -114 58 -69 57
-102 -6 -181 -34 -44 -35 -49 -9 -49 24 0 86 53 106 91 27 54 19 86 -42 166
-46 61 -44 86 11 136 66 60 59 101 -10 58z"/>
<path d="M1471 900 c-50 -12 -111 -60 -135 -105 -28 -54 -33 -153 -12 -210 38
-97 156 -150 249 -112 36 16 51 32 61 65 10 29 -15 29 -79 1 -42 -18 -53 -20
-87 -10 -104 32 -135 227 -44 286 50 33 82 35 136 8 51 -25 80 -25 80 0 0 26
-41 66 -78 77 -41 11 -44 11 -91 0z"/>
<path d="M1933 898 c-6 -7 -13 -62 -17 -123 -3 -60 -15 -150 -25 -200 -18 -87
-16 -104 12 -105 17 0 38 74 50 177 7 58 17 108 22 109 6 2 43 -40 84 -92 86
-113 138 -154 191 -154 49 0 107 43 145 108 17 29 32 52 35 52 4 0 16 -33 28
-72 28 -97 55 -138 87 -138 31 0 31 1 1 49 -35 55 -56 135 -56 211 0 92 -10
162 -24 157 -6 -2 -28 -44 -48 -93 -91 -212 -166 -257 -252 -150 -18 22 -59
82 -89 131 -82 132 -118 166 -144 133z"/>
</g>
</svg>
