<?xml version="1.0" encoding="UTF-8"?>
<!DOCTYPE svg PUBLIC "-//W3C//DTD SVG 1.1//EN" "http://www.w3.org/Graphics/SVG/1.1/DTD/svg11.dtd">
<svg xmlns="http://www.w3.org/2000/svg" version="1.1" width="150px" height="106px" style="shape-rendering:geometricPrecision; text-rendering:geometricPrecision; image-rendering:optimizeQuality; fill-rule:evenodd; clip-rule:evenodd" xmlns:xlink="http://www.w3.org/1999/xlink">
<g><path style="opacity:1" fill="#e10513" d="M 71.5,-0.5 C 80.1667,-0.5 88.8333,-0.5 97.5,-0.5C 111.586,1.4619 123.419,7.79524 133,18.5C 142.831,37.1759 141.165,54.8426 128,71.5C 112.479,89.1706 93.3124,100.504 70.5,105.5C 62.1667,105.5 53.8333,105.5 45.5,105.5C 13.6706,97.5094 3.83729,78.1761 16,47.5C 22.1278,39.0381 29.2945,31.5381 37.5,25C 21.5676,30.5942 10.401,41.4275 4,57.5C 2.59846,62.9941 1.09846,68.3275 -0.5,73.5C -0.5,67.5 -0.5,61.5 -0.5,55.5C 3.92822,40.8577 12.2616,28.6911 24.5,19C 38.6087,8.60829 54.2754,2.10829 71.5,-0.5 Z"/></g>
<g><path style="opacity:1" fill="#f3babf" d="M 36.5,39.5 C 43.6769,38.1806 51.0102,38.1806 58.5,39.5C 58.3764,40.1067 58.0431,40.44 57.5,40.5C 50.6866,39.5088 43.6866,39.1755 36.5,39.5 Z"/></g>
<g><path style="opacity:1" fill="#faf5f5" d="M 36.5,39.5 C 43.6866,39.1755 50.6866,39.5088 57.5,40.5C 57.5792,41.9305 57.2458,43.2638 56.5,44.5C 54.1667,45.1667 51.8333,45.8333 49.5,46.5C 47.361,52.7235 45.6943,59.0569 44.5,65.5C 41.3019,66.0356 38.6353,65.369 36.5,63.5C 37.8351,57.4937 39.1684,51.4937 40.5,45.5C 38.5,45.5 36.5,45.5 34.5,45.5C 34.595,43.2143 35.2616,41.2143 36.5,39.5 Z"/></g>
<g><path style="opacity:1" fill="#faf4f4" d="M 87.5,65.5 C 84.6146,65.8064 81.9479,65.4731 79.5,64.5C 80.5993,59.3942 81.766,54.3942 83,49.5C 80.1667,54.5 77.3333,59.5 74.5,64.5C 72.2573,65.4742 69.924,65.8076 67.5,65.5C 67.6661,59.8236 67.4994,54.1569 67,48.5C 66.2086,49.745 65.7086,51.0783 65.5,52.5C 64.3023,56.9796 62.969,61.3129 61.5,65.5C 58.9407,65.8016 56.6074,65.4682 54.5,64.5C 56.7524,56.2408 58.7524,47.9075 60.5,39.5C 64.8333,39.5 69.1667,39.5 73.5,39.5C 73.3341,44.5111 73.5007,49.5111 74,54.5C 76.7012,49.959 79.2012,45.2924 81.5,40.5C 85.7953,39.3391 90.1287,39.1725 94.5,40C 91.6626,48.3477 89.3293,56.8477 87.5,65.5 Z"/></g>
<g><path style="opacity:1" fill="#faf3f3" d="M 98.5,39.5 C 105.891,39.2012 113.224,39.5345 120.5,40.5C 122.569,45.531 121.236,49.3643 116.5,52C 120.328,56.1227 119.995,60.1227 115.5,64C 107.584,65.7677 99.5838,65.9344 91.5,64.5C 93.9917,56.1983 96.3251,47.865 98.5,39.5 Z"/></g>
<g><path style="opacity:1" fill="#e42c2e" d="M 105.5,44.5 C 107.833,44.5 110.167,44.5 112.5,44.5C 113.259,48.2403 111.759,49.907 108,49.5C 106.833,49.1667 105.667,48.8333 104.5,48.5C 105.246,47.2638 105.579,45.9305 105.5,44.5 Z"/></g>
<g><path style="opacity:1" fill="#e7454e" d="M 67.5,65.5 C 66.8333,61.1667 66.1667,56.8333 65.5,52.5C 65.7086,51.0783 66.2086,49.745 67,48.5C 67.4994,54.1569 67.6661,59.8236 67.5,65.5 Z"/></g>
<g><path style="opacity:1" fill="#e31e22" d="M 102.5,55.5 C 105.167,55.5 107.833,55.5 110.5,55.5C 110.703,57.3904 110.037,58.8904 108.5,60C 106.19,60.4966 103.857,60.6633 101.5,60.5C 101.629,58.7839 101.962,57.1172 102.5,55.5 Z"/></g>
<g><path style="opacity:1" fill="#ed7d83" d="M 36.5,63.5 C 38.6353,65.369 41.3019,66.0356 44.5,65.5C 41.7131,66.4767 38.7131,66.81 35.5,66.5C 35.2627,65.209 35.596,64.209 36.5,63.5 Z"/></g>
<g><path style="opacity:1" fill="#ec767c" d="M 54.5,64.5 C 56.6074,65.4682 58.9407,65.8016 61.5,65.5C 58.9759,66.8003 56.3092,66.8003 53.5,65.5C 53.6236,64.8933 53.9569,64.56 54.5,64.5 Z"/></g>
<g><path style="opacity:1" fill="#ec7175" d="M 79.5,64.5 C 81.9479,65.4731 84.6146,65.8064 87.5,65.5C 84.6447,66.8032 81.6447,66.8032 78.5,65.5C 78.6236,64.8933 78.9569,64.56 79.5,64.5 Z"/></g>
</svg>
