<?xml version="1.0" encoding="utf-8"?>
<!-- Generator: Adobe Illustrator 23.0.1, SVG Export Plug-In . SVG Version: 6.00 Build 0)  -->
<svg version="1.1"
	 id="svg21844" inkscape:output_extension="org.inkscape.output.svg.inkscape" inkscape:version="0.48.5 r10040" sodipodi:docname="L10_Sud_barcelona.svg" sodipodi:version="0.32" xmlns:cc="http://creativecommons.org/ns#" xmlns:dc="http://purl.org/dc/elements/1.1/" xmlns:inkscape="http://www.inkscape.org/namespaces/inkscape" xmlns:rdf="http://www.w3.org/1999/02/22-rdf-syntax-ns#" xmlns:sodipodi="http://sodipodi.sourceforge.net/DTD/sodipodi-0.dtd" xmlns:svg="http://www.w3.org/2000/svg"
	 xmlns="http://www.w3.org/2000/svg" xmlns:xlink="http://www.w3.org/1999/xlink" x="0px" y="0px" width="64px" height="64px"
	 viewBox="0 0 64 64" enable-background="new 0 0 64 64" xml:space="preserve">
<g>
	<rect fill="#08A0E5" width="64" height="64"/>
	<polygon fill="#FFFFFF" points="12.016,12.401 12.016,35.737 25.961,35.737 25.961,41.029 5.731,41.029 5.731,12.401 	"/>
	<path fill="#FFFFFF" d="M29.738,41.031V22.827h-7.067v-4.288c0.998,0.024,1.953-0.053,2.875-0.217
		c0.921-0.179,1.756-0.487,2.489-0.926c0.738-0.439,1.365-1.027,1.867-1.741c0.506-0.724,0.844-1.626,0.998-2.692h4.544v28.069
		H29.738z"/>
	<path fill="#FFFFFF" d="M39.671,19.994c0.54-1.852,1.283-3.348,2.219-4.467c0.931-1.119,2.026-1.92,3.266-2.402
		c1.24-0.482,2.557-0.724,3.951-0.724c1.418,0,2.745,0.241,3.984,0.724c1.249,0.482,2.349,1.283,3.29,2.402
		c0.955,1.119,1.703,2.614,2.253,4.467c0.545,1.867,0.82,4.158,0.82,6.878c0,2.812-0.275,5.156-0.82,7.033
		c-0.55,1.891-1.297,3.391-2.253,4.52c-0.941,1.119-2.041,1.925-3.29,2.407c-1.24,0.482-2.566,0.724-3.984,0.724
		c-1.394,0-2.711-0.241-3.951-0.724s-2.335-1.288-3.266-2.407c-0.936-1.129-1.678-2.629-2.219-4.52
		c-0.56-1.876-0.82-4.221-0.82-7.033C38.851,24.152,39.112,21.86,39.671,19.994 M44.62,29.781c0.043,1.143,0.217,2.238,0.506,3.29
		c0.27,1.056,0.709,1.968,1.336,2.701c0.617,0.757,1.491,1.129,2.644,1.129c1.177,0,2.084-0.371,2.701-1.129
		c0.637-0.733,1.095-1.645,1.37-2.701c0.284-1.051,0.448-2.146,0.506-3.29c0.053-1.143,0.077-2.093,0.077-2.909
		c0-0.482-0.014-1.061-0.024-1.741s-0.063-1.384-0.164-2.108c-0.087-0.724-0.217-1.437-0.395-2.142
		c-0.164-0.7-0.439-1.351-0.777-1.91c-0.352-0.56-0.791-1.008-1.331-1.36c-0.536-0.347-1.196-0.511-1.963-0.511
		c-0.777,0-1.423,0.164-1.954,0.511c-0.502,0.352-0.931,0.801-1.269,1.36c-0.342,0.56-0.593,1.211-0.781,1.91
		c-0.198,0.704-0.318,1.418-0.405,2.142c-0.077,0.724-0.13,1.428-0.145,2.108c-0.01,0.68-0.019,1.259-0.019,1.741
		C44.534,27.687,44.567,28.638,44.62,29.781"/>
	<path fill="#FFFFFF" d="M36.336,54.78c0,1.259-0.415,2.47-1.799,2.47c-1.293,0-1.843-1.254-1.843-2.45
		c0-1.249,0.473-2.436,1.843-2.436C35.897,52.363,36.336,53.55,36.336,54.78 M36.37,58.619h1.987V48.084h-2.098v3.84H36.23
		c-0.473-0.753-1.351-1.138-2.253-1.138c-2.248,0-3.377,1.896-3.377,3.951c0,2.108,1.119,4.091,3.42,4.091
		c0.979,0,1.823-0.362,2.315-1.182h0.034V58.619z M25.454,58.619h2.084v-3.434c0-1.351,0.536-2.455,2.074-2.455
		c0.241,0,0.56,0.029,0.748,0.072v-1.939c-0.135-0.043-0.309-0.077-0.463-0.077c-1.023,0-2.041,0.671-2.436,1.626h-0.024v-1.418
		h-1.983V58.619z M18.301,54.813c0-1.22,0.424-2.451,1.833-2.451c1.423,0,1.852,1.23,1.852,2.451c0,1.206-0.429,2.436-1.852,2.436
		C18.725,57.249,18.301,56.019,18.301,54.813 M16.193,54.813c0,2.421,1.558,4.013,3.941,4.013c2.402,0,3.96-1.592,3.96-4.013
		c0-2.436-1.558-4.028-3.96-4.028C17.751,50.786,16.193,52.378,16.193,54.813 M5.726,58.619h2.161v-7.057H7.92l4.39,7.057h2.315
		V48.084H12.45v7.067h-0.029l-4.404-7.067H5.726V58.619z"/>
</g>
</svg>
