<?xml version="1.0" encoding="utf-8"?>
<!-- Generator: Adobe Illustrator 23.0.1, SVG Export Plug-In . SVG Version: 6.00 Build 0)  -->
<svg version="1.1"
	 id="Capa_1" inkscape:version="1.0beta2 (2b71d25, 2019-12-03)" sodipodi:docname="L9_Sud_Barcelona.svg" xmlns:cc="http://creativecommons.org/ns#" xmlns:dc="http://purl.org/dc/elements/1.1/" xmlns:inkscape="http://www.inkscape.org/namespaces/inkscape" xmlns:rdf="http://www.w3.org/1999/02/22-rdf-syntax-ns#" xmlns:sodipodi="http://sodipodi.sourceforge.net/DTD/sodipodi-0.dtd" xmlns:svg="http://www.w3.org/2000/svg"
	 xmlns="http://www.w3.org/2000/svg" xmlns:xlink="http://www.w3.org/1999/xlink" x="0px" y="0px" width="2903.334px"
	 height="2902.68px" viewBox="0 0 2903.334 2902.68" enable-background="new 0 0 2903.334 2902.68" xml:space="preserve">
<g>
	<rect fill="#F88D00" width="2903.334" height="2902.68"/>
	<polygon fill="#FFFFFF" points="324.844,2001.825 1450.412,2001.825 1450.412,1707.684 674.793,1707.684 674.793,410.314 
		324.844,410.314 	"/>
	<path fill="#FFFFFF" d="M2094.722,1250.778c-163.267,0-238.552-147.284-238.552-294.141c0-140.498,86.225-285.378,238.552-285.378
		c157.797,0,251.248,144.88,251.248,289.759C2345.97,1114.434,2263.459,1250.778,2094.722,1250.778 M1565.971,1600.728
		c35.886,273.796,236.361,432.034,506.21,432.034c443.622,0,612.793-434.438,612.793-815.899
		c0-394.164-127.374-806.482-599.882-806.482c-324.997,0-546.043,251.903-546.043,570.555c0,122.559,38.297,251.903,120.588,347.545
		c89.077,98.047,224.987,160.642,358.926,160.642c151.224,0,265.254-51.214,351.92-173.559l4.375,4.381
		c-8.97,173.773-68.72,474.472-298.081,474.472c-109.648,0-189.749-89.07-210.099-193.689H1565.971z"/>
	<path fill="#FFFFFF" d="M1424.016,2485.033c0,57.118-18.38,111.832-81.63,111.832c-59.309,0-84.041-56.691-84.041-110.964
		c0-57.332,21.226-110.964,84.041-110.964C1404.1,2374.937,1424.016,2428.569,1424.016,2485.033 M1425.553,2659.674h90.606v-479.508
		h-95.208v174.868h-1.309c-21.446-34.37-61.934-51.869-102.642-51.869c-101.987,0-153.856,86.225-153.856,179.677
		c0,96.07,50.773,186.249,155.826,186.249c43.767,0,83.16-16.417,105.046-53.846h1.536V2659.674z M1105.364,2312.569h-95.642
		v181.867c0,70.69-22.321,99.583-73.535,99.583c-44.428,0-61.279-28.452-61.279-85.143v-196.307h-94.981v213.165
		c0,86.225,25.387,143.357,126.279,143.357c40.488,0,82.291-18.821,106.148-57.786h2.404v48.369h90.606V2312.569z M323.835,2500.341
		c-1.095,118.404,98.047,170.714,204.188,170.714c130.44,0,199.593-65.654,199.593-153.856
		c0-108.987-107.671-130.881-142.475-139.844c-119.927-30.857-142.909-35.238-142.909-72.226c0-40.274,38.958-54.273,72.219-54.273
		c50.339,0,91.702,14.44,94.547,72.213h102.208c0-110.51-91.702-154.283-191.719-154.283c-86.666,0-179.243,47.273-179.243,144.879
		c0,90.166,71.785,117.523,142.916,136.344c70.249,19.048,141.814,27.357,141.814,79.226c0,49.25-55.809,59.75-93.011,59.75
		c-56.25,0-106.148-24.953-106.148-88.643H323.835z"/>
</g>
</svg>
