<?xml version="1.0" encoding="utf-8"?>
<!-- Generator: Adobe Illustrator 23.0.1, SVG Export Plug-In . SVG Version: 6.00 Build 0)  -->
<svg version="1.1"
	 id="Capa_1" inkscape:version="1.0beta2 (2b71d25, 2019-12-03)" sodipodi:docname="L9N_Barcelona.svg" xmlns:cc="http://creativecommons.org/ns#" xmlns:dc="http://purl.org/dc/elements/1.1/" xmlns:inkscape="http://www.inkscape.org/namespaces/inkscape" xmlns:rdf="http://www.w3.org/1999/02/22-rdf-syntax-ns#" xmlns:sodipodi="http://sodipodi.sourceforge.net/DTD/sodipodi-0.dtd" xmlns:svg="http://www.w3.org/2000/svg"
	 xmlns="http://www.w3.org/2000/svg" xmlns:xlink="http://www.w3.org/1999/xlink" x="0px" y="0px" width="2903.334px"
	 height="2902.68px" viewBox="0 0 2903.334 2902.68" enable-background="new 0 0 2903.334 2902.68" xml:space="preserve">
<g>
	<rect fill="#F88D00" width="2903.334" height="2902.68"/>
	<polygon fill="#FFFFFF" points="324.823,2001.584 1450.826,2001.584 1450.826,1707.444 674.332,1707.444 674.332,410.073 
		324.823,410.073 	"/>
	<path fill="#FFFFFF" d="M2094.742,1250.584c-163.26,0-238.986-147.284-238.986-294.14c0-140.505,86.666-285.384,238.986-285.384
		c157.797,0,250.807,144.88,250.807,289.766C2345.55,1114.681,2263.052,1250.584,2094.742,1250.584 M1565.997,1600.534
		c35.225,274.23,237.009,432.682,506.21,432.682c443.174,0,612.352-435.086,612.352-815.892
		c0-394.378-126.94-807.143-599.448-807.143c-324.997,0-546.043,251.903-546.043,570.562c0,122.559,38.297,251.896,119.94,347.979
		c89.284,97.606,225.641,160.201,359.581,160.201c151.225,0,264.807-51.214,351.913-173.552l4.381,4.375
		c-8.977,173.773-69.167,474.479-298.736,474.479c-109,0-189.094-89.07-209.451-193.689H1565.997z"/>
	<path fill="#FFFFFF" d="M1715.739,2484.719c0,57.118-18.835,112.487-81.643,112.487c-58.654,0-84.034-57.339-84.034-111.612
		c0-57.125,21.88-110.523,84.034-110.523S1715.739,2428.469,1715.739,2484.719 M1717.262,2659.36h90.166v-478.853h-94.534v174.207
		h-1.536c-21.894-34.356-61.713-51.869-102.642-51.869c-101.987,0-153.856,86.673-153.856,180.338
		c0,95.642,50.773,185.594,155.82,185.594c44.428,0,83.166-15.983,105.06-53.625h1.523V2659.36z M1220.469,2659.36h95.629v-155.82
		c0-61.72,23.857-112.059,94.106-112.059c11.381,0,25.18,1.536,33.715,3.506v-88.636c-5.477-1.97-13.358-3.507-20.798-3.507
		c-46.392,0-93.665,30.423-111.178,74.196h-1.309v-64.565h-90.166V2659.36z M894.804,2486.028
		c0-55.148,19.917-110.957,84.262-110.957c65.213,0,84.034,55.809,84.034,110.957c0,55.375-18.821,111.177-84.034,111.177
		C914.721,2597.205,894.804,2541.403,894.804,2486.028 M799.816,2486.028c0,110.089,71.131,182.749,179.249,182.749
		c109.428,0,180.118-72.66,180.118-182.749c0-110.523-70.69-183.183-180.118-183.183
		C870.947,2302.844,799.816,2375.505,799.816,2486.028 M323.381,2659.36h98.047v-320.623h1.523l200.034,320.623h104.619v-478.853
		h-98.047v321.498h-1.536l-199.593-321.498H323.381V2659.36z"/>
</g>
</svg>
