<?xml version="1.0" encoding="utf-8"?>
<!-- Generator: Adobe Illustrator 23.0.1, SVG Export Plug-In . SVG Version: 6.00 Build 0)  -->
<svg version="1.1"
	 id="svg21844" inkscape:output_extension="org.inkscape.output.svg.inkscape" inkscape:version="0.48.5 r10040" sodipodi:docname="L10_barcelona.svg" sodipodi:version="0.32" xmlns:cc="http://creativecommons.org/ns#" xmlns:dc="http://purl.org/dc/elements/1.1/" xmlns:inkscape="http://www.inkscape.org/namespaces/inkscape" xmlns:rdf="http://www.w3.org/1999/02/22-rdf-syntax-ns#" xmlns:sodipodi="http://sodipodi.sourceforge.net/DTD/sodipodi-0.dtd" xmlns:svg="http://www.w3.org/2000/svg"
	 xmlns="http://www.w3.org/2000/svg" xmlns:xlink="http://www.w3.org/1999/xlink" x="0px" y="0px" width="64px" height="64px"
	 viewBox="0 0 64 64" enable-background="new 0 0 64 64" xml:space="preserve">
<g>
	<rect fill="#08A0E5" width="64" height="64"/>
	<polygon fill="#FFFFFF" points="12.026,12.403 12.026,35.74 25.981,35.74 25.981,41.031 5.726,41.031 5.726,12.403 	"/>
	<path fill="#FFFFFF" d="M29.75,41.031V22.827h-7.057v-4.288c0.989,0.024,1.944-0.043,2.865-0.217
		c0.921-0.179,1.756-0.487,2.489-0.926c0.738-0.439,1.36-1.027,1.867-1.741c0.506-0.724,0.834-1.626,0.998-2.692h4.534v28.069H29.75
		z"/>
	<path fill="#FFFFFF" d="M39.679,19.996c0.55-1.852,1.283-3.348,2.219-4.467c0.941-1.129,2.026-1.92,3.266-2.402
		c1.254-0.482,2.571-0.724,3.951-0.724c1.428,0,2.754,0.241,3.994,0.724c1.254,0.482,2.339,1.273,3.294,2.402
		c0.941,1.119,1.688,2.614,2.238,4.467c0.545,1.867,0.82,4.158,0.82,6.878c0,2.812-0.275,5.156-0.82,7.047
		c-0.55,1.876-1.298,3.377-2.238,4.505c-0.955,1.119-2.04,1.92-3.294,2.407c-1.24,0.482-2.566,0.724-3.994,0.724
		c-1.38,0-2.697-0.241-3.951-0.724c-1.24-0.487-2.325-1.288-3.266-2.407c-0.936-1.129-1.669-2.629-2.219-4.505
		c-0.55-1.891-0.82-4.235-0.82-7.047C38.859,24.153,39.129,21.862,39.679,19.996 M44.628,29.783c0.053,1.143,0.217,2.229,0.506,3.29
		c0.27,1.056,0.724,1.954,1.336,2.711c0.617,0.748,1.505,1.119,2.643,1.119c1.187,0,2.089-0.371,2.711-1.119
		c0.627-0.757,1.085-1.655,1.36-2.711c0.285-1.061,0.449-2.146,0.507-3.29c0.053-1.129,0.077-2.108,0.077-2.909
		c0-0.482,0-1.061-0.024-1.741c-0.01-0.68-0.063-1.384-0.154-2.108c-0.096-0.714-0.227-1.428-0.405-2.142
		c-0.164-0.714-0.425-1.351-0.777-1.905c-0.352-0.564-0.791-1.013-1.317-1.365c-0.54-0.347-1.196-0.526-1.978-0.526
		c-0.767,0-1.413,0.179-1.939,0.526c-0.516,0.352-0.946,0.801-1.283,1.365c-0.333,0.555-0.593,1.191-0.782,1.905
		c-0.188,0.714-0.318,1.428-0.396,2.142c-0.087,0.724-0.13,1.428-0.14,2.108c-0.024,0.68-0.024,1.259-0.024,1.741
		C44.55,27.675,44.575,28.654,44.628,29.783"/>
	<path fill="#FFFFFF" d="M29.588,54.744c0,1.249-0.415,2.465-1.799,2.465c-1.293,0-1.843-1.259-1.843-2.455
		c0-1.254,0.473-2.426,1.843-2.426C29.15,52.327,29.588,53.499,29.588,54.744 M29.622,58.583h1.987V48.048h-2.098v3.83h-0.019
		c-0.473-0.748-1.36-1.129-2.262-1.129c-2.248,0-3.377,1.896-3.377,3.946c0,2.108,1.119,4.086,3.42,4.086
		c0.979,0,1.833-0.352,2.315-1.177h0.034V58.583z M22.58,50.957h-2.098v3.994c0,1.544-0.482,2.18-1.621,2.18
		c-0.965,0-1.341-0.622-1.341-1.876v-4.298h-2.093v4.684c0,1.886,0.56,3.14,2.783,3.14c0.892,0,1.804-0.41,2.339-1.264h0.043v1.066
		h1.987V50.957z M5.408,55.081c-0.034,2.6,2.151,3.743,4.486,3.743c2.865,0,4.38-1.437,4.38-3.372c0-2.393-2.359-2.885-3.126-3.073
		c-2.648-0.68-3.14-0.777-3.14-1.587c0-0.892,0.854-1.196,1.592-1.196c1.109,0,2.007,0.318,2.074,1.592h2.248
		c0-2.436-2.016-3.391-4.226-3.391c-1.896,0-3.936,1.027-3.936,3.179c0,1.978,1.577,2.581,3.15,2.995
		c1.544,0.42,3.126,0.603,3.126,1.746c0,1.076-1.24,1.307-2.055,1.307c-1.24,0-2.335-0.54-2.335-1.944H5.408z"/>
</g>
</svg>
