<?xml version="1.0" encoding="UTF-8"?>
<!DOCTYPE svg PUBLIC "-//W3C//DTD SVG 1.1//EN" "http://www.w3.org/Graphics/SVG/1.1/DTD/svg11.dtd">
<svg xmlns="http://www.w3.org/2000/svg" version="1.1" width="843px" height="639px" style="shape-rendering:geometricPrecision; text-rendering:geometricPrecision; image-rendering:optimizeQuality; fill-rule:evenodd; clip-rule:evenodd" xmlns:xlink="http://www.w3.org/1999/xlink">
<g><path style="opacity:1" fill="#f9faf9" d="M 320.5,6.5 C 330.408,5.87216 337.908,9.87216 343,18.5C 346,23.1667 349,27.8333 352,32.5C 364.879,58.2577 377.213,84.2577 389,110.5C 393.755,121.317 400.088,122.317 408,113.5C 415.393,103.104 422.393,92.4372 429,81.5C 438.497,67.8552 450.331,65.6885 464.5,75C 476.026,86.5463 483.526,100.38 487,116.5C 494.844,150.387 502.178,184.387 509,218.5C 511.995,230.984 515.495,243.318 519.5,255.5C 519.167,255.833 518.833,256.167 518.5,256.5C 512.924,244.61 508.424,232.277 505,219.5C 498.794,192.138 492.461,164.804 486,137.5C 482.592,124.598 477.259,112.598 470,101.5C 463.478,92.3212 454.645,88.1546 443.5,89C 440.059,90.776 436.892,92.9426 434,95.5C 427.421,104.325 421.087,113.325 415,122.5C 412.5,125 410,127.5 407.5,130C 404.386,131.931 401.053,132.598 397.5,132C 393.727,128.282 390.56,124.116 388,119.5C 375.526,92.5441 361.526,66.5441 346,41.5C 341.126,34.12 334.626,28.7866 326.5,25.5C 314.131,27.4407 304.631,33.774 298,44.5C 290.728,56.768 283.061,68.768 275,80.5C 264.481,92.6717 251.314,96.8383 235.5,93C 221.691,89.4047 207.691,86.9047 193.5,85.5C 178.441,86.0643 166.941,92.7309 159,105.5C 156.079,110.341 153.412,115.341 151,120.5C 142.868,142.897 135.534,165.564 129,188.5C 126.39,195.664 123.39,202.664 120,209.5C 124.457,181.888 130.457,154.555 138,127.5C 142.525,111.789 149.191,97.1226 158,83.5C 170.997,66.9474 187.497,62.1141 207.5,69C 216.586,74.2095 225.919,78.8762 235.5,83C 251.544,86.5654 264.044,81.3987 273,67.5C 282.082,51.668 291.415,36.0014 301,20.5C 306.151,13.6995 312.651,9.03284 320.5,6.5 Z"/></g>
<g><path style="opacity:1" fill="#f9faf9" d="M 313.5,145.5 C 319.07,144.416 323.57,146.083 327,150.5C 327.917,195.498 328.25,240.498 328,285.5C 323.365,288.407 318.532,290.573 313.5,292C 299.288,278.289 285.621,264.122 272.5,249.5C 284.833,243 297.167,236.5 309.5,230C 311.667,228.5 313.5,226.667 315,224.5C 315.826,204.927 315.659,185.427 314.5,166C 313.5,165.333 312.5,165.333 311.5,166C 293.167,175.5 274.833,185 256.5,194.5C 256.192,195.308 255.692,195.975 255,196.5C 254.667,208.167 254.333,219.833 254,231.5C 251.5,229 249,226.5 246.5,224C 244.655,222.872 242.655,222.372 240.5,222.5C 240.958,215.655 240.458,208.988 239,202.5C 220.578,211.961 202.078,221.295 183.5,230.5C 181.98,235.56 180.98,240.727 180.5,246C 176.833,247.833 173.167,249.667 169.5,251.5C 168.675,247.878 168.175,244.211 168,240.5C 166.951,239.483 165.784,239.316 164.5,240C 146.344,248.911 128.344,258.078 110.5,267.5C 109.667,268.5 108.833,269.5 108,270.5C 107.8,274.753 107.3,278.92 106.5,283C 102.833,284.833 99.1667,286.667 95.5,288.5C 94.6764,285.215 94.1764,281.882 94,278.5C 93.4387,277.978 92.772,277.645 92,277.5C 74.7717,285.864 57.605,294.364 40.5,303C 36.0066,307.065 34.1733,312.231 35,318.5C 31.2454,320.628 27.4121,322.628 23.5,324.5C 22.3347,315.518 22.168,306.518 23,297.5C 24.5605,294.217 26.7272,291.383 29.5,289C 124.383,241.392 219.05,193.559 313.5,145.5 Z"/></g>
<g><path style="opacity:1" fill="#f9faf9" d="M 228.5,227.5 C 233.536,227.588 238.536,228.088 243.5,229C 267.667,253.167 291.833,277.333 316,301.5C 318.563,314.934 320.396,328.267 321.5,341.5C 219.5,392.5 117.5,443.5 15.5,494.5C 14.1667,470.5 14.1667,446.5 15.5,422.5C 19.1667,420.667 22.8333,418.833 26.5,417C 27.8045,416.196 28.4712,415.029 28.5,413.5C 24.2751,404.05 19.7751,394.716 15,385.5C 14.1701,379.804 14.3368,374.137 15.5,368.5C 22.5887,381.677 29.4221,395.01 36,408.5C 36.7387,409.574 37.7387,410.241 39,410.5C 58.2284,401.136 77.395,391.636 96.5,382C 97.0585,381.275 97.3918,380.442 97.5,379.5C 89.7746,363.049 81.7746,346.716 73.5,330.5C 72.6721,329.585 71.6721,328.919 70.5,328.5C 52.0445,338.062 33.3779,347.062 14.5,355.5C 14.1697,348.468 14.503,341.468 15.5,334.5C 86.7161,299.059 157.716,263.392 228.5,227.5 Z M 241.5,245.5 C 244.187,245.336 246.854,245.503 249.5,246C 262.333,258.167 275.167,270.333 288,282.5C 288.667,283.5 288.667,284.5 288,285.5C 276.98,292.262 265.48,297.762 253.5,302C 244.578,285.491 235.912,268.824 227.5,252C 228.167,251 228.833,250 229.5,249C 233.623,247.808 237.623,246.641 241.5,245.5 Z M 207.5,259.5 C 209.229,260.117 210.729,261.117 212,262.5C 219.667,277.833 227.333,293.167 235,308.5C 235.624,310.464 235.124,312.131 233.5,313.5C 215.167,322.667 196.833,331.833 178.5,341C 176.536,341.624 174.869,341.124 173.5,339.5C 165.667,323.833 157.833,308.167 150,292.5C 149.333,291.5 149.333,290.5 150,289.5C 169.149,279.343 188.316,269.343 207.5,259.5 Z M 137.5,294.5 C 139.722,294.178 141.556,294.845 143,296.5C 150.667,311.833 158.333,327.167 166,342.5C 166.667,343.833 166.667,345.167 166,346.5C 146.824,356.755 127.49,366.755 108,376.5C 107,375.833 106,375.167 105,374.5C 96.8333,358.167 88.6667,341.833 80.5,325.5C 81.3128,324.186 82.3128,323.019 83.5,322C 101.717,313.059 119.717,303.892 137.5,294.5 Z"/></g>
<g><path style="opacity:1" fill="#f9faf9" d="M 383.5,273.5 C 384.5,273.5 385.5,273.5 386.5,273.5C 386.805,278.762 386.471,283.928 385.5,289C 365.656,299.422 345.656,309.589 325.5,319.5C 323.511,314.586 322.845,309.586 323.5,304.5C 343.875,294.648 363.875,284.314 383.5,273.5 Z"/></g>
<g><path style="opacity:1" fill="#f9faf9" d="M 383.5,325.5 C 384.5,325.5 385.5,325.5 386.5,325.5C 386.805,330.762 386.471,335.928 385.5,341C 260.893,403.803 136.227,466.303 11.5,528.5C 11.3341,523.489 11.5007,518.489 12,513.5C 14.5829,512.126 17.0829,510.626 19.5,509C 141.05,448.059 262.383,386.892 383.5,325.5 Z"/></g>
<g><path style="opacity:1" fill="#f9faf9" d="M 330.5,414.5 C 346.579,413.181 356.579,420.181 360.5,435.5C 355.88,436.493 351.214,436.827 346.5,436.5C 344.486,427.986 339.152,424.819 330.5,427C 323.295,430.736 319.961,436.736 320.5,445C 320.475,459.659 327.475,465.325 341.5,462C 345.219,459.063 347.219,455.229 347.5,450.5C 351.833,450.5 356.167,450.5 360.5,450.5C 359.195,465.805 350.862,474.138 335.5,475.5C 314.336,472.874 304.836,460.874 307,439.5C 309.268,425.737 317.101,417.404 330.5,414.5 Z"/></g>
<g><path style="opacity:1" fill="#f9faf9" d="M 559.5,416.5 C 563.5,416.5 567.5,416.5 571.5,416.5C 571.5,435.5 571.5,454.5 571.5,473.5C 567.5,473.5 563.5,473.5 559.5,473.5C 559.5,454.5 559.5,435.5 559.5,416.5 Z"/></g>
<g><path style="opacity:1" fill="#f9faf9" d="M 580.5,416.5 C 584.5,416.5 588.5,416.5 592.5,416.5C 592.5,435.5 592.5,454.5 592.5,473.5C 588.5,473.5 584.5,473.5 580.5,473.5C 580.5,454.5 580.5,435.5 580.5,416.5 Z"/></g>
<g><path style="opacity:1" fill="#f9faf9" d="M 387.5,430.5 C 389.833,430.5 392.167,430.5 394.5,430.5C 394.5,434.5 394.5,438.5 394.5,442.5C 388.102,441.053 383.269,443.053 380,448.5C 379.5,456.827 379.334,465.16 379.5,473.5C 375.167,473.5 370.833,473.5 366.5,473.5C 366.5,459.5 366.5,445.5 366.5,431.5C 370.5,431.5 374.5,431.5 378.5,431.5C 378.34,433.199 378.506,434.866 379,436.5C 381.671,434.098 384.505,432.098 387.5,430.5 Z"/></g>
<g><path style="opacity:1" fill="#f9faf9" d="M 410.5,430.5 C 427.619,429.951 436.286,438.285 436.5,455.5C 426.5,455.5 416.5,455.5 406.5,455.5C 407.116,462.949 411.116,466.116 418.5,465C 420.844,464.163 422.844,462.829 424.5,461C 428.211,460.175 431.878,460.341 435.5,461.5C 430.153,473.025 421.153,477.191 408.5,474C 401.599,471.432 397.099,466.598 395,459.5C 392.388,445.376 397.555,435.709 410.5,430.5 Z M 411.5,440.5 C 417.345,439.039 421.345,441.039 423.5,446.5C 417.863,447.663 412.196,447.83 406.5,447C 407.594,444.273 409.26,442.107 411.5,440.5 Z"/></g>
<g><path style="opacity:1" fill="#f9faf9" d="M 461.5,430.5 C 468.298,429.263 473.798,431.263 478,436.5C 484.606,430.023 492.106,428.856 500.5,433C 502.81,434.637 504.31,436.804 505,439.5C 505.5,450.828 505.667,462.162 505.5,473.5C 501.5,473.5 497.5,473.5 493.5,473.5C 493.666,463.828 493.5,454.161 493,444.5C 489.049,439.182 485.049,439.182 481,444.5C 480.5,454.161 480.334,463.828 480.5,473.5C 476.167,473.5 471.833,473.5 467.5,473.5C 467.666,463.494 467.5,453.494 467,443.5C 462.279,439.242 458.279,439.909 455,445.5C 454.5,454.827 454.334,464.161 454.5,473.5C 450.5,473.5 446.5,473.5 442.5,473.5C 442.5,459.5 442.5,445.5 442.5,431.5C 446.167,431.5 449.833,431.5 453.5,431.5C 453.343,432.873 453.51,434.207 454,435.5C 456.479,433.686 458.979,432.019 461.5,430.5 Z"/></g>
<g><path style="opacity:1" fill="#f9faf9" d="M 527.5,430.5 C 532.913,430.229 538.246,430.729 543.5,432C 546.196,432.69 548.363,434.19 550,436.5C 551.289,447.403 551.956,458.403 552,469.5C 552.309,470.766 552.809,471.933 553.5,473C 548.598,474.025 543.931,473.525 539.5,471.5C 532.379,474.83 525.045,475.33 517.5,473C 511.813,467.569 510.646,461.402 514,454.5C 515.952,452.106 518.452,450.606 521.5,450C 526.875,449.162 532.208,448.162 537.5,447C 540.34,441.959 538.674,439.459 532.5,439.5C 528.799,439.195 526.466,440.862 525.5,444.5C 521.555,445.491 517.555,445.824 513.5,445.5C 514.052,436.615 518.719,431.615 527.5,430.5 Z M 537.5,454.5 C 540.436,460.723 538.27,464.723 531,466.5C 524.085,465.319 522.918,462.152 527.5,457C 530.991,456.262 534.325,455.429 537.5,454.5 Z"/></g>
<g><path style="opacity:1" fill="#f9faf9" d="M 614.5,430.5 C 631.619,429.951 640.286,438.285 640.5,455.5C 630.5,455.5 620.5,455.5 610.5,455.5C 611.144,462.982 615.144,466.149 622.5,465C 624.844,464.163 626.844,462.829 628.5,461C 632.211,460.175 635.878,460.341 639.5,461.5C 634.153,473.025 625.153,477.191 612.5,474C 605.599,471.432 601.099,466.598 599,459.5C 596.388,445.376 601.555,435.709 614.5,430.5 Z M 615.5,440.5 C 621.345,439.039 625.345,441.039 627.5,446.5C 621.863,447.663 616.196,447.83 610.5,447C 611.594,444.273 613.26,442.107 615.5,440.5 Z"/></g>
<g><path style="opacity:1" fill="#f9faf9" d="M 666.5,430.5 C 668.833,430.5 671.167,430.5 673.5,430.5C 673.5,434.5 673.5,438.5 673.5,442.5C 668.235,441.571 663.735,442.904 660,446.5C 658.586,455.418 658.086,464.418 658.5,473.5C 654.167,473.5 649.833,473.5 645.5,473.5C 645.5,459.5 645.5,445.5 645.5,431.5C 649.5,431.5 653.5,431.5 657.5,431.5C 657.34,433.199 657.506,434.866 658,436.5C 660.671,434.098 663.505,432.098 666.5,430.5 Z"/></g>
<g><path style="opacity:1" fill="#f9faf9" d="M 690.5,430.5 C 695.913,430.229 701.246,430.729 706.5,432C 709.196,432.69 711.363,434.19 713,436.5C 714.209,448.762 715.042,461.095 715.5,473.5C 710.915,474.013 706.582,473.346 702.5,471.5C 695.379,474.83 688.045,475.33 680.5,473C 674.628,467.685 673.461,461.518 677,454.5C 678.952,452.106 681.452,450.606 684.5,450C 689.875,449.162 695.208,448.162 700.5,447C 703.34,441.959 701.674,439.459 695.5,439.5C 691.799,439.195 689.466,440.862 688.5,444.5C 684.555,445.491 680.555,445.824 676.5,445.5C 677.052,436.615 681.719,431.615 690.5,430.5 Z M 700.5,454.5 C 703.436,460.723 701.27,464.723 694,466.5C 687.643,465.786 686.143,462.786 689.5,457.5C 693.263,456.385 696.93,455.385 700.5,454.5 Z"/></g>
<g><path style="opacity:1" fill="#f9faf9" d="M 308.5,495.5 C 312.5,495.5 316.5,495.5 320.5,495.5C 320.5,498.833 320.5,502.167 320.5,505.5C 316.5,505.5 312.5,505.5 308.5,505.5C 308.5,502.167 308.5,498.833 308.5,495.5 Z"/></g>
<g><path style="opacity:1" fill="#f9faf9" d="M 362.5,495.5 C 366.167,495.5 369.833,495.5 373.5,495.5C 373.5,498.833 373.5,502.167 373.5,505.5C 367.91,503.627 365.244,505.627 365.5,511.5C 368.167,511.5 370.833,511.5 373.5,511.5C 373.5,514.167 373.5,516.833 373.5,519.5C 370.833,519.5 368.167,519.5 365.5,519.5C 365.5,530.833 365.5,542.167 365.5,553.5C 361.167,553.5 356.833,553.5 352.5,553.5C 352.5,542.167 352.5,530.833 352.5,519.5C 350.5,519.5 348.5,519.5 346.5,519.5C 346.5,516.833 346.5,514.167 346.5,511.5C 348.5,511.5 350.5,511.5 352.5,511.5C 351.84,503.456 355.173,498.123 362.5,495.5 Z"/></g>
<g><path style="opacity:1" fill="#f9faf9" d="M 471.5,495.5 C 475.5,495.5 479.5,495.5 483.5,495.5C 483.5,498.833 483.5,502.167 483.5,505.5C 479.5,505.5 475.5,505.5 471.5,505.5C 471.5,502.167 471.5,498.833 471.5,495.5 Z"/></g>
<g><path style="opacity:1" fill="#f9faf9" d="M 584.5,495.5 C 588.5,495.5 592.5,495.5 596.5,495.5C 596.5,514.833 596.5,534.167 596.5,553.5C 592.5,553.5 588.5,553.5 584.5,553.5C 584.5,534.167 584.5,514.833 584.5,495.5 Z"/></g>
<g><path style="opacity:1" fill="#f9faf9" d="M 446.5,509.5 C 453.475,508.903 458.642,511.569 462,517.5C 463.438,529.424 463.938,541.424 463.5,553.5C 459.5,553.5 455.5,553.5 451.5,553.5C 451.666,544.494 451.5,535.494 451,526.5C 449.238,520.079 445.405,518.412 439.5,521.5C 438.416,522.665 437.583,523.998 437,525.5C 436.5,534.827 436.334,544.161 436.5,553.5C 432.5,553.5 428.5,553.5 424.5,553.5C 424.5,539.5 424.5,525.5 424.5,511.5C 428.167,511.5 431.833,511.5 435.5,511.5C 435.367,516.272 436.7,516.438 439.5,512C 442.004,511.302 444.337,510.469 446.5,509.5 Z"/></g>
<g><path style="opacity:1" fill="#f9faf9" d="M 510.5,509.5 C 522.674,509.024 529.674,514.691 531.5,526.5C 527.445,526.824 523.445,526.491 519.5,525.5C 514.429,517.539 509.263,517.539 504,525.5C 501.852,530.984 502.185,536.317 505,541.5C 509.333,545.5 513.667,545.5 518,541.5C 519.009,539.975 519.509,538.308 519.5,536.5C 523.5,536.5 527.5,536.5 531.5,536.5C 531.274,544.798 527.274,550.298 519.5,553C 496.086,555.913 486.919,545.746 492,522.5C 495.626,514.35 501.793,510.016 510.5,509.5 Z"/></g>
<g><path style="opacity:1" fill="#f9faf9" d="M 622.5,509.5 C 626.142,510.08 629.809,510.58 633.5,511C 636.548,511.606 639.048,513.106 641,515.5C 642.187,528.121 643.021,540.788 643.5,553.5C 639.445,553.824 635.445,553.491 631.5,552.5C 631.192,551.692 630.692,551.025 630,550.5C 622.27,555.529 614.437,555.695 606.5,551C 602.009,545.525 601.509,539.692 605,533.5C 607.469,531.348 610.302,529.848 613.5,529C 617.848,528.427 622.181,527.76 626.5,527C 630.674,525.492 631.341,523.159 628.5,520C 623.238,517.256 619.238,518.423 616.5,523.5C 612.555,524.491 608.555,524.824 604.5,524.5C 604.513,518.65 607.18,514.484 612.5,512C 615.952,511.115 619.286,510.282 622.5,509.5 Z M 629.5,533.5 C 630.96,537.225 630.293,540.725 627.5,544C 623.481,546.16 619.647,545.994 616,543.5C 615.104,540.975 615.604,538.808 617.5,537C 621.593,535.758 625.593,534.591 629.5,533.5 Z"/></g>
<g><path style="opacity:1" fill="#f9faf9" d="M 673.5,509.5 C 674.583,509.539 675.583,509.873 676.5,510.5C 677.489,514.107 677.823,517.774 677.5,521.5C 671.41,520.137 666.91,522.137 664,527.5C 662.59,536.084 662.09,544.75 662.5,553.5C 658.5,553.5 654.5,553.5 650.5,553.5C 650.5,539.5 650.5,525.5 650.5,511.5C 654.167,511.5 657.833,511.5 661.5,511.5C 660.813,517.599 662.146,518.099 665.5,513C 668.158,511.522 670.825,510.355 673.5,509.5 Z"/></g>
<g><path style="opacity:1" fill="#f9faf9" d="M 696.5,509.5 C 703.739,509.188 709.905,511.521 715,516.5C 715.986,518.778 716.82,521.111 717.5,523.5C 713.5,524.833 709.5,524.833 705.5,523.5C 702.762,518.423 698.762,517.256 693.5,520C 691.987,522.454 692.654,524.121 695.5,525C 700.531,526.206 705.531,527.54 710.5,529C 718.73,533.166 720.563,539.332 716,547.5C 711.496,552.542 705.83,554.875 699,554.5C 692.551,554.615 686.884,552.615 682,548.5C 679.994,545.464 679.16,542.131 679.5,538.5C 683.226,538.177 686.893,538.511 690.5,539.5C 693.902,545.731 698.735,547.064 705,543.5C 705.825,541.299 705.325,539.466 703.5,538C 698.604,536.287 693.604,534.954 688.5,534C 679.953,529.637 678.12,523.137 683,514.5C 687.116,511.526 691.616,509.86 696.5,509.5 Z"/></g>
<g><path style="opacity:1" fill="#f9faf9" d="M 308.5,511.5 C 312.5,511.5 316.5,511.5 320.5,511.5C 320.5,525.5 320.5,539.5 320.5,553.5C 316.5,553.5 312.5,553.5 308.5,553.5C 308.5,539.5 308.5,525.5 308.5,511.5 Z"/></g>
<g><path style="opacity:1" fill="#f9faf9" d="M 376.5,511.5 C 380.833,511.5 385.167,511.5 389.5,511.5C 389.334,521.172 389.5,530.839 390,540.5C 394.156,545.757 398.489,545.757 403,540.5C 404.391,530.9 404.891,521.233 404.5,511.5C 408.5,511.5 412.5,511.5 416.5,511.5C 416.5,525.5 416.5,539.5 416.5,553.5C 412.5,553.5 408.5,553.5 404.5,553.5C 404.657,552.127 404.49,550.793 404,549.5C 395.391,556.366 387.058,556.033 379,548.5C 378.012,545.576 377.346,542.576 377,539.5C 376.5,530.173 376.334,520.839 376.5,511.5 Z"/></g>
<g><path style="opacity:1" fill="#f9faf9" d="M 471.5,511.5 C 475.5,511.5 479.5,511.5 483.5,511.5C 483.5,525.5 483.5,539.5 483.5,553.5C 479.5,553.5 475.5,553.5 471.5,553.5C 471.5,539.5 471.5,525.5 471.5,511.5 Z"/></g>
<g><path style="opacity:1" fill="#f9faf9" d="M 537.5,511.5 C 541.5,511.5 545.5,511.5 549.5,511.5C 549.334,520.839 549.5,530.173 550,539.5C 552.339,544.256 555.839,545.423 560.5,543C 562.487,541.681 563.654,539.848 564,537.5C 564.5,528.84 564.666,520.173 564.5,511.5C 568.5,511.5 572.5,511.5 576.5,511.5C 576.5,525.5 576.5,539.5 576.5,553.5C 572.5,553.5 568.5,553.5 564.5,553.5C 564.657,552.127 564.49,550.793 564,549.5C 556,556.167 548,556.167 540,549.5C 539.333,548.167 538.667,546.833 538,545.5C 537.5,534.172 537.333,522.838 537.5,511.5 Z"/></g>
<g><path style="opacity:1" fill="#f9faf9" d="M 336.5,574.5 C 340.5,574.5 344.5,574.5 348.5,574.5C 348.5,593.833 348.5,613.167 348.5,632.5C 344.833,632.5 341.167,632.5 337.5,632.5C 337.633,627.728 336.3,627.562 333.5,632C 316.148,636.314 307.148,629.481 306.5,611.5C 306.864,593.959 315.53,587.126 332.5,591C 333.931,591.465 335.097,592.299 336,593.5C 336.5,587.175 336.666,580.842 336.5,574.5 Z M 326.5,598.5 C 334.044,599.387 337.711,603.721 337.5,611.5C 337.714,618.435 334.548,622.769 328,624.5C 321.448,622.757 318.281,618.423 318.5,611.5C 318.428,605.282 321.094,600.949 326.5,598.5 Z"/></g>
<g><path style="opacity:1" fill="#f9faf9" d="M 425.5,574.5 C 431.758,574.19 437.924,574.524 444,575.5C 448.147,587.61 452.48,599.61 457,611.5C 460.941,599.179 464.774,586.845 468.5,574.5C 474.833,574.5 481.167,574.5 487.5,574.5C 487.5,593.833 487.5,613.167 487.5,632.5C 483.167,632.5 478.833,632.5 474.5,632.5C 474.667,620.495 474.5,608.495 474,596.5C 470.197,608.241 466.197,619.908 462,631.5C 458.27,632.46 454.437,632.793 450.5,632.5C 446.641,620.09 442.474,607.757 438,595.5C 437.5,607.829 437.333,620.162 437.5,632.5C 433.5,632.5 429.5,632.5 425.5,632.5C 425.5,613.167 425.5,593.833 425.5,574.5 Z"/></g>
<g><path style="opacity:1" fill="#f9faf9" d="M 594.5,578.5 C 598.5,578.5 602.5,578.5 606.5,578.5C 606.5,582.5 606.5,586.5 606.5,590.5C 609.5,590.5 612.5,590.5 615.5,590.5C 615.5,593.5 615.5,596.5 615.5,599.5C 612.5,599.5 609.5,599.5 606.5,599.5C 606.219,606.712 606.552,613.878 607.5,621C 608.212,622.442 609.379,623.275 611,623.5C 612.44,622.852 613.94,622.519 615.5,622.5C 615.5,625.833 615.5,629.167 615.5,632.5C 610.489,632.666 605.489,632.499 600.5,632C 598.714,631.215 597.214,630.049 596,628.5C 594.552,618.939 594.052,609.273 594.5,599.5C 592.167,599.5 589.833,599.5 587.5,599.5C 587.5,596.5 587.5,593.5 587.5,590.5C 589.833,590.5 592.167,590.5 594.5,590.5C 594.5,586.5 594.5,582.5 594.5,578.5 Z"/></g>
<g><path style="opacity:1" fill="#f9faf9" d="M 818.5,578.5 C 822.5,578.5 826.5,578.5 830.5,578.5C 830.5,582.5 830.5,586.5 830.5,590.5C 833.167,590.5 835.833,590.5 838.5,590.5C 838.5,593.5 838.5,596.5 838.5,599.5C 835.833,599.5 833.167,599.5 830.5,599.5C 830.334,606.841 830.5,614.174 831,621.5C 832.972,623.442 835.139,623.776 837.5,622.5C 838.487,625.768 838.82,629.102 838.5,632.5C 833.489,632.666 828.489,632.499 823.5,632C 822.069,631.535 820.903,630.701 820,629.5C 818.551,619.605 818.051,609.605 818.5,599.5C 816.167,599.5 813.833,599.5 811.5,599.5C 811.5,596.5 811.5,593.5 811.5,590.5C 813.833,590.5 816.167,590.5 818.5,590.5C 818.5,586.5 818.5,582.5 818.5,578.5 Z"/></g>
<g><path style="opacity:1" fill="#f9faf9" d="M 370.5,589.5 C 388.284,588.284 396.951,596.617 396.5,614.5C 386.478,614.168 376.478,614.501 366.5,615.5C 369.334,623.833 374.668,626 382.5,622C 386.128,618.857 390.462,617.691 395.5,618.5C 394.271,626.13 389.937,630.964 382.5,633C 360.189,634.684 351.356,624.517 356,602.5C 358.959,595.958 363.792,591.625 370.5,589.5 Z M 374.5,598.5 C 379.866,598.661 382.866,601.327 383.5,606.5C 377.824,606.666 372.157,606.499 366.5,606C 367.5,604.333 368.5,602.667 369.5,601C 371.315,600.243 372.981,599.41 374.5,598.5 Z"/></g>
<g><path style="opacity:1" fill="#f9faf9" d="M 510.5,589.5 C 532.76,588.264 541.593,598.597 537,620.5C 531.692,631.729 522.858,635.896 510.5,633C 500.133,629.774 494.799,622.608 494.5,611.5C 495.001,600.372 500.334,593.039 510.5,589.5 Z M 515.5,598.5 C 522.636,599.716 526.303,604.049 526.5,611.5C 526.257,618.36 522.924,622.693 516.5,624.5C 509.82,622.828 506.82,618.495 507.5,611.5C 506.928,604.945 509.595,600.612 515.5,598.5 Z"/></g>
<g><path style="opacity:1" fill="#f9faf9" d="M 563.5,589.5 C 568.267,589.191 572.934,589.691 577.5,591C 580.381,592.251 582.214,594.417 583,597.5C 584.387,609.113 584.887,620.779 584.5,632.5C 580.167,632.5 575.833,632.5 571.5,632.5C 571.666,622.828 571.5,613.161 571,603.5C 568.11,599.172 564.277,598.339 559.5,601C 558.874,601.75 558.374,602.584 558,603.5C 556.641,613.109 556.141,622.776 556.5,632.5C 552.5,632.5 548.5,632.5 544.5,632.5C 544.5,618.5 544.5,604.5 544.5,590.5C 548.5,590.5 552.5,590.5 556.5,590.5C 556.343,591.873 556.51,593.207 557,594.5C 558.965,592.45 561.132,590.783 563.5,589.5 Z"/></g>
<g><path style="opacity:1" fill="#f9faf9" d="M 629.5,589.5 C 636.373,588.965 643.04,589.799 649.5,592C 653.678,594.705 655.678,598.538 655.5,603.5C 651.5,603.5 647.5,603.5 643.5,603.5C 643.081,599.441 640.748,597.441 636.5,597.5C 629.083,599.363 628.75,601.863 635.5,605C 640.604,605.954 645.604,607.287 650.5,609C 656.109,612.277 657.942,617.11 656,623.5C 654.969,626.539 653.135,629.039 650.5,631C 640.449,634.83 630.783,634.163 621.5,629C 619.03,625.965 617.696,622.465 617.5,618.5C 621.5,618.5 625.5,618.5 629.5,618.5C 630.237,622.898 632.904,625.231 637.5,625.5C 640.757,625.045 643.091,623.379 644.5,620.5C 643.636,618.803 642.303,617.637 640.5,617C 634.284,615.614 628.284,613.614 622.5,611C 617.694,605.999 617.194,600.499 621,594.5C 623.682,592.415 626.516,590.748 629.5,589.5 Z"/></g>
<g><path style="opacity:1" fill="#f9faf9" d="M 675.5,589.5 C 693.769,587.767 702.769,596.101 702.5,614.5C 692.5,614.5 682.5,614.5 672.5,614.5C 674.649,623.611 679.982,626.111 688.5,622C 689.167,621 689.833,620 690.5,619C 694.152,618.501 697.818,618.335 701.5,618.5C 697.525,631.329 688.858,636.162 675.5,633C 668,630.833 663.167,626 661,618.5C 657.951,604.597 662.784,594.93 675.5,589.5 Z M 680.5,598.5 C 684.942,598.938 687.942,601.272 689.5,605.5C 683.863,606.663 678.196,606.83 672.5,606C 673.754,601.91 676.421,599.41 680.5,598.5 Z"/></g>
<g><path style="opacity:1" fill="#f9faf9" d="M 727.5,589.5 C 730.167,589.5 732.833,589.5 735.5,589.5C 735.5,593.5 735.5,597.5 735.5,601.5C 729.064,599.65 724.23,601.65 721,607.5C 720.5,615.827 720.334,624.16 720.5,632.5C 716.167,632.5 711.833,632.5 707.5,632.5C 707.5,618.5 707.5,604.5 707.5,590.5C 711.5,590.5 715.5,590.5 719.5,590.5C 719.34,592.199 719.506,593.866 720,595.5C 722.114,592.879 724.614,590.879 727.5,589.5 Z"/></g>
<g><path style="opacity:1" fill="#f9faf9" d="M 758.5,589.5 C 761.167,589.5 763.833,589.5 766.5,589.5C 766.5,593.5 766.5,597.5 766.5,601.5C 756.906,599.58 751.739,603.58 751,613.5C 750.5,619.825 750.334,626.158 750.5,632.5C 746.5,632.5 742.5,632.5 738.5,632.5C 738.5,618.5 738.5,604.5 738.5,590.5C 742.5,590.5 746.5,590.5 750.5,590.5C 750.34,592.199 750.506,593.866 751,595.5C 753.114,592.879 755.614,590.879 758.5,589.5 Z"/></g>
<g><path style="opacity:1" fill="#f9faf9" d="M 781.5,589.5 C 788.704,588.945 795.704,589.778 802.5,592C 803.667,593.167 804.833,594.333 806,595.5C 807.187,607.77 808.02,620.103 808.5,632.5C 803.795,632.965 799.295,632.299 795,630.5C 789.118,633.283 782.951,634.116 776.5,633C 767.515,628.211 765.515,621.378 770.5,612.5C 772.131,610.703 774.131,609.536 776.5,609C 781.833,608 787.167,607 792.5,606C 795.955,604.097 796.288,601.763 793.5,599C 791.782,598.654 790.115,598.154 788.5,597.5C 784.108,597.892 781.775,600.225 781.5,604.5C 777.5,604.5 773.5,604.5 769.5,604.5C 769.248,601.68 769.748,599.014 771,596.5C 773.998,593.262 777.498,590.929 781.5,589.5 Z M 792.5,613.5 C 793.5,613.5 794.5,613.5 795.5,613.5C 795.164,624.386 790.33,627.386 781,622.5C 780.333,620.833 780.333,619.167 781,617.5C 784.647,615.308 788.481,613.975 792.5,613.5 Z"/></g>
</svg>
