<?xml version="1.0" encoding="UTF-8"?>
<!DOCTYPE svg PUBLIC "-//W3C//DTD SVG 1.1//EN" "http://www.w3.org/Graphics/SVG/1.1/DTD/svg11.dtd">
<svg xmlns="http://www.w3.org/2000/svg" version="1.1" width="1024px" height="1024px" style="shape-rendering:geometricPrecision; text-rendering:geometricPrecision; image-rendering:optimizeQuality; fill-rule:evenodd; clip-rule:evenodd" xmlns:xlink="http://www.w3.org/1999/xlink">
<g><path style="opacity:1" fill="#f9c71e" d="M -0.5,-0.5 C 340.833,-0.5 682.167,-0.5 1023.5,-0.5C 1023.5,313.5 1023.5,627.5 1023.5,941.5C 682.167,941.5 340.833,941.5 -0.5,941.5C -0.5,627.5 -0.5,313.5 -0.5,-0.5 Z"/></g>
<g><path style="opacity:1" fill="#ecba1e" d="M 547.5,148.5 C 545.711,147.123 543.711,146.123 541.5,145.5C 541.167,145.5 540.833,145.5 540.5,145.5C 540.047,144.542 539.381,143.708 538.5,143C 536.19,142.503 533.857,142.337 531.5,142.5C 531.5,141.833 531.167,141.5 530.5,141.5C 382.667,140.334 234.667,140.167 86.5,141C 85.944,141.383 85.6107,141.883 85.5,142.5C 84.8333,142.5 84.1667,142.5 83.5,142.5C 83.1667,142.5 82.8333,142.5 82.5,142.5C 82.5,141.5 82.5,140.5 82.5,139.5C 233.5,139.333 384.5,139.5 535.5,140C 539.456,141.346 543.123,143.179 546.5,145.5C 547.386,146.325 547.719,147.325 547.5,148.5 Z"/></g>
<g><path style="opacity:1" fill="#a88318" d="M 530.5,141.5 C 382.126,141.17 233.793,141.503 85.5,142.5C 85.6107,141.883 85.944,141.383 86.5,141C 234.667,140.167 382.667,140.334 530.5,141.5 Z"/></g>
<g><path style="opacity:1" fill="#060606" d="M 786.5,141.5 C 788.833,141.5 791.167,141.5 793.5,141.5C 794.99,143.28 796.99,143.946 799.5,143.5C 802.901,144.634 806.234,145.968 809.5,147.5C 810.702,150.877 812.869,153.543 816,155.5C 817.581,158.751 818.914,162.085 820,165.5C 820.5,314.5 820.667,463.5 820.5,612.5C 820.5,613.5 820.5,614.5 820.5,615.5C 818.837,617.438 818.171,619.772 818.5,622.5C 817.629,625.003 816.963,627.67 816.5,630.5C 816.309,633.983 815.643,637.316 814.5,640.5C 813.326,641.514 812.66,642.847 812.5,644.5C 810.078,647.416 808.412,650.749 807.5,654.5C 805.469,655.539 804.136,657.205 803.5,659.5C 803.5,660.167 803.167,660.5 802.5,660.5C 799.063,665.05 795.396,669.383 791.5,673.5C 789.5,675.167 787.5,676.833 785.5,678.5C 781.578,680.103 778.245,682.437 775.5,685.5C 772.455,686.279 769.789,687.613 767.5,689.5C 765.973,689.427 764.973,690.094 764.5,691.5C 758.894,692.83 753.227,694.163 747.5,695.5C 746.167,695.5 744.833,695.5 743.5,695.5C 697.5,696.833 651.5,696.833 605.5,695.5C 605.167,695.5 604.833,695.5 604.5,695.5C 603.267,693.204 601.267,691.87 598.5,691.5C 596.167,689.5 593.833,687.5 591.5,685.5C 591.5,685.167 591.5,684.833 591.5,684.5C 588.889,677.077 587.555,669.411 587.5,661.5C 587.5,660.167 587.5,658.833 587.5,657.5C 588.999,654.953 590.499,652.286 592,649.5C 594.372,647.297 596.539,644.963 598.5,642.5C 600.027,642.573 601.027,641.906 601.5,640.5C 602.167,640.5 602.833,640.5 603.5,640.5C 605.924,639.97 608.257,639.136 610.5,638C 651.833,637.667 693.167,637.333 734.5,637C 736.315,636.243 737.981,635.41 739.5,634.5C 739.833,634.5 740.167,634.5 740.5,634.5C 743.849,633.831 746.516,632.164 748.5,629.5C 750.19,629.144 751.19,628.144 751.5,626.5C 753.074,626.063 754.241,625.063 755,623.5C 756.719,620.95 758.219,618.283 759.5,615.5C 760.148,613.502 760.981,611.502 762,609.5C 762.333,460.167 762.667,310.833 763,161.5C 764.319,159.713 765.152,157.713 765.5,155.5C 767.61,154.05 768.943,152.05 769.5,149.5C 770.637,148.211 771.97,147.211 773.5,146.5C 777.921,144.808 782.254,143.142 786.5,141.5 Z"/></g>
<g><path style="opacity:1" fill="#060606" d="M 920.5,141.5 C 926.12,143.595 931.454,146.262 936.5,149.5C 936.328,150.492 936.662,151.158 937.5,151.5C 937.833,153.833 939.167,155.167 941.5,155.5C 941.5,155.833 941.5,156.167 941.5,156.5C 943.124,159.931 944.124,163.598 944.5,167.5C 944.667,315.5 944.5,463.5 944,611.5C 942.609,621.1 942.109,630.767 942.5,640.5C 940.783,645.9 939.783,651.566 939.5,657.5C 937.96,664.536 936.293,671.536 934.5,678.5C 932.692,679.918 932.025,681.918 932.5,684.5C 929.464,687.436 928.13,691.102 928.5,695.5C 925.759,698.686 923.759,702.353 922.5,706.5C 921.551,708.737 920.884,711.071 920.5,713.5C 918.73,715.454 917.397,717.787 916.5,720.5C 916.5,720.833 916.5,721.167 916.5,721.5C 911.862,728.48 907.196,735.48 902.5,742.5C 900.14,743.865 898.473,745.865 897.5,748.5C 897.5,748.833 897.5,749.167 897.5,749.5C 889.785,756.548 882.452,763.881 875.5,771.5C 873.368,771.554 872.035,772.554 871.5,774.5C 868.17,776.169 865.503,778.502 863.5,781.5C 854.872,786.685 846.539,792.018 838.5,797.5C 836.517,797.157 835.183,797.824 834.5,799.5C 834.167,799.5 833.833,799.5 833.5,799.5C 830.519,799.182 828.185,800.182 826.5,802.5C 824.033,802.755 822.033,803.755 820.5,805.5C 817.67,805.694 815.004,806.361 812.5,807.5C 808.753,808.081 805.086,809.081 801.5,810.5C 799.345,811.001 797.678,812.001 796.5,813.5C 795.833,813.5 795.5,813.833 795.5,814.5C 791.5,815.167 787.5,815.833 783.5,816.5C 781.435,816.517 779.435,816.85 777.5,817.5C 763.874,818.825 750.207,819.992 736.5,821C 691.168,821.5 645.835,821.667 600.5,821.5C 599.432,820.566 598.099,820.232 596.5,820.5C 594.966,818.631 592.966,817.298 590.5,816.5C 587.861,814.527 585.527,812.194 583.5,809.5C 583.565,806.529 582.731,803.862 581,801.5C 580.088,796.536 579.588,791.536 579.5,786.5C 579.5,785.167 579.5,783.833 579.5,782.5C 579.5,782.167 579.5,781.833 579.5,781.5C 581.588,779.664 582.921,777.331 583.5,774.5C 586.5,770.833 589.833,767.5 593.5,764.5C 594.568,763.566 595.901,763.232 597.5,763.5C 648.126,762.676 698.792,762.176 749.5,762C 753.609,761.056 757.609,760.222 761.5,759.5C 763.483,759.843 764.817,759.176 765.5,757.5C 766.833,757.5 768.167,757.5 769.5,757.5C 772.228,757.829 774.562,757.163 776.5,755.5C 778.746,754.545 781.079,753.878 783.5,753.5C 785.698,753.88 787.365,753.213 788.5,751.5C 789.167,751.5 789.833,751.5 790.5,751.5C 792.38,751.771 793.713,751.104 794.5,749.5C 794.833,749.5 795.167,749.5 795.5,749.5C 804.672,745.776 813.339,741.109 821.5,735.5C 823.736,734.454 825.736,733.121 827.5,731.5C 827.833,730.833 828.167,730.167 828.5,729.5C 829.5,728.833 830.5,728.167 831.5,727.5C 837.806,723.194 843.139,717.861 847.5,711.5C 847.782,710.222 848.449,709.222 849.5,708.5C 853.387,705.728 856.054,702.061 857.5,697.5C 858.794,696.71 859.961,695.71 861,694.5C 863.25,688.403 866.25,682.737 870,677.5C 870.401,674.301 871.234,671.301 872.5,668.5C 874.213,667.365 874.88,665.698 874.5,663.5C 874.5,663.167 874.5,662.833 874.5,662.5C 876.28,661.01 876.946,659.01 876.5,656.5C 876.5,656.167 876.5,655.833 876.5,655.5C 878.344,653.721 879.01,651.388 878.5,648.5C 879.117,648.389 879.617,648.056 880,647.5C 881.049,643.867 881.882,640.201 882.5,636.5C 882.5,634.5 882.5,632.5 882.5,630.5C 883.322,628.611 884.155,626.611 885,624.5C 885.17,469.793 885.67,315.127 886.5,160.5C 887.63,158.685 888.296,156.685 888.5,154.5C 891.167,153.167 893.167,151.167 894.5,148.5C 902.272,143.107 910.938,140.774 920.5,141.5 Z"/></g>
<g><path style="opacity:1" fill="#44370e" d="M 530.5,141.5 C 531.167,141.5 531.5,141.833 531.5,142.5C 531.5,142.833 531.5,143.167 531.5,143.5C 382.167,143.5 232.833,143.5 83.5,143.5C 83.5,143.167 83.5,142.833 83.5,142.5C 84.1667,142.5 84.8333,142.5 85.5,142.5C 233.793,141.503 382.126,141.17 530.5,141.5 Z"/></g>
<g><path style="opacity:1" fill="#2e240b" d="M 793.5,141.5 C 795.898,141.259 797.898,141.926 799.5,143.5C 796.99,143.946 794.99,143.28 793.5,141.5 Z"/></g>
<g><path style="opacity:1" fill="#846914" d="M 809.5,147.5 C 806.234,145.968 802.901,144.634 799.5,143.5C 797.898,141.926 795.898,141.259 793.5,141.5C 791.167,141.5 788.833,141.5 786.5,141.5C 784.435,141.517 782.435,141.85 780.5,142.5C 780.611,141.883 780.944,141.383 781.5,141C 787.5,140.333 793.5,140.333 799.5,141C 802.186,142.368 804.853,143.701 807.5,145C 808.381,145.708 809.047,146.542 809.5,147.5 Z"/></g>
<g><path style="opacity:1" fill="#070706" d="M 82.5,143.5 C 82.8333,143.5 83.1667,143.5 83.5,143.5C 232.833,143.5 382.167,143.5 531.5,143.5C 534.564,143.928 537.564,144.594 540.5,145.5C 540.833,145.5 541.167,145.5 541.5,145.5C 543.802,147.463 546.135,149.463 548.5,151.5C 548.725,154.546 550.058,156.879 552.5,158.5C 553.819,164.796 554.819,171.13 555.5,177.5C 554.85,179.435 554.517,181.435 554.5,183.5C 552,186.494 550,189.827 548.5,193.5C 546.736,194.326 545.402,195.659 544.5,197.5C 540.393,198.39 536.726,200.057 533.5,202.5C 532.833,202.5 532.167,202.5 531.5,202.5C 383.5,202.5 235.5,202.5 87.5,202.5C 85.901,202.768 84.5676,202.434 83.5,201.5C 80.6628,199.033 77.3295,197.367 73.5,196.5C 72.9653,194.554 71.632,193.554 69.5,193.5C 69.2178,192.222 68.5511,191.222 67.5,190.5C 67.7148,188.821 67.0481,187.821 65.5,187.5C 62.4205,181.284 61.0872,174.618 61.5,167.5C 63.5839,161.941 66.2506,156.608 69.5,151.5C 71.677,150.721 73.3437,149.387 74.5,147.5C 76.0109,146.498 77.6776,145.831 79.5,145.5C 81.0269,145.573 82.0269,144.906 82.5,143.5 Z"/></g>
<g><path style="opacity:1" fill="#775e13" d="M 531.5,143.5 C 531.5,143.167 531.5,142.833 531.5,142.5C 533.857,142.337 536.19,142.503 538.5,143C 539.381,143.708 540.047,144.542 540.5,145.5C 537.564,144.594 534.564,143.928 531.5,143.5 Z"/></g>
<g><path style="opacity:1" fill="#785f12" d="M 920.5,141.5 C 926.984,142.01 932.317,144.677 936.5,149.5C 931.454,146.262 926.12,143.595 920.5,141.5 Z"/></g>
<g><path style="opacity:1" fill="#7c6313" d="M 82.5,142.5 C 82.8333,142.5 83.1667,142.5 83.5,142.5C 83.5,142.833 83.5,143.167 83.5,143.5C 83.1667,143.5 82.8333,143.5 82.5,143.5C 80.9731,143.427 79.9731,144.094 79.5,145.5C 77.6776,145.831 76.0109,146.498 74.5,147.5C 73.8333,147.833 73.1667,148.167 72.5,148.5C 75.0267,145.263 78.36,143.263 82.5,142.5 Z"/></g>
<g><path style="opacity:1" fill="#3c320d" d="M 82.5,143.5 C 82.0269,144.906 81.0269,145.573 79.5,145.5C 79.9731,144.094 80.9731,143.427 82.5,143.5 Z"/></g>
<g><path style="opacity:1" fill="#574511" d="M 786.5,141.5 C 782.254,143.142 777.921,144.808 773.5,146.5C 774.809,143.549 777.143,142.216 780.5,142.5C 782.435,141.85 784.435,141.517 786.5,141.5 Z"/></g>
<g><path style="opacity:1" fill="#745c12" d="M 920.5,141.5 C 910.938,140.774 902.272,143.107 894.5,148.5C 895.084,146.743 896.251,145.41 898,144.5C 905.146,140.599 912.646,139.599 920.5,141.5 Z"/></g>
<g><path style="opacity:1" fill="#785f13" d="M 541.5,145.5 C 543.711,146.123 545.711,147.123 547.5,148.5C 547.833,149.167 548.167,149.833 548.5,150.5C 548.5,150.833 548.5,151.167 548.5,151.5C 546.135,149.463 543.802,147.463 541.5,145.5 Z"/></g>
<g><path style="opacity:1" fill="#4c3b0f" d="M 74.5,147.5 C 73.3437,149.387 71.677,150.721 69.5,151.5C 69.8564,149.81 70.8564,148.81 72.5,148.5C 73.1667,148.167 73.8333,147.833 74.5,147.5 Z"/></g>
<g><path style="opacity:1" fill="#5b4811" d="M 894.5,148.5 C 893.167,151.167 891.167,153.167 888.5,154.5C 889.596,151.614 891.596,149.614 894.5,148.5 Z"/></g>
<g><path style="opacity:1" fill="#927513" d="M 936.5,149.5 C 938.19,149.856 939.19,150.856 939.5,152.5C 938.833,152.167 938.167,151.833 937.5,151.5C 936.662,151.158 936.328,150.492 936.5,149.5 Z"/></g>
<g><path style="opacity:1" fill="#c29819" d="M 548.5,151.5 C 548.5,151.167 548.5,150.833 548.5,150.5C 552.639,151.872 554.639,154.872 554.5,159.5C 553.833,159.167 553.167,158.833 552.5,158.5C 552.413,155.422 551.08,153.089 548.5,151.5 Z"/></g>
<g><path style="opacity:1" fill="#3d300e" d="M 769.5,149.5 C 768.943,152.05 767.61,154.05 765.5,155.5C 765.5,155.167 765.5,154.833 765.5,154.5C 766.08,152.251 767.413,150.585 769.5,149.5 Z"/></g>
<g><path style="opacity:1" fill="#6a5411" d="M 69.5,151.5 C 66.2506,156.608 63.5839,161.941 61.5,167.5C 61.5172,165.435 61.8505,163.435 62.5,161.5C 63.3519,157.13 65.6852,153.796 69.5,151.5 Z"/></g>
<g><path style="opacity:1" fill="#655111" d="M 937.5,151.5 C 938.167,151.833 938.833,152.167 939.5,152.5C 940.401,153.29 941.068,154.29 941.5,155.5C 939.167,155.167 937.833,153.833 937.5,151.5 Z"/></g>
<g><path style="opacity:1" fill="#342a0e" d="M 548.5,151.5 C 551.08,153.089 552.413,155.422 552.5,158.5C 550.058,156.879 548.725,154.546 548.5,151.5 Z"/></g>
<g><path style="opacity:1" fill="#6d5511" d="M 809.5,147.5 C 816.284,152.541 820.284,159.208 821.5,167.5C 821.5,315.833 821.5,464.167 821.5,612.5C 821.167,612.5 820.833,612.5 820.5,612.5C 820.667,463.5 820.5,314.5 820,165.5C 818.914,162.085 817.581,158.751 816,155.5C 812.869,153.543 810.702,150.877 809.5,147.5 Z"/></g>
<g><path style="opacity:1" fill="#775f10" d="M 888.5,154.5 C 888.296,156.685 887.63,158.685 886.5,160.5C 885.883,160.611 885.383,160.944 885,161.5C 884.833,315.001 884.333,468.334 883.5,621.5C 883.5,469.5 883.5,317.5 883.5,165.5C 883.34,163.801 883.506,162.134 884,160.5C 884.791,157.896 886.291,155.896 888.5,154.5 Z"/></g>
<g><path style="opacity:1" fill="#795f12" d="M 554.5,161.5 C 555.117,161.611 555.617,161.944 556,162.5C 556.495,164.473 556.662,166.473 556.5,168.5C 555.076,166.485 554.41,164.152 554.5,161.5 Z"/></g>
<g><path style="opacity:1" fill="#63500f" d="M 765.5,154.5 C 765.5,154.833 765.5,155.167 765.5,155.5C 762.231,158.677 760.731,162.677 761,167.5C 760.833,315.001 760.333,462.334 759.5,609.5C 759.17,460.46 759.503,311.46 760.5,162.5C 761.049,160.099 761.882,157.765 763,155.5C 763.671,154.748 764.504,154.414 765.5,154.5 Z"/></g>
<g><path style="opacity:1" fill="#957715" d="M 62.5,161.5 C 61.8505,163.435 61.5172,165.435 61.5,167.5C 61.0872,174.618 62.4205,181.284 65.5,187.5C 65.5569,188.609 65.8902,189.609 66.5,190.5C 65.1411,189.993 64.1411,188.993 63.5,187.5C 60.6053,179.474 59.7719,171.14 61,162.5C 61.3826,161.944 61.8826,161.611 62.5,161.5 Z"/></g>
<g><path style="opacity:1" fill="#a78218" d="M 941.5,156.5 C 943.532,157.561 944.866,159.228 945.5,161.5C 946.5,314.832 946.833,468.165 946.5,621.5C 946.167,621.5 945.833,621.5 945.5,621.5C 945.5,620.167 945.5,618.833 945.5,617.5C 945.833,467.332 945.5,317.332 944.5,167.5C 944.124,163.598 943.124,159.931 941.5,156.5 Z"/></g>
<g><path style="opacity:1" fill="#b58f18" d="M 760.5,162.5 C 759.503,311.46 759.17,460.46 759.5,609.5C 759.5,610.5 759.5,611.5 759.5,612.5C 759.167,612.5 758.833,612.5 758.5,612.5C 758.333,462.833 758.5,313.166 759,163.5C 759.383,162.944 759.883,162.611 760.5,162.5 Z"/></g>
<g><path style="opacity:1" fill="#deae1c" d="M 821.5,167.5 C 822.117,167.611 822.617,167.944 823,168.5C 823.167,242.833 823.333,317.167 823.5,391.5C 823.5,466.17 822.833,540.503 821.5,614.5C 821.5,613.833 821.5,613.167 821.5,612.5C 821.5,464.167 821.5,315.833 821.5,167.5 Z"/></g>
<g><path style="opacity:1" fill="#191206" d="M 886.5,160.5 C 885.67,315.127 885.17,469.793 885,624.5C 884.155,626.611 883.322,628.611 882.5,630.5C 882.5,630.167 882.5,629.833 882.5,629.5C 882.194,626.615 882.527,623.948 883.5,621.5C 884.333,468.334 884.833,315.001 885,161.5C 885.383,160.944 885.883,160.611 886.5,160.5 Z"/></g>
<g><path style="opacity:1" fill="#3b300d" d="M 552.5,158.5 C 553.167,158.833 553.833,159.167 554.5,159.5C 554.5,160.167 554.5,160.833 554.5,161.5C 554.41,164.152 555.076,166.485 556.5,168.5C 556.5,171.5 556.5,174.5 556.5,177.5C 556.167,177.5 555.833,177.5 555.5,177.5C 554.819,171.13 553.819,164.796 552.5,158.5 Z"/></g>
<g><path style="opacity:1" fill="#171308" d="M 765.5,155.5 C 765.152,157.713 764.319,159.713 763,161.5C 762.667,310.833 762.333,460.167 762,609.5C 760.981,611.502 760.148,613.502 759.5,615.5C 759.5,614.5 759.5,613.5 759.5,612.5C 759.5,611.5 759.5,610.5 759.5,609.5C 760.333,462.334 760.833,315.001 761,167.5C 760.731,162.677 762.231,158.677 765.5,155.5 Z"/></g>
<g><path style="opacity:1" fill="#9d7d12" d="M 883.5,165.5 C 883.5,317.5 883.5,469.5 883.5,621.5C 882.527,623.948 882.194,626.615 882.5,629.5C 880.96,631.838 880.294,634.505 880.5,637.5C 880.785,640.829 880.118,643.829 878.5,646.5C 880.727,634.047 881.894,621.38 882,608.5C 882.167,460.666 882.667,312.999 883.5,165.5 Z"/></g>
<g><path style="opacity:1" fill="#907114" d="M 555.5,177.5 C 555.833,177.5 556.167,177.5 556.5,177.5C 556.483,179.565 556.15,181.565 555.5,183.5C 555.167,183.5 554.833,183.5 554.5,183.5C 554.517,181.435 554.85,179.435 555.5,177.5 Z"/></g>
<g><path style="opacity:1" fill="#4b3c0f" d="M 65.5,187.5 C 67.0481,187.821 67.7148,188.821 67.5,190.5C 67.1667,190.5 66.8333,190.5 66.5,190.5C 65.8902,189.609 65.5569,188.609 65.5,187.5 Z"/></g>
<g><path style="opacity:1" fill="#705911" d="M 554.5,183.5 C 553.521,187.461 551.521,190.794 548.5,193.5C 550,189.827 552,186.494 554.5,183.5 Z"/></g>
<g><path style="opacity:1" fill="#8a6f12" d="M 66.5,190.5 C 66.8333,190.5 67.1667,190.5 67.5,190.5C 68.5511,191.222 69.2178,192.222 69.5,193.5C 68.609,192.89 67.609,192.557 66.5,192.5C 66.5,191.833 66.5,191.167 66.5,190.5 Z"/></g>
<g><path style="opacity:1" fill="#4b3c0f" d="M 69.5,193.5 C 71.632,193.554 72.9653,194.554 73.5,196.5C 71.5956,196.262 70.2623,195.262 69.5,193.5 Z"/></g>
<g><path style="opacity:1" fill="#daac1c" d="M 554.5,183.5 C 554.833,183.5 555.167,183.5 555.5,183.5C 554.495,190.532 550.828,195.532 544.5,198.5C 544.5,198.167 544.5,197.833 544.5,197.5C 545.402,195.659 546.736,194.326 548.5,193.5C 551.521,190.794 553.521,187.461 554.5,183.5 Z"/></g>
<g><path style="opacity:1" fill="#43360e" d="M 73.5,196.5 C 77.3295,197.367 80.6628,199.033 83.5,201.5C 79.6705,200.633 76.3372,198.967 73.5,196.5 Z"/></g>
<g><path style="opacity:1" fill="#917415" d="M 544.5,197.5 C 544.5,197.833 544.5,198.167 544.5,198.5C 541.188,200.813 537.521,202.147 533.5,202.5C 536.726,200.057 540.393,198.39 544.5,197.5 Z"/></g>
<g><path style="opacity:1" fill="#ebb91e" d="M 66.5,192.5 C 67.609,192.557 68.609,192.89 69.5,193.5C 70.2623,195.262 71.5956,196.262 73.5,196.5C 76.3372,198.967 79.6705,200.633 83.5,201.5C 84.5676,202.434 85.901,202.768 87.5,202.5C 160.997,203.833 234.83,204.5 309,204.5C 382.833,204.333 456.667,204.167 530.5,204C 531.056,203.617 531.389,203.117 531.5,202.5C 532.167,202.5 532.833,202.5 533.5,202.5C 537.521,202.147 541.188,200.813 544.5,198.5C 543.969,200.624 542.635,202.124 540.5,203C 538.423,203.192 536.423,203.692 534.5,204.5C 384.5,205.833 234.5,205.833 84.5,204.5C 80.1717,202.67 75.8384,200.836 71.5,199C 69.5937,196.939 67.927,194.772 66.5,192.5 Z"/></g>
<g><path style="opacity:1" fill="#ae8716" d="M 87.5,202.5 C 235.5,202.5 383.5,202.5 531.5,202.5C 531.389,203.117 531.056,203.617 530.5,204C 456.667,204.167 382.833,204.333 309,204.5C 234.83,204.5 160.997,203.833 87.5,202.5 Z"/></g>
<g><path style="opacity:1" fill="#cfa31a" d="M 274.5,277.5 C 273.391,277.443 272.391,277.11 271.5,276.5C 271.144,274.81 270.144,273.81 268.5,273.5C 266.438,270.782 263.772,268.782 260.5,267.5C 258.784,267.371 257.117,267.038 255.5,266.5C 198.668,265.335 141.668,265.168 84.5,266C 81.7983,266.84 79.1317,267.673 76.5,268.5C 76.7214,267.265 77.3881,266.265 78.5,265.5C 80.9661,264.877 83.2994,264.043 85.5,263C 141.836,262.167 198.17,262.333 254.5,263.5C 263.327,265.234 269.994,269.9 274.5,277.5 Z"/></g>
<g><path style="opacity:1" fill="#cea21a" d="M 543.5,269.5 C 540.291,267.95 536.957,266.616 533.5,265.5C 476.166,265.333 418.832,265.5 361.5,266C 356.781,267.898 352.448,270.398 348.5,273.5C 348.48,271.857 349.147,270.524 350.5,269.5C 354.729,267.311 359.062,265.311 363.5,263.5C 419.833,262.167 476.167,262.167 532.5,263.5C 535.107,264.318 537.774,264.818 540.5,265C 542.439,265.908 543.439,267.408 543.5,269.5 Z"/></g>
<g><path style="opacity:1" fill="#46390c" d="M 255.5,266.5 C 198.832,266.333 142.166,266.5 85.5,267C 82.0409,267.984 78.7075,269.15 75.5,270.5C 75.8333,269.833 76.1667,269.167 76.5,268.5C 79.1317,267.673 81.7983,266.84 84.5,266C 141.668,265.168 198.668,265.335 255.5,266.5 Z"/></g>
<g><path style="opacity:1" fill="#473a0c" d="M 533.5,265.5 C 533.5,265.833 533.5,266.167 533.5,266.5C 476.499,266.333 419.499,266.5 362.5,267C 357.652,269.256 352.985,271.756 348.5,274.5C 348.5,274.167 348.5,273.833 348.5,273.5C 352.448,270.398 356.781,267.898 361.5,266C 418.832,265.5 476.166,265.333 533.5,265.5 Z"/></g>
<g><path style="opacity:1" fill="#060606" d="M 255.5,266.5 C 256.635,268.213 258.302,268.88 260.5,268.5C 262.844,270.617 265.511,272.284 268.5,273.5C 268.856,275.19 269.856,276.19 271.5,276.5C 272.502,278.011 273.169,279.678 273.5,281.5C 273.5,282.833 274.167,283.5 275.5,283.5C 276.167,285.833 276.833,288.167 277.5,290.5C 277.667,460.167 277.5,629.834 277,799.5C 275.731,800.905 275.231,802.571 275.5,804.5C 273.952,804.821 273.285,805.821 273.5,807.5C 272.449,808.222 271.782,809.222 271.5,810.5C 269.167,812.167 267.167,814.167 265.5,816.5C 262.454,816.725 260.121,818.058 258.5,820.5C 258.167,820.5 257.833,820.5 257.5,820.5C 255.379,820.325 253.379,820.659 251.5,821.5C 247.102,821.706 242.768,821.373 238.5,820.5C 237.5,820.5 236.5,820.5 235.5,820.5C 233.434,818.801 231.1,817.468 228.5,816.5C 227.833,816.167 227.167,815.833 226.5,815.5C 224.833,813.5 223.167,811.5 221.5,809.5C 220.546,806.206 219.046,803.206 217,800.5C 216.503,798.19 216.337,795.857 216.5,793.5C 216.667,637.5 216.5,481.5 216,325.5C 173.572,324.503 131.072,324.17 88.5,324.5C 86.1432,324.663 83.8098,324.497 81.5,324C 79.1594,322.047 76.4927,320.881 73.5,320.5C 73.1788,318.952 72.1788,318.285 70.5,318.5C 67.6864,314.78 65.353,310.78 63.5,306.5C 63.8799,304.302 63.2132,302.635 61.5,301.5C 61.5,298.167 61.5,294.833 61.5,291.5C 63.8867,285.726 66.5533,280.059 69.5,274.5C 71.4044,274.262 72.7377,273.262 73.5,271.5C 74.1667,271.167 74.8333,270.833 75.5,270.5C 78.7075,269.15 82.0409,267.984 85.5,267C 142.166,266.5 198.832,266.333 255.5,266.5 Z"/></g>
<g><path style="opacity:1" fill="#070606" d="M 533.5,266.5 C 536.772,267.956 540.106,269.29 543.5,270.5C 544.167,270.833 544.833,271.167 545.5,271.5C 546.167,272.5 546.833,273.5 547.5,274.5C 548.631,277.25 550.297,279.583 552.5,281.5C 552.5,282.167 552.833,282.5 553.5,282.5C 553.839,287.197 554.506,291.863 555.5,296.5C 555.325,301.355 554.325,306.021 552.5,310.5C 550.169,313.825 547.836,317.158 545.5,320.5C 541.472,321.838 537.472,323.171 533.5,324.5C 489.832,324.333 446.165,324.5 402.5,325C 401.956,325.717 401.289,326.217 400.5,326.5C 399.833,484.667 399.167,643.001 398.5,801.5C 397.579,803.777 396.913,806.11 396.5,808.5C 396.5,808.833 396.5,809.167 396.5,809.5C 393.187,812.478 389.853,815.478 386.5,818.5C 386.167,818.5 385.833,818.5 385.5,818.5C 383.833,819.167 382.167,819.833 380.5,820.5C 374.159,821.779 367.826,821.779 361.5,820.5C 359.079,820.122 356.746,819.455 354.5,818.5C 352.215,815.548 349.548,812.882 346.5,810.5C 345.662,810.158 345.328,809.492 345.5,808.5C 345.068,807.29 344.401,806.29 343.5,805.5C 342.545,803.254 341.878,800.921 341.5,798.5C 340.167,628.833 340.167,459.167 341.5,289.5C 341.5,289.167 341.5,288.833 341.5,288.5C 343.68,285.474 345.347,282.14 346.5,278.5C 347.6,277.395 348.267,276.062 348.5,274.5C 352.985,271.756 357.652,269.256 362.5,267C 419.499,266.5 476.499,266.333 533.5,266.5 Z"/></g>
<g><path style="opacity:1" fill="#50410e" d="M 255.5,266.5 C 257.117,267.038 258.784,267.371 260.5,267.5C 260.5,267.833 260.5,268.167 260.5,268.5C 258.302,268.88 256.635,268.213 255.5,266.5 Z"/></g>
<g><path style="opacity:1" fill="#6b5411" d="M 533.5,266.5 C 533.5,266.167 533.5,265.833 533.5,265.5C 536.957,266.616 540.291,267.95 543.5,269.5C 543.5,269.833 543.5,270.167 543.5,270.5C 540.106,269.29 536.772,267.956 533.5,266.5 Z"/></g>
<g><path style="opacity:1" fill="#806613" d="M 260.5,268.5 C 260.5,268.167 260.5,267.833 260.5,267.5C 263.772,268.782 266.438,270.782 268.5,273.5C 265.511,272.284 262.844,270.617 260.5,268.5 Z"/></g>
<g><path style="opacity:1" fill="#d1a51a" d="M 545.5,271.5 C 547.722,271.178 549.556,271.845 551,273.5C 552.865,277.331 554.365,281.665 555.5,286.5C 554.833,285.167 554.167,283.833 553.5,282.5C 552.833,282.5 552.5,282.167 552.5,281.5C 551.727,278.484 550.061,276.15 547.5,274.5C 546.833,273.5 546.167,272.5 545.5,271.5 Z"/></g>
<g><path style="opacity:1" fill="#725b11" d="M 73.5,271.5 C 72.7377,273.262 71.4044,274.262 69.5,274.5C 70.2623,272.738 71.5956,271.738 73.5,271.5 Z"/></g>
<g><path style="opacity:1" fill="#7f6312" d="M 268.5,273.5 C 270.144,273.81 271.144,274.81 271.5,276.5C 269.856,276.19 268.856,275.19 268.5,273.5 Z"/></g>
<g><path style="opacity:1" fill="#9d7c14" d="M 348.5,274.5 C 348.267,276.062 347.6,277.395 346.5,278.5C 345.5,279.167 344.5,279.833 343.5,280.5C 344.316,277.893 345.983,275.893 348.5,274.5 Z"/></g>
<g><path style="opacity:1" fill="#483a0f" d="M 547.5,274.5 C 550.061,276.15 551.727,278.484 552.5,281.5C 550.297,279.583 548.631,277.25 547.5,274.5 Z"/></g>
<g><path style="opacity:1" fill="#483b0e" d="M 273.5,281.5 C 274.833,281.5 275.5,282.167 275.5,283.5C 275.5,282.167 274.833,281.5 273.5,281.5 Z"/></g>
<g><path style="opacity:1" fill="#987814" d="M 343.5,281.5 C 343.573,283.027 342.906,284.027 341.5,284.5C 341.427,282.973 342.094,281.973 343.5,281.5 Z"/></g>
<g><path style="opacity:1" fill="#352b0d" d="M 346.5,278.5 C 345.347,282.14 343.68,285.474 341.5,288.5C 341.5,287.5 341.5,286.5 341.5,285.5C 341.5,285.167 341.5,284.833 341.5,284.5C 342.906,284.027 343.573,283.027 343.5,281.5C 343.5,281.167 343.5,280.833 343.5,280.5C 344.5,279.833 345.5,279.167 346.5,278.5 Z"/></g>
<g><path style="opacity:1" fill="#614e10" d="M 69.5,274.5 C 66.5533,280.059 63.8867,285.726 61.5,291.5C 61.5172,289.435 61.8505,287.435 62.5,285.5C 63.6281,281.044 65.9614,277.377 69.5,274.5 Z"/></g>
<g><path style="opacity:1" fill="#937414" d="M 271.5,276.5 C 272.391,277.11 273.391,277.443 274.5,277.5C 276.088,281.793 277.421,286.126 278.5,290.5C 278.167,290.5 277.833,290.5 277.5,290.5C 276.833,288.167 276.167,285.833 275.5,283.5C 275.5,282.167 274.833,281.5 273.5,281.5C 273.169,279.678 272.502,278.011 271.5,276.5 Z"/></g>
<g><path style="opacity:1" fill="#635011" d="M 341.5,289.5 C 340.167,459.167 340.167,628.833 341.5,798.5C 340.778,798.082 340.278,797.416 340,796.5C 339.833,712 339.667,627.5 339.5,543C 339.5,458.164 340.167,373.664 341.5,289.5 Z"/></g>
<g><path style="opacity:1" fill="#50400e" d="M 553.5,282.5 C 554.167,283.833 554.833,285.167 555.5,286.5C 556.833,293.167 556.833,299.833 555.5,306.5C 554.857,308.076 553.857,309.41 552.5,310.5C 554.325,306.021 555.325,301.355 555.5,296.5C 554.506,291.863 553.839,287.197 553.5,282.5 Z"/></g>
<g><path style="opacity:1" fill="#c09819" d="M 555.5,286.5 C 556.117,286.611 556.617,286.944 557,287.5C 557.667,293.5 557.667,299.5 557,305.5C 556.617,306.056 556.117,306.389 555.5,306.5C 556.833,299.833 556.833,293.167 555.5,286.5 Z"/></g>
<g><path style="opacity:1" fill="#987815" d="M 62.5,285.5 C 61.8505,287.435 61.5172,289.435 61.5,291.5C 61.5,294.833 61.5,298.167 61.5,301.5C 61.7959,303.403 62.4625,305.07 63.5,306.5C 65.353,310.78 67.6864,314.78 70.5,318.5C 70.5,318.833 70.5,319.167 70.5,319.5C 69.2652,319.279 68.2652,318.612 67.5,317.5C 60.7316,308.316 58.5649,297.982 61,286.5C 61.3826,285.944 61.8826,285.611 62.5,285.5 Z"/></g>
<g><path style="opacity:1" fill="#c09b18" d="M 341.5,285.5 C 341.5,286.5 341.5,287.5 341.5,288.5C 341.5,288.833 341.5,289.167 341.5,289.5C 340.167,373.664 339.5,458.164 339.5,543C 339.667,627.5 339.833,712 340,796.5C 340.278,797.416 340.778,798.082 341.5,798.5C 341.878,800.921 342.545,803.254 343.5,805.5C 343.285,807.179 343.952,808.179 345.5,808.5C 345.328,809.492 345.662,810.158 346.5,810.5C 346.5,811.167 346.5,811.833 346.5,812.5C 344.215,811.043 342.382,809.043 341,806.5C 340.654,803.424 339.988,800.424 339,797.5C 338.333,627.833 338.333,458.167 339,288.5C 339.852,287.429 340.685,286.429 341.5,285.5 Z"/></g>
<g><path style="opacity:1" fill="#cea019" d="M 278.5,291.5 C 279.833,375.664 280.5,460.164 280.5,545C 280.333,629.5 280.167,714 280,798.5C 279.667,800.167 279.333,801.833 279,803.5C 278.583,804.756 277.75,805.423 276.5,805.5C 276.231,803.571 276.731,801.905 278,800.5C 278.5,630.834 278.667,461.167 278.5,291.5 Z"/></g>
<g><path style="opacity:1" fill="#41370d" d="M 61.5,301.5 C 63.2132,302.635 63.8799,304.302 63.5,306.5C 62.4625,305.07 61.7959,303.403 61.5,301.5 Z"/></g>
<g><path style="opacity:1" fill="#715910" d="M 552.5,310.5 C 551.657,314.844 549.324,318.177 545.5,320.5C 547.836,317.158 550.169,313.825 552.5,310.5 Z"/></g>
<g><path style="opacity:1" fill="#655011" d="M 70.5,319.5 C 70.5,319.167 70.5,318.833 70.5,318.5C 72.1788,318.285 73.1788,318.952 73.5,320.5C 72.609,319.89 71.609,319.557 70.5,319.5 Z"/></g>
<g><path style="opacity:1" fill="#392a0c" d="M 88.5,324.5 C 131.072,324.17 173.572,324.503 216,325.5C 216.5,481.5 216.667,637.5 216.5,793.5C 215.833,637.833 215.167,482.167 214.5,326.5C 172.5,325.833 130.5,325.167 88.5,324.5 Z"/></g>
<g><path style="opacity:1" fill="#886d14" d="M 545.5,320.5 C 545.5,320.833 545.5,321.167 545.5,321.5C 542.019,324.297 538.019,325.63 533.5,325.5C 533.5,325.167 533.5,324.833 533.5,324.5C 537.472,323.171 541.472,321.838 545.5,320.5 Z"/></g>
<g><path style="opacity:1" fill="#5c4a0c" d="M 73.5,320.5 C 76.4927,320.881 79.1594,322.047 81.5,324C 83.8098,324.497 86.1432,324.663 88.5,324.5C 130.5,325.167 172.5,325.833 214.5,326.5C 172.167,326.5 129.833,326.5 87.5,326.5C 82.1876,325.817 77.521,323.817 73.5,320.5 Z"/></g>
<g><path style="opacity:1" fill="#0d0c06" d="M 400.5,326.5 C 400.5,483.833 400.5,641.167 400.5,798.5C 399.556,801.806 398.556,805.139 397.5,808.5C 397.167,808.5 396.833,808.5 396.5,808.5C 396.913,806.11 397.579,803.777 398.5,801.5C 399.167,643.001 399.833,484.667 400.5,326.5 Z"/></g>
<g><path style="opacity:1" fill="#a78218" d="M 533.5,325.5 C 533.389,326.117 533.056,326.617 532.5,327C 489.331,327.167 446.331,327.667 403.5,328.5C 403.833,485.001 403.5,641.334 402.5,797.5C 402.5,640.5 402.5,483.5 402.5,326.5C 446.197,326.817 489.863,326.484 533.5,325.5 Z"/></g>
<g><path style="opacity:1" fill="#eab91e" d="M 70.5,319.5 C 71.609,319.557 72.609,319.89 73.5,320.5C 77.521,323.817 82.1876,325.817 87.5,326.5C 129.33,327.499 171.33,327.832 213.5,327.5C 213.5,327.833 213.5,328.167 213.5,328.5C 169.828,328.833 126.162,328.5 82.5,327.5C 79.3723,326.625 76.3723,325.458 73.5,324C 71.5614,323.092 70.5614,321.592 70.5,319.5 Z"/></g>
<g><path style="opacity:1" fill="#ecba1e" d="M 545.5,321.5 C 545.586,322.496 545.252,323.329 544.5,324C 541.918,325.333 539.251,326.5 536.5,327.5C 492.172,328.5 447.838,328.833 403.5,328.5C 446.331,327.667 489.331,327.167 532.5,327C 533.056,326.617 533.389,326.117 533.5,325.5C 538.019,325.63 542.019,324.297 545.5,321.5 Z"/></g>
<g><path style="opacity:1" fill="#d4a819" d="M 213.5,327.5 C 214.17,484.706 214.836,642.039 215.5,799.5C 214.883,799.389 214.383,799.056 214,798.5C 213.5,641.834 213.333,485.167 213.5,328.5C 213.5,328.167 213.5,327.833 213.5,327.5 Z"/></g>
<g><path style="opacity:1" fill="#836813" d="M 87.5,326.5 C 129.833,326.5 172.167,326.5 214.5,326.5C 215.167,482.167 215.833,637.833 216.5,793.5C 216.337,795.857 216.503,798.19 217,800.5C 219.046,803.206 220.546,806.206 221.5,809.5C 220.5,808.833 219.5,808.167 218.5,807.5C 217.344,804.921 216.344,802.255 215.5,799.5C 214.836,642.039 214.17,484.706 213.5,327.5C 171.33,327.832 129.33,327.499 87.5,326.5 Z"/></g>
<g><path style="opacity:1" fill="#47380e" d="M 533.5,324.5 C 533.5,324.833 533.5,325.167 533.5,325.5C 489.863,326.484 446.197,326.817 402.5,326.5C 402.5,483.5 402.5,640.5 402.5,797.5C 401.833,797.5 401.5,797.833 401.5,798.5C 401.167,798.5 400.833,798.5 400.5,798.5C 400.5,641.167 400.5,483.833 400.5,326.5C 401.289,326.217 401.956,325.717 402.5,325C 446.165,324.5 489.832,324.333 533.5,324.5 Z"/></g>
<g><path style="opacity:1" fill="#be9818" d="M 758.5,612.5 C 758.598,614.553 757.931,616.22 756.5,617.5C 756.077,615.219 756.744,613.552 758.5,612.5 Z"/></g>
<g><path style="opacity:1" fill="#261d0a" d="M 944.5,167.5 C 945.5,317.332 945.833,467.332 945.5,617.5C 943.762,622.217 943.096,627.217 943.5,632.5C 943.5,635.167 943.5,637.833 943.5,640.5C 943.167,640.5 942.833,640.5 942.5,640.5C 942.109,630.767 942.609,621.1 944,611.5C 944.5,463.5 944.667,315.5 944.5,167.5 Z"/></g>
<g><path style="opacity:1" fill="#43360c" d="M 820.5,615.5 C 820.5,616.833 820.5,618.167 820.5,619.5C 819.833,620.5 819.167,621.5 818.5,622.5C 818.171,619.772 818.837,617.438 820.5,615.5 Z"/></g>
<g><path style="opacity:1" fill="#bc9419" d="M 820.5,612.5 C 820.833,612.5 821.167,612.5 821.5,612.5C 821.5,613.167 821.5,613.833 821.5,614.5C 822.08,618.649 821.414,622.316 819.5,625.5C 820.15,623.565 820.483,621.565 820.5,619.5C 820.5,618.167 820.5,616.833 820.5,615.5C 820.5,614.5 820.5,613.5 820.5,612.5 Z"/></g>
<g><path style="opacity:1" fill="#715912" d="M 758.5,612.5 C 758.833,612.5 759.167,612.5 759.5,612.5C 759.5,613.5 759.5,614.5 759.5,615.5C 758.219,618.283 756.719,620.95 755,623.5C 754.241,625.063 753.074,626.063 751.5,626.5C 753.357,623.586 755.023,620.586 756.5,617.5C 757.931,616.22 758.598,614.553 758.5,612.5 Z"/></g>
<g><path style="opacity:1" fill="#7f6613" d="M 820.5,619.5 C 820.483,621.565 820.15,623.565 819.5,625.5C 819.5,626.167 819.167,626.5 818.5,626.5C 818.5,625.167 818.5,623.833 818.5,622.5C 819.167,621.5 819.833,620.5 820.5,619.5 Z"/></g>
<g><path style="opacity:1" fill="#695210" d="M 751.5,626.5 C 751.19,628.144 750.19,629.144 748.5,629.5C 748.81,627.856 749.81,626.856 751.5,626.5 Z"/></g>
<g><path style="opacity:1" fill="#31280c" d="M 818.5,622.5 C 818.5,623.833 818.5,625.167 818.5,626.5C 818.5,627.5 818.5,628.5 818.5,629.5C 817.833,629.833 817.167,630.167 816.5,630.5C 816.963,627.67 817.629,625.003 818.5,622.5 Z"/></g>
<g><path style="opacity:1" fill="#5a480f" d="M 945.5,617.5 C 945.5,618.833 945.5,620.167 945.5,621.5C 945.884,625.489 945.217,629.155 943.5,632.5C 943.096,627.217 943.762,622.217 945.5,617.5 Z"/></g>
<g><path style="opacity:1" fill="#5f4c10" d="M 748.5,629.5 C 746.516,632.164 743.849,633.831 740.5,634.5C 740.5,634.167 740.5,633.833 740.5,633.5C 743.035,631.983 745.702,630.65 748.5,629.5 Z"/></g>
<g><path style="opacity:1" fill="#eeb81e" d="M 730.5,633.5 C 692.669,634.333 654.669,634.833 616.5,635C 615.944,635.383 615.611,635.883 615.5,636.5C 611.653,636.381 607.986,637.047 604.5,638.5C 602.973,638.427 601.973,639.094 601.5,640.5C 599.973,640.427 598.973,641.094 598.5,642.5C 595.569,644.091 592.902,646.091 590.5,648.5C 591.662,645.32 593.662,642.653 596.5,640.5C 601.949,637.906 607.616,635.906 613.5,634.5C 652.494,633.5 691.494,633.167 730.5,633.5 Z"/></g>
<g><path style="opacity:1" fill="#c79c1c" d="M 730.5,633.5 C 733.833,633.5 737.167,633.5 740.5,633.5C 740.5,633.833 740.5,634.167 740.5,634.5C 740.167,634.5 739.833,634.5 739.5,634.5C 737.073,634.523 734.74,635.023 732.5,636C 693.501,636.5 654.501,636.667 615.5,636.5C 615.611,635.883 615.944,635.383 616.5,635C 654.669,634.833 692.669,634.333 730.5,633.5 Z"/></g>
<g><path style="opacity:1" fill="#866a14" d="M 818.5,629.5 C 817.86,632.865 817.026,636.198 816,639.5C 815.617,640.056 815.117,640.389 814.5,640.5C 815.643,637.316 816.309,633.983 816.5,630.5C 817.167,630.167 817.833,629.833 818.5,629.5 Z"/></g>
<g><path style="opacity:1" fill="#6a5710" d="M 882.5,629.5 C 882.5,629.833 882.5,630.167 882.5,630.5C 882.5,632.5 882.5,634.5 882.5,636.5C 881.833,636.833 881.167,637.167 880.5,637.5C 880.294,634.505 880.96,631.838 882.5,629.5 Z"/></g>
<g><path style="opacity:1" fill="#3a2d0c" d="M 739.5,634.5 C 737.981,635.41 736.315,636.243 734.5,637C 693.167,637.333 651.833,637.667 610.5,638C 608.257,639.136 605.924,639.97 603.5,640.5C 603.833,639.833 604.167,639.167 604.5,638.5C 607.986,637.047 611.653,636.381 615.5,636.5C 654.501,636.667 693.501,636.5 732.5,636C 734.74,635.023 737.073,634.523 739.5,634.5 Z"/></g>
<g><path style="opacity:1" fill="#836613" d="M 604.5,638.5 C 604.167,639.167 603.833,639.833 603.5,640.5C 602.833,640.5 602.167,640.5 601.5,640.5C 601.973,639.094 602.973,638.427 604.5,638.5 Z"/></g>
<g><path style="opacity:1" fill="#6c550f" d="M 601.5,640.5 C 601.027,641.906 600.027,642.573 598.5,642.5C 598.973,641.094 599.973,640.427 601.5,640.5 Z"/></g>
<g><path style="opacity:1" fill="#28210b" d="M 882.5,636.5 C 881.882,640.201 881.049,643.867 880,647.5C 879.617,648.056 879.117,648.389 878.5,648.5C 878.5,647.833 878.5,647.167 878.5,646.5C 880.118,643.829 880.785,640.829 880.5,637.5C 881.167,637.167 881.833,636.833 882.5,636.5 Z"/></g>
<g><path style="opacity:1" fill="#745c10" d="M 814.5,640.5 C 814.771,642.38 814.104,643.713 812.5,644.5C 812.66,642.847 813.326,641.514 814.5,640.5 Z"/></g>
<g><path style="opacity:1" fill="#826714" d="M 598.5,642.5 C 596.539,644.963 594.372,647.297 592,649.5C 590.499,652.286 588.999,654.953 587.5,657.5C 588.047,654.298 589.047,651.298 590.5,648.5C 592.902,646.091 595.569,644.091 598.5,642.5 Z"/></g>
<g><path style="opacity:1" fill="#624d0f" d="M 812.5,644.5 C 811.588,648.251 809.922,651.584 807.5,654.5C 808.412,650.749 810.078,647.416 812.5,644.5 Z"/></g>
<g><path style="opacity:1" fill="#937415" d="M 942.5,640.5 C 942.833,640.5 943.167,640.5 943.5,640.5C 943.5,643.167 943.5,645.833 943.5,648.5C 942.833,649.833 942.167,651.167 941.5,652.5C 941.505,648.466 941.838,644.466 942.5,640.5 Z"/></g>
<g><path style="opacity:1" fill="#c59c19" d="M 945.5,621.5 C 945.833,621.5 946.167,621.5 946.5,621.5C 946.666,626.179 946.499,630.845 946,635.5C 944.894,639.838 944.061,644.171 943.5,648.5C 943.5,645.833 943.5,643.167 943.5,640.5C 943.5,637.833 943.5,635.167 943.5,632.5C 945.217,629.155 945.884,625.489 945.5,621.5 Z"/></g>
<g><path style="opacity:1" fill="#43360e" d="M 942.5,640.5 C 941.838,644.466 941.505,648.466 941.5,652.5C 941.5,653.167 941.5,653.833 941.5,654.5C 940.833,655.5 940.167,656.5 939.5,657.5C 939.783,651.566 940.783,645.9 942.5,640.5 Z"/></g>
<g><path style="opacity:1" fill="#5c4810" d="M 878.5,646.5 C 878.5,647.167 878.5,647.833 878.5,648.5C 879.01,651.388 878.344,653.721 876.5,655.5C 876.99,652.345 877.656,649.345 878.5,646.5 Z"/></g>
<g><path style="opacity:1" fill="#55420f" d="M 807.5,654.5 C 806.89,655.391 806.557,656.391 806.5,657.5C 805.5,658.167 804.5,658.833 803.5,659.5C 804.136,657.205 805.469,655.539 807.5,654.5 Z"/></g>
<g><path style="opacity:1" fill="#5d4a0e" d="M 876.5,656.5 C 876.946,659.01 876.28,661.01 874.5,662.5C 874.875,660.302 875.542,658.302 876.5,656.5 Z"/></g>
<g><path style="opacity:1" fill="#b99218" d="M 806.5,657.5 C 805.943,660.05 804.61,662.05 802.5,663.5C 802.5,662.5 802.5,661.5 802.5,660.5C 803.167,660.5 803.5,660.167 803.5,659.5C 804.5,658.833 805.5,658.167 806.5,657.5 Z"/></g>
<g><path style="opacity:1" fill="#745c12" d="M 587.5,657.5 C 587.5,658.833 587.5,660.167 587.5,661.5C 586.534,666.67 586.534,672.003 587.5,677.5C 586.732,676.737 586.232,675.737 586,674.5C 585.501,670.179 585.334,665.846 585.5,661.5C 585.989,660.005 586.655,658.671 587.5,657.5 Z"/></g>
<g><path style="opacity:1" fill="#50410e" d="M 874.5,663.5 C 874.88,665.698 874.213,667.365 872.5,668.5C 872.557,667.391 872.89,666.391 873.5,665.5C 873.328,664.508 873.662,663.842 874.5,663.5 Z"/></g>
<g><path style="opacity:1" fill="#796012" d="M 941.5,654.5 C 940.215,661.591 938.548,668.591 936.5,675.5C 935.833,676.5 935.167,677.5 934.5,678.5C 936.293,671.536 937.96,664.536 939.5,657.5C 940.167,656.5 940.833,655.5 941.5,654.5 Z"/></g>
<g><path style="opacity:1" fill="#6d5710" d="M 802.5,660.5 C 802.5,661.5 802.5,662.5 802.5,663.5C 799.5,667.167 796.167,670.5 792.5,673.5C 792.167,673.5 791.833,673.5 791.5,673.5C 795.396,669.383 799.063,665.05 802.5,660.5 Z"/></g>
<g><path style="opacity:1" fill="#2d240b" d="M 587.5,661.5 C 587.555,669.411 588.889,677.077 591.5,684.5C 589.896,683.713 589.229,682.38 589.5,680.5C 589.5,679.167 588.833,678.5 587.5,678.5C 587.5,678.167 587.5,677.833 587.5,677.5C 586.534,672.003 586.534,666.67 587.5,661.5 Z"/></g>
<g><path style="opacity:1" fill="#9e7d16" d="M 791.5,673.5 C 791.833,673.5 792.167,673.5 792.5,673.5C 790.431,676.573 787.764,678.906 784.5,680.5C 784.833,679.833 785.167,679.167 785.5,678.5C 787.5,676.833 789.5,675.167 791.5,673.5 Z"/></g>
<g><path style="opacity:1" fill="#d2a51b" d="M 585.5,661.5 C 585.334,665.846 585.501,670.179 586,674.5C 586.232,675.737 586.732,676.737 587.5,677.5C 587.5,677.833 587.5,678.167 587.5,678.5C 588.833,678.5 589.5,679.167 589.5,680.5C 589.229,682.38 589.896,683.713 591.5,684.5C 591.5,684.833 591.5,685.167 591.5,685.5C 591.5,685.833 591.5,686.167 591.5,686.5C 589.031,684.25 587.031,681.583 585.5,678.5C 584.184,672.68 584.184,667.013 585.5,661.5 Z"/></g>
<g><path style="opacity:1" fill="#665112" d="M 587.5,678.5 C 588.833,678.5 589.5,679.167 589.5,680.5C 588.167,680.5 587.5,679.833 587.5,678.5 Z"/></g>
<g><path style="opacity:1" fill="#5c4910" d="M 785.5,678.5 C 785.167,679.167 784.833,679.833 784.5,680.5C 782.095,681.398 780.095,682.898 778.5,685C 777.552,685.483 776.552,685.649 775.5,685.5C 778.245,682.437 781.578,680.103 785.5,678.5 Z"/></g>
<g><path style="opacity:1" fill="#7f6513" d="M 873.5,665.5 C 872.89,666.391 872.557,667.391 872.5,668.5C 871.234,671.301 870.401,674.301 870,677.5C 866.25,682.737 863.25,688.403 861,694.5C 859.961,695.71 858.794,696.71 857.5,697.5C 863.056,686.759 868.389,676.093 873.5,665.5 Z"/></g>
<g><path style="opacity:1" fill="#45350e" d="M 934.5,678.5 C 934.125,680.698 933.458,682.698 932.5,684.5C 932.025,681.918 932.692,679.918 934.5,678.5 Z"/></g>
<g><path style="opacity:1" fill="#8b6f15" d="M 591.5,685.5 C 593.833,687.5 596.167,689.5 598.5,691.5C 598.5,691.833 598.5,692.167 598.5,692.5C 598.167,692.5 597.833,692.5 597.5,692.5C 595.167,690.833 593.167,688.833 591.5,686.5C 591.5,686.167 591.5,685.833 591.5,685.5 Z"/></g>
<g><path style="opacity:1" fill="#7f6513" d="M 775.5,685.5 C 773.518,688.137 770.852,689.47 767.5,689.5C 769.789,687.613 772.455,686.279 775.5,685.5 Z"/></g>
<g><path style="opacity:1" fill="#342b0e" d="M 932.5,684.5 C 931.85,686.435 931.517,688.435 931.5,690.5C 930.313,692.072 929.313,693.739 928.5,695.5C 928.13,691.102 929.464,687.436 932.5,684.5 Z"/></g>
<g><path style="opacity:1" fill="#d2a61b" d="M 936.5,675.5 C 935.098,680.384 934.431,685.384 934.5,690.5C 933.5,690.5 932.5,690.5 931.5,690.5C 931.517,688.435 931.85,686.435 932.5,684.5C 933.458,682.698 934.125,680.698 934.5,678.5C 935.167,677.5 935.833,676.5 936.5,675.5 Z"/></g>
<g><path style="opacity:1" fill="#8a6b15" d="M 767.5,689.5 C 767.027,690.906 766.027,691.573 764.5,691.5C 764.973,690.094 765.973,689.427 767.5,689.5 Z"/></g>
<g><path style="opacity:1" fill="#3a2f0d" d="M 598.5,692.5 C 598.5,692.167 598.5,691.833 598.5,691.5C 601.267,691.87 603.267,693.204 604.5,695.5C 602.216,695.025 600.216,694.025 598.5,692.5 Z"/></g>
<g><path style="opacity:1" fill="#cea31b" d="M 597.5,692.5 C 597.833,692.5 598.167,692.5 598.5,692.5C 600.216,694.025 602.216,695.025 604.5,695.5C 604.833,695.5 605.167,695.5 605.5,695.5C 605.5,695.833 605.5,696.167 605.5,696.5C 603.076,696.808 600.743,696.474 598.5,695.5C 597.873,694.583 597.539,693.583 597.5,692.5 Z"/></g>
<g><path style="opacity:1" fill="#151306" d="M 605.5,696.5 C 605.5,696.167 605.5,695.833 605.5,695.5C 651.5,696.833 697.5,696.833 743.5,695.5C 742.5,696.167 741.5,696.833 740.5,697.5C 698.833,697.5 657.167,697.5 615.5,697.5C 612.098,697.658 608.764,697.324 605.5,696.5 Z"/></g>
<g><path style="opacity:1" fill="#5b470e" d="M 743.5,695.5 C 744.833,695.5 746.167,695.5 747.5,695.5C 745.485,696.924 743.152,697.59 740.5,697.5C 741.5,696.833 742.5,696.167 743.5,695.5 Z"/></g>
<g><path style="opacity:1" fill="#866b14" d="M 764.5,691.5 C 755.93,696.031 746.597,698.365 736.5,698.5C 734.5,698.5 732.5,698.5 730.5,698.5C 691.996,698.832 653.663,698.499 615.5,697.5C 657.167,697.5 698.833,697.5 740.5,697.5C 743.152,697.59 745.485,696.924 747.5,695.5C 753.227,694.163 758.894,692.83 764.5,691.5 Z"/></g>
<g><path style="opacity:1" fill="#cea21a" d="M 931.5,690.5 C 931.802,694.38 930.469,697.38 927.5,699.5C 927.833,698.167 928.167,696.833 928.5,695.5C 929.313,693.739 930.313,692.072 931.5,690.5 Z"/></g>
<g><path style="opacity:1" fill="#ac8618" d="M 605.5,696.5 C 608.764,697.324 612.098,697.658 615.5,697.5C 653.663,698.499 691.996,698.832 730.5,698.5C 691.294,699.824 651.961,699.824 612.5,698.5C 610.473,698.662 608.473,698.495 606.5,698C 605.944,697.617 605.611,697.117 605.5,696.5 Z"/></g>
<g><path style="opacity:1" fill="#d4a819" d="M 612.5,698.5 C 651.961,699.824 691.294,699.824 730.5,698.5C 732.5,698.5 734.5,698.5 736.5,698.5C 736.389,699.117 736.056,699.617 735.5,700C 694.833,700.667 654.167,700.667 613.5,700C 612.944,699.617 612.611,699.117 612.5,698.5 Z"/></g>
<g><path style="opacity:1" fill="#41350e" d="M 928.5,695.5 C 928.167,696.833 927.833,698.167 927.5,699.5C 926.058,700.82 925.392,702.486 925.5,704.5C 924.5,705.167 923.5,705.833 922.5,706.5C 923.759,702.353 925.759,698.686 928.5,695.5 Z"/></g>
<g><path style="opacity:1" fill="#786012" d="M 857.5,697.5 C 856.054,702.061 853.387,705.728 849.5,708.5C 851.925,704.648 854.591,700.981 857.5,697.5 Z"/></g>
<g><path style="opacity:1" fill="#836813" d="M 925.5,704.5 C 925.5,705.167 925.5,705.833 925.5,706.5C 924.256,709.103 922.589,711.436 920.5,713.5C 920.884,711.071 921.551,708.737 922.5,706.5C 923.5,705.833 924.5,705.167 925.5,704.5 Z"/></g>
<g><path style="opacity:1" fill="#775d12" d="M 920.5,713.5 C 920.186,716.489 918.852,718.822 916.5,720.5C 917.397,717.787 918.73,715.454 920.5,713.5 Z"/></g>
<g><path style="opacity:1" fill="#614e0f" d="M 847.5,711.5 C 843.139,717.861 837.806,723.194 831.5,727.5C 836.473,721.86 841.806,716.527 847.5,711.5 Z"/></g>
<g><path style="opacity:1" fill="#e0b11c" d="M 925.5,706.5 C 923.948,711.239 922.114,715.906 920,720.5C 918.6,721.748 917.1,722.748 915.5,723.5C 915.833,722.833 916.167,722.167 916.5,721.5C 916.5,721.167 916.5,720.833 916.5,720.5C 918.852,718.822 920.186,716.489 920.5,713.5C 922.589,711.436 924.256,709.103 925.5,706.5 Z"/></g>
<g><path style="opacity:1" fill="#846913" d="M 916.5,721.5 C 916.167,722.167 915.833,722.833 915.5,723.5C 912.95,728.638 910.117,733.638 907,738.5C 905.629,740.041 904.129,741.375 902.5,742.5C 907.196,735.48 911.862,728.48 916.5,721.5 Z"/></g>
<g><path style="opacity:1" fill="#4c3d0f" d="M 827.5,731.5 C 825.736,733.121 823.736,734.454 821.5,735.5C 821.5,735.167 821.5,734.833 821.5,734.5C 823.059,732.75 825.059,731.75 827.5,731.5 Z"/></g>
<g><path style="opacity:1" fill="#e1b01c" d="M 828.5,729.5 C 828.167,730.167 827.833,730.833 827.5,731.5C 825.059,731.75 823.059,732.75 821.5,734.5C 815.738,738.263 809.738,741.596 803.5,744.5C 803.5,743.5 803.5,742.5 803.5,741.5C 809.532,739.814 814.866,736.814 819.5,732.5C 822.565,731.623 825.565,730.623 828.5,729.5 Z"/></g>
<g><path style="opacity:1" fill="#6e5611" d="M 821.5,734.5 C 821.5,734.833 821.5,735.167 821.5,735.5C 813.339,741.109 804.672,745.776 795.5,749.5C 795.5,749.167 795.5,748.833 795.5,748.5C 798.082,747.045 800.748,745.711 803.5,744.5C 809.738,741.596 815.738,738.263 821.5,734.5 Z"/></g>
<g><path style="opacity:1" fill="#6b5311" d="M 902.5,742.5 C 901.557,745.109 899.89,747.109 897.5,748.5C 898.473,745.865 900.14,743.865 902.5,742.5 Z"/></g>
<g><path style="opacity:1" fill="#9c7a15" d="M 795.5,748.5 C 795.5,748.833 795.5,749.167 795.5,749.5C 795.167,749.5 794.833,749.5 794.5,749.5C 793.391,749.557 792.391,749.89 791.5,750.5C 792.183,748.824 793.517,748.157 795.5,748.5 Z"/></g>
<g><path style="opacity:1" fill="#53450d" d="M 794.5,749.5 C 793.713,751.104 792.38,751.771 790.5,751.5C 790.5,750.833 790.833,750.5 791.5,750.5C 792.391,749.89 793.391,749.557 794.5,749.5 Z"/></g>
<g><path style="opacity:1" fill="#635010" d="M 788.5,751.5 C 787.365,753.213 785.698,753.88 783.5,753.5C 783.5,753.167 783.5,752.833 783.5,752.5C 785.117,751.962 786.784,751.629 788.5,751.5 Z"/></g>
<g><path style="opacity:1" fill="#b79018" d="M 783.5,752.5 C 783.5,752.833 783.5,753.167 783.5,753.5C 781.079,753.878 778.746,754.545 776.5,755.5C 773.848,755.41 771.515,756.076 769.5,757.5C 768.167,757.5 766.833,757.5 765.5,757.5C 762.833,757.833 760.167,758.167 757.5,758.5C 765.791,755.695 774.458,753.695 783.5,752.5 Z"/></g>
<g><path style="opacity:1" fill="#483c0e" d="M 776.5,755.5 C 774.562,757.163 772.228,757.829 769.5,757.5C 771.515,756.076 773.848,755.41 776.5,755.5 Z"/></g>
<g><path style="opacity:1" fill="#d7ac19" d="M 757.5,758.5 C 757.5,758.833 757.5,759.167 757.5,759.5C 755.167,759.5 752.833,759.5 750.5,759.5C 747.833,759.5 745.167,759.5 742.5,759.5C 695.458,759.177 648.458,759.51 601.5,760.5C 601.611,759.883 601.944,759.383 602.5,759C 654.166,758.5 705.832,758.333 757.5,758.5 Z"/></g>
<g><path style="opacity:1" fill="#4f400e" d="M 765.5,757.5 C 764.817,759.176 763.483,759.843 761.5,759.5C 760.167,759.5 758.833,759.5 757.5,759.5C 757.5,759.167 757.5,758.833 757.5,758.5C 760.167,758.167 762.833,757.833 765.5,757.5 Z"/></g>
<g><path style="opacity:1" fill="#ad8818" d="M 742.5,759.5 C 696.5,760.167 650.5,760.833 604.5,761.5C 603.167,761.5 601.833,761.5 600.5,761.5C 600.5,761.167 600.5,760.833 600.5,760.5C 600.833,760.5 601.167,760.5 601.5,760.5C 648.458,759.51 695.458,759.177 742.5,759.5 Z"/></g>
<g><path style="opacity:1" fill="#685511" d="M 742.5,759.5 C 745.167,759.5 747.833,759.5 750.5,759.5C 750.082,760.222 749.416,760.722 748.5,761C 700.501,761.5 652.501,761.667 604.5,761.5C 650.5,760.833 696.5,760.167 742.5,759.5 Z"/></g>
<g><path style="opacity:1" fill="#251f0b" d="M 750.5,759.5 C 752.833,759.5 755.167,759.5 757.5,759.5C 758.833,759.5 760.167,759.5 761.5,759.5C 757.609,760.222 753.609,761.056 749.5,762C 698.792,762.176 648.126,762.676 597.5,763.5C 597.821,761.952 598.821,761.285 600.5,761.5C 601.833,761.5 603.167,761.5 604.5,761.5C 652.501,761.667 700.501,761.5 748.5,761C 749.416,760.722 750.082,760.222 750.5,759.5 Z"/></g>
<g><path style="opacity:1" fill="#d3a71b" d="M 600.5,760.5 C 600.5,760.833 600.5,761.167 600.5,761.5C 598.821,761.285 597.821,761.952 597.5,763.5C 595.901,763.232 594.568,763.566 593.5,764.5C 592.5,764.5 591.5,764.5 590.5,764.5C 593.061,761.637 596.394,760.304 600.5,760.5 Z"/></g>
<g><path style="opacity:1" fill="#7d6212" d="M 897.5,749.5 C 891.188,757.812 883.854,765.146 875.5,771.5C 882.452,763.881 889.785,756.548 897.5,749.5 Z"/></g>
<g><path style="opacity:1" fill="#6e5711" d="M 590.5,764.5 C 591.5,764.5 592.5,764.5 593.5,764.5C 589.833,767.5 586.5,770.833 583.5,774.5C 585.029,770.632 587.363,767.299 590.5,764.5 Z"/></g>
<g><path style="opacity:1" fill="#45360e" d="M 875.5,771.5 C 874.694,772.728 873.694,773.728 872.5,774.5C 872.167,774.5 871.833,774.5 871.5,774.5C 872.035,772.554 873.368,771.554 875.5,771.5 Z"/></g>
<g><path style="opacity:1" fill="#775e12" d="M 871.5,774.5 C 871.833,774.5 872.167,774.5 872.5,774.5C 869.78,777.223 866.78,779.557 863.5,781.5C 865.503,778.502 868.17,776.169 871.5,774.5 Z"/></g>
<g><path style="opacity:1" fill="#44360e" d="M 583.5,774.5 C 582.921,777.331 581.588,779.664 579.5,781.5C 580.079,778.669 581.412,776.336 583.5,774.5 Z"/></g>
<g><path style="opacity:1" fill="#a78418" d="M 578.5,783.5 C 577.167,788.833 577.167,794.167 578.5,799.5C 577.883,799.389 577.383,799.056 577,798.5C 576.333,793.833 576.333,789.167 577,784.5C 577.383,783.944 577.883,783.611 578.5,783.5 Z"/></g>
<g><path style="opacity:1" fill="#53400d" d="M 579.5,782.5 C 579.5,783.833 579.5,785.167 579.5,786.5C 578.574,791.334 578.574,796.334 579.5,801.5C 578.662,801.158 578.328,800.492 578.5,799.5C 577.167,794.167 577.167,788.833 578.5,783.5C 578.5,782.833 578.833,782.5 579.5,782.5 Z"/></g>
<g><path style="opacity:1" fill="#9b7a15" d="M 863.5,781.5 C 858.286,787.531 851.952,791.865 844.5,794.5C 842.711,795.877 840.711,796.877 838.5,797.5C 846.539,792.018 854.872,786.685 863.5,781.5 Z"/></g>
<g><path style="opacity:1" fill="#1e190a" d="M 579.5,786.5 C 579.588,791.536 580.088,796.536 581,801.5C 582.731,803.862 583.565,806.529 583.5,809.5C 583.167,809.5 582.833,809.5 582.5,809.5C 581.89,808.609 581.557,807.609 581.5,806.5C 581.573,804.973 580.906,803.973 579.5,803.5C 579.5,802.833 579.5,802.167 579.5,801.5C 578.574,796.334 578.574,791.334 579.5,786.5 Z"/></g>
<g><path style="opacity:1" fill="#6c5810" d="M 838.5,797.5 C 837.329,798.345 835.995,799.011 834.5,799.5C 835.183,797.824 836.517,797.157 838.5,797.5 Z"/></g>
<g><path style="opacity:1" fill="#d8aa1b" d="M 844.5,794.5 C 844.297,796.044 843.63,797.378 842.5,798.5C 837.307,799.817 832.64,801.983 828.5,805C 826.527,805.495 824.527,805.662 822.5,805.5C 824.076,804.857 825.41,803.857 826.5,802.5C 829.238,802.294 831.572,801.294 833.5,799.5C 833.833,799.5 834.167,799.5 834.5,799.5C 835.995,799.011 837.329,798.345 838.5,797.5C 840.711,796.877 842.711,795.877 844.5,794.5 Z"/></g>
<g><path style="opacity:1" fill="#57460f" d="M 833.5,799.5 C 831.572,801.294 829.238,802.294 826.5,802.5C 828.185,800.182 830.519,799.182 833.5,799.5 Z"/></g>
<g><path style="opacity:1" fill="#6f5912" d="M 277.5,290.5 C 277.833,290.5 278.167,290.5 278.5,290.5C 278.5,290.833 278.5,291.167 278.5,291.5C 278.667,461.167 278.5,630.834 278,800.5C 276.731,801.905 276.231,803.571 276.5,805.5C 276.167,806.5 275.5,807.167 274.5,807.5C 274.557,806.391 274.89,805.391 275.5,804.5C 275.231,802.571 275.731,800.905 277,799.5C 277.5,629.834 277.667,460.167 277.5,290.5 Z"/></g>
<g><path style="opacity:1" fill="#56450f" d="M 826.5,802.5 C 825.41,803.857 824.076,804.857 822.5,805.5C 821.833,805.5 821.167,805.5 820.5,805.5C 822.033,803.755 824.033,802.755 826.5,802.5 Z"/></g>
<g><path style="opacity:1" fill="#4a3a0d" d="M 275.5,804.5 C 274.89,805.391 274.557,806.391 274.5,807.5C 274.167,807.5 273.833,807.5 273.5,807.5C 273.285,805.821 273.952,804.821 275.5,804.5 Z"/></g>
<g><path style="opacity:1" fill="#7c6312" d="M 579.5,803.5 C 580.906,803.973 581.573,804.973 581.5,806.5C 580.094,806.027 579.427,805.027 579.5,803.5 Z"/></g>
<g><path style="opacity:1" fill="#6d5512" d="M 343.5,805.5 C 344.401,806.29 345.068,807.29 345.5,808.5C 343.952,808.179 343.285,807.179 343.5,805.5 Z"/></g>
<g><path style="opacity:1" fill="#b18b18" d="M 400.5,798.5 C 400.833,798.5 401.167,798.5 401.5,798.5C 402.016,802.747 400.683,806.08 397.5,808.5C 398.556,805.139 399.556,801.806 400.5,798.5 Z"/></g>
<g><path style="opacity:1" fill="#231c0a" d="M 812.5,807.5 C 810.924,808.143 809.59,809.143 808.5,810.5C 808.167,810.5 807.833,810.5 807.5,810.5C 805.517,810.157 804.183,810.824 803.5,812.5C 803.167,812.5 802.833,812.5 802.5,812.5C 800.435,812.517 798.435,812.85 796.5,813.5C 797.678,812.001 799.345,811.001 801.5,810.5C 805.086,809.081 808.753,808.081 812.5,807.5 Z"/></g>
<g><path style="opacity:1" fill="#c4991a" d="M 218.5,807.5 C 219.5,808.167 220.5,808.833 221.5,809.5C 223.167,811.5 224.833,813.5 226.5,815.5C 222.517,814.183 219.85,811.517 218.5,807.5 Z"/></g>
<g><path style="opacity:1" fill="#7a6112" d="M 820.5,805.5 C 816.871,807.935 812.871,809.602 808.5,810.5C 809.59,809.143 810.924,808.143 812.5,807.5C 815.004,806.361 817.67,805.694 820.5,805.5 Z"/></g>
<g><path style="opacity:1" fill="#937514" d="M 582.5,809.5 C 582.833,809.5 583.167,809.5 583.5,809.5C 585.527,812.194 587.861,814.527 590.5,816.5C 590.5,816.833 590.5,817.167 590.5,817.5C 586.833,815.833 584.167,813.167 582.5,809.5 Z"/></g>
<g><path style="opacity:1" fill="#776110" d="M 807.5,810.5 C 806.486,811.674 805.153,812.34 803.5,812.5C 804.183,810.824 805.517,810.157 807.5,810.5 Z"/></g>
<g><path style="opacity:1" fill="#d5a81b" d="M 820.5,805.5 C 821.167,805.5 821.833,805.5 822.5,805.5C 816.814,810.272 810.147,812.939 802.5,813.5C 802.5,813.167 802.5,812.833 802.5,812.5C 802.833,812.5 803.167,812.5 803.5,812.5C 805.153,812.34 806.486,811.674 807.5,810.5C 807.833,810.5 808.167,810.5 808.5,810.5C 812.871,809.602 816.871,807.935 820.5,805.5 Z"/></g>
<g><path style="opacity:1" fill="#9b7b16" d="M 273.5,807.5 C 273.833,807.5 274.167,807.5 274.5,807.5C 274.279,809.664 273.279,811.33 271.5,812.5C 271.5,811.833 271.5,811.167 271.5,810.5C 271.782,809.222 272.449,808.222 273.5,807.5 Z"/></g>
<g><path style="opacity:1" fill="#796011" d="M 346.5,810.5 C 349.548,812.882 352.215,815.548 354.5,818.5C 352.668,817.752 351.001,816.752 349.5,815.5C 348.833,814.167 347.833,813.167 346.5,812.5C 346.5,811.833 346.5,811.167 346.5,810.5 Z"/></g>
<g><path style="opacity:1" fill="#796012" d="M 396.5,809.5 C 394.417,813.918 391.084,816.918 386.5,818.5C 389.853,815.478 393.187,812.478 396.5,809.5 Z"/></g>
<g><path style="opacity:1" fill="#886b14" d="M 802.5,812.5 C 802.5,812.833 802.5,813.167 802.5,813.5C 802.167,813.5 801.833,813.5 801.5,813.5C 799.565,814.15 797.565,814.483 795.5,814.5C 795.5,813.833 795.833,813.5 796.5,813.5C 798.435,812.85 800.435,812.517 802.5,812.5 Z"/></g>
<g><path style="opacity:1" fill="#6a540f" d="M 271.5,810.5 C 271.5,811.167 271.5,811.833 271.5,812.5C 270.167,813.167 269.167,814.167 268.5,815.5C 267.609,816.11 266.609,816.443 265.5,816.5C 267.167,814.167 269.167,812.167 271.5,810.5 Z"/></g>
<g><path style="opacity:1" fill="#55430f" d="M 590.5,817.5 C 590.5,817.167 590.5,816.833 590.5,816.5C 592.966,817.298 594.966,818.631 596.5,820.5C 594.216,820.025 592.216,819.025 590.5,817.5 Z"/></g>
<g><path style="opacity:1" fill="#be9619" d="M 801.5,813.5 C 801.389,814.117 801.056,814.617 800.5,815C 792.293,817.303 783.96,818.803 775.5,819.5C 775.5,819.167 775.5,818.833 775.5,818.5C 776.167,818.5 776.833,818.5 777.5,818.5C 779.898,818.741 781.898,818.074 783.5,816.5C 787.5,815.833 791.5,815.167 795.5,814.5C 797.565,814.483 799.565,814.15 801.5,813.5 Z"/></g>
<g><path style="opacity:1" fill="#5d4a0f" d="M 783.5,816.5 C 781.898,818.074 779.898,818.741 777.5,818.5C 777.5,818.167 777.5,817.833 777.5,817.5C 779.435,816.85 781.435,816.517 783.5,816.5 Z"/></g>
<g><path style="opacity:1" fill="#d4a61b" d="M 349.5,815.5 C 351.001,816.752 352.668,817.752 354.5,818.5C 356.746,819.455 359.079,820.122 361.5,820.5C 361.5,820.833 361.5,821.167 361.5,821.5C 361.833,822.167 362.167,822.833 362.5,823.5C 358.544,821.859 354.544,820.193 350.5,818.5C 349.873,817.583 349.539,816.583 349.5,815.5 Z"/></g>
<g><path style="opacity:1" fill="#5e4a0e" d="M 228.5,816.5 C 231.1,817.468 233.434,818.801 235.5,820.5C 234.391,820.443 233.391,820.11 232.5,819.5C 230.596,819.262 229.262,818.262 228.5,816.5 Z"/></g>
<g><path style="opacity:1" fill="#52410f" d="M 265.5,816.5 C 263.434,818.199 261.1,819.532 258.5,820.5C 260.121,818.058 262.454,816.725 265.5,816.5 Z"/></g>
<g><path style="opacity:1" fill="#bd9518" d="M 268.5,815.5 C 268.063,817.074 267.063,818.241 265.5,819C 263.073,820.591 260.407,821.425 257.5,821.5C 257.5,821.167 257.5,820.833 257.5,820.5C 257.833,820.5 258.167,820.5 258.5,820.5C 261.1,819.532 263.434,818.199 265.5,816.5C 266.609,816.443 267.609,816.11 268.5,815.5 Z"/></g>
<g><path style="opacity:1" fill="#947714" d="M 385.5,818.5 C 384.656,820.759 382.989,821.759 380.5,821.5C 380.5,821.167 380.5,820.833 380.5,820.5C 382.167,819.833 383.833,819.167 385.5,818.5 Z"/></g>
<g><path style="opacity:1" fill="#53430e" d="M 758.5,820.5 C 758.5,820.833 758.5,821.167 758.5,821.5C 754.821,821.724 751.154,822.058 747.5,822.5C 750.684,820.586 754.351,819.92 758.5,820.5 Z"/></g>
<g><path style="opacity:1" fill="#8f7015" d="M 775.5,818.5 C 775.5,818.833 775.5,819.167 775.5,819.5C 770.575,820.685 765.575,821.351 760.5,821.5C 759.833,821.5 759.167,821.5 758.5,821.5C 758.5,821.167 758.5,820.833 758.5,820.5C 764.231,820.316 769.898,819.65 775.5,818.5 Z"/></g>
<g><path style="opacity:1" fill="#31280e" d="M 238.5,820.5 C 242.768,821.373 247.102,821.706 251.5,821.5C 251.5,821.833 251.5,822.167 251.5,822.5C 247.486,822.666 243.486,822.499 239.5,822C 238.944,821.617 238.611,821.117 238.5,820.5 Z"/></g>
<g><path style="opacity:1" fill="#58480e" d="M 257.5,820.5 C 257.5,820.833 257.5,821.167 257.5,821.5C 255.565,822.15 253.565,822.483 251.5,822.5C 251.5,822.167 251.5,821.833 251.5,821.5C 253.379,820.659 255.379,820.325 257.5,820.5 Z"/></g>
<g><path style="opacity:1" fill="#3a300e" d="M 361.5,821.5 C 361.5,821.167 361.5,820.833 361.5,820.5C 367.826,821.779 374.159,821.779 380.5,820.5C 380.5,820.833 380.5,821.167 380.5,821.5C 380.167,821.5 379.833,821.5 379.5,821.5C 373.5,822.833 367.5,822.833 361.5,821.5 Z"/></g>
<g><path style="opacity:1" fill="#201a0b" d="M 777.5,817.5 C 777.5,817.833 777.5,818.167 777.5,818.5C 776.833,818.5 776.167,818.5 775.5,818.5C 769.898,819.65 764.231,820.316 758.5,820.5C 754.351,819.92 750.684,820.586 747.5,822.5C 698.33,822.832 649.33,822.499 600.5,821.5C 645.835,821.667 691.168,821.5 736.5,821C 750.207,819.992 763.874,818.825 777.5,817.5 Z"/></g>
<g><path style="opacity:1" fill="#a48216" d="M 232.5,819.5 C 233.391,820.11 234.391,820.443 235.5,820.5C 236.5,820.5 237.5,820.5 238.5,820.5C 238.611,821.117 238.944,821.617 239.5,822C 243.486,822.499 247.486,822.666 251.5,822.5C 253.565,822.483 255.565,822.15 257.5,821.5C 254.742,822.818 251.576,823.485 248,823.5C 244.833,823.333 241.667,823.167 238.5,823C 236.111,822.261 234.111,821.095 232.5,819.5 Z"/></g>
<g><path style="opacity:1" fill="#a07f16" d="M 361.5,821.5 C 367.5,822.833 373.5,822.833 379.5,821.5C 379.389,822.117 379.056,822.617 378.5,823C 373.177,823.499 367.844,823.666 362.5,823.5C 362.167,822.833 361.833,822.167 361.5,821.5 Z"/></g>
<g><path style="opacity:1" fill="#997913" d="M 596.5,820.5 C 598.099,820.232 599.432,820.566 600.5,821.5C 649.33,822.499 698.33,822.832 747.5,822.5C 751.154,822.058 754.821,821.724 758.5,821.5C 759.167,821.5 759.833,821.5 760.5,821.5C 758.708,822.309 756.708,822.809 754.5,823C 702.833,823.667 651.167,823.667 599.5,823C 598.429,822.148 597.429,821.315 596.5,820.5 Z"/></g>
<g><path style="opacity:1" fill="#da0d2a" d="M -0.5,941.5 C 340.833,941.5 682.167,941.5 1023.5,941.5C 1023.5,968.833 1023.5,996.167 1023.5,1023.5C 682.167,1023.5 340.833,1023.5 -0.5,1023.5C -0.5,996.167 -0.5,968.833 -0.5,941.5 Z"/></g>
</svg>
