<?xml version="1.0" encoding="UTF-8" standalone="no"?>
<!-- Created with Inkscape (http://www.inkscape.org/) -->

<svg
   xmlns:dc="http://purl.org/dc/elements/1.1/"
   xmlns:cc="http://creativecommons.org/ns#"
   xmlns:rdf="http://www.w3.org/1999/02/22-rdf-syntax-ns#"
   xmlns:svg="http://www.w3.org/2000/svg"
   xmlns="http://www.w3.org/2000/svg"
   xmlns:sodipodi="http://sodipodi.sourceforge.net/DTD/sodipodi-0.dtd"
   xmlns:inkscape="http://www.inkscape.org/namespaces/inkscape"
   width="81.47496"
   height="42.085739"
   id="svg2"
   version="1.1"
   inkscape:version="0.47 r22583"
   sodipodi:docname="FGCBarcelona R50 Logo.svg">
  <defs
     id="defs4">
    <inkscape:perspective
       sodipodi:type="inkscape:persp3d"
       inkscape:vp_x="0 : 526.18109 : 1"
       inkscape:vp_y="0 : 1000 : 0"
       inkscape:vp_z="744.09448 : 526.18109 : 1"
       inkscape:persp3d-origin="372.04724 : 350.78739 : 1"
       id="perspective10" />
    <inkscape:perspective
       id="perspective46455"
       inkscape:persp3d-origin="0.5 : 0.33333333 : 1"
       inkscape:vp_z="1 : 0.5 : 1"
       inkscape:vp_y="0 : 1000 : 0"
       inkscape:vp_x="0 : 0.5 : 1"
       sodipodi:type="inkscape:persp3d" />
    <inkscape:perspective
       id="perspective46487"
       inkscape:persp3d-origin="0.5 : 0.33333333 : 1"
       inkscape:vp_z="1 : 0.5 : 1"
       inkscape:vp_y="0 : 1000 : 0"
       inkscape:vp_x="0 : 0.5 : 1"
       sodipodi:type="inkscape:persp3d" />
    <inkscape:perspective
       id="perspective46555"
       inkscape:persp3d-origin="0.5 : 0.33333333 : 1"
       inkscape:vp_z="1 : 0.5 : 1"
       inkscape:vp_y="0 : 1000 : 0"
       inkscape:vp_x="0 : 0.5 : 1"
       sodipodi:type="inkscape:persp3d" />
    <inkscape:perspective
       id="perspective2885"
       inkscape:persp3d-origin="0.5 : 0.33333333 : 1"
       inkscape:vp_z="1 : 0.5 : 1"
       inkscape:vp_y="0 : 1000 : 0"
       inkscape:vp_x="0 : 0.5 : 1"
       sodipodi:type="inkscape:persp3d" />
    <inkscape:perspective
       id="perspective2909"
       inkscape:persp3d-origin="0.5 : 0.33333333 : 1"
       inkscape:vp_z="1 : 0.5 : 1"
       inkscape:vp_y="0 : 1000 : 0"
       inkscape:vp_x="0 : 0.5 : 1"
       sodipodi:type="inkscape:persp3d" />
    <inkscape:perspective
       id="perspective46638"
       inkscape:persp3d-origin="0.5 : 0.33333333 : 1"
       inkscape:vp_z="1 : 0.5 : 1"
       inkscape:vp_y="0 : 1000 : 0"
       inkscape:vp_x="0 : 0.5 : 1"
       sodipodi:type="inkscape:persp3d" />
    <inkscape:perspective
       id="perspective3724"
       inkscape:persp3d-origin="0.5 : 0.33333333 : 1"
       inkscape:vp_z="1 : 0.5 : 1"
       inkscape:vp_y="0 : 1000 : 0"
       inkscape:vp_x="0 : 0.5 : 1"
       sodipodi:type="inkscape:persp3d" />
    <inkscape:perspective
       id="perspective46669"
       inkscape:persp3d-origin="0.5 : 0.33333333 : 1"
       inkscape:vp_z="1 : 0.5 : 1"
       inkscape:vp_y="0 : 1000 : 0"
       inkscape:vp_x="0 : 0.5 : 1"
       sodipodi:type="inkscape:persp3d" />
    <inkscape:perspective
       id="perspective46685"
       inkscape:persp3d-origin="0.5 : 0.33333333 : 1"
       inkscape:vp_z="1 : 0.5 : 1"
       inkscape:vp_y="0 : 1000 : 0"
       inkscape:vp_x="0 : 0.5 : 1"
       sodipodi:type="inkscape:persp3d" />
    <inkscape:perspective
       id="perspective46741"
       inkscape:persp3d-origin="0.5 : 0.33333333 : 1"
       inkscape:vp_z="1 : 0.5 : 1"
       inkscape:vp_y="0 : 1000 : 0"
       inkscape:vp_x="0 : 0.5 : 1"
       sodipodi:type="inkscape:persp3d" />
    <inkscape:perspective
       id="perspective46787"
       inkscape:persp3d-origin="0.5 : 0.33333333 : 1"
       inkscape:vp_z="1 : 0.5 : 1"
       inkscape:vp_y="0 : 1000 : 0"
       inkscape:vp_x="0 : 0.5 : 1"
       sodipodi:type="inkscape:persp3d" />
    <inkscape:perspective
       id="perspective46803"
       inkscape:persp3d-origin="0.5 : 0.33333333 : 1"
       inkscape:vp_z="1 : 0.5 : 1"
       inkscape:vp_y="0 : 1000 : 0"
       inkscape:vp_x="0 : 0.5 : 1"
       sodipodi:type="inkscape:persp3d" />
    <inkscape:perspective
       id="perspective23219"
       inkscape:persp3d-origin="0.5 : 0.33333333 : 1"
       inkscape:vp_z="1 : 0.5 : 1"
       inkscape:vp_y="0 : 1000 : 0"
       inkscape:vp_x="0 : 0.5 : 1"
       sodipodi:type="inkscape:persp3d" />
  </defs>
  <sodipodi:namedview
     id="base"
     pagecolor="#ffffff"
     bordercolor="#666666"
     borderopacity="1.0"
     inkscape:pageopacity="0"
     inkscape:pageshadow="2"
     inkscape:zoom="3"
     inkscape:cx="15.742828"
     inkscape:cy="-1.6696534"
     inkscape:document-units="px"
     inkscape:current-layer="layer1"
     showgrid="false"
     inkscape:snap-global="false"
     inkscape:snap-to-guides="false"
     inkscape:snap-grids="true"
     inkscape:window-width="952"
     inkscape:window-height="645"
     inkscape:window-x="960"
     inkscape:window-y="3"
     inkscape:window-maximized="0">
    <inkscape:grid
       type="xygrid"
       id="grid2899"
       empspacing="5"
       visible="true"
       enabled="true"
       snapvisiblegridlinesonly="true" />
  </sodipodi:namedview>
  <metadata
     id="metadata7">
    <rdf:RDF>
      <cc:Work
         rdf:about="">
        <dc:format>image/svg+xml</dc:format>
        <dc:type
           rdf:resource="http://purl.org/dc/dcmitype/StillImage" />
        <dc:title></dc:title>
      </cc:Work>
    </rdf:RDF>
  </metadata>
  <g
     inkscape:label="Capa 1"
     inkscape:groupmode="layer"
     id="layer1"
     transform="translate(-306.88356,-472.29048)">
    <path
       id="path2478"
       style="fill:#ffffff;fill-opacity:1;fill-rule:nonzero;stroke:none"
       d="m 355.20673,473.78221 12.96871,0.029 c 4.31124,0.01 7.03329,3.01322 7.02516,6.65196 -0.006,2.82875 -1.15606,4.94868 -3.81971,6.02024 l -1.5e-4,0.0687 c 2.59224,0.67829 3.32784,3.20619 3.49117,5.63281 0.0979,1.51397 0.0565,4.34389 0.99729,5.69349 l -5.28874,-0.0118 c -0.63661,-1.51768 -0.56392,-3.84127 -0.82838,-5.76187 -0.36561,-2.52707 -1.33937,-3.6405 -4.00061,-3.64645 l -5.28874,-0.0118 -0.021,9.39748 -5.28873,-0.0118 0.0537,-24.04994 z m 5.26443,10.89179 5.79373,0.0129 c 2.3575,0.005 3.63975,-1.00187 3.64517,-3.42811 0.005,-2.32375 -1.27255,-3.3366 -3.63004,-3.34187 l -5.79374,-0.0129 -0.0151,6.76999 z" />
    <path
       id="path2478-7"
       style="fill:#ffffff;fill-opacity:1;fill-rule:nonzero;stroke:none"
       d="m 327.32743,479.133 12.96871,0.029 c 4.31124,0.01 7.03329,3.01322 7.02516,6.65196 -0.006,2.82875 -1.15606,4.94868 -3.81971,6.02024 l -1.5e-4,0.0687 c 2.59224,0.67829 3.32784,3.20619 3.49117,5.63281 0.0979,1.51397 0.0565,4.34389 0.99729,5.69349 l -5.28874,-0.0118 c -0.63661,-1.51768 -0.56392,-3.84127 -0.82838,-5.76187 -0.36561,-2.52707 -1.33937,-3.6405 -4.00061,-3.64645 l -5.28874,-0.0118 -0.021,9.39748 -5.28873,-0.0118 0.0537,-24.04994 z m 5.26443,10.89179 5.79373,0.0129 c 2.3575,0.005 3.63975,-1.00187 3.64517,-3.42811 0.005,-2.32375 -1.27255,-3.3366 -3.63004,-3.34187 l -5.79374,-0.0129 -0.0151,6.76999 z" />
    <path
       d="m 366.32624,484.40718 -9.73476,-0.0683 -0.98006,5.34826 0.067,0.068 c 1.28794,-1.30474 2.7752,-1.79931 4.62641,-1.78632 4.64863,0.0326 7.24951,3.65598 7.21854,8.06838 -0.034,4.84988 -4.06769,8.5604 -8.81561,8.42582 -4.58114,-0.0322 -8.67331,-2.58719 -8.70479,-7.54003 l 4.78238,0.0336 c 0.22033,2.09035 1.76012,3.55119 3.84882,3.56585 2.49243,0.0175 4.09027,-2.16134 4.10682,-4.51878 0.0173,-2.45995 -1.48524,-4.42304 -4.04393,-4.441 -1.71871,-0.0121 -2.66544,0.58756 -3.61689,1.85966 l -4.3124,-0.0303 2.41644,-13.01836 13.16968,0.0924 -0.0277,3.94115 z"
       style="fill:#ffffff;fill-opacity:1;fill-rule:nonzero;stroke:none"
       id="path1936-4" />
    <path
       id="path1940"
       style="fill:#f47216;fill-opacity:1;fill-rule:nonzero;stroke:none"
       d="m 327.93025,514.37619 c -11.60623,0.0175 -21.02916,-9.37579 -21.04667,-20.98203 -0.0175,-11.60749 9.3683,-21.02666 20.97578,-21.04416 l 39.45496,-0.0595 c 11.60374,-0.0175 21.02666,9.37329 21.04417,20.98078 0.0175,11.60624 -9.37704,21.02792 -20.98078,21.04542 l -39.44746,0.0595 z" />
    <path
       id="path17648"
       style="fill:#ffffff;fill-opacity:1;fill-rule:nonzero;stroke:none"
       d="m 328.62697,496.0544 c -0.0535,5.98276 5.0192,8.62214 10.42718,8.60904 6.64097,-0.0161 10.1587,-3.35601 10.14776,-7.809 -0.0136,-5.50687 -5.49331,-6.61563 -7.27461,-7.05318 -6.13125,-1.54906 -7.29534,-1.78411 -7.29994,-3.65402 -0.005,-2.03921 1.97846,-2.75803 3.69048,-2.76218 2.56697,-0.006 4.65674,0.73661 4.83525,3.65956 l 5.20299,-0.0126 c -0.0137,-5.60888 -4.70864,-7.80729 -9.80933,-7.79493 -4.41538,0.0107 -9.13348,2.40205 -9.12129,7.36506 0.0112,4.55498 3.6769,5.93986 7.30786,6.88296 3.59687,0.94317 7.26067,1.37617 7.26711,3.99353 0.006,2.4815 -2.86854,3.03276 -4.75103,3.03732 -2.87555,0.007 -5.41151,-1.24479 -5.41944,-4.47417 l -5.20299,0.0127 z" />
    <path
       id="path17652"
       style="fill:#ffffff;fill-opacity:1;fill-rule:nonzero;stroke:none"
       d="m 363.40311,480.23098 -3.86815,0.009 c -0.5042,3.63862 -3.61642,4.80164 -7.00526,4.74213 l 0.009,3.63739 6.02426,-0.0146 0.0379,15.43287 4.86076,-0.0118 -0.0584,-23.79539 z" />
  </g>
</svg>
