<?xml version="1.0" encoding="UTF-8"?>
<!-- Generator: https://ezgif.com/gif-to-svg -->
<svg version="1.1" xmlns="http://www.w3.org/2000/svg" width="150" height="100">
<path d="M0 0 C49.5 0 99 0 150 0 C150 33 150 66 150 100 C100.5 100 51 100 0 100 C0 67 0 34 0 0 Z " fill="#FDFEFD" transform="translate(0,0)"/>
<path d="M0 0 C9.57 0 19.14 0 29 0 C28.34 5.28 27.68 10.56 27 16 C28.32 16 29.64 16 31 16 C31 11.05 31 6.1 31 1 C32.98 1 34.96 1 37 1 C37 5.95 37 10.9 37 16 C41.95 15.67 46.9 15.34 52 15 C52 14.34 52 13.68 52 13 C51.34 13 50.68 13 50 13 C50.33 12.01 50.66 11.02 51 10 C53.31 10 55.62 10 58 10 C58 10.99 58 11.98 58 13 C57.34 13 56.68 13 56 13 C56 13.99 56 14.98 56 16 C61.28 16 66.56 16 72 16 C71.34 17.32 70.68 18.64 70 20 C69.58 22.8 69.58 22.8 69.25 25.61 C68.89 29.08 68.43 32.54 68 36 C46.22 36 24.44 36 2 36 C0.88 22.5 0.88 22.5 2 17 C1.01 17 0.02 17 -1 17 C-0.67 15.68 -0.34 14.36 0 13 C0.66 13 1.32 13 2 13 C1.34 8.71 0.68 4.42 0 0 Z " fill="#498C6D" transform="translate(67,27)"/>
<path d="M0 0 C0.66 0 1.32 0 2 0 C2 5.94 2 11.88 2 18 C5.96 17.5 5.96 17.5 10 17 C14 17.44 14 17.44 17 18 C17 17.34 17 16.68 17 16 C39.44 16 61.88 16 85 16 C85 16.66 85 17.32 85 18 C87.31 18.33 89.62 18.66 92 19 C92 19.66 92 20.32 92 21 C89.69 21.33 87.38 21.66 85 22 C85 22.99 85 23.98 85 25 C80.38 25 75.76 25 71 25 C71 25.66 71 26.32 71 27 C77.93 27 84.86 27 92 27 C92 27.66 92 28.32 92 29 C46.79 29 1.58 29 -45 29 C-45 28.67 -45 28.34 -45 28 C-43.02 28 -41.04 28 -39 28 C-39 27.34 -39 26.68 -39 26 C-39.62 25.88 -40.24 25.75 -40.88 25.62 C-43 25 -43 25 -45 23 C-45 21.35 -45 19.7 -45 18 C-30.15 18 -15.3 18 0 18 C0 12.06 0 6.12 0 0 Z " fill="#BBD5C9" transform="translate(51,48)"/>
<path d="M0 0 C10.89 0 21.78 0 33 0 C33 5.61 33 11.22 33 17 C22.11 17 11.22 17 0 17 C0 11.39 0 5.78 0 0 Z " fill="#0C6940" transform="translate(6,48)"/>
<path d="M0 0 C0.91 0 1.81 0.01 2.75 0.01 C4.11 0 4.11 0 5.5 0 C7.75 0.13 7.75 0.13 8.75 1.13 C8.84 3.65 8.87 6.15 8.85 8.67 C8.85 9.42 8.84 10.17 8.84 10.95 C8.84 13.37 8.83 15.78 8.81 18.2 C8.81 19.83 8.8 21.46 8.8 23.1 C8.79 27.11 8.77 31.12 8.75 35.13 C4.79 35.13 0.83 35.13 -3.25 35.13 C-3.27 30.31 -3.29 25.49 -3.3 20.66 C-3.31 19.02 -3.32 17.38 -3.33 15.73 C-3.34 13.38 -3.34 11.02 -3.35 8.67 C-3.35 7.93 -3.36 7.19 -3.36 6.43 C-3.36 4.66 -3.31 2.9 -3.25 1.13 C-2.25 0.13 -2.25 0.13 0 0 Z " fill="#A1C5B6" transform="translate(73.25,27.8671875)"/>
<path d="M0 0 C4 0 8 0 12 0 C12.62 -0.01 13.23 -0.02 13.87 -0.03 C16.5 -0.07 19.12 -0.1 21.75 -0.12 C22.66 -0.14 23.56 -0.16 24.5 -0.18 C29.1 -0.21 32.83 -0.23 37 2 C37 1.34 37 0.68 37 0 C39.97 0 42.94 0 46 0 C46 0.99 46 1.98 46 3 C48.97 3 51.94 3 55 3 C55.33 2.34 55.66 1.68 56 1 C56.5 3.97 56.5 3.97 57 7 C56.34 7 55.68 7 55 7 C55 6.01 55 5.02 55 4 C52.03 4 49.06 4 46 4 C46 4.99 46 5.98 46 7 C30.82 7 15.64 7 0 7 C0 4.69 0 2.38 0 0 Z " fill="#6DA38B" transform="translate(79,65)"/>
<path d="M0 0 C0.66 0 1.32 0 2 0 C2 5.94 2 11.88 2 18 C5.96 17.5 5.96 17.5 10 17 C10 17.66 10 18.32 10 19 C11.98 19.33 13.96 19.66 16 20 C16 20.33 16 20.66 16 21 C14.02 21 12.04 21 10 21 C10 21.66 10 22.32 10 23 C-8.15 23 -26.3 23 -45 23 C-45 21.35 -45 19.7 -45 18 C-30.15 18 -15.3 18 0 18 C0 12.06 0 6.12 0 0 Z " fill="#2F7D5A" transform="translate(51,48)"/>
<path d="M0 0 C3.3 0 6.6 0 10 0 C10 0.33 10 0.66 10 1 C7.03 1 4.06 1 1 1 C1 6.28 1 11.56 1 17 C4.63 17 8.26 17 12 17 C12 22.28 12 27.56 12 33 C8.04 33 4.08 33 0 33 C0 22.11 0 11.22 0 0 Z " fill="#006034" transform="translate(82,29)"/>
<path d="M0 0 C6.93 0 13.86 0 21 0 C21 0.33 21 0.66 21 1 C20.15 1.05 19.29 1.1 18.41 1.15 C17.31 1.22 16.2 1.3 15.06 1.38 C13.96 1.44 12.86 1.51 11.72 1.59 C10.82 1.72 9.93 1.86 9 2 C8.67 2.66 8.34 3.32 8 4 C12.62 4 17.24 4 22 4 C22.33 3.01 22.66 2.02 23 1 C23.66 1.66 24.32 2.32 25 3 C27.26 3.33 27.26 3.33 29.91 3.32 C30.93 3.34 31.95 3.36 33 3.38 C34.11 3.39 35.21 3.4 36.35 3.41 C38.05 3.44 38.05 3.44 39.77 3.47 C43.39 3.53 47.01 3.58 50.62 3.62 C53.07 3.66 55.52 3.7 57.97 3.74 C63.98 3.84 69.99 3.92 76 4 C76 3.34 76 2.68 76 2 C77.98 2 79.96 2 82 2 C82 2.33 82 2.66 82 3 C90.25 3.33 98.5 3.66 107 4 C107 3.34 107 2.68 107 2 C108.98 2 110.96 2 113 2 C113 2.33 113 2.66 113 3 C123.89 3.5 123.89 3.5 135 4 C135 4.33 135 4.66 135 5 C89.79 5 44.58 5 -2 5 C-2 4.67 -2 4.34 -2 4 C-0.02 4 1.96 4 4 4 C4 3.34 4 2.68 4 2 C2.68 1.67 1.36 1.34 0 1 C0 0.67 0 0.34 0 0 Z " fill="#025B2E" transform="translate(8,72)"/>
<path d="M0 0 C22.44 0 44.88 0 68 0 C68 0.66 68 1.32 68 2 C70.31 2.33 72.62 2.66 75 3 C75 3.66 75 4.32 75 5 C71.62 5.62 71.62 5.62 68 6 C67.01 5.01 67.01 5.01 66 4 C63.79 3.76 63.79 3.76 61.38 3.88 C60.15 3.9 60.15 3.9 58.9 3.93 C57.96 3.96 57.96 3.96 57 4 C57 3.01 57 2.02 57 1 C54.03 1 51.06 1 48 1 C48 1.66 48 2.32 48 3 C46.91 2.76 46.91 2.76 45.8 2.52 C43.21 2.04 40.77 1.8 38.14 1.68 C36.81 1.62 36.81 1.62 35.45 1.56 C34.54 1.52 33.63 1.48 32.69 1.44 C31.76 1.39 30.82 1.35 29.87 1.31 C27.58 1.2 25.29 1.1 23 1 C23 1.66 23 2.32 23 3 C17.06 2.01 17.06 2.01 11 1 C11 2.32 11 3.64 11 5 C8.03 5 5.06 5 2 5 C2 5.99 2 6.98 2 8 C1.34 8 0.68 8 0 8 C-0.33 6.68 -0.66 5.36 -1 4 C-3.97 3.5 -3.97 3.5 -7 3 C-7 2.67 -7 2.34 -7 2 C-4.69 2 -2.38 2 0 2 C0 1.34 0 0.68 0 0 Z " fill="#9CC0AF" transform="translate(68,64)"/>
<path d="M0 0 C2.64 0 5.28 0 8 0 C8 6.93 8 13.86 8 21 C5.36 21 2.72 21 0 21 C0 14.07 0 7.14 0 0 Z " fill="#036237" transform="translate(72,42)"/>
<path d="M0 0 C0 0.99 0 1.98 0 3 C15.84 3.5 15.84 3.5 32 4 C32 3.34 32 2.68 32 2 C34.31 2 36.62 2 39 2 C39 2.33 39 2.66 39 3 C37.02 3 35.04 3 33 3 C33 3.66 33 4.32 33 5 C25.77 5.05 18.55 5.09 11.32 5.11 C8.86 5.12 6.4 5.13 3.94 5.15 C0.41 5.18 -3.12 5.19 -6.65 5.2 C-7.75 5.21 -8.86 5.22 -10 5.23 C-11.53 5.23 -11.53 5.23 -13.09 5.23 C-13.99 5.23 -14.89 5.24 -15.82 5.24 C-18 5 -18 5 -20 3 C-20.33 3.66 -20.66 4.32 -21 5 C-25.62 5 -30.24 5 -35 5 C-34.67 4.01 -34.34 3.02 -34 2 C-22.65 0.79 -11.43 -0.38 0 0 Z " fill="#7FB09A" transform="translate(51,71)"/>
<path d="M0 0 C2.97 0 5.94 0 9 0 C9 5.28 9 10.56 9 16 C6.03 16 3.06 16 0 16 C0 10.72 0 5.44 0 0 Z " fill="#B1CFC2" transform="translate(83,30)"/>
<path d="M0 0 C3.63 0 7.26 0 11 0 C11 4.29 11 8.58 11 13 C7.37 13 3.74 13 0 13 C0 8.71 0 4.42 0 0 Z " fill="#006035" transform="translate(121,47)"/>
<path d="M0 0 C3.63 0 7.26 0 11 0 C11 4.29 11 8.58 11 13 C7.37 13 3.74 13 0 13 C0 8.71 0 4.42 0 0 Z " fill="#006035" transform="translate(108,47)"/>
<path d="M0 0 C3.63 0 7.26 0 11 0 C11 4.29 11 8.58 11 13 C7.37 13 3.74 13 0 13 C0 8.71 0 4.42 0 0 Z " fill="#026237" transform="translate(95,47)"/>
<path d="M0 0 C1.98 0 3.96 0 6 0 C6.5 1.98 6.5 1.98 7 4 C11.95 4 16.9 4 22 4 C22 4.66 22 5.32 22 6 C5.83 6 -10.34 6 -27 6 C-27 5.67 -27 5.34 -27 5 C-21.39 5 -15.78 5 -10 5 C-10 4.01 -10 3.02 -10 2 C-7.26 0.63 -5.03 0.87 -2 1 C-1.34 1.33 -0.68 1.66 0 2 C0 1.34 0 0.68 0 0 Z " fill="#F8FBF9" transform="translate(61,69)"/>
<path d="M0 0 C14.52 0 29.04 0 44 0 C43.67 0.99 43.34 1.98 43 3 C28.81 3 14.62 3 0 3 C0 2.01 0 1.02 0 0 Z " fill="#006034" transform="translate(7,67)"/>
<path d="M0 0 C7.71 -0.1 7.71 -0.1 10 0 C11 1 11 1 11.11 4.23 C11.11 5.67 11.11 7.1 11.1 8.54 C11.1 9.29 11.09 10.04 11.09 10.82 C11.09 13.23 11.08 15.65 11.06 18.06 C11.06 19.7 11.05 21.33 11.05 22.96 C11.04 26.98 11.02 30.99 11 35 C10.34 35 9.68 35 9 35 C8.67 24.44 8.34 13.88 8 3 C6.02 3 4.04 3 2 3 C2 6.3 2 9.6 2 13 C1.67 13 1.34 13 1 13 C0.67 8.71 0.34 4.42 0 0 Z " fill="#59997D" transform="translate(71,28)"/>
<path d="M0 0 C2.31 0.66 4.62 1.32 7 2 C7 1.34 7 0.68 7 0 C9.97 0 12.94 0 16 0 C16 0.99 16 1.98 16 3 C18.97 3 21.94 3 25 3 C25.33 2.34 25.66 1.68 26 1 C26.33 2.98 26.66 4.96 27 7 C26.34 7 25.68 7 25 7 C25 6.01 25 5.02 25 4 C22.03 4 19.06 4 16 4 C16 4.99 16 5.98 16 7 C10.72 7 5.44 7 0 7 C0.33 5.35 0.66 3.7 1 2 C0.67 1.34 0.34 0.68 0 0 Z " fill="#036136" transform="translate(109,65)"/>
<path d="M0 0 C12.12 0 12.12 0 16 1 C15.01 1.5 15.01 1.5 14 2 C14 2.99 14 3.98 14 5 C14.66 5.66 15.32 6.32 16 7 C10.72 7 5.44 7 0 7 C0 4.69 0 2.38 0 0 Z " fill="#066238" transform="translate(79,65)"/>
<path d="M0 0 C10.23 0 20.46 0 31 0 C31 0.99 31 1.98 31 3 C20.77 3 10.54 3 0 3 C0 2.01 0 1.02 0 0 Z " fill="#357F5B" transform="translate(66,23)"/>
<path d="M0 0 C10.23 0 20.46 0 31 0 C32.19 3.56 32.1 6.44 32.06 10.19 C32.05 11.46 32.04 12.73 32.04 14.04 C32.02 15.02 32.01 15.99 32 17 C30.68 17 29.36 17 28 17 C27.95 15.27 27.91 13.54 27.88 11.81 C27.85 10.85 27.83 9.89 27.8 8.89 C28 6 28 6 30 1 C20.43 1 10.86 1 1 1 C0.67 1.66 0.34 2.32 0 3 C0 2.01 0 1.02 0 0 Z " fill="#E5EFEA" transform="translate(66,26)"/>
<path d="M0 0 C1.98 0 3.96 0 6 0 C6 4.62 6 9.24 6 14 C4.02 14 2.04 14 0 14 C0 9.38 0 4.76 0 0 Z " fill="#09663D" transform="translate(98,28)"/>
<path d="M0 0 C0 1.32 0 2.64 0 4 C-2.97 4 -5.94 4 -9 4 C-9 4.99 -9 5.98 -9 7 C-9.66 7 -10.32 7 -11 7 C-11.33 5.68 -11.66 4.36 -12 3 C-14.97 2.5 -14.97 2.5 -18 2 C-18 1.67 -18 1.34 -18 1 C-11.97 -0.07 -6.11 -0.1 0 0 Z " fill="#6BA289" transform="translate(79,65)"/>
<path d="M0 0 C1.65 0 3.3 0 5 0 C5 3.96 5 7.92 5 12 C3.35 12 1.7 12 0 12 C0 8.04 0 4.08 0 0 Z " fill="#006035" transform="translate(85,32)"/>
<path d="M0 0 C6.41 -0.21 11.93 -0.16 18 2 C18 2.66 18 3.32 18 4 C14.62 4.62 14.62 4.62 11 5 C10.34 4.34 9.68 3.68 9 3 C6.79 2.76 6.79 2.76 4.38 2.88 C3.15 2.9 3.15 2.9 1.9 2.93 C0.96 2.96 0.96 2.96 0 3 C0 2.01 0 1.02 0 0 Z " fill="#6FA48B" transform="translate(125,65)"/>
<path d="M0 0 C4.95 0 9.9 0 15 0 C15 0.99 15 1.98 15 3 C10.05 3 5.1 3 0 3 C0 2.01 0 1.02 0 0 Z " fill="#066135" transform="translate(94,67)"/>
<path d="M0 0 C3.04 -0.29 3.04 -0.29 6.62 -0.19 C7.81 -0.16 9 -0.13 10.23 -0.11 C11.14 -0.07 12.06 -0.04 13 0 C13 0.99 13 1.98 13 3 C8.05 3 3.1 3 -2 3 C-1.34 2.01 -0.68 1.02 0 0 Z " fill="#99BFAE" transform="translate(38,71)"/>
<path d="M0 0 C1.32 0 2.64 0 4 0 C4 2.97 4 5.94 4 9 C2.68 9 1.36 9 0 9 C0 6.03 0 3.06 0 0 Z " fill="#0C683F" transform="translate(74,32)"/>
<path d="M0 0 C2.31 0 4.62 0 7 0 C7 0.99 7 1.98 7 3 C6.34 3 5.68 3 5 3 C5 3.66 5 4.32 5 5 C3.68 5 2.36 5 1 5 C1 4.34 1 3.68 1 3 C0.34 3 -0.32 3 -1 3 C-0.67 2.01 -0.34 1.02 0 0 Z " fill="#488969" transform="translate(118,37)"/>
<path d="M0 0 C0.33 0.66 0.66 1.32 1 2 C4.03 2.66 4.03 2.66 7 3 C7 3.33 7 3.66 7 4 C2.03 4.91 -2.03 4.91 -7 4 C-7 3.34 -7 2.68 -7 2 C-4.69 2 -2.38 2 0 2 C0 1.34 0 0.68 0 0 Z " fill="#045E32" transform="translate(60,65)"/>
<path d="M0 0 C1.98 0 3.96 0 6 0 C6 1.32 6 2.64 6 4 C4.02 4 2.04 4 0 4 C0 2.68 0 1.36 0 0 Z " fill="#166E47" transform="translate(98,23)"/>
<path d="M0 0 C0.99 0 1.98 0 3 0 C3 1.65 3 3.3 3 5 C-0.48 6.16 -2.46 5.71 -6 5 C-6 4.67 -6 4.34 -6 4 C-4.02 4 -2.04 4 0 4 C0 2.68 0 1.36 0 0 Z " fill="#96BCAA" transform="translate(104,23)"/>
<path d="M0 0 C2 2 2 2 2 6 C1.34 6 0.68 6 0 6 C0 5.01 0 4.02 0 3 C-2.97 3 -5.94 3 -9 3 C-9 2.67 -9 2.34 -9 2 C-6.03 2 -3.06 2 0 2 C0 1.34 0 0.68 0 0 Z " fill="#19714A" transform="translate(134,66)"/>
</svg>
