<?xml version="1.0" encoding="UTF-8" standalone="no"?>
<!-- Created with Inkscape (http://www.inkscape.org/) -->

<svg
   xmlns:dc="http://purl.org/dc/elements/1.1/"
   xmlns:cc="http://creativecommons.org/ns#"
   xmlns:rdf="http://www.w3.org/1999/02/22-rdf-syntax-ns#"
   xmlns:svg="http://www.w3.org/2000/svg"
   xmlns="http://www.w3.org/2000/svg"
   version="1.1"
   width="138.002"
   height="75.136002"
   viewBox="0 0 138.002 75.136"
   id="svg2"
   xml:space="preserve"
   style="overflow:visible"><defs
     id="defs21" /><g
     id="g7">
				<g
   id="g9"
   style="fill:#75777a;fill-opacity:1">
					<path
   d="m 117.771,2.336 c 13.385,0 18,12 18,18.8 0,6.9 -2.77,12.5 -7.846,14.7 v 0.2 c 6.385,1.9 10.076,8.3 10.076,17.1 0,14.7 -10.153,22 -20.153,22 -10.385,0 -20.461,-6.8 -20.461,-21.899 0,-8.9 3.846,-15.201 10.154,-17.201 v -0.2 c -5.23,-1.9 -7.923,-7.5 -7.923,-14.4 0,-12.6 9.384,-19.1 18.153,-19.1 z m 0.078,62.1 c 5.231,0 9.231,-4.8 9.231,-11.8 0,-6.7 -4.154,-11.2 -9.231,-11.2 -5.308,0 -9.538,3.9 -9.538,11.1 0,7.201 4.306,11.9 9.538,11.9 z m -0.078,-32.5 c 4.462,0 8.077,-3.2 8.077,-9.2 0,-3.6 -1.308,-9.7 -8.077,-9.7 -4.385,0 -8.23,3.5 -8.23,9.7 0,6.1 3.846,9.2 8.23,9.2 z"
   id="path11"
   style="fill:#75777a;fill-opacity:1" />
				</g>
			</g><g
     id="g13">
				<path
   d="M 55.902,56.12 C 45.279,67.952 28.067,66.686 17.46,56.079 6.854,45.473 6.846,28.261 17.445,17.662 28.06,7.047 44.002,6.253 55.099,18.441"
   id="path15"
   style="fill:none;stroke:#75777a;stroke-width:19;stroke-opacity:1" />
			</g><path
     d="m 62.925999,37.337002 27.693004,0"
     id="line17"
     style="fill:none;stroke:#75777a;stroke-width:14.03299999;stroke-opacity:1" /><metadata
     id="metadata3007"><rdf:RDF><cc:Work
         rdf:about=""><dc:title></dc:title><dc:format>image/svg+xml</dc:format><dc:type
           rdf:resource="http://purl.org/dc/dcmitype/StillImage" /></cc:Work></rdf:RDF></metadata></svg>