<?xml version="1.0" encoding="utf-8"?>
<!-- Generator: Adobe Illustrator 25.2.1, SVG Export Plug-In . SVG Version: 6.00 Build 0)  -->
<svg width="40" height="40" version="1.1" id="Capa_1" xmlns="http://www.w3.org/2000/svg" xmlns:xlink="http://www.w3.org/1999/xlink" x="0px" y="0px"
	 viewBox="0 0 40 40" style="enable-background:new 0 0 40 40;" xml:space="preserve">
<style type="text/css">
	.st0{fill:#FFDD00;}
	.st1{fill:#1D1D1B;}
</style>
<g>
	<rect class="st0" width="40" height="40"/>
	<path class="st1" d="M9.9,12.2c2.6,0,4.4,1.8,4.4,4.1c0,1.9-0.8,3.1-2.4,3.7l0,0c2.1,0.6,2.2,2.9,2.2,4.3c0.1,1.4,0.2,2.2,0.6,2.7
		h-3.3c-0.3-0.6-0.3-1.5-0.4-2.6c-0.2-2.1-0.5-3.2-2.6-3.2H5.1V27H1.8V12.2H9.9z M8.7,19c1.4,0,2.2-0.6,2.2-2.1s-0.8-2.1-2.3-2.1
		H5.1V19H8.7z"/>
	<path class="st1" d="M19.3,12.2v12.2h7.3v2.8H16v-15H19.3z"/>
	<path class="st1" d="M36.3,12.5v8.8h1.9v2.4h-1.9v3.4h-2.8v-3.4h-6.2V21l6.4-8.5C33.7,12.5,36.3,12.5,36.3,12.5z M33.4,16.3
		l-3.8,5.1h3.9L33.4,16.3L33.4,16.3z"/>
</g>
</svg>
