<?xml version="1.0" encoding="UTF-8" standalone="no"?>
<!-- Created with Inkscape (http://www.inkscape.org/) -->

<svg
   xmlns:dc="http://purl.org/dc/elements/1.1/"
   xmlns:cc="http://creativecommons.org/ns#"
   xmlns:rdf="http://www.w3.org/1999/02/22-rdf-syntax-ns#"
   xmlns:svg="http://www.w3.org/2000/svg"
   xmlns="http://www.w3.org/2000/svg"
   xmlns:sodipodi="http://sodipodi.sourceforge.net/DTD/sodipodi-0.dtd"
   xmlns:inkscape="http://www.inkscape.org/namespaces/inkscape"
   width="16.933332mm"
   height="16.933332mm"
   viewBox="0 0 16.933332 16.933333"
   version="1.1"
   id="svg33269"
   inkscape:version="0.92.0 r15299"
   sodipodi:docname="S3_barcelona.svg">
  <defs
     id="defs33263" />
  <sodipodi:namedview
     id="base"
     pagecolor="#ffffff"
     bordercolor="#666666"
     borderopacity="1.0"
     inkscape:pageopacity="0.0"
     inkscape:pageshadow="2"
     inkscape:zoom="2.8"
     inkscape:cx="18.917775"
     inkscape:cy="-1.2416532"
     inkscape:document-units="mm"
     inkscape:current-layer="layer1"
     showgrid="false"
     fit-margin-top="0"
     fit-margin-left="0"
     fit-margin-right="0"
     fit-margin-bottom="0"
     inkscape:window-width="1920"
     inkscape:window-height="1017"
     inkscape:window-x="-8"
     inkscape:window-y="-8"
     inkscape:window-maximized="1" />
  <metadata
     id="metadata33266">
    <rdf:RDF>
      <cc:Work
         rdf:about="">
        <dc:format>image/svg+xml</dc:format>
        <dc:type
           rdf:resource="http://purl.org/dc/dcmitype/StillImage" />
        <dc:title></dc:title>
        <cc:license
           rdf:resource="http://creativecommons.org/licenses/by/4.0/" />
      </cc:Work>
      <cc:License
         rdf:about="http://creativecommons.org/licenses/by/4.0/">
        <cc:permits
           rdf:resource="http://creativecommons.org/ns#Reproduction" />
        <cc:permits
           rdf:resource="http://creativecommons.org/ns#Distribution" />
        <cc:requires
           rdf:resource="http://creativecommons.org/ns#Notice" />
        <cc:requires
           rdf:resource="http://creativecommons.org/ns#Attribution" />
        <cc:permits
           rdf:resource="http://creativecommons.org/ns#DerivativeWorks" />
      </cc:License>
    </rdf:RDF>
  </metadata>
  <g
     inkscape:label="Capa 1"
     inkscape:groupmode="layer"
     id="layer1"
     transform="translate(-103.50879,-117.13295)">
    <g
       id="g33940"
       transform="matrix(2.7312727,0,0,2.7306719,-193.86003,-217.37171)">
      <g
         transform="translate(168.51619,-21.625551)"
         id="g33902">
        <g
           id="g33895">
          <g
             id="g33838">
            <path
               inkscape:connector-curvature="0"
               style="fill:#4c858c;fill-opacity:1;fill-rule:nonzero;stroke:none;stroke-width:0.35277775"
               d="m -59.64064,144.12458 h 6.199796 v 6.20116 h -6.199796 z m 0,0"
               id="path14566" />
          </g>
        </g>
        <path
           inkscape:connector-curvature="0"
           style="fill:#ffffff;fill-opacity:1;fill-rule:nonzero;stroke:none;stroke-width:0.35277775"
           d="m -58.451393,147.77777 c 0,0.43822 0.341754,0.60911 0.727604,0.60911 0.254939,0 0.642168,-0.0744 0.642168,-0.41067 0,-0.35553 -0.493337,-0.4148 -0.978408,-0.54296 -0.487823,-0.12954 -0.981163,-0.31969 -0.981163,-0.93568 0,-0.6725 0.636654,-0.99493 1.230588,-0.99493 0.687641,0 1.318781,0.30039 1.318781,1.0597 h -0.701421 c -0.02204,-0.39549 -0.303165,-0.49748 -0.649054,-0.49748 -0.231511,0 -0.498851,0.0951 -0.498851,0.37207 0,0.25358 0.157099,0.28801 0.982541,0.49749 0.239781,0.0606 0.977029,0.2122 0.977029,0.95772 0,0.60498 -0.475422,1.05558 -1.369769,1.05558 -0.727604,0 -1.409732,-0.35828 -1.400088,-1.16995 z m 0,0"
           id="path14568" />
        <path
           inkscape:connector-curvature="0"
           style="fill:#ffffff;fill-opacity:1;fill-rule:nonzero;stroke:none;stroke-width:0.35277775"
           d="m -55.359073,146.94955 c 0.281117,0.0219 0.687642,-0.0332 0.687642,-0.39962 0,-0.27284 -0.217731,-0.42856 -0.457512,-0.42856 -0.326594,0 -0.501603,0.24254 -0.49747,0.57464 h -0.621496 c 0.02342,-0.66008 0.451999,-1.11622 1.114833,-1.11622 0.515387,0 1.08314,0.31972 1.08314,0.89574 0,0.30317 -0.151585,0.57464 -0.451998,0.6587 v 0.008 c 0.355534,0.0772 0.571886,0.37345 0.571886,0.73173 0,0.67801 -0.566375,1.06109 -1.198895,1.06109 -0.723469,0 -1.211295,-0.43406 -1.197515,-1.17546 h 0.621495 c 0.01516,0.35003 0.19017,0.63529 0.567754,0.63529 0.294899,0 0.525034,-0.20257 0.525034,-0.50712 0,-0.4892 -0.428572,-0.47819 -0.746898,-0.47819 z m 0,0"
           id="path14570" />
      </g>
    </g>
  </g>
</svg>
