<?xml version="1.0" encoding="UTF-8"?>
<!DOCTYPE svg PUBLIC "-//W3C//DTD SVG 1.1//EN" "http://www.w3.org/Graphics/SVG/1.1/DTD/svg11.dtd">
<svg xmlns="http://www.w3.org/2000/svg" version="1.1" width="1653px" height="686px" style="shape-rendering:geometricPrecision; text-rendering:geometricPrecision; image-rendering:optimizeQuality; fill-rule:evenodd; clip-rule:evenodd" xmlns:xlink="http://www.w3.org/1999/xlink">
<g><path fill="#e30613" stroke="#e30613" stroke-width="0.5" d="M 360.67,0.95 c 37.22,0.79 75.03,10.59 107.13,29.63 c 0.34,0.2 0.69,0.4 1.03,0.61 c 2.35,1.4 4.68,2.86 6.97,4.36 c 0.33,0.22 0.66,0.44 0.99,0.66 c 0.67,0.45 1.34,0.9 2,1.35 c 0.33,0.22 0.66,0.44 0.99,0.67 c 0.67,0.46 1.34,0.93 2.01,1.4 c 0.31,0.22 0.61,0.44 0.92,0.65 c 1.04,0.75 2.07,1.5 3.1,2.26 c 0.31,0.23 0.63,0.46 0.94,0.7 c 1.02,0.76 2.03,1.54 3.04,2.32 c 0.31,0.24 0.62,0.47 0.92,0.72 c 1.31,1.02 2.61,2.07 3.88,3.13 c 0.37,0.3 0.73,0.61 1.09,0.91 c 0.36,0.3 0.72,0.61 1.08,0.91 c 1.99,1.68 3.95,3.39 5.89,5.13 c 0.35,0.31 0.7,0.63 1.04,0.94 c 0.35,0.32 0.7,0.65 1.04,0.97 c 0.35,0.32 0.69,0.64 1.02,0.97 c 3.38,3.3 6.75,6.62 10.1,9.95 c 0.3,0.36 0.6,0.73 0.88,1.1 c 0.21,0.31 0.4,0.64 0.59,0.96 c 0.5,1.23 0.62,2.5 0.36,3.8 c -22.5,67.33 -25.23,143.79 8.24,208.03 c 0.16,0.38 0.34,0.75 0.53,1.12 c 1.76,3.01 3.55,6.01 5.35,8.99 c 0.22,0.34 0.43,0.68 0.64,1.01 c 1.08,1.7 2.19,3.38 3.33,5.03 c 0.23,0.32 0.45,0.65 0.67,0.98 c 0.47,0.65 0.92,1.3 1.37,1.97 c 0.28,0.39 0.57,0.77 0.89,1.14 c 0.68,0.97 1.38,1.93 2.1,2.87 c 0.3,0.38 0.6,0.76 0.91,1.12 c 0.23,0.3 0.45,0.6 0.66,0.91 c 1.11,1.36 2.23,2.71 3.36,4.05 c 0.31,0.37 0.61,0.73 0.92,1.1 c 2.28,2.71 4.64,5.34 7.1,7.88 c 0.32,0.34 0.65,0.68 0.97,1.02 c 0.33,0.34 0.66,0.68 0.99,1.02 c 0.34,0.33 0.67,0.66 1,1 c 0.34,0.33 0.68,0.66 1.02,0.99 c 0.34,0.33 0.67,0.65 1.01,0.97 c 2.54,2.47 5.17,4.85 7.87,7.15 c 0.36,0.3 0.72,0.61 1.08,0.92 c 0.35,0.3 0.71,0.6 1.06,0.9 c 1.27,1.07 2.56,2.12 3.86,3.16 c 0.37,0.3 0.75,0.59 1.12,0.89 c 1.31,1.02 2.63,2.03 3.95,3.03 c 0.37,0.32 0.75,0.61 1.15,0.89 c 0.66,0.46 1.31,0.93 1.96,1.41 c 0.32,0.21 0.64,0.44 0.95,0.66 c 2.03,1.41 4.05,2.82 6.06,4.24 c 0.35,0.22 0.7,0.43 1.05,0.63 c 2.33,1.45 4.63,2.93 6.92,4.44 c 0.36,0.18 0.72,0.36 1.08,0.55 c 1.34,0.76 2.66,1.56 3.96,2.38 c 0.36,0.22 0.72,0.42 1.1,0.6 c 21.58,11.91 44.18,21.42 67.8,28.52 c 38.27,12.47 80.82,15.3 115.09,37.89 c 0.36,0.2 0.72,0.41 1.07,0.61 c 1.63,1.01 3.23,2.09 4.77,3.22 c 0.38,0.3 0.77,0.59 1.16,0.88 c 0.67,0.46 1.32,0.93 1.97,1.42 c 0.32,0.2 0.62,0.41 0.92,0.65 c 0.36,0.31 0.74,0.6 1.12,0.89 c 1.29,1.06 2.58,2.1 3.87,3.14 c 0.33,0.33 0.67,0.65 1.01,0.97 c 0.36,0.31 0.73,0.61 1.09,0.92 c 2.35,2.32 4.69,4.66 7.01,7.01 c 0.31,0.36 0.61,0.73 0.92,1.09 c 0.32,0.34 0.64,0.68 0.97,1.01 c 1.05,1.29 2.08,2.58 3.1,3.89 c 0.29,0.38 0.58,0.77 0.87,1.15 c 8.67,11.09 16.09,29.96 16.3,43.88 c 0.35,4.09 0.49,8.19 0.4,12.31 c -0.34,2.03 -0.48,4.08 -0.4,6.14 c -0.5,13.05 -5.26,28.59 -11.53,40.11 c -0.19,0.36 -0.38,0.71 -0.57,1.06 c -0.73,1.35 -1.52,2.66 -2.36,3.95 c -0.2,0.35 -0.4,0.71 -0.61,1.06 c -1.01,1.63 -2.09,3.22 -3.22,4.77 c -0.3,0.38 -0.59,0.77 -0.87,1.16 c -0.69,0.96 -1.41,1.91 -2.14,2.83 c -0.31,0.37 -0.62,0.73 -0.92,1.1 c -3.56,4.44 -7.54,8.46 -11.95,12.06 c -0.36,0.31 -0.73,0.61 -1.09,0.92 c -0.29,0.25 -0.59,0.49 -0.91,0.7 c -0.99,0.81 -2.01,1.58 -3.04,2.34 c -0.32,0.23 -0.64,0.45 -0.96,0.68 c -0.65,0.46 -1.31,0.92 -1.97,1.38 c -0.33,0.22 -0.67,0.44 -1,0.66 c -31.6,20.54 -72.61,20.82 -104.62,1 c -0.34,-0.22 -0.68,-0.44 -1.02,-0.65 c -0.66,-0.44 -1.32,-0.88 -1.98,-1.32 c -0.34,-0.23 -0.67,-0.46 -1,-0.69 c -0.66,-0.46 -1.32,-0.94 -1.97,-1.41 c -0.31,-0.23 -0.62,-0.46 -0.92,-0.69 c -1.71,-1.29 -3.36,-2.64 -4.97,-4.05 c -0.35,-0.31 -0.7,-0.63 -1.05,-0.94 c -0.35,-0.31 -0.69,-0.63 -1.03,-0.94 c -1.73,-1.62 -3.41,-3.3 -5.02,-5.03 c -0.32,-0.34 -0.63,-0.69 -0.95,-1.03 c -0.31,-0.36 -0.62,-0.71 -0.93,-1.07 c -1.08,-1.26 -2.12,-2.55 -3.13,-3.86 c -0.3,-0.38 -0.6,-0.75 -0.91,-1.11 c -0.7,-0.96 -1.4,-1.93 -2.09,-2.89 c -0.22,-0.33 -0.45,-0.66 -0.68,-0.99 c -0.45,-0.66 -0.9,-1.33 -1.34,-2 c -0.22,-0.33 -0.43,-0.67 -0.65,-1 c -10.35,-16.8 -15.53,-35.07 -15.55,-54.8 c -0.13,-1.16 -1.68,-0.99 -2.48,-1.02 c -46.95,-0.05 -93.89,0.03 -140.83,0.23 c -0.44,0.31 -0.66,0.74 -0.66,1.29 c -0.02,46.46 -0.04,92.92 -0.05,139.38 c -2.26,1.83 -4.64,3.47 -7.14,4.95 c -0.35,0.21 -0.69,0.42 -1.03,0.63 c -1.31,0.82 -2.63,1.63 -3.96,2.42 c -0.36,0.19 -0.72,0.37 -1.08,0.55 c -31.84,19.15 -67.95,29.49 -104.95,31.61 c -5.11,-0.11 -10.23,-0.03 -15.34,0.25 c -0.65,-0.05 -1.15,0.19 -1.51,0.71 c -119.33,0 -238.66,0 -357.99,0 c -0.28,-8.16 -0.39,-16.32 -0.33,-24.48 c -0.03,-219.96 0.03,-439.92 0.17,-659.87 c 0.74,-0.69 1.62,-0.96 2.65,-0.82 c 119.07,0.06 238.14,0.1 357.2,0.12 Z M 1166.7,1.03 c 46.35,125.39 92.58,250.82 138.67,376.31 c 0.19,0.61 0.57,1.07 1.12,1.38 c 45.7,-125.9 91.34,-251.82 136.92,-377.78 c 69.86,0.04 139.72,0.07 209.59,0.08 c 0,228.33 0,456.65 0,684.98 c -49.73,-0.05 -99.46,-0.09 -149.18,-0.14 c 0.17,-149.14 0.24,-298.28 0.21,-447.42 c 0.06,-0.54 -0.1,-0.99 -0.49,-1.34 c -0.76,0.71 -1.29,1.58 -1.59,2.6 c -49.89,130.47 -100,260.87 -150.32,391.19 c -30.17,0.14 -60.33,0.15 -90.5,0.01 c -1.89,-4.07 -3.61,-8.23 -5.16,-12.46 c -48.8,-126.82 -97.68,-253.61 -146.63,-380.37 c -0.25,-0.94 -0.5,-1.87 -0.74,-2.8 c -0.6,1.34 -0.87,2.75 -0.79,4.23 c -0.01,148.83 0.04,297.67 0.15,446.49 c -70.43,-0.05 -140.86,-0.1 -211.28,-0.16 c 1.12,-1.25 2.31,-2.45 3.56,-3.59 c 0.34,-0.32 0.68,-0.64 1.02,-0.96 c 0.35,-0.32 0.7,-0.65 1.05,-0.97 c 0.35,-0.32 0.69,-0.65 1.04,-0.97 c 0.34,-0.32 0.68,-0.64 1.02,-0.97 c 2.74,-2.59 5.41,-5.26 8,-8.01 c 0.32,-0.34 0.64,-0.68 0.96,-1.02 c 0.33,-0.34 0.65,-0.69 0.98,-1.03 c 0.32,-0.35 0.65,-0.69 0.97,-1.04 c 0.32,-0.34 0.64,-0.68 0.96,-1.02 c 1.77,-1.91 3.49,-3.86 5.17,-5.85 c 0.3,-0.36 0.61,-0.72 0.92,-1.08 c 0.3,-0.35 0.6,-0.71 0.9,-1.07 c 1.07,-1.27 2.13,-2.55 3.16,-3.84 c 0.3,-0.37 0.6,-0.75 0.9,-1.13 c 1.03,-1.3 2.05,-2.6 3.06,-3.92 c 0.29,-0.38 0.59,-0.77 0.88,-1.15 c 0.72,-0.94 1.42,-1.89 2.11,-2.85 c 0.3,-0.38 0.59,-0.77 0.88,-1.16 c 0.46,-0.66 0.92,-1.32 1.38,-1.98 c 0.22,-0.33 0.44,-0.65 0.66,-0.97 c 2.52,-3.62 4.95,-7.29 7.31,-11.02 c 0.18,-0.36 0.36,-0.72 0.56,-1.08 c 0.77,-1.34 1.58,-2.65 2.43,-3.94 c 0.2,-0.36 0.4,-0.71 0.6,-1.06 c 19.6,-34.65 29.94,-71.86 31.01,-111.65 c 0.87,-46.73 -4.62,-92.87 -27.09,-134.58 c -0.17,-0.39 -0.37,-0.76 -0.59,-1.13 c -0.78,-1.31 -1.55,-2.63 -2.31,-3.96 c -0.2,-0.34 -0.41,-0.68 -0.61,-1.02 c -0.81,-1.32 -1.62,-2.64 -2.44,-3.96 c -0.2,-0.35 -0.42,-0.7 -0.63,-1.04 c -0.46,-0.65 -0.91,-1.3 -1.33,-1.97 c -0.22,-0.34 -0.45,-0.69 -0.67,-1.03 c -0.46,-0.64 -0.9,-1.3 -1.33,-1.96 c -0.25,-0.42 -0.53,-0.82 -0.83,-1.2 c -0.68,-0.98 -1.38,-1.95 -2.09,-2.9 c -0.23,-0.32 -0.47,-0.64 -0.7,-0.95 c -0.76,-1.02 -1.54,-2.02 -2.32,-3.03 c -0.29,-0.37 -0.59,-0.75 -0.89,-1.13 c -1.02,-1.3 -2.06,-2.59 -3.12,-3.86 c -0.31,-0.36 -0.62,-0.73 -0.93,-1.09 c -0.31,-0.35 -0.62,-0.69 -0.94,-1.03 c -5.86,-6.81 -12.2,-13.15 -19.01,-19.01 c -0.34,-0.32 -0.68,-0.63 -1.03,-0.94 c -0.36,-0.31 -0.73,-0.62 -1.09,-0.93 c -1.27,-1.06 -2.56,-2.1 -3.85,-3.14 c -0.37,-0.3 -0.75,-0.59 -1.12,-0.89 c -1.01,-0.79 -2.02,-1.57 -3.04,-2.35 c -0.3,-0.23 -0.61,-0.46 -0.91,-0.69 c -1.03,-0.77 -2.06,-1.53 -3.1,-2.29 c -0.31,-0.23 -0.63,-0.46 -0.94,-0.68 c -0.96,-0.71 -1.93,-1.4 -2.91,-2.08 c -0.38,-0.3 -0.78,-0.58 -1.2,-0.83 c -0.66,-0.43 -1.32,-0.87 -1.96,-1.33 c -0.34,-0.23 -0.68,-0.45 -1.03,-0.67 c -0.67,-0.42 -1.32,-0.87 -1.97,-1.33 c -0.35,-0.21 -0.7,-0.41 -1.06,-0.62 c -1.31,-0.82 -2.62,-1.65 -3.93,-2.46 c -0.34,-0.21 -0.67,-0.42 -1.01,-0.62 c -1.32,-0.81 -2.65,-1.59 -3.99,-2.36 c -0.35,-0.2 -0.69,-0.39 -1.04,-0.59 c -2,-1.11 -3.99,-2.24 -5.96,-3.4 c -0.37,-0.19 -0.74,-0.37 -1.12,-0.53 c -39.68,-21.1 -83.31,-32.47 -127.11,-41.33 c -15.61,-3.5 -30.54,-8.89 -44.77,-16.17 c -0.36,-0.18 -0.71,-0.37 -1.06,-0.56 c -2.02,-1.08 -4,-2.23 -5.95,-3.43 c -0.33,-0.21 -0.67,-0.42 -1,-0.63 c -0.67,-0.43 -1.34,-0.86 -2,-1.3 c -0.34,-0.23 -0.69,-0.45 -1.04,-0.66 c -0.65,-0.45 -1.31,-0.92 -1.96,-1.38 c -0.33,-0.22 -0.65,-0.44 -0.98,-0.68 c -0.96,-0.69 -1.92,-1.39 -2.86,-2.12 c -0.38,-0.29 -0.76,-0.59 -1.13,-0.88 c -1.3,-1.03 -2.57,-2.08 -3.82,-3.17 c -0.35,-0.32 -0.7,-0.63 -1.05,-0.95 c -0.35,-0.32 -0.7,-0.64 -1.04,-0.97 c -0.35,-0.32 -0.69,-0.65 -1.02,-0.98 c -0.34,-0.33 -0.68,-0.66 -1.01,-0.99 c -0.33,-0.33 -0.67,-0.67 -1,-1 c -0.33,-0.34 -0.66,-0.68 -0.98,-1.02 c -0.33,-0.34 -0.65,-0.69 -0.98,-1.03 c -0.32,-0.35 -0.63,-0.69 -0.95,-1.04 c -1.09,-1.25 -2.15,-2.53 -3.15,-3.84 c -0.3,-0.38 -0.6,-0.75 -0.92,-1.11 c -20.41,-27.31 -20.88,-66.42 -3.8,-95.47 c 0.2,-0.36 0.41,-0.71 0.62,-1.07 c 0.78,-1.34 1.62,-2.65 2.5,-3.93 c 0.22,-0.31 0.43,-0.62 0.65,-0.93 c 0.74,-1.05 1.53,-2.07 2.36,-3.06 c 0.21,-0.31 0.43,-0.61 0.66,-0.91 c 0.31,-0.36 0.61,-0.73 0.92,-1.09 c 3.27,-4.07 6.94,-7.74 11.01,-11.01 c 0.36,-0.31 0.73,-0.61 1.09,-0.92 c 0.3,-0.23 0.6,-0.45 0.91,-0.66 c 0.99,-0.83 2.01,-1.62 3.06,-2.36 c 0.31,-0.22 0.62,-0.43 0.93,-0.65 c 1.28,-0.88 2.58,-1.71 3.92,-2.5 c 0.36,-0.21 0.72,-0.42 1.09,-0.63 c 28.25,-16.6 64.72,-16.26 92.58,1.01 c 0.36,0.21 0.72,0.41 1.07,0.62 c 1.7,1.07 3.34,2.2 4.93,3.42 c 0.32,0.24 0.63,0.47 0.94,0.71 c 1.32,1.01 2.6,2.06 3.86,3.14 c 0.36,0.32 0.71,0.63 1.06,0.95 c 0.35,0.32 0.69,0.64 1.03,0.97 c 0.35,0.32 0.69,0.65 1.02,0.98 c 0.34,0.33 0.68,0.66 1.01,0.99 c 0.34,0.33 0.67,0.66 1,1 c 0.33,0.34 0.66,0.67 0.99,1.01 c 0.32,0.35 0.65,0.69 0.97,1.04 c 0.32,0.34 0.64,0.69 0.95,1.04 c 1.1,1.25 2.15,2.52 3.16,3.83 c 0.29,0.38 0.58,0.77 0.87,1.15 c 1.88,2.5 3.62,5.1 5.21,7.8 c 0.2,0.35 0.39,0.71 0.57,1.08 c 7.71,13.66 11.56,28.33 11.53,44.03 c 0.76,0.47 1.6,0.66 2.52,0.56 c 46,-0.01 92.01,-0.02 138.02,0 c 2.99,0.2 3.75,-0.24 3.54,-3.31 c 0.03,-52.99 -0.02,-105.97 -0.15,-158.95 c 0.16,-0.16 0.32,-0.32 0.48,-0.48 c 67.11,-0.02 134.21,-0.04 201.32,-0.05 Z M 149.87,273.11 c 0.67,0.79 1.54,1.09 2.62,0.91 c 49,-0.02 98.01,-0.02 147.01,-0.01 c 2.2,0.01 4.37,-0.22 6.52,-0.69 c 12.87,-1.09 24.91,-4.82 36.13,-11.2 c 0.36,-0.19 0.72,-0.37 1.08,-0.55 c 0.66,-0.45 1.32,-0.9 1.98,-1.35 c 0.33,-0.23 0.66,-0.45 0.99,-0.67 c 1.05,-0.73 2.07,-1.49 3.08,-2.27 c 0.38,-0.29 0.75,-0.59 1.13,-0.89 c 3.71,-2.94 7.02,-6.29 9.92,-10.04 c 0.3,-0.38 0.59,-0.77 0.89,-1.15 c 19.03,-26.63 20.9,-67.26 2.06,-94.48 c -0.23,-0.31 -0.46,-0.62 -0.69,-0.93 c -1.06,-1.39 -2.18,-2.74 -3.35,-4.04 c -0.32,-0.34 -0.63,-0.69 -0.95,-1.03 c -0.33,-0.34 -0.66,-0.68 -0.99,-1.02 c -0.33,-0.34 -0.67,-0.67 -1.01,-1 c -0.34,-0.32 -0.68,-0.64 -1.02,-0.96 c -1.57,-1.44 -3.21,-2.8 -4.91,-4.08 c -0.38,-0.3 -0.77,-0.59 -1.16,-0.88 c -0.66,-0.45 -1.33,-0.89 -2,-1.33 c -0.34,-0.22 -0.67,-0.43 -1.01,-0.65 c -13.16,-7.78 -27.39,-12.03 -42.69,-12.76 c -50.99,-0.26 -101.97,-0.27 -152.95,-0.03 c -0.64,0.68 -0.89,1.51 -0.73,2.47 c 0,49.55 0.02,99.09 0.05,148.63 Z M 149.87,563.11 c 0.67,0.79 1.54,1.09 2.62,0.91 c 50.33,-0.02 100.67,-0.02 151.01,-0.01 c 2.21,0.01 4.4,-0.19 6.56,-0.61 c 17.52,-1.46 35.8,-6.74 50.19,-17.14 c 0.32,-0.24 0.64,-0.47 0.96,-0.71 c 1.01,-0.77 2.01,-1.55 3,-2.35 c 0.37,-0.3 0.73,-0.6 1.1,-0.91 c 0.34,-0.32 0.67,-0.64 1,-0.97 c 2.14,-1.87 4.16,-3.86 6.06,-5.96 c 0.32,-0.35 0.63,-0.7 0.94,-1.05 c 0.31,-0.35 0.61,-0.71 0.91,-1.07 c 0.82,-0.98 1.62,-1.99 2.38,-3.02 c 0.23,-0.31 0.46,-0.62 0.68,-0.94 c 18.94,-26.73 19.78,-66.6 2.92,-94.47 c -0.22,-0.34 -0.43,-0.68 -0.65,-1.01 c -0.44,-0.67 -0.89,-1.34 -1.34,-2 c -0.24,-0.33 -0.47,-0.66 -0.71,-0.99 c -0.73,-1.03 -1.5,-2.04 -2.3,-3.02 c -0.3,-0.37 -0.6,-0.73 -0.91,-1.1 c -0.3,-0.36 -0.6,-0.71 -0.9,-1.07 c -2.26,-2.41 -4.61,-4.73 -7.05,-6.95 c -0.36,-0.31 -0.72,-0.62 -1.08,-0.93 c -1.27,-1.07 -2.58,-2.08 -3.94,-3.04 c -0.37,-0.32 -0.76,-0.61 -1.17,-0.87 c -0.66,-0.43 -1.32,-0.87 -1.96,-1.33 c -0.34,-0.23 -0.68,-0.46 -1.02,-0.68 c -1.33,-0.78 -2.66,-1.57 -3.97,-2.37 c -0.37,-0.19 -0.74,-0.37 -1.12,-0.53 c -13.91,-7.39 -28.99,-10.54 -44.58,-11.71 c -52.3,-0.25 -104.6,-0.28 -156.9,-0.1 c -0.67,0.63 -0.94,1.42 -0.78,2.37 c 0,54.54 0.02,109.09 0.05,163.63 Z"/></g>
<g><path fill="#e30613" fill-opacity="0.251" stroke="#e30613" stroke-width="0.5" stroke-opacity="0.251" d="M 1443,0 c 70,0 140,0 210,0 c 0,0.34 0,0.68 0,1.02 c -69.87,-0.01 -139.73,-0.04 -209.59,-0.08 c -0.14,-0.31 -0.27,-0.63 -0.41,-0.94 Z M 1503.82,685.86 c -0.29,0.08 -0.58,0.15 -0.87,0.22 c 0.09,-148.52 0.07,-297.04 -0.06,-445.56 c -0.17,-0.44 -0.48,-0.72 -0.94,-0.82 c 0.3,-1.02 0.83,-1.89 1.59,-2.6 c 0.39,0.35 0.55,0.8 0.49,1.34 c 0.03,149.14 -0.04,298.28 -0.21,447.42 Z M 149.87,273.11 c 50.89,-0.07 101.77,-0.14 152.65,-0.2 c 1.18,0 2.35,0.13 3.5,0.41 c -2.15,0.47 -4.32,0.7 -6.52,0.69 c -49,-0.01 -98.01,-0.01 -147.01,0.01 c -1.08,0.18 -1.95,-0.12 -2.62,-0.91 Z M 638,505 c -47.46,-0.05 -94.92,0 -142.37,0.13 c -0.47,0.33 -0.68,0.77 -0.65,1.35 c 0,45.69 0.02,91.38 0.06,137.07 c 0.1,0.84 -0.25,1.29 -1.06,1.33 c 0.01,-46.46 0.03,-92.92 0.05,-139.38 c 0,-0.55 0.22,-0.98 0.66,-1.29 c 46.94,-0.2 93.88,-0.28 140.83,-0.23 c 0.8,0.03 2.35,-0.14 2.48,1.02 Z M 149.87,563.11 c 52.22,-0.1 104.44,-0.14 156.65,-0.14 c 1.21,-0.07 2.39,0.07 3.54,0.43 c -2.16,0.42 -4.35,0.62 -6.56,0.61 c -50.34,-0.01 -100.68,-0.01 -151.01,0.01 c -1.08,0.18 -1.95,-0.12 -2.62,-0.91 Z M 1261.13,630.9 c 30.17,0.14 60.33,0.13 90.5,-0.01 c 0.27,1.16 -1.45,1.09 -2.11,1.11 c -28.68,-0.01 -57.36,-0.01 -86.04,0.02 c -0.78,-0.01 -2.45,0.13 -2.35,-1.12 Z"/></g>
<g><path fill="#e30613" fill-opacity="0.576" stroke="#e30613" stroke-width="0.5" stroke-opacity="0.576" d="M 0,0 c 120.33,0 240.67,0 361,0 c -0.11,0.32 -0.22,0.63 -0.33,0.95 c -119.06,-0.02 -238.13,-0.06 -357.2,-0.12 c -1.03,-0.14 -1.91,0.13 -2.65,0.82 c -0.14,219.95 -0.2,439.91 -0.17,659.87 c -0.06,8.16 0.05,16.32 0.33,24.48 c -0.33,0 -0.65,0 -0.98,0 c 0,-228.67 0,-457.33 0,-686 Z"/></g>
<g><path fill="#e30613" fill-opacity="0.322" stroke="#e30613" stroke-width="0.5" stroke-opacity="0.322" d="M 964.02,0 c 67.66,0 135.32,0 202.98,0 c -0.1,0.34 -0.2,0.69 -0.3,1.03 c -67.11,0.01 -134.21,0.03 -201.32,0.05 c -0.16,0.16 -0.32,0.32 -0.48,0.48 c 0.13,52.98 0.18,105.96 0.15,158.95 c 0.21,3.07 -0.55,3.51 -3.54,3.31 c -46.01,-0.02 -92.02,-0.01 -138.02,0 c -0.92,0.1 -1.76,-0.09 -2.52,-0.56 c 1.16,-0.3 2.33,-0.44 3.53,-0.43 c 46.01,-0.02 92.02,0.02 138.03,0.09 c 0.56,0.11 1.03,-0.04 1.4,-0.47 c 0.1,-54.15 0.13,-108.3 0.09,-162.45 Z"/></g>
<g><path fill="#e30613" fill-opacity="0.063" stroke="#e30613" stroke-width="0.5" stroke-opacity="0.063" d="M 467.8,30.58 c 0.58,-0.19 0.93,0.01 1.03,0.61 c -0.34,-0.21 -0.69,-0.41 -1.03,-0.61 Z M 475.8,35.55 c 0.59,-0.16 0.92,0.05 0.99,0.66 c -0.33,-0.22 -0.66,-0.44 -0.99,-0.66 Z M 478.79,37.56 c 0.6,-0.17 0.93,0.05 0.99,0.67 c -0.33,-0.23 -0.66,-0.45 -0.99,-0.67 Z M 481.79,39.63 c 0.61,-0.2 0.91,0.01 0.92,0.65 c -0.31,-0.21 -0.61,-0.43 -0.92,-0.65 Z M 485.81,42.54 c 0.6,-0.15 0.91,0.08 0.94,0.7 c -0.31,-0.24 -0.63,-0.47 -0.94,-0.7 Z M 489.79,45.56 c 0.61,-0.16 0.92,0.08 0.92,0.72 c -0.3,-0.25 -0.61,-0.48 -0.92,-0.72 Z M 494.59,49.41 c 0.82,-0.22 1.19,0.09 1.09,0.91 c -0.36,-0.3 -0.72,-0.61 -1.09,-0.91 Z M 495.68,50.32 c 0.8,-0.17 1.15,0.13 1.08,0.91 c -0.36,-0.3 -0.72,-0.61 -1.08,-0.91 Z M 502.65,56.36 c 0.81,-0.17 1.16,0.14 1.04,0.94 c -0.34,-0.31 -0.69,-0.63 -1.04,-0.94 Z M 503.69,57.3 c 0.67,-0.02 1.02,0.31 1.04,0.97 c -0.34,-0.32 -0.69,-0.65 -1.04,-0.97 Z M 504.73,58.27 c 0.72,-0.07 1.06,0.25 1.02,0.97 c -0.33,-0.33 -0.67,-0.65 -1.02,-0.97 Z M 515.85,69.19 c 0.72,0 1.02,0.37 0.88,1.1 c -0.28,-0.37 -0.58,-0.74 -0.88,-1.1 Z M 516.73,70.29 c 0.81,-0.06 1,0.26 0.59,0.96 c -0.19,-0.32 -0.38,-0.65 -0.59,-0.96 Z M 683.21,91.62 c -0.31,0.22 -0.62,0.43 -0.93,0.65 c 0.04,-0.6 0.35,-0.81 0.93,-0.65 Z M 786.8,93.54 c 0.61,-0.15 0.92,0.09 0.94,0.71 c -0.31,-0.24 -0.62,-0.47 -0.94,-0.71 Z M 791.6,97.39 c 0.8,-0.16 1.15,0.15 1.06,0.95 c -0.35,-0.32 -0.7,-0.63 -1.06,-0.95 Z M 792.66,98.34 c 0.68,-0.04 1.03,0.28 1.03,0.97 c -0.34,-0.33 -0.68,-0.65 -1.03,-0.97 Z M 793.69,99.31 c 0.67,-0.02 1.01,0.31 1.02,0.98 c -0.33,-0.33 -0.67,-0.66 -1.02,-0.98 Z M 794.71,100.29 c 0.66,0 1,0.33 1.01,0.99 c -0.33,-0.33 -0.67,-0.66 -1.01,-0.99 Z M 795.72,101.28 c 0.66,0.01 0.99,0.34 1,1 c -0.33,-0.34 -0.66,-0.67 -1,-1 Z M 796.72,102.28 c 0.66,0.01 0.99,0.35 0.99,1.01 c -0.33,-0.34 -0.66,-0.67 -0.99,-1.01 Z M 797.71,103.29 c 0.67,0.01 1,0.36 0.97,1.04 c -0.32,-0.35 -0.65,-0.69 -0.97,-1.04 Z M 798.68,104.33 c 0.85,-0.14 1.17,0.21 0.95,1.04 c -0.31,-0.35 -0.63,-0.7 -0.95,-1.04 Z M 802.79,109.2 c 0.64,0.11 0.93,0.49 0.87,1.15 c -0.29,-0.38 -0.58,-0.77 -0.87,-1.15 Z M 662.27,112.28 c -0.22,0.31 -0.43,0.62 -0.65,0.93 c -0.16,-0.58 0.05,-0.89 0.65,-0.93 Z M 346.19,134.8 c 0.34,0.22 0.67,0.43 1.01,0.65 c -0.59,0.17 -0.92,-0.05 -1.01,-0.65 Z M 355.27,141.74 c 0.34,0.32 0.68,0.64 1.02,0.96 c -0.77,0.14 -1.11,-0.18 -1.02,-0.96 Z M 356.29,142.7 c 0.34,0.33 0.68,0.66 1.01,1 c -0.67,0.01 -1.01,-0.33 -1.01,-1 Z M 357.3,143.7 c 0.33,0.34 0.66,0.68 0.99,1.02 c -0.67,-0.01 -1,-0.35 -0.99,-1.02 Z M 358.29,144.72 c 0.32,0.34 0.63,0.69 0.95,1.03 c -0.79,0.08 -1.11,-0.26 -0.95,-1.03 Z M 362.59,149.79 c 0.23,0.31 0.46,0.62 0.69,0.93 c -0.64,-0.01 -0.87,-0.32 -0.69,-0.93 Z M 666.37,218.63 c 0.32,0.35 0.63,0.69 0.95,1.04 c -0.84,0.15 -1.16,-0.19 -0.95,-1.04 Z M 667.32,219.67 c 0.33,0.34 0.65,0.69 0.98,1.03 c -0.68,0 -1.01,-0.35 -0.98,-1.03 Z M 668.3,220.7 c 0.32,0.34 0.65,0.68 0.98,1.02 c -0.66,-0.01 -0.99,-0.35 -0.98,-1.02 Z M 669.28,221.72 c 0.33,0.33 0.67,0.67 1,1 c -0.66,-0.01 -0.99,-0.34 -1,-1 Z M 670.28,222.72 c 0.33,0.33 0.67,0.66 1.01,0.99 c -0.66,0 -1,-0.33 -1.01,-0.99 Z M 671.29,223.71 c 0.33,0.33 0.67,0.66 1.02,0.98 c -0.67,0.02 -1.01,-0.31 -1.02,-0.98 Z M 672.31,224.69 c 0.34,0.33 0.69,0.65 1.04,0.97 c -0.69,0.04 -1.04,-0.28 -1.04,-0.97 Z M 673.35,225.66 c 0.35,0.32 0.7,0.63 1.05,0.95 c -0.82,0.21 -1.18,-0.1 -1.05,-0.95 Z M 678.22,229.78 c 0.37,0.29 0.75,0.59 1.13,0.88 c -0.66,0.06 -1.03,-0.24 -1.13,-0.88 Z M 682.21,232.78 c 0.33,0.24 0.65,0.46 0.98,0.68 c -0.59,0.16 -0.92,-0.07 -0.98,-0.68 Z M 688.19,236.8 c 0.33,0.21 0.67,0.42 1,0.63 c -0.58,0.18 -0.92,-0.03 -1,-0.63 Z M 695.14,240.86 c 0.35,0.19 0.7,0.38 1.06,0.56 c -0.57,0.2 -0.92,0.01 -1.06,-0.56 Z M 361.22,245.2 c -0.3,0.38 -0.59,0.77 -0.89,1.15 c 0.01,-0.61 0.3,-1 0.89,-1.15 Z M 350.41,256.39 c -0.38,0.3 -0.75,0.6 -1.13,0.89 c 0.09,-0.64 0.47,-0.94 1.13,-0.89 Z M 346.2,259.55 c -0.33,0.22 -0.66,0.44 -0.99,0.67 c 0.1,-0.56 0.43,-0.79 0.99,-0.67 Z M 531.8,293.19 c 0.61,0.09 0.82,0.43 0.64,1.01 c -0.21,-0.33 -0.42,-0.67 -0.64,-1.01 Z M 535.77,299.23 c 0.61,0.05 0.84,0.38 0.67,0.98 c -0.22,-0.33 -0.44,-0.66 -0.67,-0.98 Z M 875.16,302.85 c 0.35,0.2 0.69,0.39 1.04,0.59 c -0.66,0.29 -1,0.1 -1.04,-0.59 Z M 880.19,305.8 c 0.34,0.2 0.67,0.41 1.01,0.62 c -0.59,0.19 -0.92,-0.02 -1.01,-0.62 Z M 545.73,312.27 c 0.67,0.05 0.97,0.42 0.92,1.1 c -0.31,-0.37 -0.61,-0.73 -0.92,-1.1 Z M 895.26,315.74 c 0.31,0.22 0.63,0.45 0.94,0.68 c -0.6,0.17 -0.92,-0.05 -0.94,-0.68 Z M 899.3,318.71 c 0.3,0.23 0.61,0.46 0.91,0.69 c -0.61,0.18 -0.92,-0.05 -0.91,-0.69 Z M 903.25,321.75 c 0.37,0.3 0.75,0.59 1.12,0.89 c -0.67,0.07 -1.05,-0.23 -1.12,-0.89 Z M 566.61,333.4 c 0.81,-0.22 1.17,0.09 1.08,0.92 c -0.36,-0.31 -0.72,-0.62 -1.08,-0.92 Z M 567.69,334.32 c 0.8,-0.21 1.16,0.09 1.06,0.9 c -0.35,-0.3 -0.71,-0.6 -1.06,-0.9 Z M 572.61,338.38 c 0.68,-0.08 1.05,0.22 1.12,0.89 c -0.37,-0.3 -0.75,-0.59 -1.12,-0.89 Z M 580.79,344.6 c 0.61,-0.19 0.92,0.03 0.95,0.66 c -0.31,-0.22 -0.63,-0.45 -0.95,-0.66 Z M 934.34,352.64 c 0.3,0.38 0.6,0.76 0.89,1.13 c -0.65,-0.09 -0.94,-0.46 -0.89,-1.13 Z M 937.55,356.8 c 0.23,0.31 0.47,0.63 0.7,0.95 c -0.62,-0.03 -0.86,-0.35 -0.7,-0.95 Z M 942.5,363.81 c 0.22,0.34 0.45,0.69 0.67,1.03 c -0.59,-0.1 -0.81,-0.45 -0.67,-1.03 Z M 947.57,371.81 c 0.2,0.34 0.41,0.68 0.61,1.02 c -0.59,-0.1 -0.8,-0.44 -0.61,-1.02 Z M 365.26,417.74 c 0.36,0.31 0.72,0.62 1.08,0.93 c -0.67,0.04 -1.03,-0.27 -1.08,-0.93 Z M 377.5,430.81 c 0.24,0.33 0.47,0.66 0.71,0.99 c -0.61,-0.07 -0.84,-0.4 -0.71,-0.99 Z M 379.55,433.8 c 0.22,0.33 0.43,0.67 0.65,1.01 c -0.6,-0.09 -0.82,-0.42 -0.65,-1.01 Z M 813.78,450.21 c 0.65,0.11 0.93,0.49 0.87,1.15 c -0.29,-0.38 -0.58,-0.77 -0.87,-1.15 Z M 377.28,529.28 c -0.22,0.32 -0.45,0.63 -0.68,0.94 c -0.15,-0.58 0.08,-0.9 0.68,-0.94 Z M 374.22,533.24 c -0.3,0.36 -0.6,0.72 -0.91,1.07 c -0.16,-0.76 0.14,-1.11 0.91,-1.07 Z M 373.31,534.31 c -0.31,0.35 -0.62,0.7 -0.94,1.05 c -0.2,-0.81 0.11,-1.16 0.94,-1.05 Z M 361.21,545.55 c -0.32,0.24 -0.64,0.47 -0.96,0.71 c 0.07,-0.58 0.38,-0.82 0.96,-0.71 Z M 819.42,553.8 c 0.2,0.58 0.01,0.93 -0.57,1.06 c 0.19,-0.35 0.38,-0.7 0.57,-1.06 Z M 653.55,559.8 c 0.22,0.33 0.43,0.67 0.65,1 c -0.6,-0.08 -0.82,-0.41 -0.65,-1 Z M 655.54,562.8 c 0.23,0.33 0.46,0.66 0.68,0.99 c -0.61,-0.06 -0.83,-0.39 -0.68,-0.99 Z M 809.65,568.63 c 0.05,0.68 -0.25,1.04 -0.92,1.1 c 0.3,-0.37 0.61,-0.73 0.92,-1.1 Z M 662.35,571.65 c 0.31,0.36 0.62,0.71 0.93,1.07 c -0.78,0.06 -1.1,-0.29 -0.93,-1.07 Z M 663.28,572.72 c 0.32,0.34 0.63,0.69 0.95,1.03 c -0.75,0.05 -1.06,-0.3 -0.95,-1.03 Z M 669.25,578.78 c 0.34,0.31 0.68,0.63 1.03,0.94 c -0.78,0.17 -1.13,-0.15 -1.03,-0.94 Z M 670.28,579.72 c 0.35,0.31 0.7,0.63 1.05,0.94 c -0.78,0.15 -1.13,-0.16 -1.05,-0.94 Z M 676.3,584.71 c 0.3,0.23 0.61,0.46 0.92,0.69 c -0.62,0.18 -0.93,-0.05 -0.92,-0.69 Z M 791.74,585.75 c -0.03,0.62 -0.35,0.85 -0.96,0.68 c 0.32,-0.23 0.64,-0.45 0.96,-0.68 Z M 679.19,586.81 c 0.33,0.23 0.66,0.46 1,0.69 c -0.59,0.14 -0.92,-0.09 -1,-0.69 Z M 788.81,587.81 c -0.08,0.59 -0.41,0.81 -1,0.66 c 0.33,-0.22 0.67,-0.44 1,-0.66 Z M 682.17,588.82 c 0.34,0.21 0.68,0.43 1.02,0.65 c -0.59,0.16 -0.92,-0.06 -1.02,-0.65 Z M 936.26,641.25 c -0.22,0.32 -0.44,0.64 -0.66,0.97 c -0.15,-0.58 0.07,-0.9 0.66,-0.97 Z M 931.23,648.21 c -0.29,0.38 -0.59,0.77 -0.88,1.15 c -0.01,-0.62 0.28,-1 0.88,-1.15 Z M 486.84,649.83 c -0.11,0.59 -0.45,0.8 -1.03,0.63 c 0.34,-0.21 0.68,-0.42 1.03,-0.63 Z M 927.29,653.28 c -0.3,0.38 -0.6,0.76 -0.9,1.13 c -0.05,-0.66 0.25,-1.04 0.9,-1.13 Z M 923.23,658.25 c -0.3,0.36 -0.6,0.72 -0.9,1.07 c -0.16,-0.78 0.14,-1.14 0.9,-1.07 Z M 922.33,659.32 c -0.31,0.36 -0.62,0.72 -0.92,1.08 c -0.2,-0.8 0.1,-1.16 0.92,-1.08 Z M 916.24,666.25 c -0.32,0.34 -0.64,0.68 -0.96,1.02 c -0.14,-0.76 0.18,-1.1 0.96,-1.02 Z M 915.28,667.27 c -0.32,0.35 -0.65,0.69 -0.97,1.04 c 0.03,-0.63 0.35,-0.97 0.97,-1.04 Z M 914.31,668.31 c -0.33,0.34 -0.65,0.69 -0.98,1.03 c 0.01,-0.64 0.34,-0.99 0.98,-1.03 Z M 913.33,669.34 c -0.32,0.34 -0.64,0.68 -0.96,1.02 c -0.13,-0.77 0.19,-1.12 0.96,-1.02 Z M 904.37,678.37 c -0.34,0.33 -0.68,0.65 -1.02,0.97 c -0.15,-0.85 0.19,-1.18 1.02,-0.97 Z M 903.35,679.34 c -0.35,0.32 -0.69,0.65 -1.04,0.97 c 0.05,-0.64 0.39,-0.97 1.04,-0.97 Z M 902.31,680.31 c -0.35,0.32 -0.7,0.65 -1.05,0.97 c 0.07,-0.62 0.42,-0.94 1.05,-0.97 Z M 901.26,681.28 c -0.34,0.32 -0.68,0.64 -1.02,0.96 c -0.09,-0.75 0.25,-1.07 1.02,-0.96 Z"/></g>
<g><path fill="#e30613" fill-opacity="0.125" stroke="#e30613" stroke-width="0.5" stroke-opacity="0.125" d="M 688.22,88.49 c -0.37,0.21 -0.73,0.42 -1.09,0.63 c 0.06,-0.7 0.42,-0.91 1.09,-0.63 Z M 780.8,89.5 c 0.65,-0.25 1.01,-0.05 1.07,0.62 c -0.35,-0.21 -0.71,-0.41 -1.07,-0.62 Z M 659.12,117.14 c -0.21,0.36 -0.42,0.71 -0.62,1.07 c -0.34,-0.7 -0.13,-1.05 0.62,-1.07 Z M 808.87,118.15 c 0.67,0.08 0.86,0.44 0.57,1.08 c -0.18,-0.37 -0.37,-0.73 -0.57,-1.08 Z M 349.2,136.78 c 0.39,0.29 0.78,0.58 1.16,0.88 c -0.66,0.06 -1.05,-0.23 -1.16,-0.88 Z M 662.3,213.68 c 0.32,0.36 0.62,0.73 0.92,1.11 c -0.64,-0.09 -0.94,-0.46 -0.92,-1.11 Z M 685.15,234.84 c 0.35,0.21 0.7,0.43 1.04,0.66 c -0.58,0.14 -0.92,-0.08 -1.04,-0.66 Z M 343.23,261.57 c -0.36,0.18 -0.72,0.36 -1.08,0.55 c 0.02,-0.77 0.38,-0.95 1.08,-0.55 Z M 525.92,283.08 c 0.54,0.19 0.72,0.56 0.53,1.12 c -0.19,-0.37 -0.37,-0.74 -0.53,-1.12 Z M 868.08,298.92 c 0.38,0.16 0.75,0.34 1.12,0.53 c -0.56,0.19 -0.93,0.01 -1.12,-0.53 Z M 537.81,302.18 c 0.62,0.12 0.92,0.5 0.89,1.14 c -0.32,-0.37 -0.61,-0.75 -0.89,-1.14 Z M 885.13,308.88 c 0.36,0.21 0.71,0.41 1.06,0.62 c -0.65,0.29 -1.01,0.08 -1.06,-0.62 Z M 888.16,310.83 c 0.35,0.22 0.69,0.44 1.03,0.67 c -0.58,0.14 -0.93,-0.08 -1.03,-0.67 Z M 891.15,312.83 c 0.42,0.25 0.82,0.53 1.2,0.83 c -0.64,0.07 -1.04,-0.21 -1.2,-0.83 Z M 577.68,342.3 c 0.64,-0.03 1.03,0.27 1.15,0.89 c -0.4,-0.28 -0.78,-0.57 -1.15,-0.89 Z M 587.8,349.5 c 0.69,-0.32 1.04,-0.11 1.05,0.63 c -0.35,-0.2 -0.7,-0.41 -1.05,-0.63 Z M 595.77,354.57 c 0.69,-0.38 1.05,-0.2 1.08,0.55 c -0.36,-0.19 -0.72,-0.37 -1.08,-0.55 Z M 600.81,357.5 c 0.56,-0.15 0.93,0.05 1.1,0.6 c -0.38,-0.18 -0.74,-0.38 -1.1,-0.6 Z M 940.34,360.65 c 0.3,0.38 0.58,0.78 0.83,1.2 c -0.62,-0.16 -0.9,-0.56 -0.83,-1.2 Z M 944.5,366.81 c 0.21,0.34 0.43,0.69 0.63,1.04 c -0.75,0.01 -0.96,-0.34 -0.63,-1.04 Z M 950.49,376.79 c 0.22,0.37 0.42,0.74 0.59,1.13 c -0.54,-0.18 -0.74,-0.56 -0.59,-1.13 Z M 352.08,408.92 c 0.38,0.16 0.75,0.34 1.12,0.53 c -0.56,0.19 -0.93,0.01 -1.12,-0.53 Z M 357.17,411.82 c 0.34,0.22 0.68,0.45 1.02,0.68 c -0.59,0.14 -0.93,-0.09 -1.02,-0.68 Z M 360.15,413.83 c 0.41,0.26 0.8,0.55 1.17,0.87 c -0.64,0.03 -1.03,-0.26 -1.17,-0.87 Z M 784.8,424.51 c 0.67,-0.28 1.03,-0.07 1.07,0.61 c -0.35,-0.2 -0.71,-0.41 -1.07,-0.61 Z M 790.64,428.34 c 0.66,-0.06 1.05,0.23 1.16,0.88 c -0.39,-0.29 -0.78,-0.58 -1.16,-0.88 Z M 816.49,558.81 c 0.31,0.67 0.1,1.03 -0.61,1.06 c 0.21,-0.35 0.41,-0.71 0.61,-1.06 Z M 812.66,564.64 c 0.06,0.66 -0.23,1.05 -0.87,1.16 c 0.28,-0.39 0.57,-0.78 0.87,-1.16 Z M 658.31,566.68 c 0.31,0.36 0.61,0.73 0.91,1.11 c -0.64,-0.09 -0.94,-0.46 -0.91,-1.11 Z M 947.16,624.15 c -0.2,0.35 -0.4,0.7 -0.6,1.06 c -0.18,-0.58 0.02,-0.93 0.6,-1.06 Z M 944.13,629.15 c -0.2,0.36 -0.38,0.72 -0.56,1.08 c -0.31,-0.65 -0.12,-1.01 0.56,-1.08 Z M 934.22,644.2 c -0.29,0.39 -0.58,0.78 -0.88,1.16 c -0.05,-0.66 0.24,-1.04 0.88,-1.16 Z M 481.85,652.88 c -0.05,0.72 -0.41,0.91 -1.08,0.55 c 0.36,-0.18 0.72,-0.36 1.08,-0.55 Z"/></g>
<g><path fill="#e30613" fill-opacity="0.094" stroke="#e30613" stroke-width="0.5" stroke-opacity="0.094" d="M 679.22,94.63 c -0.31,0.21 -0.61,0.43 -0.91,0.66 c -0.13,-0.77 0.17,-0.99 0.91,-0.66 Z M 678.31,95.29 c -0.36,0.31 -0.73,0.61 -1.09,0.92 c 0.03,-0.7 0.39,-1.01 1.09,-0.92 Z M 666.21,107.22 c -0.31,0.36 -0.61,0.73 -0.92,1.09 c -0.09,-0.7 0.22,-1.06 0.92,-1.09 Z M 665.29,108.31 c -0.23,0.3 -0.45,0.6 -0.66,0.91 c -0.39,-0.75 -0.17,-1.05 0.66,-0.91 Z M 540.8,306.19 c 0.7,0.05 1.01,0.43 0.91,1.12 c -0.31,-0.36 -0.61,-0.74 -0.91,-1.12 Z M 541.71,307.31 c 0.79,-0.12 1.01,0.19 0.66,0.91 c -0.21,-0.31 -0.43,-0.61 -0.66,-0.91 Z M 908.22,325.78 c 0.36,0.31 0.73,0.62 1.09,0.93 c -0.7,0.09 -1.06,-0.22 -1.09,-0.93 Z M 909.31,326.71 c 0.35,0.31 0.69,0.62 1.03,0.94 c -0.84,0.22 -1.19,-0.1 -1.03,-0.94 Z M 929.35,346.66 c 0.32,0.34 0.63,0.68 0.94,1.03 c -0.83,0.13 -1.14,-0.21 -0.94,-1.03 Z M 930.29,347.69 c 0.31,0.36 0.62,0.73 0.93,1.09 c -0.71,-0.03 -1.02,-0.39 -0.93,-1.09 Z M 373.39,425.62 c 0.3,0.36 0.6,0.71 0.9,1.07 c -0.8,0.08 -1.11,-0.28 -0.9,-1.07 Z M 374.29,426.69 c 0.31,0.37 0.61,0.73 0.91,1.1 c -0.7,-0.03 -1,-0.4 -0.91,-1.1 Z M 793.77,430.64 c 0.75,-0.4 1.06,-0.19 0.92,0.65 c -0.3,-0.24 -0.6,-0.45 -0.92,-0.65 Z M 794.69,431.29 c 0.69,-0.1 1.07,0.2 1.12,0.89 c -0.38,-0.29 -0.76,-0.58 -1.12,-0.89 Z M 799.68,435.32 c 0.78,-0.14 1.11,0.19 1.01,0.97 c -0.34,-0.32 -0.68,-0.64 -1.01,-0.97 Z M 800.69,436.29 c 0.7,-0.09 1.06,0.21 1.09,0.92 c -0.36,-0.31 -0.73,-0.61 -1.09,-0.92 Z M 808.79,444.22 c 0.71,0.03 1.01,0.39 0.92,1.09 c -0.31,-0.36 -0.61,-0.73 -0.92,-1.09 Z M 809.71,445.31 c 0.78,-0.11 1.11,0.23 0.97,1.01 c -0.33,-0.33 -0.65,-0.67 -0.97,-1.01 Z M 366.31,541.32 c -0.33,0.33 -0.66,0.65 -1,0.97 c -0.17,-0.84 0.17,-1.17 1,-0.97 Z M 365.31,542.29 c -0.37,0.31 -0.73,0.61 -1.1,0.91 c 0.03,-0.7 0.4,-1 1.1,-0.91 Z M 796.78,581.79 c -0.03,0.7 -0.39,1.01 -1.09,0.92 c 0.36,-0.31 0.73,-0.61 1.09,-0.92 Z M 795.69,582.71 c 0.17,0.82 -0.13,1.05 -0.91,0.7 c 0.32,-0.21 0.62,-0.45 0.91,-0.7 Z"/></g>
<g><path fill="#e30613" fill-opacity="0.396" d="M 830.95,495.24 c 0.82,-0.05 1.19,0.36 1.08,1.25 c 0.07,5.64 0.02,11.28 -0.14,16.92 c -0.22,0.39 -0.54,0.48 -0.94,0.28 c -0.08,-2.06 0.06,-4.11 0.4,-6.14 c 0.09,-4.12 -0.05,-8.22 -0.4,-12.31 Z"/></g>
<g><path fill="#e30613" fill-opacity="0.537" d="M 375.82,685.04 c 0.06,0.32 0.12,0.64 0.18,0.96 c -5.68,0 -11.35,0 -17.03,0 c 0.36,-0.52 0.86,-0.76 1.51,-0.71 c 5.11,-0.28 10.23,-0.36 15.34,-0.25 Z"/></g>
<g><path fill="#e30613" fill-opacity="0.075" stroke="#e30613" stroke-width="0.5" stroke-opacity="0.075" d="M 553.75,321.25 c 0.75,-0.06 1.07,0.28 0.97,1.02 c -0.32,-0.34 -0.65,-0.68 -0.97,-1.02 Z M 554.72,322.27 c 0.62,0.05 0.95,0.39 0.99,1.02 c -0.33,-0.34 -0.66,-0.68 -0.99,-1.02 Z M 555.71,323.29 c 0.62,0.04 0.96,0.38 1,1 c -0.33,-0.34 -0.66,-0.67 -1,-1 Z M 556.71,324.29 c 0.63,0.04 0.97,0.37 1.02,0.99 c -0.34,-0.33 -0.68,-0.66 -1.02,-0.99 Z M 557.73,325.28 c 0.77,-0.12 1.1,0.21 1.01,0.97 c -0.34,-0.32 -0.67,-0.64 -1.01,-0.97 Z"/></g>
</svg>
