<?xml version="1.0" encoding="UTF-8" standalone="no"?>
<!-- Created with Inkscape (http://www.inkscape.org/) -->

<svg
   xmlns:dc="http://purl.org/dc/elements/1.1/"
   xmlns:cc="http://creativecommons.org/ns#"
   xmlns:rdf="http://www.w3.org/1999/02/22-rdf-syntax-ns#"
   xmlns:svg="http://www.w3.org/2000/svg"
   xmlns="http://www.w3.org/2000/svg"
   xmlns:sodipodi="http://sodipodi.sourceforge.net/DTD/sodipodi-0.dtd"
   xmlns:inkscape="http://www.inkscape.org/namespaces/inkscape"
   id="svg4183"
   version="1.1"
   inkscape:version="0.91 r13725"
   width="171"
   height="165"
   viewBox="0 0 171 165"
   sodipodi:docname="Renfe_Media_distancia.svg">
  <metadata
     id="metadata4189">
    <rdf:RDF>
      <cc:Work
         rdf:about="">
        <dc:format>image/svg+xml</dc:format>
        <dc:type
           rdf:resource="http://purl.org/dc/dcmitype/StillImage" />
        <dc:title />
      </cc:Work>
    </rdf:RDF>
  </metadata>
  <defs
     id="defs4187" />
  <sodipodi:namedview
     pagecolor="#ffffff"
     bordercolor="#666666"
     borderopacity="1"
     objecttolerance="10"
     gridtolerance="10"
     guidetolerance="10"
     inkscape:pageopacity="0"
     inkscape:pageshadow="2"
     inkscape:window-width="1600"
     inkscape:window-height="837"
     id="namedview4185"
     showgrid="false"
     inkscape:zoom="1.430303"
     inkscape:cx="-90.686442"
     inkscape:cy="82.499996"
     inkscape:window-x="-8"
     inkscape:window-y="-8"
     inkscape:window-maximized="1"
     inkscape:current-layer="svg4183" />
  <rect
     style="opacity:1;fill:#808080;fill-opacity:1;stroke:none;stroke-width:1;stroke-linecap:butt;stroke-linejoin:round;stroke-miterlimit:4;stroke-dasharray:none;stroke-dashoffset:0;stroke-opacity:1"
     id="rect3333"
     width="171"
     height="165"
     x="0"
     y="0"
     rx="0"
     ry="0" />
  <g
     transform="translate(272.0459,-52.861044)"
     style="font-style:normal;font-variant:normal;font-weight:normal;font-stretch:normal;font-size:125px;line-height:125%;font-family:StratumNo2;-inkscape-font-specification:StratumNo2;letter-spacing:0px;word-spacing:0px;fill:#ffffff;fill-opacity:1;stroke:none;stroke-width:1px;stroke-linecap:butt;stroke-linejoin:miter;stroke-opacity:1"
     id="flowRoot3335">
    <path
       d="m -194.2793,177.04854 -7,-72.375 -0.25,0 -14.125,72.375 -12.5,0 -15.125,-72.375 -0.25,0 -6,72.375 -10.25,0 9,-83.374996 14.625,0 14.375,72.124996 0.25,0 13.875,-72.124996 14.625,0 9,83.374996 -10.25,0 z"
       style="font-style:normal;font-variant:normal;font-weight:normal;font-stretch:normal;font-size:125px;font-family:'Renfe Vialog Light';-inkscape-font-specification:'Renfe Vialog Light, ';fill:#ffffff"
       id="path3338" />
    <path
       d="m -123.8125,134.04854 q 0,-6.125 -1.25,-11.875 -1.125,-5.75 -4.125,-10.125 -2.875,-4.5 -7.625,-7.125 -4.75,-2.625 -11.875,-2.625 l -10.125,0 0,66.125 11.625,0 q 7.125,0 11.625,-3.25 4.625,-3.375 7.125,-8.375 2.625,-5.125 3.625,-11.125 1,-6.125 1,-11.625 z m 10.5,0 q 0,9 -1.875,16.875 -1.75,7.875 -5.75,13.75 -4,5.75 -10.5,9.125 -6.375,3.25 -15.75,3.25 l -21.625,0 0,-83.374996 23,0 q 9,0 15.125,3.125 6.25,3 10,8.499996 3.875,5.375 5.625,12.75 1.75,7.375 1.75,16 z"
       style="font-style:normal;font-variant:normal;font-weight:normal;font-stretch:normal;font-size:125px;font-family:'Renfe Vialog Light';-inkscape-font-specification:'Renfe Vialog Light, ';fill:#ffffff"
       id="path3340" />
  </g>
</svg>
