<?xml version="1.0" encoding="UTF-8"?>
<svg version="1.1" xmlns="http://www.w3.org/2000/svg" width="1482" height="720">
<path d="M0 0 C489.06 0 978.12 0 1482 0 C1482 237.6 1482 475.2 1482 720 C992.94 720 503.88 720 0 720 C0 482.4 0 244.8 0 0 Z " fill="#FEFEFE" transform="translate(0,0)"/>
<path d="M0 0 C8.28761643 4.64061356 15.19998876 10.65949418 22.12109375 17.109375 C24.77147752 19.51847205 27.49956598 21.75488453 30.3046875 23.98046875 C35.00750986 27.76959991 39.2657955 31.84493919 43.45678711 36.18115234 C45.97131878 38.77027693 48.53613819 41.2038899 51.2890625 43.5390625 C57.46076179 48.87738118 63.145901 54.73563715 68.90356445 60.51147461 C70.92483018 62.53809855 72.95138324 64.55932422 74.97851562 66.58007812 C86.41426485 78.01054631 86.41426485 78.01054631 91.58374023 84.10375977 C93.24382834 86.04616074 95.02976452 87.83140519 96.8671875 89.60546875 C100.03466709 92.73055377 102.98603997 95.96788764 105.88671875 99.33984375 C108.3332494 102.13863621 110.84812853 104.87220264 113.3671875 107.60546875 C117.60542535 112.21305194 121.77388889 116.86882262 125.8671875 121.60546875 C126.83181924 122.71632997 127.79668556 123.82698751 128.76171875 124.9375 C135.68118737 132.90451673 142.57491112 140.89326453 149.42626953 148.91894531 C150.37660553 150.03126675 151.32807861 151.14261784 152.28076172 152.25292969 C166.66811237 169.02222534 180.88209286 186.37509131 191.8671875 205.60546875 C192.32222656 206.35828125 192.77726562 207.11109375 193.24609375 207.88671875 C197.32806673 215.51019442 197.36784454 225.70171352 194.9296875 233.91796875 C191.13466343 242.13455387 183.34688119 248.7852217 175.8671875 253.60546875 C174.99964844 254.18425781 174.13210938 254.76304687 173.23828125 255.359375 C160.99166877 262.94645031 147.31076539 267.60007773 133.8671875 272.60546875 C133.11789978 272.88453064 132.36861206 273.16359253 131.59661865 273.45111084 C100.24149975 285.11149748 68.70719651 296.2829591 37.17725563 307.45950127 C35.09760645 308.19671488 33.01799807 308.93404344 30.93840027 309.67140198 C29.54446612 310.16562456 28.15052996 310.65984147 26.7565918 311.15405273 C26.0650233 311.39924558 25.3734548 311.64443842 24.66092968 311.89706135 C20.57834661 313.34433782 16.49528309 314.79024876 12.41184139 316.23510075 C9.21044061 317.36807573 6.00947348 318.50227271 2.80859375 319.63671875 C1.59359695 320.06718002 0.37860016 320.4976413 -0.87321472 320.94114685 C-8.84501912 323.7727848 -16.79492714 326.65828574 -24.70762634 329.65148926 C-29.92138853 331.60546875 -29.92138853 331.60546875 -32.1328125 331.60546875 C-30.33866388 327.47788984 -27.62236681 324.0624365 -24.9453125 320.48046875 C-23.94197186 319.12424245 -22.93936681 317.76747166 -21.9375 316.41015625 C-21.45249023 315.75370117 -20.96748047 315.09724609 -20.46777344 314.42089844 C17.24331291 263.13713141 82.86585536 173.25066872 76.8671875 106.60546875 C75.19374633 97.43957508 72.02430362 89.53027889 64.48046875 83.7890625 C62.31123126 82.32133666 60.12576929 80.9305034 57.8671875 79.60546875 C58.5684375 80.24484375 59.2696875 80.88421875 59.9921875 81.54296875 C66.95672075 88.507502 71.08031476 96.05920039 71.24804688 105.90161133 C71.22835099 115.20053277 70.89708937 123.05615715 66.8671875 131.60546875 C66.59874023 132.19569824 66.33029297 132.78592773 66.05371094 133.39404297 C51.48296013 165.22217804 28.01725989 193.01410535 6.8671875 220.60546875 C5.91793276 221.84632664 4.96870992 223.08720892 4.01953125 224.328125 C-5.18091281 236.34006269 -14.56812543 248.18746923 -24.12890625 259.9140625 C-26.56397429 262.90189933 -28.98018663 265.90393908 -31.3828125 268.91796875 C-38.00543349 277.21004212 -44.75717527 285.37340839 -51.68823242 293.40869141 C-54.75247017 296.96876524 -57.74842232 300.57189669 -60.6953125 304.23046875 C-64.79933317 309.28787353 -69.15595239 314.06678887 -73.58203125 318.83984375 C-75.61683133 321.04602822 -77.60927488 323.27179136 -79.5703125 325.54296875 C-83.08845698 329.59721144 -86.69070649 333.57841374 -90.41162109 337.44775391 C-93.1107345 340.27668768 -95.49606386 343.04684776 -97.625 346.33203125 C-101.02927731 351.27018375 -103.99763696 354.96524808 -110.10498047 356.21240234 C-125.810885 357.66298393 -143.24385187 356.52172297 -156.1328125 346.60546875 C-162.63386312 340.83550514 -165.73215246 334.87892991 -168.1328125 326.60546875 C-168.6278125 325.12046875 -168.6278125 325.12046875 -169.1328125 323.60546875 C-171.00009746 303.53806453 -165.12135464 284.12346106 -158.3828125 265.41796875 C-158.01365723 264.33773438 -157.64450195 263.2575 -157.26416016 262.14453125 C-154.21008014 254.15557432 -150.35768561 250.89871301 -143.1328125 246.60546875 C-140.95627082 245.14372047 -138.78981025 243.67181708 -136.62890625 242.1875 C-135.47353526 241.40510987 -134.31743554 240.6237949 -133.16064453 239.84350586 C-122.00131461 232.30644684 -110.88418241 224.72242949 -99.9296875 216.88916016 C-98.17775027 215.63757239 -96.42157651 214.39217824 -94.6640625 213.1484375 C-64.07069262 191.45845542 -34.02944504 168.79326264 -5.48828125 144.453125 C-3.32061842 142.60562089 -1.13648628 140.78186965 1.06640625 138.9765625 C27.52688489 117.81669133 27.52688489 117.81669133 44.8671875 89.60546875 C44.8671875 88.28546875 44.8671875 86.96546875 44.8671875 85.60546875 C44.32578125 86.77980469 43.784375 87.95414062 43.2265625 89.1640625 C41.04130815 93.52593003 38.34065881 97.03000002 35.1171875 100.66796875 C34.58134033 101.2801123 34.04549316 101.89225586 33.4934082 102.52294922 C29.56374962 106.95231608 25.50676617 110.91922816 20.8671875 114.60546875 C19.8141521 115.47932273 18.76216751 116.35444374 17.7109375 117.23046875 C8.57502431 124.76853704 -1.02550671 131.47519937 -10.85742188 138.06787109 C-12.93774414 139.4736511 -15.00006162 140.90077044 -17.0546875 142.34375 C-28.78227498 150.57067843 -40.92997842 158.10726184 -53.1328125 165.60546875 C-53.83229004 166.03569336 -54.53176758 166.46591797 -55.25244141 166.90917969 C-59.51798284 169.52314157 -63.81592025 172.07767051 -68.1328125 174.60546875 C-69.04691895 175.14107422 -69.96102539 175.67667969 -70.90283203 176.22851562 C-83.73606858 183.72933166 -96.64325707 191.06169132 -109.74633789 198.08154297 C-114.23433241 200.48656737 -118.70352172 202.9098494 -123.1171875 205.44921875 C-123.86661621 205.87992676 -124.61604492 206.31063477 -125.38818359 206.75439453 C-126.75980373 207.54779194 -128.12761247 208.34783111 -129.49072266 209.15576172 C-131.00523496 210.03175861 -132.56534994 210.8281791 -134.1328125 211.60546875 C-134.7928125 211.27546875 -135.4528125 210.94546875 -136.1328125 210.60546875 C-132.76377817 202.61080676 -129.38281557 194.62122435 -125.99395752 186.63494873 C-125.4209959 185.2846371 -124.84820063 183.93425488 -124.27557373 182.58380127 C-110.68594716 150.54045678 -96.60763537 118.72191993 -81.82226562 87.2109375 C-80.315199 83.99470052 -78.81462735 80.77555507 -77.31628418 77.55525208 C-70.5482307 63.01575654 -63.69981666 48.51397595 -56.60025024 34.13293457 C-55.92463365 32.76196279 -55.25229599 31.38936924 -54.58358765 30.01501465 C-50.8010804 22.25492761 -46.81899928 15.15232432 -41.1328125 8.60546875 C-40.28275635 7.61063477 -40.28275635 7.61063477 -39.41552734 6.59570312 C-29.11232789 -5.10248192 -13.6589903 -6.46718771 0 0 Z " fill="#05693A" transform="translate(317.1328125,173.39453125)"/>
<path d="M0 0 C0.94447998 -0.0157608 1.88895996 -0.03152161 2.86206055 -0.04776001 C3.87051025 -0.03763885 4.87895996 -0.0275177 5.91796875 -0.01708984 C7.48768433 -0.02426529 7.48768433 -0.02426529 9.08911133 -0.03158569 C11.29802964 -0.03498283 13.50699836 -0.02579359 15.71582031 -0.00488281 C19.09424085 0.0218837 22.46933889 -0.00463877 25.84765625 -0.03662109 C27.99610107 -0.03331696 30.14454383 -0.02691067 32.29296875 -0.01708984 C33.30141846 -0.027211 34.30986816 -0.03733215 35.34887695 -0.04776001 C42.36117284 0.06925614 42.36117284 0.06925614 46.21875 3.06347656 C48.95213247 6.80631472 49.23365323 8.62593525 49.25263977 13.22210693 C49.26337273 15.00071861 49.26337273 15.00071861 49.27432251 16.81526184 C49.27701141 18.12323227 49.27970032 19.4312027 49.2824707 20.77880859 C49.28873509 22.16523916 49.29538187 23.55166805 49.30238342 24.93809509 C49.32345069 29.50250067 49.33379664 34.06690665 49.34375 38.63134766 C49.34779827 40.20543688 49.35191522 41.77952594 49.35610008 43.35361481 C49.37516721 50.75825768 49.38938816 58.16289057 49.39771205 65.56755328 C49.4074538 74.09182751 49.43368618 82.61583993 49.47421294 91.14002204 C49.50450283 97.73980407 49.51919354 104.33951169 49.52249306 110.93936181 C49.52483135 114.87464776 49.53362893 118.80965458 49.55895424 122.74486542 C49.58246255 126.45825968 49.58637841 130.1711957 49.57619286 133.88464546 C49.57547154 135.87391754 49.59440751 137.86316753 49.61425781 139.8523407 C49.51820498 156.72260295 43.99052305 171.05146937 32.29296875 183.20947266 C18.57598641 196.75077746 0.53129491 204.76868375 -17.89453125 209.64697266 C-18.83683594 209.90220703 -19.77914062 210.15744141 -20.75 210.42041016 C-59.90218642 220.65164128 -106.51677578 218.08086308 -142.26953125 197.83447266 C-159.74634816 187.25049602 -174.47659685 174.09200813 -179.89453125 153.64697266 C-181.41613826 138.57476359 -178.85627682 126.06736789 -169.89453125 113.64697266 C-163.27429605 105.85156112 -155.70184245 98.87516848 -146.89453125 93.64697266 C-146.31815918 93.30214844 -145.74178711 92.95732422 -145.14794922 92.60205078 C-133.64028435 85.82489066 -121.72924729 81.25553208 -108.89453125 77.64697266 C-108.12882813 77.42106445 -107.363125 77.19515625 -106.57421875 76.96240234 C-79.22566947 69.20808807 -42.38720536 70.64880703 -15.56958008 79.72607422 C-14.5027449 80.08590393 -13.43590973 80.44573364 -12.33674622 80.81646729 C-11.12784981 81.22756744 -11.12784981 81.22756744 -9.89453125 81.64697266 C-9.90563431 80.70594193 -9.91673737 79.76491119 -9.92817688 78.79536438 C-10.02957432 69.92319473 -10.1045067 61.05114277 -10.15359211 52.17852497 C-10.17967613 47.61706184 -10.21505187 43.05606678 -10.27172852 38.49487305 C-10.32609168 34.09226577 -10.35596078 29.69010843 -10.36891747 25.28719139 C-10.3781497 23.60822657 -10.39617857 21.92928613 -10.42318153 20.25051308 C-10.45953119 17.89685667 -10.46447444 15.54505446 -10.4621582 13.19116211 C-10.48912277 12.15214249 -10.48912277 12.15214249 -10.51663208 11.09213257 C-10.4769508 7.36060938 -9.94813843 5.71744671 -7.66496277 2.71589661 C-4.73895742 0.53079204 -3.57597467 0.01721062 0 0 Z " fill="#033140" transform="translate(1005.89453125,217.35302734375)"/>
<path d="M0 0 C2.78888455 -0.00434331 5.57614304 -0.04068316 8.36474609 -0.07861328 C20.94962606 -0.1568549 32.60766496 1.37716635 44.82177734 4.37060547 C45.58027985 4.55571182 46.33878235 4.74081818 47.12026978 4.93153381 C73.57473884 11.48831086 98.45125909 25.29923281 113.13037109 48.80419922 C118.09349713 59.26917398 118.227856 69.51392413 118.11474609 80.85107422 C118.10913903 82.51686722 118.10487419 84.18266522 118.10188293 85.84846497 C118.09052143 90.19680855 118.06113102 94.54484338 118.027771 98.89306641 C117.99143349 104.12950512 117.97786747 109.36604805 117.96041107 114.60257721 C117.93148692 122.52546692 117.87393997 130.44768143 117.82177734 138.37060547 C99.01177734 138.37060547 80.20177734 138.37060547 60.82177734 138.37060547 C60.49177734 136.72060547 60.16177734 135.07060547 59.82177734 133.37060547 C59.27875977 133.54188965 58.73574219 133.71317383 58.17626953 133.88964844 C16.94271939 146.81112278 -29.98488346 147.1171124 -69.33056641 127.43457031 C-76.40558796 123.72524792 -82.94452098 119.36329456 -89.17822266 114.37060547 C-90.45632813 113.37480469 -90.45632813 113.37480469 -91.76025391 112.35888672 C-100.93210947 104.73680706 -108.55240196 94.16335376 -111.17822266 82.37060547 C-111.35740234 81.61134766 -111.53658203 80.85208984 -111.72119141 80.06982422 C-114.09839675 66.03009009 -111.00484333 54.74047035 -103.13916016 43.05810547 C-85.95099693 19.50141962 -57.97408116 7.96316559 -30.17822266 2.37060547 C-29.36772461 2.19110352 -28.55722656 2.01160156 -27.72216797 1.82666016 C-18.52444108 0.00406911 -9.34016223 -0.00162015 0 0 Z " fill="#03313F" transform="translate(682.17822265625,287.62939453125)"/>
<path d="M0 0 C2.71531204 0.03115453 5.43003426 0.04100159 8.14550781 0.046875 C20.56639133 0.10220934 32.94744876 0.602036 45.34863281 1.28125 C45.34863281 6.23125 45.34863281 11.18125 45.34863281 16.28125 C43.79305664 16.29526855 43.79305664 16.29526855 42.20605469 16.30957031 C38.2767786 16.35011028 34.34823425 16.41602785 30.41943359 16.48876953 C28.73430946 16.51661489 27.04906355 16.53800604 25.36376953 16.55224609 C3.77767065 16.7453239 -16.4656955 21.2868458 -32.38964844 36.99609375 C-40.65414569 46.03987363 -42.92329647 56.0910655 -43.06542969 68.02734375 C-43.08479584 69.03845718 -43.10416199 70.04957062 -43.12411499 71.09132385 C-43.18358709 74.30038182 -43.23016635 77.50947628 -43.27636719 80.71875 C-43.31457676 82.90300988 -43.3536302 85.08725517 -43.39355469 87.27148438 C-43.48926177 92.60794281 -43.57440275 97.9444901 -43.65136719 103.28125 C-42.86289398 103.27236755 -42.07442078 103.26348511 -41.26205444 103.2543335 C-33.81758906 103.17405852 -26.37333466 103.11322051 -18.92854881 103.07400131 C-15.10142877 103.05316011 -11.27466749 103.024907 -7.44775391 102.97949219 C-3.75189329 102.93590899 -0.05637693 102.91208682 3.63972092 102.90174103 C5.04710685 102.89437187 6.45447474 102.87998137 7.86171341 102.85832977 C9.83844752 102.82913608 11.81553085 102.82761475 13.79248047 102.82714844 C14.91610992 102.81826599 16.03973938 102.80938354 17.19741821 102.80023193 C21.09698999 103.3954832 23.27746974 104.85392708 26.34863281 107.28125 C28.1008435 110.78567137 27.66046818 114.73209431 27.72363281 118.59375 C27.76101563 119.44904297 27.79839844 120.30433594 27.83691406 121.18554688 C27.90033651 125.73434605 27.85397822 127.6401033 24.95019531 131.32421875 C21.04068381 134.26515758 19.11166762 134.40431477 14.24658203 134.39477539 C12.96540497 134.39469986 11.68422791 134.39462433 10.36422729 134.39454651 C8.96059124 134.38943948 7.55695558 134.38422348 6.15332031 134.37890625 C4.72128346 134.37704146 3.28924597 134.37561784 1.85720825 134.37461853 C-1.91410072 134.37079819 -5.68537126 134.36097202 -9.45666504 134.34991455 C-13.30411255 134.33969005 -17.15156626 134.33511868 -20.99902344 134.33007812 C-28.54982222 134.31934933 -36.10058932 134.30227869 -43.65136719 134.28125 C-43.63804352 135.42637558 -43.63804352 135.42637558 -43.62445068 136.59463501 C-43.54416521 143.80364084 -43.48333247 151.01242863 -43.4441185 158.22176552 C-43.42328004 161.9278235 -43.39503216 165.6335108 -43.34960938 169.33935547 C-43.30601607 172.91850786 -43.28220195 176.49730464 -43.27185822 180.07670212 C-43.26449083 181.43943247 -43.25010381 182.80214427 -43.22844696 184.16472244 C-43.02524629 197.48414974 -43.02524629 197.48414974 -47.65136719 202.28125 C-50.00527951 203.45820616 -51.48754143 203.43886155 -54.11352539 203.48999023 C-55.03821121 203.50928085 -55.96289703 203.52857147 -56.91560364 203.54844666 C-61.14641483 203.60612514 -65.37705502 203.65545899 -69.6081543 203.6862793 C-71.84008236 203.70787598 -74.07192536 203.74199824 -76.3034668 203.78881836 C-79.52007904 203.85570714 -82.7349395 203.88325998 -85.95214844 203.90234375 C-86.94813553 203.93017441 -87.94412262 203.95800507 -88.97029114 203.98667908 C-90.37150459 203.98251732 -90.37150459 203.98251732 -91.80102539 203.97827148 C-92.61883987 203.98857895 -93.43665436 203.99888641 -94.2792511 204.00950623 C-97.16280276 203.1242357 -98.85246782 201.79833728 -100.66766644 199.39009953 C-102.86174582 194.68645032 -102.32123661 189.35933195 -102.26660156 184.27441406 C-102.27215057 182.96311523 -102.27769958 181.65181641 -102.28341675 180.30078125 C-102.29763523 176.71352166 -102.28062954 173.12703144 -102.25713158 169.53984547 C-102.23696837 165.77557022 -102.24290526 162.01132526 -102.24523926 158.24700928 C-102.24518572 151.9220315 -102.22545475 145.59735274 -102.19335938 139.27246094 C-102.15653166 131.97996887 -102.14767546 124.68786926 -102.15465689 117.39529634 C-102.16098468 110.36119219 -102.15016157 103.32722142 -102.13069153 96.29314423 C-102.12255742 93.30934484 -102.11980062 90.32561402 -102.12138367 87.3418045 C-102.12243401 83.16289343 -102.09813615 78.98448901 -102.07128906 74.80566406 C-102.07421967 73.57934265 -102.07715027 72.35302124 -102.08016968 71.08953857 C-101.90205489 53.05174155 -93.94662698 38.87986919 -81.53027344 26.09765625 C-59.31729161 5.18892289 -29.38620696 -0.33740891 0 0 Z " fill="#043240" transform="translate(1288.6513671875,222.71875)"/>
<path d="M0 0 C2.47866023 2.17810413 4.81105753 4.42655299 7.109375 6.79296875 C7.68171875 7.3446875 8.2540625 7.89640625 8.84375 8.46484375 C17.59272782 17.57460416 20.40027705 29.16740246 20.25 41.33984375 C19.72527542 54.22474733 13.06696452 66.04444202 3.7109375 74.6796875 C-0.25926646 77.90473306 -4.33881236 80.47202928 -8.890625 82.79296875 C-9.78910156 83.25574219 -10.68757812 83.71851563 -11.61328125 84.1953125 C-25.69082781 91.02618952 -43.91154563 92.5512566 -59.015625 88.16796875 C-60.99396134 87.42770469 -62.95404264 86.63644628 -64.890625 85.79296875 C-65.91285156 85.36886719 -66.93507813 84.94476563 -67.98828125 84.5078125 C-75.47992641 81.1076853 -81.132422 76.62114991 -86.890625 70.79296875 C-87.550625 70.15488281 -88.210625 69.51679688 -88.890625 68.859375 C-98.46223332 58.93708275 -100.36969284 46.70359753 -100.16796875 33.54296875 C-99.94871918 27.94937778 -98.67917416 23.64487162 -95.890625 18.79296875 C-95.44332031 17.94476563 -94.99601563 17.0965625 -94.53515625 16.22265625 C-86.57975692 1.93279687 -73.22095988 -6.22673166 -58.046875 -11.33203125 C-38.21525554 -16.82990595 -16.36320435 -12.49352764 0 0 Z " fill="#FCFDFD" transform="translate(726.890625,322.20703125)"/>
<path d="M0 0 C3.5351008 2.81574889 6.80256262 5.80820184 10 9 C10.57621094 9.56460937 11.15242187 10.12921875 11.74609375 10.7109375 C21.46383559 21.05970154 23.48537221 32.61631467 23.27734375 46.1484375 C22.76256507 59.37901796 16.01892753 69.83749741 6.66796875 78.796875 C-9.70874496 92.32025206 -28.33811652 94.71080983 -49 93 C-53.39841294 92.21393825 -57.02340903 91.00705299 -61 89 C-61.92296875 88.57589844 -62.8459375 88.15179688 -63.796875 87.71484375 C-70.87011462 84.20753294 -76.43431448 79.5558695 -82 74 C-82.86431641 73.15308594 -82.86431641 73.15308594 -83.74609375 72.2890625 C-93.21902828 62.20100235 -95.53174023 50.4356508 -95.2734375 37.0390625 C-94.72372782 25.37542056 -87.6438171 13.5884252 -79.18359375 5.75 C-56.45672374 -12.46402104 -25.09113182 -17.2884018 0 0 Z " fill="#FCFDFD" transform="translate(976,321)"/>
<path d="M0 0 C1.29648216 -0.01879967 1.29648216 -0.01879967 2.61915588 -0.03797913 C3.53494919 -0.02472092 4.45074249 -0.01146271 5.39428711 0.00219727 C6.35056503 -0.00021469 7.30684296 -0.00262665 8.292099 -0.00511169 C10.30675417 -0.00413525 12.32143684 0.00920987 14.3359375 0.03417969 C17.41556024 0.06853579 20.49231902 0.05481596 23.57202148 0.03540039 C25.53362221 0.04229802 27.49521555 0.05196966 29.45678711 0.06469727 C30.37460464 0.0597374 31.29242218 0.05477753 32.23805237 0.04966736 C36.4615661 0.12733499 38.76417547 0.2592267 42.41552734 2.54150391 C45.41579609 5.76714141 45.48347644 7.57086549 45.47938538 11.88284302 C45.48076004 12.99626068 45.4821347 14.10967834 45.48355103 15.25683594 C45.47815811 17.09749634 45.47815811 17.09749634 45.47265625 18.9753418 C45.47280228 20.26310516 45.4729483 21.55086853 45.47309875 22.87765503 C45.47338635 26.41462774 45.46749569 29.95156673 45.4605248 33.48853159 C45.45428501 37.18277218 45.45368696 40.8770135 45.45249939 44.57125854 C45.44938792 51.56939456 45.44117701 58.567515 45.4311499 65.56564415 C45.41998305 73.53167949 45.41447687 81.49771558 45.40945446 89.4637568 C45.39899425 105.85288293 45.38065105 122.24198761 45.35913086 138.63110352 C26.87913086 138.63110352 8.39913086 138.63110352 -10.64086914 138.63110352 C-10.77631465 121.37638727 -10.8868381 104.12212467 -10.95174217 86.86702442 C-10.98267937 78.85516643 -11.02485664 70.84366218 -11.09350586 62.83203125 C-11.15331284 55.84899478 -11.1920193 48.86621449 -11.20540011 41.88292903 C-11.21322196 38.18523393 -11.23160015 34.48827171 -11.27524948 30.79081154 C-11.32358642 26.66278211 -11.32480822 22.53602632 -11.32202148 18.40771484 C-11.34359314 17.182043 -11.36516479 15.95637115 -11.38739014 14.69355774 C-11.32875479 6.68908069 -11.32875479 6.68908069 -9.42248249 3.75720882 C-6.57775712 1.1886458 -3.79086028 0.00484023 0 0 Z " fill="#01303F" transform="translate(1102.640869140625,288.368896484375)"/>
<path d="M0 0 C7.63396171 5.81718364 10.04373708 12.95062475 11.70703125 22.30078125 C12.83914663 33.05979921 12.00137415 44.05288954 6.89453125 53.73828125 C2.37820707 59.02883244 -2.21800356 62.85206549 -9.34375 63.63671875 C-16.20285497 63.71886372 -21.70921913 63.57148761 -27.29296875 59.30078125 C-34.82737273 51.93380847 -36.38822061 42.75144393 -36.58544922 32.59594727 C-36.66529215 20.9495904 -36.47255232 10.51785761 -27.90234375 1.671875 C-20.52896013 -4.60981833 -8.21037357 -5.02993413 0 0 Z " fill="#09323E" transform="translate(986.29296875,466.69921875)"/>
<path d="M0 0 C1.58206057 0.00667536 3.16410534 0.0186375 4.74609375 0.03515625 C5.55240234 0.03966797 6.35871094 0.04417969 7.18945312 0.04882812 C9.18753131 0.06065107 11.18557158 0.07858711 13.18359375 0.09765625 C16.57368317 11.31463414 19.69976425 22.58939828 22.68383789 33.92138672 C24.14075897 39.41064085 25.6778561 44.83231161 27.5300293 50.20214844 C29.21373717 55.08534153 30.18359375 58.89534793 30.18359375 64.09765625 C25.56359375 64.09765625 20.94359375 64.09765625 16.18359375 64.09765625 C14.9056044 59.38507053 14.18359375 56.05500577 14.18359375 51.09765625 C7.91359375 51.09765625 1.64359375 51.09765625 -4.81640625 51.09765625 C-5.12578125 53.05703125 -5.43515625 55.01640625 -5.75390625 57.03515625 C-6.69140625 62.97265625 -6.69140625 62.97265625 -7.81640625 64.09765625 C-10.1695418 64.17037366 -12.52474293 64.18136493 -14.87890625 64.16015625 C-16.81443359 64.14662109 -16.81443359 64.14662109 -18.7890625 64.1328125 C-19.78808594 64.12121094 -20.78710938 64.10960937 -21.81640625 64.09765625 C-20.53150968 57.00966122 -18.77106907 50.17807141 -16.69140625 43.28515625 C-14.59824893 36.24816605 -12.55048152 29.20252355 -10.61328125 22.12109375 C-10.43149323 21.45686905 -10.2497052 20.79264435 -10.06240845 20.10829163 C-9.16777403 16.83358783 -8.27867042 13.55744931 -7.39404297 10.2800293 C-7.07193848 9.09707275 -6.74983398 7.91411621 -6.41796875 6.6953125 C-6.13260254 5.63836182 -5.84723633 4.58141113 -5.55322266 3.49243164 C-4.36808425 -0.35946454 -4.36628212 0.11172677 0 0 Z " fill="#0B313E" transform="translate(589.81640625,464.90234375)"/>
<path d="M0 0 C5.94 0 11.88 0 18 0 C18.30292969 1.258125 18.60585938 2.51625 18.91796875 3.8125 C21.04744465 12.55202714 23.28000585 21.19344796 26.04467773 29.75537109 C27.93715111 35.66925774 29.61120491 41.63628021 31.25 47.625 C31.50837646 48.5619873 31.76675293 49.49897461 32.03295898 50.46435547 C32.27473877 51.35525879 32.51651855 52.24616211 32.765625 53.1640625 C32.97993164 53.95248535 33.19423828 54.7409082 33.41503906 55.55322266 C34.0811501 58.33943501 34.52904114 61.17424684 35 64 C30.38 64 25.76 64 21 64 C20.01 60.04 19.02 56.08 18 52 C11.73 51.67 5.46 51.34 -1 51 C-1.33 53.64 -1.66 56.28 -2 59 C-2.495 61.475 -2.495 61.475 -3 64 C-7.62 64 -12.24 64 -17 64 C-15.72998249 56.16822536 -13.87934823 48.71392126 -11.62255859 41.11230469 C-10.41022953 36.9989435 -9.23939034 32.87361099 -8.0625 28.75 C-7.80936035 27.86497803 -7.5562207 26.97995605 -7.29541016 26.06811523 C-4.81725225 17.3914117 -2.40418126 8.69747926 0 0 Z " fill="#0A323E" transform="translate(727,465)"/>
<path d="M0 0 C5.61 0 11.22 0 17 0 C21.58584144 13.52823224 25.49292611 27.21311082 29.31640625 40.97265625 C30.94822257 46.83896737 32.64002345 52.68560211 34.37109375 58.5234375 C35 61 35 61 35 64 C30.38 64 25.76 64 21 64 C20.01 60.04 19.02 56.08 18 52 C11.73 51.67 5.46 51.34 -1 51 C-1.33 53.64 -1.66 56.28 -2 59 C-2.495 61.475 -2.495 61.475 -3 64 C-7.62 64 -12.24 64 -17 64 C-15.74904059 55.92562563 -13.71128185 48.32316982 -11.35546875 40.5234375 C-10.00568302 36.05378195 -8.74121107 31.56336308 -7.5 27.0625 C-7.29761719 26.32974854 -7.09523438 25.59699707 -6.88671875 24.84204102 C-6.47310952 23.3431984 -6.05986453 21.84425523 -5.64697266 20.34521484 C-4.49979835 16.18681621 -3.34292714 12.0311114 -2.1875 7.875 C-1.465625 5.27625 -0.74375 2.6775 0 0 Z " fill="#0A303D" transform="translate(1147,465)"/>
<path d="M0 0 C0.67417969 0.39703125 1.34835937 0.7940625 2.04296875 1.203125 C5.74767009 3.61690979 8.43114971 5.84716099 10 10 C10.94857952 14.6529461 10.96444839 18.32201663 8.55859375 22.5078125 C3.91955183 28.18712442 -1.01142838 31.00326525 -8 33 C-8.61101562 33.19078125 -9.22203125 33.3815625 -9.8515625 33.578125 C-19.55880024 35.4842735 -30.70538507 34.75090068 -39.28125 29.640625 C-43.0685801 26.97851616 -46.41721048 24.45159554 -48 20 C-48.78904803 15.28059949 -49.0171538 11.05160614 -46.8515625 6.68359375 C-36.60672029 -6.4847766 -13.86922786 -8.29460618 0 0 Z " fill="#04313F" transform="translate(1139,241)"/>
<path d="M0 0 C12.21 0 24.42 0 37 0 C37 3.3 37 6.6 37 10 C36 11 36 11 33.77514648 11.11352539 C32.81680908 11.10828857 31.85847168 11.10305176 30.87109375 11.09765625 C29.31938477 11.09282227 29.31938477 11.09282227 27.73632812 11.08789062 C26.64771484 11.07951172 25.55910156 11.07113281 24.4375 11.0625 C22.7987793 11.05573242 22.7987793 11.05573242 21.12695312 11.04882812 C18.41794568 11.0369984 15.7089662 11.01906231 13 11 C13 15.62 13 20.24 13 25 C19.6 25 26.2 25 33 25 C33 28.3 33 31.6 33 35 C26.4 35 19.8 35 13 35 C13 40.94 13 46.88 13 53 C20.92 53 28.84 53 37 53 C37 56.63 37 60.26 37 64 C24.79 64 12.58 64 0 64 C0 42.88 0 21.76 0 0 Z " fill="#09313E" transform="translate(858,465)"/>
<path d="M0 0 C4.62 0 9.24 0 14 0 C16.23223937 8.73514029 18.24536033 17.49519529 20.125 26.3125 C20.38925781 27.53517578 20.65351562 28.75785156 20.92578125 30.01757812 C23.0437103 39.91378977 23.0437103 39.91378977 23.6171875 44.29296875 C23.71080242 46.9111794 23.71080242 46.9111794 25 48 C25.19634033 46.93676514 25.39268066 45.87353027 25.5949707 44.77807617 C26.33395354 40.78322205 27.0790739 36.789532 27.82592773 32.79614258 C28.14657892 31.07704677 28.46562826 29.35765129 28.78295898 27.63793945 C30.50639944 18.30422021 32.30944767 9.11476342 35 0 C39.62 0 44.24 0 49 0 C47.657419 7.94220189 45.88862395 15.6436886 43.77734375 23.4140625 C43.47180069 24.55032074 43.16625763 25.68657898 42.85145569 26.85726929 C42.21067439 29.23599771 41.56769665 31.61413545 40.92260742 33.99169922 C39.93131354 37.64781708 38.94859053 41.30616464 37.96679688 44.96484375 C37.34164945 47.28138597 36.71601614 49.59779713 36.08984375 51.9140625 C35.79504623 53.01183014 35.50024872 54.10959778 35.19651794 55.2406311 C34.92275833 56.24613007 34.64899872 57.25162903 34.36694336 58.28759766 C34.12648788 59.17597321 33.88603241 60.06434875 33.63829041 60.97964478 C33 63 33 63 32 64 C29.30345146 64.07319621 26.63308542 64.09242537 23.9375 64.0625 C23.17888672 64.05798828 22.42027344 64.05347656 21.63867188 64.04882812 C19.75908129 64.0370068 17.87953101 64.01907078 16 64 C13.99804688 56.39257812 11.99609375 48.78515625 9.99414062 41.17773438 C9.77684296 40.35226105 9.55954529 39.52678772 9.33566284 38.67630005 C8.89417153 36.99811036 8.45319611 35.31978487 8.01272583 33.6413269 C6.88300137 29.33910483 5.74392571 25.03973084 4.58740234 20.74462891 C4.35965622 19.89363113 4.1319101 19.04263336 3.89726257 18.16584778 C3.46664998 16.5577735 3.03295905 14.95051895 2.59553528 13.34428406 C1.41035732 8.90328684 0.55639942 4.56383137 0 0 Z " fill="#09303D" transform="translate(798,465)"/>
<path d="M0 0 C15.18 0 30.36 0 46 0 C45 10 45 10 44 11 C39.38 11 34.76 11 30 11 C30 28.49 30 45.98 30 64 C25.38 64 20.76 64 16 64 C16 46.51 16 29.02 16 11 C10.72 11 5.44 11 0 11 C0 7.37 0 3.74 0 0 Z " fill="#113845" transform="translate(665,465)"/>
<path d="M0 0 C15.18 0 30.36 0 46 0 C45 10 45 10 44 11 C39.38 11 34.76 11 30 11 C30 28.49 30 45.98 30 64 C25.38 64 20.76 64 16 64 C16 46.51 16 29.02 16 11 C10.72 11 5.44 11 0 11 C0 7.37 0 3.74 0 0 Z " fill="#103845" transform="translate(1085,465)"/>
<path d="M0 0 C1.09183594 -0.00515625 2.18367188 -0.0103125 3.30859375 -0.015625 C6.67951578 0.25955231 9.41125625 1.05224219 12.5625 2.25 C12.5625 5.88 12.5625 9.51 12.5625 13.25 C11.386875 12.92 10.21125 12.59 9 12.25 C3.92481648 11.01258776 -0.34880025 10.20565012 -5.1875 12.625 C-11.7424471 20.27243828 -11.0217993 30.72383462 -10.4375 40.25 C-9.95134375 45.06429731 -9.0935039 48.27593361 -6.375 52.3125 C-2.30161154 54.99920303 0.81793687 54.88853575 5.5625 54.25 C7.98306272 53.72340592 10.21099596 53.05051201 12.5625 52.25 C12.5625 55.88 12.5625 59.51 12.5625 63.25 C5.65324009 67.10633111 -2.18739725 67.68184621 -9.84375 65.59375 C-14.88498011 63.3445858 -18.55264419 59.92605142 -21.4375 55.25 C-24.21279148 47.89333465 -24.99008783 40.62179299 -24.9375 32.8125 C-24.93105469 31.80767578 -24.92460938 30.80285156 -24.91796875 29.76757812 C-24.70055321 20.93936277 -23.5334459 13.89097096 -17.5 7.0546875 C-12.09688167 1.99949724 -7.46196786 -0.0351565 0 0 Z " fill="#09303C" transform="translate(1034.4375,463.75)"/>
<path d="M0 0 C14.85 0 29.7 0 45 0 C45 7 45 7 44 11 C39.05 11 34.1 11 29 11 C29 28.49 29 45.98 29 64 C24.71 64 20.42 64 16 64 C16 46.51 16 29.02 16 11 C10.72 11 5.44 11 0 11 C0 7.37 0 3.74 0 0 Z " fill="#09313E" transform="translate(1182,465)"/>
<path d="M0 0 C4.29 0 8.58 0 13 0 C13 17.49 13 34.98 13 53 C19.93 53 26.86 53 34 53 C33.67 56.63 33.34 60.26 33 64 C22.11 64 11.22 64 0 64 C0 42.88 0 21.76 0 0 Z " fill="#072F3B" transform="translate(632,465)"/>
<path d="M0 0 C4.29 0 8.58 0 13 0 C13 17.49 13 34.98 13 53 C19.93 53 26.86 53 34 53 C33.67 56.63 33.34 60.26 33 64 C22.11 64 11.22 64 0 64 C0 42.88 0 21.76 0 0 Z " fill="#062F3D" transform="translate(909,465)"/>
<path d="M0 0 C4.62 0 9.24 0 14 0 C14 21.12 14 42.24 14 64 C9.38 64 4.76 64 0 64 C0 42.88 0 21.76 0 0 Z " fill="#123744" transform="translate(1060,465)"/>
<path d="M0 0 C4.19505742 3.16959894 5.73855137 5.97663125 7 11 C7.28328717 14.62886098 7.27922267 18.23677732 7.25 21.875 C7.25773438 22.83019531 7.26546875 23.78539062 7.2734375 24.76953125 C7.25426783 31.75687437 7.057456 38.17834606 2.8125 44 C0 46 0 46 -3.5 46.6875 C-7.22604141 45.95559901 -8.81290959 45.05204683 -11 41.9296875 C-15.72511004 32.81170172 -15.56204456 18.52519109 -13.20703125 8.6875 C-10.57310027 1.74441757 -7.87304045 -0.95019454 0 0 Z " fill="#F4F8F8" transform="translate(977,474)"/>
<path d="M0 0 C0.66 0 1.32 0 2 0 C2 43.56 2 87.12 2 132 C-16.48 132 -34.96 132 -54 132 C-54 89.1 -54 46.2 -54 2 C-53.67 2 -53.34 2 -53 2 C-53 44.24 -53 86.48 -53 130 C-35.51 130 -18.02 130 0 130 C0 87.1 0 44.2 0 0 Z " fill="#25424B" transform="translate(1146,295)"/>
<path d="M0 0 C0.99 0.33 1.98 0.66 3 1 C-0.41802674 5.82029412 -3.99299018 10.12988831 -8.234375 14.2421875 C-9.97450307 15.97461589 -11.58467375 17.76541033 -13.1875 19.625 C-16.78244619 23.78968097 -20.46392703 27.87551662 -24.27783203 31.84106445 C-26.97713569 34.67052924 -29.36296453 37.44093641 -31.4921875 40.7265625 C-34.89646481 45.664715 -37.86482446 49.35977933 -43.97216797 50.60693359 C-55.98751963 51.71665942 -68.53867638 50.98903686 -80 47 C-80.66 46.34 -81.32 45.68 -82 45 C-64.51383399 46.48616601 -64.51383399 46.48616601 -63 48 C-60.62676622 48.10061091 -58.25036092 48.12964846 -55.875 48.125 C-54.57304687 48.12757813 -53.27109375 48.13015625 -51.9296875 48.1328125 C-48.19392244 48.00655404 -44.66786773 47.72055703 -41 47 C-39.72510734 45.20072961 -39.72510734 45.20072961 -39 43 C-37 40.75 -37 40.75 -35 39 C-34.34 39 -33.68 39 -33 39 C-33 38.34 -33 37.68 -33 37 C-32.34 37 -31.68 37 -31 37 C-31 36.34 -31 35.68 -31 35 C-28.86271168 32.74718258 -26.65642695 30.60593257 -24.375 28.5 C-22.82035472 26.91125801 -22.82035472 26.91125801 -21.4375 24.3125 C-20.963125 23.549375 -20.48875 22.78625 -20 22 C-19.34 22 -18.68 22 -18 22 C-17.505 20.515 -17.505 20.515 -17 19 C-16.34 19 -15.68 19 -15 19 C-14.91878906 18.18015625 -14.91878906 18.18015625 -14.8359375 17.34375 C-13.62543654 13.94982208 -11.19109227 11.91475863 -8.625 9.5 C-5.48849643 6.50235206 -2.48353029 3.58168994 0 0 Z " fill="#1B623F" transform="translate(251,479)"/>
<path d="M0 0 C0.66 0 1.32 0 2 0 C2.85702451 4.09289985 3.71145708 8.18632951 4.56347656 12.28027344 C4.85377709 13.6733263 5.14478926 15.06623105 5.43652344 16.45898438 C5.85538275 18.45925129 6.27169198 20.46003437 6.6875 22.4609375 C7.06455078 24.26763916 7.06455078 24.26763916 7.44921875 26.11083984 C8 29 8 29 8 31 C3.71 31 -0.58 31 -5 31 C-4.38013299 20.46226083 -2.17885538 10.30376016 0 0 Z " fill="#E3EDEF" transform="translate(593,475)"/>
<path d="M0 0 C2.08877451 3.13316177 2.68115697 5.2698307 3.5078125 8.91015625 C3.77207031 10.06451172 4.03632812 11.21886719 4.30859375 12.40820312 C4.57800781 13.61412109 4.84742188 14.82003906 5.125 16.0625 C5.40214844 17.27228516 5.67929688 18.48207031 5.96484375 19.72851562 C8 28.69623615 8 28.69623615 8 31 C3.38 31 -1.24 31 -6 31 C-5.18159984 24.44339181 -3.80637792 18.02345042 -2.4375 11.5625 C-2.20353516 10.44939453 -1.96957031 9.33628906 -1.72851562 8.18945312 C-1.15434378 5.4592074 -0.57811692 2.7294126 0 0 Z " fill="#E5EEF0" transform="translate(1155,475)"/>
<path d="M0 0 C2.58086581 2.58086581 2.73468316 4.47537218 3.5078125 8.03125 C3.77207031 9.23394531 4.03632812 10.43664062 4.30859375 11.67578125 C4.57800781 12.93777344 4.84742188 14.19976562 5.125 15.5 C5.54072266 17.39298828 5.54072266 17.39298828 5.96484375 19.32421875 C8 28.67791718 8 28.67791718 8 31 C3.38 31 -1.24 31 -6 31 C-4.08219503 20.64929376 -2.09015804 10.31737586 0 0 Z " fill="#E7F1F2" transform="translate(735,475)"/>
<path d="M0 0 C-13.76210799 8.03180475 -27.56192364 15.94893366 -41.60986328 23.47387695 C-46.09895623 25.87985275 -50.56947879 28.30367273 -54.984375 30.84375 C-56.10851807 31.48981201 -56.10851807 31.48981201 -57.25537109 32.14892578 C-58.62699123 32.94232319 -59.99479997 33.74236236 -61.35791016 34.55029297 C-62.87242246 35.42628986 -64.43253744 36.22271035 -66 37 C-66.66 36.67 -67.32 36.34 -68 36 C-67.34 34.35 -66.68 32.7 -66 31 C-65.278125 31.061875 -64.55625 31.12375 -63.8125 31.1875 C-60.45159207 30.96343947 -58.83342893 29.74364857 -56 28 C-54.68 28 -53.36 28 -52 28 C-51.67 27.01 -51.34 26.02 -51 25 C-47.42352152 21.42352152 -43.89658597 20.212551 -39.1953125 18.77734375 C-36.10139767 17.68181163 -33.67666697 15.87936192 -31 14 C-23.87372014 10 -23.87372014 10 -20 10 C-19.7215625 9.071875 -19.7215625 9.071875 -19.4375 8.125 C-17.28562767 4.94397134 -14.62466237 4.80548053 -11 4 C-11 3.34 -11 2.68 -11 2 C-4.296875 -1.22265625 -4.296875 -1.22265625 0 0 Z " fill="#1E5F3F" transform="translate(249,348)"/>
<path d="M0 0 C1.13671875 1.75390625 1.13671875 1.75390625 2 4 C1.20703125 5.96484375 1.20703125 5.96484375 -0.1875 7.9375 C-0.90679687 8.989375 -0.90679687 8.989375 -1.640625 10.0625 C-2.08921875 10.701875 -2.5378125 11.34125 -3 12 C-3.474375 12.804375 -3.94875 13.60875 -4.4375 14.4375 C-5.91706069 16.86397954 -7.44220419 19.24811745 -9 21.625 C-9.495 22.38039063 -9.99 23.13578125 -10.5 23.9140625 C-12 26 -12 26 -13.6015625 27.59375 C-15.23191867 29.07843435 -15.23191867 29.07843435 -16.375 31.875 C-18.14306094 35.27511719 -20.30894188 37.30894188 -23 40 C-23.86119134 42.17346568 -23.86119134 42.17346568 -24 44 C-24.99 43.67 -25.98 43.34 -27 43 C-24.51866407 38.2660227 -21.89636754 33.74356029 -18.77734375 29.3984375 C-14.87639443 23.87837126 -11.23585333 18.21269332 -7.625 12.5 C-6.99722656 11.51257813 -6.36945313 10.52515625 -5.72265625 9.5078125 C-2.69812543 4.84754482 -2.69812543 4.84754482 0 0 Z " fill="#1E6542" transform="translate(328,440)"/>
<path d="M0 0 C0.495 0.99 0.495 0.99 1 2 C1.66 2.33 2.32 2.66 3 3 C-4.18903225 5.5477387 -11.37907274 8.09261581 -18.56982422 10.63549805 C-21.01634708 11.50104843 -23.46263765 12.36725568 -25.90869141 13.23413086 C-29.42289464 14.47942762 -32.93792414 15.7223663 -36.453125 16.96484375 C-37.5480426 17.35341049 -38.64296021 17.74197723 -39.77105713 18.14231873 C-41.30219147 18.68276573 -41.30219147 18.68276573 -42.86425781 19.23413086 C-43.76138489 19.55167831 -44.65851196 19.86922577 -45.58282471 20.19639587 C-47.71000515 20.90358951 -49.81758156 21.49354707 -52 22 C-52 21.34 -52 20.68 -52 20 C-46.72353011 16.68195285 -41.84395752 14.91428721 -35.8125 13.4375 C-28.9230637 11.76887191 -28.9230637 11.76887191 -23 8 C-21.03515625 7.33984375 -21.03515625 7.33984375 -19.0625 6.9375 C-15.87538666 6.22598577 -13.02636813 5.24158692 -10 4 C-8.80375 3.67 -7.6075 3.34 -6.375 3 C-2.91197465 2.15471123 -2.91197465 2.15471123 0 0 Z " fill="#1B5F3F" transform="translate(399,461)"/>
<path d="M0 0 C2.55709507 2.24348907 2.96649712 2.72310852 3.3984375 6.29296875 C3.32538907 18.43118348 1.90925972 24.64844213 -6.5703125 33.65625 C-9.81857313 36.78962038 -13.25436748 39.48930354 -17 42 C-17.33 41.34 -17.66 40.68 -18 40 C-17.67 39.34 -17.34 38.68 -17 38 C-16.34 38 -15.68 38 -15 38 C-15 37.34 -15 36.68 -15 36 C-12.69064913 33.37211797 -11.36016893 32.12005631 -8 31 C-6.14347395 29.31842333 -6.14347395 29.31842333 -4.375 27.25 C-3.76398438 26.57453125 -3.15296875 25.8990625 -2.5234375 25.203125 C0.86702547 20.29999394 0.12131858 14.42004889 0.0625 8.6875 C0.05798828 7.85154297 0.05347656 7.01558594 0.04882812 6.15429688 C0.03710548 4.10283351 0.01917203 2.05140727 0 0 Z " fill="#1C6141" transform="translate(510,385)"/>
<path d="M0 0 C1.2065625 0.0309375 1.2065625 0.0309375 2.4375 0.0625 C2.9325 1.0525 2.9325 1.0525 3.4375 2.0625 C-2.62655666 4.37245558 -8.69594076 6.66795059 -14.76928711 8.95336914 C-16.83565441 9.73290665 -18.90076904 10.51577302 -20.96459961 11.30200195 C-23.92761086 12.43012418 -26.89488879 13.5462835 -29.86328125 14.66015625 C-30.7883699 15.015298 -31.71345856 15.37043976 -32.6665802 15.73634338 C-33.95757881 16.21695473 -33.95757881 16.21695473 -35.2746582 16.70727539 C-36.03188675 16.99373428 -36.7891153 17.28019318 -37.56929016 17.57533264 C-39.5625 18.0625 -39.5625 18.0625 -42.5625 17.0625 C-39.5625 15.0625 -39.5625 15.0625 -37.5625 15.0625 C-37.5625 14.4025 -37.5625 13.7425 -37.5625 13.0625 C-36.77746094 12.88074219 -35.99242187 12.69898438 -35.18359375 12.51171875 C-34.13300781 12.26035156 -33.08242188 12.00898438 -32 11.75 C-30.96746094 11.50636719 -29.93492187 11.26273437 -28.87109375 11.01171875 C-25.26625694 9.97750937 -21.99055243 8.58069079 -18.5625 7.0625 C-17.25518813 6.53264192 -15.94521369 6.0093113 -14.6328125 5.4921875 C-13.983125 5.23566406 -13.3334375 4.97914063 -12.6640625 4.71484375 C-11.32339466 4.18758506 -9.98223168 3.66158396 -8.640625 3.13671875 C-0.7579898 0.01848756 -0.7579898 0.01848756 0 0 Z " fill="#1A5D3D" transform="translate(455.5625,440.9375)"/>
<path d="M0 0 C0.495 1.485 0.495 1.485 1 3 C-0.40893147 4.63171123 -1.82745958 6.25513945 -3.25 7.875 C-4.03890625 8.77992188 -4.8278125 9.68484375 -5.640625 10.6171875 C-8 13 -8 13 -10.171875 14.0703125 C-12.54414982 15.27672577 -12.91951451 16.63115171 -14 19 C-18.21752518 19.02473064 -22.43501186 19.04287453 -26.65258789 19.05493164 C-28.08716568 19.05995842 -29.52173836 19.06678079 -30.95629883 19.07543945 C-33.01905582 19.08757752 -35.08174504 19.09324486 -37.14453125 19.09765625 C-38.38565674 19.10289307 -39.62678223 19.10812988 -40.90551758 19.11352539 C-44 19 -44 19 -47 18 C-47 17.34 -47 16.68 -47 16 C-46.06728271 16.03665771 -45.13456543 16.07331543 -44.17358398 16.11108398 C-40.68629302 16.23096164 -37.20121367 16.31840004 -33.71264648 16.38452148 C-32.20806165 16.41955689 -30.70371231 16.46720379 -29.19995117 16.52807617 C-20.56037342 17.11194062 -20.56037342 17.11194062 -12.546875 14.56445312 C-10.77793998 12.80871911 -9.39001718 11.06329377 -8 9 C-7.28070313 8.20851563 -6.56140625 7.41703125 -5.8203125 6.6015625 C-5.26085937 5.94929687 -4.70140625 5.29703125 -4.125 4.625 C-1.02777778 1.02777778 -1.02777778 1.02777778 0 0 Z " fill="#DEF5EC" transform="translate(225,512)"/>
<path d="M0 0 C0.66 0 1.32 0 2 0 C0.62057276 4.43606019 -1.11242234 8.51197955 -3.15234375 12.68359375 C-3.45314346 13.30218765 -3.75394318 13.92078156 -4.06385803 14.55812073 C-5.01826237 16.51963152 -5.97754946 18.47869834 -6.9375 20.4375 C-7.89315427 22.39307196 -8.84769937 24.3491697 -9.8004303 26.3061676 C-10.66667658 28.08469941 -11.53624406 29.86161249 -12.40600586 31.63842773 C-14.02905203 35.0612678 -15.52985147 38.5094022 -17 42 C-18.07188003 39.26218594 -18.05757929 38.15916226 -17.0390625 35.34375 C-16.33910156 33.93609375 -16.33910156 33.93609375 -15.625 32.5 C-14.07089975 29.33970676 -12.70195373 26.46079514 -12 23 C-11.34 23 -10.68 23 -10 23 C-9.855625 22.4225 -9.71125 21.845 -9.5625 21.25 C-9.04166667 19.16666667 -8.52083333 17.08333333 -8 15 C-7.34 15 -6.68 15 -6 15 C-6 13.68 -6 12.36 -6 11 C-5.34 11 -4.68 11 -4 11 C-4 9.68 -4 8.36 -4 7 C-3.34 7 -2.68 7 -2 7 C-2 5.35 -2 3.7 -2 2 C-1.34 2 -0.68 2 0 2 C0 1.34 0 0.68 0 0 Z " fill="#DAF5E9" transform="translate(247,232)"/>
<path d="M0 0 C0.66 0.99 1.32 1.98 2 3 C0.02 3.99 0.02 3.99 -2 5 C-2 5.66 -2 6.32 -2 7 C-3.16629452 8.06860995 -4.38505932 9.0802998 -5.625 10.0625 C-9.5662868 13.37485805 -12.14334372 16.87671198 -14.7734375 21.27734375 C-15.17820312 21.84582031 -15.58296875 22.41429687 -16 23 C-16.66 23 -17.32 23 -18 23 C-15.95353936 14.13200388 -8.6480895 6.89382077 -2 1 C-1.34 0.67 -0.68 0.34 0 0 Z " fill="#1D6542" transform="translate(285,174)"/>
<path d="M0 0 C-0.29492188 1.87280273 -0.29492188 1.87280273 -1 4 C-3.50053504 5.55092709 -5.85112517 6.82477463 -8.5 8.0625 C-9.22380859 8.41248047 -9.94761719 8.76246094 -10.69335938 9.12304688 C-15.6916247 11.49912466 -20.67183989 13.47766854 -26 15 C-26 14.01 -26 13.02 -26 12 C-24.10435574 11.20788071 -22.20847629 10.41632424 -20.3125 9.625 C-19.25675781 9.18414062 -18.20101563 8.74328125 -17.11328125 8.2890625 C-16.08589844 7.86367188 -15.05851562 7.43828125 -14 7 C-12.66001953 6.42378906 -12.66001953 6.42378906 -11.29296875 5.8359375 C-9 5 -9 5 -6 5 C-6 4.34 -6 3.68 -6 3 C-5.34 3 -4.68 3 -4 3 C-4 2.34 -4 1.68 -4 1 C-2 0 -2 0 0 0 Z " fill="#206343" transform="translate(491,425)"/>
<path d="M0 0 C0.73828125 1.703125 0.73828125 1.703125 1 4 C-0.58203125 6.359375 -0.58203125 6.359375 -2.8125 8.75 C-3.54082031 9.54921875 -4.26914062 10.3484375 -5.01953125 11.171875 C-7 13 -7 13 -9 13 C-9.185625 13.825 -9.37125 14.65 -9.5625 15.5 C-11.48868121 20.18983252 -14.54042105 23.35541683 -18 27 C-18.99 26.67 -19.98 26.34 -21 26 C-20.40574219 25.29617188 -19.81148438 24.59234375 -19.19921875 23.8671875 C-12.62930994 16.04051542 -6.27504228 8.064503 0 0 Z " fill="#D3F1E3" transform="translate(318,401)"/>
<path d="M0 0 C3.96 0 7.92 0 12 0 C12 13.53 12 27.06 12 41 C9.81750877 36.63501754 9.77735907 34.55264994 9.83984375 29.75 C9.84504532 29.05487305 9.85024689 28.35974609 9.85560608 27.64355469 C9.87336709 25.42882047 9.90452238 23.21455578 9.9375 21 C9.96518137 18.78549014 9.98989678 16.57104899 10.00868225 14.35644531 C10.02648497 12.34693632 10.05389275 10.33751925 10.08178711 8.328125 C10.01570087 5.63890819 9.81729385 3.53717485 9 1 C8.071875 1.33 7.14375 1.66 6.1875 2 C3 3 3 3 0 3 C0 2.01 0 1.02 0 0 Z " fill="#112F39" transform="translate(910,465)"/>
<path d="M0 0 C0.99 0 1.98 0 3 0 C1.42886121 4.36427441 -0.7896998 8.23803433 -3.1875 12.1875 C-3.58316162 12.84371338 -3.97882324 13.49992676 -4.38647461 14.17602539 C-7.69723172 19.61412854 -11.23971832 24.8613514 -15 30 C-16 27 -16 27 -15.0625 24.8125 C-14.5365625 23.9153125 -14.5365625 23.9153125 -14 23 C-13.34 23 -12.68 23 -12 23 C-11.8453125 22.13375 -11.8453125 22.13375 -11.6875 21.25 C-10.6667378 17.9093237 -8.55317126 15.68082617 -6.375 13 C-4.97432665 10.96265695 -4.43113101 9.41433364 -4 7 C-3.34 7 -2.68 7 -2 7 C-1.855625 6.21625 -1.71125 5.4325 -1.5625 4.625 C-1 2 -1 2 0 0 Z " fill="#226946" transform="translate(376,314)"/>
<path d="M0 0 C2.95419241 4.53548212 2.71719611 10.03192037 3.12304688 15.26953125 C3.57675683 20.18267864 4.59097214 23.60784975 7 28 C6.6875 30.375 6.6875 30.375 6 32 C-1.47810971 22.65759963 -0.33295676 11.3205297 0 0 Z " fill="#2F7151" transform="translate(148,479)"/>
<path d="M0 0 C0.33 0 0.66 0 1 0 C1.61458227 7.62082016 0.09185088 12.54345343 -4 19 C-6.3125 21.625 -6.3125 21.625 -8 23 C-8 22.34 -8 21.68 -8 21 C-9.32 21.33 -10.64 21.66 -12 22 C-11.61328125 21.49210937 -11.2265625 20.98421875 -10.828125 20.4609375 C-9.20586394 18.31666175 -7.60194393 16.15948324 -6 14 C-5.2575 13.01 -4.515 12.02 -3.75 11 C-1.6105456 7.33236389 -0.85792444 4.1466348 0 0 Z " fill="#BAEED6" transform="translate(362,254)"/>
<path d="M0 0 C0.66 0.66 1.32 1.32 2 2 C-12.21359223 18.10679612 -12.21359223 18.10679612 -18 21 C-18 19.68 -18 18.36 -18 17 C-17.40316406 16.74476563 -16.80632812 16.48953125 -16.19140625 16.2265625 C-13.15933177 14.52946555 -11.5572396 12.18049709 -9.46484375 9.4609375 C-8 8 -8 8 -5 8 C-4.9175 7.236875 -4.835 6.47375 -4.75 5.6875 C-3.85384206 2.47626739 -2.78388975 1.70625501 0 0 Z " fill="#246D4B" transform="translate(354,268)"/>
<path d="M0 0 C1 2 1 2 0.4375 4.1875 C-1.50645649 7.99089312 -4.14613462 10.84777597 -7 14 C-8.23175324 15.39355134 -9.46091326 16.78939902 -10.6875 18.1875 C-11.24824219 18.82042969 -11.80898438 19.45335937 -12.38671875 20.10546875 C-14.01157967 22.01359841 -15.51746828 23.97999455 -17 26 C-17.66 25.67 -18.32 25.34 -19 25 C-18.60208252 24.49138428 -18.20416504 23.98276855 -17.79418945 23.45874023 C-15.96545403 21.11949944 -14.13896515 18.77851377 -12.3125 16.4375 C-11.68666016 15.63763672 -11.06082031 14.83777344 -10.41601562 14.01367188 C-6.83102669 9.41512586 -3.35029262 4.77240535 0 0 Z " fill="#D2F0E2" transform="translate(345,365)"/>
<path d="M0 0 C-1.96713834 5.90141503 -7.45791017 9.23824155 -12.3125 12.8125 C-12.86228516 13.21919922 -13.41207031 13.62589844 -13.97851562 14.04492188 C-15.31625547 15.03368611 -16.65773623 16.01738585 -18 17 C-18.99 16.34 -19.98 15.68 -21 15 C-19.69675781 14.00419922 -19.69675781 14.00419922 -18.3671875 12.98828125 C-17.2030743 12.09642033 -16.03901467 11.2044895 -14.875 10.3125 C-14.30523437 9.87744141 -13.73546875 9.44238281 -13.1484375 8.99414062 C-10.26666869 6.78369296 -7.44697783 4.53908462 -4.6953125 2.16796875 C-2 0 -2 0 0 0 Z " fill="#165C3B" transform="translate(299,330)"/>
<path d="M0 0 C-2.39281045 1.94133678 -4.78906463 3.87813398 -7.1875 5.8125 C-7.86103516 6.35970703 -8.53457031 6.90691406 -9.22851562 7.47070312 C-12.69446982 10.26037357 -16.09308567 12.8379212 -20 15 C-19.75674469 11.71605327 -18.87057281 10.88289921 -16.375 8.625 C-15.84003906 8.20992188 -15.30507813 7.79484375 -14.75390625 7.3671875 C-12.27487889 5.43476083 -9.95829429 3.32601882 -7.61328125 1.234375 C-4.75116683 -0.95552369 -3.41720322 -1.13906774 0 0 Z " fill="#D9F5E9" transform="translate(295,333)"/>
<path d="M0 0 C0.33 0 0.66 0 1 0 C0.67 2.64 0.34 5.28 0 8 C-0.66 8 -1.32 8 -2 8 C-1.979375 8.721875 -1.95875 9.44375 -1.9375 10.1875 C-2.06899065 16.10457904 -3.7256795 19.08851925 -7 24 C-7.78215588 26.7282504 -7.78215588 26.7282504 -8 29 C-8.66 29 -9.32 29 -10 29 C-8.66634251 22.10007732 -6.56639723 15.9187269 -3.875 9.4375 C-3.50246094 8.52419922 -3.12992188 7.61089844 -2.74609375 6.66992188 C-1.83704966 4.44392928 -0.9216263 2.22080556 0 0 Z " fill="#2C6C4B" transform="translate(164,427)"/>
<path d="M0 0 C-1.50142295 3.0028459 -3.74935512 3.32168557 -6.8125 4.5625 C-7.87082031 4.99691406 -8.92914063 5.43132812 -10.01953125 5.87890625 C-14.92405648 7.72372767 -18.72432378 8.10145531 -24 8 C-20.04674034 5.36449356 -15.87870021 3.95045928 -11.4375 2.3125 C-10.56158203 1.97927734 -9.68566406 1.64605469 -8.78320312 1.30273438 C-7.94595703 0.99271484 -7.10871094 0.68269531 -6.24609375 0.36328125 C-5.47966553 0.07751221 -4.7132373 -0.20825684 -3.92358398 -0.50268555 C-2 -1 -2 -1 0 0 Z " fill="#D5F0E5" transform="translate(367,477)"/>
<path d="M0 0 C0.66 0 1.32 0 2 0 C0.35526763 6.18336092 -2.92553087 11.39655866 -6.125 16.875 C-6.68832031 17.84953125 -7.25164062 18.8240625 -7.83203125 19.828125 C-9.21650363 22.22161962 -10.60593541 24.6120838 -12 27 C-12.33 25.68 -12.66 24.36 -13 23 C-12.34 23 -11.68 23 -11 23 C-11 21.68 -11 20.36 -11 19 C-10.34 19 -9.68 19 -9 19 C-9 18.01 -9 17.02 -9 16 C-8.34 16 -7.68 16 -7 16 C-6.67 14.02 -6.34 12.04 -6 10 C-5.34 10 -4.68 10 -4 10 C-3.87625 9.030625 -3.7525 8.06125 -3.625 7.0625 C-3.41875 6.051875 -3.2125 5.04125 -3 4 C-2.34 3.67 -1.68 3.34 -1 3 C-0.67 2.01 -0.34 1.02 0 0 Z " fill="#D9F5E9" transform="translate(354,391)"/>
<path d="M0 0 C2.39069071 8.09693787 -3.25947277 16.04749831 -7 23 C-7.66 23.99 -8.32 24.98 -9 26 C-10.26555526 22.20333423 -9.51624012 21.26468472 -7.91015625 17.67578125 C-7.45576172 16.64775391 -7.00136719 15.61972656 -6.53320312 14.56054688 C-6.04787109 13.48869141 -5.56253906 12.41683594 -5.0625 11.3125 C-4.58103516 10.22904297 -4.09957031 9.14558594 -3.60351562 8.02929688 C-2.41091362 5.34889435 -1.20946012 2.67282782 0 0 Z " fill="#286B4B" transform="translate(195,351)"/>
<path d="M0 0 C0.99 0.33 1.98 0.66 3 1 C-4.52379324 6.56879185 -12.17488245 11.86519337 -20 17 C-20.33 16.34 -20.66 15.68 -21 15 C-20.67 14.34 -20.34 13.68 -20 13 C-19.01 13 -18.02 13 -17 13 C-17 12.34 -17 11.68 -17 11 C-14.69921875 9.2734375 -14.69921875 9.2734375 -11.6875 7.375 C-10.70136719 6.74335938 -9.71523438 6.11171875 -8.69921875 5.4609375 C-6 4 -6 4 -3 4 C-3 3.34 -3 2.68 -3 2 C-2.01 2 -1.02 2 0 2 C0 1.34 0 0.68 0 0 Z " fill="#1D6340" transform="translate(311,305)"/>
<path d="M0 0 C2 3.875 2 3.875 2 5 C3.98 4.67 5.96 4.34 8 4 C8.33 4.66 8.66 5.32 9 6 C6.70967689 6.83719383 4.41789043 7.6698929 2.125 8.5 C1.47402344 8.73847656 0.82304687 8.97695313 0.15234375 9.22265625 C-4.7734375 11 -4.7734375 11 -7 11 C-5.22054913 6.95579349 -2.60470327 3.53921513 0 0 Z " fill="#206747" transform="translate(292,494)"/>
<path d="M0 0 C-4.07184161 2.71456107 -8.40162518 4.07159223 -13 5.6875 C-14.37285156 6.18733398 -14.37285156 6.18733398 -15.7734375 6.69726562 C-16.65257812 7.00728516 -17.53171875 7.31730469 -18.4375 7.63671875 C-19.64212891 8.06537231 -19.64212891 8.06537231 -20.87109375 8.50268555 C-23 9 -23 9 -26 8 C-20.38602035 4.5952253 -15.43399007 2.33117036 -9 1 C-5.8035914 -0.06546953 -3.34252724 -0.07427838 0 0 Z " fill="#1C5E3D" transform="translate(329,489)"/>
<path d="M0 0 C3.76050823 3.76050823 2.97255392 9.91149751 3 15 C2.55532727 19.05595425 1.86889731 23.01456194 1 27 C-1 25 -1 25 -1.13525391 22.47802734 C-1.08288574 21.4411377 -1.03051758 20.40424805 -0.9765625 19.3359375 C-0.925 18.21445312 -0.8734375 17.09296875 -0.8203125 15.9375 C-0.75585938 14.761875 -0.69140625 13.58625 -0.625 12.375 C-0.56828125 11.19164062 -0.5115625 10.00828125 -0.453125 8.7890625 C-0.31133757 5.85878888 -0.15989667 2.92933228 0 0 Z " fill="#1C6542" transform="translate(395,277)"/>
<path d="M0 0 C0.99 0.33 1.98 0.66 3 1 C1.06553688 3.43992395 -0.87309647 5.8765018 -2.8125 8.3125 C-3.35970703 9.00279297 -3.90691406 9.69308594 -4.47070312 10.40429688 C-5.00244141 11.07138672 -5.53417969 11.73847656 -6.08203125 12.42578125 C-6.56905518 13.03848877 -7.0560791 13.65119629 -7.55786133 14.2824707 C-8.95998031 15.95233815 -10.43475226 17.48347593 -12 19 C-12.66 18.34 -13.32 17.68 -14 17 C-13.37351562 16.31292969 -12.74703125 15.62585938 -12.1015625 14.91796875 C-11.28429687 14.01691406 -10.46703125 13.11585938 -9.625 12.1875 C-8.81289063 11.29417969 -8.00078125 10.40085937 -7.1640625 9.48046875 C-4.90927093 7.00367326 -4.90927093 7.00367326 -3 4 C-2.34 4 -1.68 4 -1 4 C-0.67 2.68 -0.34 1.36 0 0 Z " fill="#19633F" transform="translate(315,401)"/>
<path d="M0 0 C0.66 0.99 1.32 1.98 2 3 C0.19272453 5.50381568 -1.62166673 8.00238547 -3.4375 10.5 C-3.95376953 11.21542969 -4.47003906 11.93085938 -5.00195312 12.66796875 C-5.49501953 13.34472656 -5.98808594 14.02148438 -6.49609375 14.71875 C-6.95169678 15.34716797 -7.4072998 15.97558594 -7.87670898 16.62304688 C-8.43273804 17.30463867 -8.43273804 17.30463867 -9 18 C-9.33 18 -9.66 18 -10 18 C-10 16.35 -10 14.7 -10 13 C-9.34 13 -8.68 13 -8 13 C-7.731875 12.278125 -7.46375 11.55625 -7.1875 10.8125 C-6.00098638 8.00233617 -4.72514361 5.51583443 -3 3 C-2.34 3 -1.68 3 -1 3 C-0.67 2.01 -0.34 1.02 0 0 Z " fill="#206944" transform="translate(358,343)"/>
<path d="M0 0 C0.66 0 1.32 0 2 0 C1.98952637 0.6798999 1.97905273 1.3597998 1.96826172 2.06030273 C1.92629897 5.18599649 1.90054709 8.31163066 1.875 11.4375 C1.85824219 12.50677734 1.84148437 13.57605469 1.82421875 14.67773438 C1.78479222 21.12397159 2.33541567 26.76763898 4 33 C3.34 33 2.68 33 2 33 C2 31.68 2 30.36 2 29 C1.34 29 0.68 29 0 29 C0 19.43 0 9.86 0 0 Z " fill="#DEF8EC" transform="translate(147,473)"/>
<path d="M0 0 C0.33 0 0.66 0 1 0 C1 2.97 1 5.94 1 9 C-9.23 9 -19.46 9 -30 9 C-30 8.67 -30 8.34 -30 8 C-21.09 8 -12.18 8 -3 8 C-1.53867783 5.07735566 -0.65900754 3.07536854 0 0 Z " fill="#16353F" transform="translate(1333,230)"/>
<path d="M0 0 C1.29790193 4.22508501 0.35421479 6.79480672 -1 11 C-1.28875 12.2375 -1.5775 13.475 -1.875 14.75 C-3.06648225 18.19205985 -3.88916464 19.2371933 -7 21 C-6.45806986 15.669877 -5.15341447 11.42105958 -2.9375 6.5625 C-2.65583984 5.92634766 -2.37417969 5.29019531 -2.08398438 4.63476562 C-1.39710188 3.08636949 -0.69965593 1.54266643 0 0 Z " fill="#206443" transform="translate(205,327)"/>
<path d="M0 0 C3.66886958 0.31182074 7.33460939 0.6497406 11 1 C11.72058594 1.06058594 12.44117188 1.12117187 13.18359375 1.18359375 C16.91205907 1.57648579 18.5231769 2.24306 21 5 C13.43781278 4.66569599 6.93805182 4.12892533 0 1 C0 0.67 0 0.34 0 0 Z " fill="#276748" transform="translate(169,524)"/>
<path d="M0 0 C0.33 0.99 0.66 1.98 1 3 C-0.73046875 5.59375 -0.73046875 5.59375 -3.1875 8.5 C-4.38439453 9.93859375 -4.38439453 9.93859375 -5.60546875 11.40625 C-7.63455851 13.60415473 -9.53839631 15.32497772 -12 17 C-12.66 16.67 -13.32 16.34 -14 16 C-13.32453125 15.26394531 -12.6490625 14.52789062 -11.953125 13.76953125 C-11.05200228 12.78392827 -10.15096517 11.79824701 -9.25 10.8125 C-8.36828125 9.84957031 -7.4865625 8.88664062 -6.578125 7.89453125 C-4.29020637 5.32582261 -2.11918393 2.70839628 0 0 Z " fill="#D3EFE2" transform="translate(263,469)"/>
<path d="M0 0 C0.66 0.33 1.32 0.66 2 1 C-1.63 7.27 -5.26 13.54 -9 20 C-10.19156292 15.23374833 -9.3415946 14.12120649 -7 10 C-6.34 10 -5.68 10 -5 10 C-4.7834375 9.1028125 -4.7834375 9.1028125 -4.5625 8.1875 C-4.1127561 6.43849596 -3.57107659 4.71322977 -3 3 C-2.34 3 -1.68 3 -1 3 C-0.67 2.01 -0.34 1.02 0 0 Z " fill="#D5F3E7" transform="translate(336,424)"/>
<path d="M0 0 C1.42732122 2.28918611 2.07591632 3.48450184 1.67626953 6.19824219 C1.41442871 6.97329102 1.15258789 7.74833984 0.8828125 8.546875 C0.60566406 9.39121094 0.32851563 10.23554688 0.04296875 11.10546875 C-0.41142578 12.41451172 -0.41142578 12.41451172 -0.875 13.75 C-1.17019531 14.63816406 -1.46539062 15.52632813 -1.76953125 16.44140625 C-2.49986734 18.63241453 -3.24366758 20.81785733 -4 23 C-5.42732122 20.71081389 -6.07591632 19.51549816 -5.67626953 16.80175781 C-5.41442871 16.02670898 -5.15258789 15.25166016 -4.8828125 14.453125 C-4.60566406 13.60878906 -4.32851563 12.76445312 -4.04296875 11.89453125 C-3.58857422 10.58548828 -3.58857422 10.58548828 -3.125 9.25 C-2.82980469 8.36183594 -2.53460938 7.47367187 -2.23046875 6.55859375 C-1.50013266 4.36758547 -0.75633242 2.18214267 0 0 Z " fill="#2B6E4D" transform="translate(391,312)"/>
<path d="M0 0 C0.33 0 0.66 0 1 0 C0.18155823 8.02072931 -2.96398398 14.18052465 -7 21 C-7.66 21 -8.32 21 -9 21 C-7.50640515 16.15713185 -5.54966433 11.68649104 -3.375 7.125 C-2.88773438 6.09246094 -2.88773438 6.09246094 -2.390625 5.0390625 C-1.59676528 3.35794781 -0.79880442 1.67877079 0 0 Z " fill="#266847" transform="translate(250,229)"/>
<path d="M0 0 C0.99 0.33 1.98 0.66 3 1 C1.40635476 3.00924878 -0.1987828 5.0069807 -1.8125 7 C-2.26431641 7.57234375 -2.71613281 8.1446875 -3.18164062 8.734375 C-4.38766724 10.21329815 -5.68933382 11.61296429 -7 13 C-7.99 13 -8.98 13 -10 13 C-8.32598022 9.04322598 -5.86850715 6.15535787 -3 3 C-2.34 3 -1.68 3 -1 3 C-0.67 2.01 -0.34 1.02 0 0 Z " fill="#1D6845" transform="translate(275,451)"/>
<path d="M0 0 C-1.25747642 3.77242926 -2.85046117 4.04253283 -6.21875 5.81640625 C-8.95094347 7.63187691 -10.30934171 10.24485315 -12 13 C-12.66 13 -13.32 13 -14 13 C-12.73189061 7.08215617 -9.7151965 4.41406916 -5 1 C-3 0 -3 0 0 0 Z " fill="#1B3840" transform="translate(967,465)"/>
<path d="M0 0 C0.66 0.33 1.32 0.66 2 1 C-3.445 9.415 -3.445 9.415 -9 18 C-9.33 16.68 -9.66 15.36 -10 14 C-9.34 13.01 -8.68 12.02 -8 11 C-7.34 11 -6.68 11 -6 11 C-5.67 9.35 -5.34 7.7 -5 6 C-4.01 5.67 -3.02 5.34 -2 5 C-2 3.68 -2 2.36 -2 1 C-1.34 0.67 -0.68 0.34 0 0 Z " fill="#D8F4E8" transform="translate(319,452)"/>
<path d="M0 0 C2.41564046 3.62346069 2.29781669 6.31603982 2.25 10.5 C2.25773438 11.17675781 2.26546875 11.85351562 2.2734375 12.55078125 C2.25884811 16.24919257 2.10264442 17.84603337 0 21 C-0.66 21 -1.32 21 -2 21 C-1.01 10.605 -1.01 10.605 0 0 Z " fill="#CEECDF" transform="translate(513,388)"/>
<path d="M0 0 C-2.51632049 2.85984547 -5.33885553 4.41468822 -8.6875 6.1875 C-9.68136719 6.71730469 -10.67523438 7.24710937 -11.69921875 7.79296875 C-12.45847656 8.19128906 -13.21773437 8.58960938 -14 9 C-14.33 8.01 -14.66 7.02 -15 6 C-13.07010782 4.80017556 -11.13080772 3.61547182 -9.1875 2.4375 C-8.10855469 1.77621094 -7.02960938 1.11492187 -5.91796875 0.43359375 C-3 -1 -3 -1 0 0 Z " fill="#246847" transform="translate(264,338)"/>
<path d="M0 0 C0.33 0 0.66 0 1 0 C1.99077818 3.68941709 2.24555993 5.46103466 0.63671875 8.9921875 C-0.32814453 10.41917969 -0.32814453 10.41917969 -1.3125 11.875 C-1.94800781 12.84179688 -2.58351562 13.80859375 -3.23828125 14.8046875 C-3.81964844 15.52914063 -4.40101563 16.25359375 -5 17 C-5.66 17 -6.32 17 -7 17 C-5.24009216 11.08030998 -2.60305395 5.58365008 0 0 Z " fill="#246946" transform="translate(233,265)"/>
<path d="M0 0 C3.77548716 1.33882523 6.61387689 3.01635888 9.75 5.5 C10.52859375 6.1084375 11.3071875 6.716875 12.109375 7.34375 C14 9 14 9 15 11 C13.02 11.99 13.02 11.99 11 13 C10.62488281 12.48050781 10.24976563 11.96101563 9.86328125 11.42578125 C6.81914561 7.27747551 3.74720709 3.52678314 0 0 Z " fill="#BFEDDC" transform="translate(373,252)"/>
<path d="M0 0 C4.8938496 0.41947282 6.73093997 2.48576046 10 6 C11.64864545 7.35555293 13.31003995 8.69631653 15 10 C14.67 11.32 14.34 12.64 14 14 C9.33333333 9.33333333 4.66666667 4.66666667 0 0 Z " fill="#D6F3E5" transform="translate(347,197)"/>
<path d="M0 0 C0.99 0.33 1.98 0.66 3 1 C-1.95 7.435 -1.95 7.435 -7 14 C-7.66 13.67 -8.32 13.34 -9 13 C-8.690625 12.401875 -8.38125 11.80375 -8.0625 11.1875 C-6.89790296 8.91043228 -6.89790296 8.91043228 -6 6 C-5.175 5.690625 -4.35 5.38125 -3.5 5.0625 C-2.675 4.711875 -1.85 4.36125 -1 4 C-0.11306697 1.95894361 -0.11306697 1.95894361 0 0 Z " fill="#216844" transform="translate(295,426)"/>
<path d="M0 0 C0.33 0 0.66 0 1 0 C0.60846221 5.48152908 -0.36839877 9.34670958 -3.0625 14.140625 C-4.03887737 16.07710679 -4.55071257 17.88460502 -5 20 C-5.99 19.67 -6.98 19.34 -8 19 C-5.36 12.73 -2.72 6.46 0 0 Z " fill="#1D6542" transform="translate(217,300)"/>
<path d="M0 0 C1.04449911 3.13349732 0.93423645 3.98968256 0 7 C-0.66 7 -1.32 7 -2 7 C-2.061875 7.680625 -2.12375 8.36125 -2.1875 9.0625 C-3.28538855 13.03178937 -5.49023975 15.78639555 -8 19 C-9 16 -9 16 -8.28735352 14.19067383 C-7.90506592 13.53607178 -7.52277832 12.88146973 -7.12890625 12.20703125 C-6.71962891 11.49482422 -6.31035156 10.78261719 -5.88867188 10.04882812 C-5.45103516 9.31083984 -5.01339844 8.57285156 -4.5625 7.8125 C-4.12873047 7.06291016 -3.69496094 6.31332031 -3.24804688 5.54101562 C-2.17442769 3.68872757 -1.08837319 1.8436575 0 0 Z " fill="#165B3B" transform="translate(341,418)"/>
<path d="M0 0 C0 0.99 0 1.98 0 3 C-4.22222222 6 -4.22222222 6 -7 6 C-7.23460937 6.62390625 -7.46921875 7.2478125 -7.7109375 7.890625 C-9.36823075 10.60255941 -10.6141599 10.88975997 -13.625 11.75 C-14.85089844 12.11351562 -14.85089844 12.11351562 -16.1015625 12.484375 C-17.04128906 12.73960937 -17.04128906 12.73960937 -18 13 C-15.9585653 10.84925153 -13.90083747 9.1484144 -11.42578125 7.51953125 C-10.75869141 7.07802734 -10.09160156 6.63652344 -9.40429688 6.18164062 C-8.71400391 5.72982422 -8.02371094 5.27800781 -7.3125 4.8125 C-6.61060547 4.34908203 -5.90871094 3.88566406 -5.18554688 3.40820312 C-3.45910505 2.26898641 -1.72982761 1.13406902 0 0 Z " fill="#256746" transform="translate(189,410)"/>
<path d="M0 0 C0.66 0.33 1.32 0.66 2 1 C1.67 7.93 1.34 14.86 1 22 C0.67 22 0.34 22 0 22 C-1.03970216 17.7339205 -1.13358472 13.69499722 -1.125 9.3125 C-1.12886719 8.63638672 -1.13273438 7.96027344 -1.13671875 7.26367188 C-1.12674825 2.2534965 -1.12674825 2.2534965 0 0 Z " fill="#14333D" transform="translate(880,351)"/>
<path d="M0 0 C0.66 0.33 1.32 0.66 2 1 C-8.18906606 10 -8.18906606 10 -15 10 C-12.38221206 7.0447272 -9.32416665 5.24167273 -5.9375 3.25 C-4.87402344 2.61578125 -3.81054688 1.9815625 -2.71484375 1.328125 C-1.81894531 0.88984375 -0.92304688 0.4515625 0 0 Z " fill="#D8F3E7" transform="translate(242,351)"/>
<path d="M0 0 C3.68000434 2.75839204 6.49505889 5.62075382 9.3125 9.25 C10.00988281 10.14203125 10.70726562 11.0340625 11.42578125 11.953125 C11.94527344 12.62859375 12.46476562 13.3040625 13 14 C12.34 14.66 11.68 15.32 11 16 C10.67 15.01 10.34 14.02 10 13 C9.34 13 8.68 13 8 13 C8 12.34 8 11.68 8 11 C7.01 10.67 6.02 10.34 5 10 C2 5.66666667 2 5.66666667 2 3 C1.34 3 0.68 3 0 3 C0 2.01 0 1.02 0 0 Z " fill="#296D4B" transform="translate(474,333)"/>
<path d="M0 0 C0 0.33 0 0.66 0 1 C-5.96533774 2.54656904 -11.9490696 3.83445193 -18 5 C-18.33 4.01 -18.66 3.02 -19 2 C-16.77376199 1.46678738 -14.54384996 0.94889881 -12.3125 0.4375 C-11.07113281 0.14746094 -9.82976563 -0.14257812 -8.55078125 -0.44140625 C-5.23888546 -0.96241956 -3.18139847 -0.91852996 0 0 Z " fill="#1D3E4A" transform="translate(912,294)"/>
<path d="M0 0 C0.66 0.33 1.32 0.66 2 1 C-5.26044299 10.04333284 -5.26044299 10.04333284 -11 12 C-11.99 11.67 -12.98 11.34 -14 11 C-11.91038416 9.37474323 -9.87162353 7.9275825 -7.5625 6.625 C-4.61054943 4.75303134 -2.39549192 2.53237718 0 0 Z " fill="#12313B" transform="translate(1146,261)"/>
<path d="M0 0 C0.66 0.33 1.32 0.66 2 1 C0.86086621 4.41740136 -0.13412137 5.15619349 -2.875 7.375 C-5.97640439 9.99285209 -8.20310965 12.29391365 -10 16 C-10.64428711 14.18847656 -10.64428711 14.18847656 -11 12 C-9.25251356 9.71732735 -7.56837316 7.77770249 -5.5625 5.75 C-5.03333984 5.19570312 -4.50417969 4.64140625 -3.95898438 4.0703125 C-2.65043595 2.70282046 -1.3266196 1.34996811 0 0 Z " fill="#1A363F" transform="translate(1210,246)"/>
<path d="M0 0 C0.66 0 1.32 0 2 0 C1.125 3.875 1.125 3.875 0 5 C-1.4887186 5.08669432 -2.981445 5.10703494 -4.47265625 5.09765625 C-5.37177734 5.09443359 -6.27089844 5.09121094 -7.19726562 5.08789062 C-8.14279297 5.07951172 -9.08832031 5.07113281 -10.0625 5.0625 C-11.01189453 5.05798828 -11.96128906 5.05347656 -12.93945312 5.04882812 C-15.29303065 5.0370011 -17.64648477 5.02052025 -20 5 C-20 4.67 -20 4.34 -20 4 C-13.4 3.34 -6.8 2.68 0 2 C0 1.34 0 0.68 0 0 Z " fill="#185939" transform="translate(210,524)"/>
<path d="M0 0 C1.3303125 0.37125 1.3303125 0.37125 2.6875 0.75 C-0.24153058 3.08364352 -3.19818203 4.79960836 -6.5625 6.4375 C-7.90054688 7.09298828 -7.90054688 7.09298828 -9.265625 7.76171875 C-9.94109375 8.08785156 -10.6165625 8.41398437 -11.3125 8.75 C-11.9725 8.09 -12.6325 7.43 -13.3125 6.75 C-11.9925 6.75 -10.6725 6.75 -9.3125 6.75 C-8.9825 5.76 -8.6525 4.77 -8.3125 3.75 C-5.3943171 0.74844045 -4.25938904 -0.32146332 0 0 Z " fill="#216B48" transform="translate(206.3125,369.25)"/>
<path d="M0 0 C-1.44536787 3.5667949 -3.19740946 5.18530899 -6.375 7.3125 C-7.14585937 7.84488281 -7.91671875 8.37726563 -8.7109375 8.92578125 C-11 10 -11 10 -13.2890625 9.66796875 C-13.85367187 9.44753906 -14.41828125 9.22710937 -15 9 C-12.87885041 7.49428254 -10.75346385 5.99531321 -8.625 4.5 C-8.02171875 4.07074219 -7.4184375 3.64148438 -6.796875 3.19921875 C-2.2265625 0 -2.2265625 0 0 0 Z " fill="#D6F1E5" transform="translate(309,310)"/>
<path d="M0 0 C0.33 0.66 0.66 1.32 1 2 C-0.29015746 3.62619848 -1.58217697 5.25091983 -2.875 6.875 C-3.59429687 7.77992188 -4.31359375 8.68484375 -5.0546875 9.6171875 C-7 12 -7 12 -9 14 C-9.99 13.67 -10.98 13.34 -12 13 C-8.04 8.71 -4.08 4.42 0 0 Z " fill="#E4FAF0" transform="translate(246,489)"/>
<path d="M0 0 C3.63 0 7.26 0 11 0 C10.67 0.99 10.34 1.98 10 3 C8.02 3 6.04 3 4 3 C3.34 4.65 2.68 6.3 2 8 C1.34 7.67 0.68 7.34 0 7 C0 4.69 0 2.38 0 0 Z " fill="#12333E" transform="translate(1061,465)"/>
<path d="M0 0 C0.99 0.33 1.98 0.66 3 1 C1.2527456 2.29537826 -0.49791517 3.58616273 -2.25 4.875 C-3.22453125 5.59429687 -4.1990625 6.31359375 -5.203125 7.0546875 C-9.48169373 10.03056351 -9.48169373 10.03056351 -12 11 C-12.66 10.67 -13.32 10.34 -14 10 C-11.73784237 8.29964638 -9.46661767 6.61484079 -7.1875 4.9375 C-6.54490234 4.45216797 -5.90230469 3.96683594 -5.24023438 3.46679688 C-3.54907099 2.23128373 -1.77779254 1.10723982 0 0 Z " fill="#1D6241" transform="translate(215,392)"/>
<path d="M0 0 C0.66 0.33 1.32 0.66 2 1 C-4.435 5.95 -4.435 5.95 -11 11 C-11.33 9.68 -11.66 8.36 -12 7 C-7.375 4 -7.375 4 -4 4 C-3.67 3.01 -3.34 2.02 -3 1 C-2.01 0.67 -1.02 0.34 0 0 Z " fill="#D9F7EB" transform="translate(251,364)"/>
<path d="M0 0 C4.26458299 3.50305031 6.24862334 7.87357457 8 13 C8.25 16.0625 8.25 16.0625 8 18 C7.34 18 6.68 18 6 18 C4.5216774 15.04335481 4.93967217 12.25770263 5 9 C4.34 9 3.68 9 3 9 C1.76078698 6.02588876 0.69941596 3.14737182 0 0 Z " fill="#276647" transform="translate(380,259)"/>
<path d="M0 0 C13.365 0.495 13.365 0.495 27 1 C27 1.33 27 1.66 27 2 C23.06290089 2.19665429 19.12531328 2.38075477 15.1875 2.5625 C14.06794922 2.61857422 12.94839844 2.67464844 11.79492188 2.73242188 C10.18520508 2.80493164 10.18520508 2.80493164 8.54296875 2.87890625 C7.0583313 2.94960327 7.0583313 2.94960327 5.54370117 3.02172852 C3 3 3 3 0 2 C0 1.34 0 0.68 0 0 Z " fill="#BCDDCD" transform="translate(178,528)"/>
<path d="M0 0 C0.99 0 1.98 0 3 0 C1.59187652 4.48039289 -0.72349388 6.72349388 -4 10 C-4.86119134 12.17346568 -4.86119134 12.17346568 -5 14 C-5.99 13.67 -6.98 13.34 -8 13 C-7.23302204 11.58124235 -6.46123222 10.16508548 -5.6875 8.75 C-5.04361328 7.56664062 -5.04361328 7.56664062 -4.38671875 6.359375 C-3.04152508 4.07065112 -1.76895673 1.98268672 0 0 Z " fill="#236B49" transform="translate(309,470)"/>
<path d="M0 0 C0.66 0 1.32 0 2 0 C0.37815499 3.58513106 -1.79256239 6.58992323 -4.125 9.75 C-4.84945313 10.73484375 -5.57390625 11.7196875 -6.3203125 12.734375 C-6.87460937 13.48203125 -7.42890625 14.2296875 -8 15 C-8.33 14.01 -8.66 13.02 -9 12 C-7.3828125 9.3359375 -7.3828125 9.3359375 -5.125 6.375 C-4.38507813 5.39273437 -3.64515625 4.41046875 -2.8828125 3.3984375 C-1 1 -1 1 0 0 Z " fill="#1A613F" transform="translate(339,370)"/>
<path d="M0 0 C0.99 0 1.98 0 3 0 C1.25192871 5.46737191 -0.65794081 10.75824848 -3 16 C-3.33 16 -3.66 16 -4 16 C-4.54046516 10.41519339 -2.47382709 4.94765418 0 0 Z " fill="#216242" transform="translate(383,298)"/>
<path d="M0 0 C-2.84180622 1.89453748 -5.31564815 3.00192814 -8.5 4.1875 C-9.4590625 4.55230469 -10.418125 4.91710937 -11.40625 5.29296875 C-14 6 -14 6 -17 5 C-14 3 -14 3 -12 3 C-12 2.34 -12 1.68 -12 1 C-7.93631321 0.22596442 -4.13574827 -0.0984702 0 0 Z " fill="#266A49" transform="translate(430,453)"/>
<path d="M0 0 C0.66 0.99 1.32 1.98 2 3 C-0.29032311 3.83719383 -2.58210957 4.6698929 -4.875 5.5 C-5.85146484 5.85771484 -5.85146484 5.85771484 -6.84765625 6.22265625 C-11.7734375 8 -11.7734375 8 -14 8 C-14 7.34 -14 6.68 -14 6 C-4.58997722 1.77676538 -4.58997722 1.77676538 0 0 Z " fill="#216545" transform="translate(344,481)"/>
<path d="M0 0 C5.61 0 11.22 0 17 0 C17 0.99 17 1.98 17 3 C16.443125 2.91621094 15.88625 2.83242188 15.3125 2.74609375 C9.94208892 2.02943416 5.34616568 2.12517289 0 3 C0 2.01 0 1.02 0 0 Z " fill="#1F3C46" transform="translate(1147,465)"/>
<path d="M0 0 C0.67578125 1.7734375 0.67578125 1.7734375 1 4 C-0.14453125 5.8515625 -0.14453125 5.8515625 -1.8125 7.625 C-2.35519531 8.21539062 -2.89789062 8.80578125 -3.45703125 9.4140625 C-4.62877641 10.61843854 -5.81182738 11.81182738 -7 13 C-7.99 12.67 -8.98 12.34 -10 12 C-9.52949219 11.55269531 -9.05898438 11.10539062 -8.57421875 10.64453125 C-5.14923351 7.31882095 -2.21128342 4.29249134 0 0 Z " fill="#173540" transform="translate(740,384)"/>
<path d="M0 0 C0.99 0.33 1.98 0.66 3 1 C-1.62 4.3 -6.24 7.6 -11 11 C-11.66 10.34 -12.32 9.68 -13 9 C-12.34 9 -11.68 9 -11 9 C-11 8.34 -11 7.68 -11 7 C-9.35 6.67 -7.7 6.34 -6 6 C-6 5.34 -6 4.68 -6 4 C-5.01 4 -4.02 4 -3 4 C-3 3.34 -3 2.68 -3 2 C-2.01 1.34 -1.02 0.68 0 0 Z " fill="#DCF7EB" transform="translate(220,386)"/>
<path d="M0 0 C-4.29 2.64 -8.58 5.28 -13 8 C-13.66 7.34 -14.32 6.68 -15 6 C-12.60490662 3.10067643 -10.68754757 2.49831724 -7 2 C-7 1.34 -7 0.68 -7 0 C-4 -1 -4 -1 0 0 Z " fill="#226846" transform="translate(290,323)"/>
<path d="M0 0 C6.27 0 12.54 0 19 0 C18.67 0.66 18.34 1.32 18 2 C16.96359375 1.94199219 15.9271875 1.88398437 14.859375 1.82421875 C13.48962844 1.77730962 12.11983308 1.73181068 10.75 1.6875 C10.06808594 1.64560547 9.38617187 1.60371094 8.68359375 1.56054688 C6.387149 1.45252862 6.387149 1.45252862 3 2 C0.48294628 4.36128056 0.48294628 4.36128056 -1 7 C-0.67 4.69 -0.34 2.38 0 0 Z " fill="#E2F3F6" transform="translate(585,516)"/>
<path d="M0 0 C0.99 0.33 1.98 0.66 3 1 C2.06862408 2.29608947 1.1296434 3.58671632 0.1875 4.875 C-0.33457031 5.59429687 -0.85664063 6.31359375 -1.39453125 7.0546875 C-3 9 -3 9 -6 11 C-5.55530671 5.96014269 -3.28656638 3.62365012 0 0 Z " fill="#276C4B" transform="translate(251,479)"/>
<path d="M0 0 C0.74507812 0.00451172 1.49015625 0.00902344 2.2578125 0.01367188 C4.0885764 0.02540754 5.91929873 0.0433415 7.75 0.0625 C7.42 0.7225 7.09 1.3825 6.75 2.0625 C1.96691298 2.93939929 -1.50109747 3.14796344 -6.25 2.0625 C-7.24 2.3925 -8.23 2.7225 -9.25 3.0625 C-10.24 2.4025 -11.23 1.7425 -12.25 1.0625 C-8.15996141 -0.08732602 -4.21822949 -0.04844256 0 0 Z " fill="#0C2A33" transform="translate(1122.25,464.9375)"/>
<path d="M0 0 C3.96 0 7.92 0 12 0 C12 1.98 12 3.96 12 6 C11.01 5.34 10.02 4.68 9 4 C9 3.01 9 2.02 9 1 C8.071875 1.33 7.14375 1.66 6.1875 2 C3 3 3 3 0 3 C0 2.01 0 1.02 0 0 Z " fill="#163540" transform="translate(910,465)"/>
<path d="M0 0 C-0.22265625 1.828125 -0.22265625 1.828125 -1 4 C-2.99609375 5.484375 -2.99609375 5.484375 -5.4375 6.75 C-6.24058594 7.17796875 -7.04367187 7.6059375 -7.87109375 8.046875 C-10 9 -10 9 -12 9 C-12 8.34 -12 7.68 -12 7 C-11.01 7 -10.02 7 -9 7 C-9 6.34 -9 5.68 -9 5 C-8.01 5 -7.02 5 -6 5 C-6 4.34 -6 3.68 -6 3 C-5.34 3 -4.68 3 -4 3 C-4 2.34 -4 1.68 -4 1 C-2 0 -2 0 0 0 Z " fill="#236746" transform="translate(491,425)"/>
<path d="M0 0 C5.94 0 11.88 0 18 0 C18 0.66 18 1.32 18 2 C16.93072266 1.98259766 16.93072266 1.98259766 15.83984375 1.96484375 C10.43674634 1.91393974 5.32171525 2.05391729 0 3 C0 2.01 0 1.02 0 0 Z " fill="#213D45" transform="translate(727,465)"/>
<path d="M0 0 C0 0.66 0 1.32 0 2 C-1.63631892 3.04892238 -3.30485863 4.04906703 -5 5 C-5.33 5.33 -5.66 5.66 -6 6 C-7.51928038 6.07179964 -9.04167482 6.08392007 -10.5625 6.0625 C-11.38878906 6.05347656 -12.21507812 6.04445313 -13.06640625 6.03515625 C-13.70449219 6.02355469 -14.34257812 6.01195312 -15 6 C-12.29954818 4.19969878 -9.93322119 3.06622934 -6.9375 1.875 C-6.05964844 1.52179688 -5.18179687 1.16859375 -4.27734375 0.8046875 C-2 0 -2 0 0 0 Z " fill="#CFEDDF" transform="translate(447,447)"/>
<path d="M0 0 C0.33 0.99 0.66 1.98 1 3 C-0.9375 6.1875 -0.9375 6.1875 -3 9 C-3.33 8.34 -3.66 7.68 -4 7 C-5.32 7.33 -6.64 7.66 -8 8 C-7.04578192 6.85073734 -6.08647955 5.70569459 -5.125 4.5625 C-4.59132813 3.92441406 -4.05765625 3.28632813 -3.5078125 2.62890625 C-2 1 -2 1 0 0 Z " fill="#D0F3E6" transform="translate(358,268)"/>
<path d="M0 0 C5.31027254 1.46032495 9.46330032 3.98320986 14 7 C11 8 11 8 8.125 6.75 C7.09375 6.1725 6.0625 5.595 5 5 C4.05125 4.484375 3.1025 3.96875 2.125 3.4375 C1.073125 2.7259375 1.073125 2.7259375 0 2 C0 1.34 0 0.68 0 0 Z " fill="#276948" transform="translate(312,172)"/>
<path d="M0 0 C0.33 0.99 0.66 1.98 1 3 C0.401875 3.556875 -0.19625 4.11375 -0.8125 4.6875 C-2.9863446 6.98556429 -4.46898083 9.24416549 -6 12 C-6.99 11.67 -7.98 11.34 -9 11 C-6.03 7.37 -3.06 3.74 0 0 Z " fill="#D3EDE2" transform="translate(273,457)"/>
<path d="M0 0 C0.66 0.33 1.32 0.66 2 1 C-2.29 3.97 -6.58 6.94 -11 10 C-11.33 9.01 -11.66 8.02 -12 7 C-11.01 7 -10.02 7 -9 7 C-8.67 6.01 -8.34 5.02 -8 4 C-7.01 4 -6.02 4 -5 4 C-5 3.34 -5 2.68 -5 2 C-2.625 0.9375 -2.625 0.9375 0 0 Z " fill="#DEF7EB" transform="translate(188,409)"/>
<path d="M0 0 C0.66 0 1.32 0 2 0 C0.6744419 3.62276315 -0.94346955 6.63505348 -3.125 9.8125 C-3.66382813 10.60269531 -4.20265625 11.39289063 -4.7578125 12.20703125 C-5.37269531 13.09455078 -5.37269531 13.09455078 -6 14 C-7 11 -7 11 -6.0625 8.8125 C-5.711875 8.214375 -5.36125 7.61625 -5 7 C-4.34 7 -3.68 7 -3 7 C-2.814375 6.1028125 -2.814375 6.1028125 -2.625 5.1875 C-2 3 -2 3 0 0 Z " fill="#1A5C3C" transform="translate(367,330)"/>
<path d="M0 0 C0.99 0 1.98 0 3 0 C3 0.66 3 1.32 3 2 C3.66 2 4.32 2 5 2 C5.33 3.32 5.66 4.64 6 6 C6.66 6 7.32 6 8 6 C8.33 7.98 8.66 9.96 9 12 C8.01 12.495 8.01 12.495 7 13 C6.66226562 12.31292969 6.32453125 11.62585938 5.9765625 10.91796875 C5.53054688 10.01691406 5.08453125 9.11585938 4.625 8.1875 C4.18414062 7.29417969 3.74328125 6.40085937 3.2890625 5.48046875 C1.98133095 2.85443619 1.98133095 2.85443619 0 0 Z " fill="#1A613F" transform="translate(385,259)"/>
<path d="M0 0 C0.99 0.33 1.98 0.66 3 1 C3 1.99 3 2.98 3 4 C5.31 4 7.62 4 10 4 C10 4.33 10 4.66 10 5 C6.04 5 2.08 5 -2 5 C-2 3.68 -2 2.36 -2 1 C-1.34 0.67 -0.68 0.34 0 0 Z " fill="#04222C" transform="translate(1133,523)"/>
<path d="M0 0 C0.33 0.99 0.66 1.98 1 3 C-0.32 3.33 -1.64 3.66 -3 4 C-3 4.66 -3 5.32 -3 6 C-4.6875 8.125 -4.6875 8.125 -7 10 C-9.75 10.25 -9.75 10.25 -12 10 C-8.40945767 6.11024581 -4.26101118 3.10267805 0 0 Z " fill="#236645" transform="translate(277,346)"/>
<path d="M0 0 C3.38746512 1.12915504 4.37451366 2.22743073 6.6875 4.875 C7.31011719 5.57367188 7.93273437 6.27234375 8.57421875 6.9921875 C10 9 10 9 10 12 C6.56803255 10.85601085 5.95251462 9.97505774 3.875 7.125 C3.35679687 6.42632812 2.83859375 5.72765625 2.3046875 5.0078125 C1 3 1 3 0 0 Z " fill="#286B4A" transform="translate(415,266)"/>
<path d="M0 0 C-1.41225926 0.67595315 -2.83002905 1.34040059 -4.25 2 C-5.43335938 2.556875 -5.43335938 2.556875 -6.640625 3.125 C-9 4 -9 4 -13 4 C-12.67 3.01 -12.34 2.02 -12 1 C-10.0390625 0.234375 -10.0390625 0.234375 -7.625 -0.25 C-6.83351563 -0.42015625 -6.04203125 -0.5903125 -5.2265625 -0.765625 C-3 -1 -3 -1 0 0 Z " fill="#115C37" transform="translate(299,172)"/>
<path d="M0 0 C4.62 0 9.24 0 14 0 C14 0.33 14 0.66 14 1 C10.7 1.33 7.4 1.66 4 2 C3.34 3.65 2.68 5.3 2 7 C0.5393715 4.35261084 0 3.10551666 0 0 Z " fill="#1B3640" transform="translate(798,465)"/>
<path d="M0 0 C0.66 0.66 1.32 1.32 2 2 C-1.07182681 5.395177 -4.13959595 7.87597306 -8.8125 8.1875 C-9.8953125 8.0946875 -9.8953125 8.0946875 -11 8 C-7.38813161 5.25498003 -3.69604737 2.62987986 0 0 Z " fill="#1B3A44" transform="translate(729,397)"/>
<path d="M0 0 C0.85354942 3.13402498 1.21385572 4.91867395 0 8 C-1.9375 10.75 -1.9375 10.75 -4 13 C-4.66 13 -5.32 13 -6 13 C-4.31326082 8.50202887 -2.18326108 4.27113698 0 0 Z " fill="#206543" transform="translate(362,380)"/>
<path d="M0 0 C0.66 0.99 1.32 1.98 2 3 C1.2575 3.515625 0.515 4.03125 -0.25 4.5625 C-3.53628545 7.47534392 -4.98763759 10.12433906 -7 14 C-7.66 13.67 -8.32 13.34 -9 13 C-7.8782037 11.2063257 -6.75245517 9.4151227 -5.625 7.625 C-4.99851562 6.62726563 -4.37203125 5.62953125 -3.7265625 4.6015625 C-2 2 -2 2 0 0 Z " fill="#1B3941" transform="translate(839,328)"/>
<path d="M0 0 C0.66 0 1.32 0 2 0 C0.40109514 5.19644079 -1.74138003 10.06612142 -4 15 C-4.33 15 -4.66 15 -5 15 C-5.30017023 10.83513802 -4.45324946 8.34984273 -2.5 4.6875 C-2.0359375 3.80449219 -1.571875 2.92148437 -1.09375 2.01171875 C-0.7328125 1.34785156 -0.371875 0.68398438 0 0 Z " fill="#DAF4E8" transform="translate(208,317)"/>
<path d="M0 0 C-1.10095362 3.30286086 -1.6896019 3.78510901 -4.4375 5.6875 C-5.36369141 6.34298828 -5.36369141 6.34298828 -6.30859375 7.01171875 C-8 8 -8 8 -10 8 C-8.18341255 3.37595922 -5.13109685 0 0 0 Z " fill="#206846" transform="translate(324,297)"/>
<path d="M0 0 C1.18239258 0.00676758 1.18239258 0.00676758 2.38867188 0.01367188 C4.32164761 0.02538688 6.25458393 0.04332002 8.1875 0.0625 C8.1875 0.3925 8.1875 0.7225 8.1875 1.0625 C6.86685547 1.15337891 6.86685547 1.15337891 5.51953125 1.24609375 C3.77736328 1.37177734 3.77736328 1.37177734 2 1.5 C0.85144531 1.58121094 -0.29710937 1.66242188 -1.48046875 1.74609375 C-4.73882064 1.99084337 -4.73882064 1.99084337 -7.59375 2.65625 C-10.34043268 3.15916373 -11.49313539 2.52284068 -13.8125 1.0625 C-9.18790756 -0.11450048 -4.73383538 -0.05158412 0 0 Z " fill="#23414D" transform="translate(1325.8125,223.9375)"/>
<path d="M0 0 C2.9375 0.375 2.9375 0.375 6 1 C6.33 1.66 6.66 2.32 7 3 C7.99 3 8.98 3 10 3 C10 3.66 10 4.32 10 5 C8.375 5.75 8.375 5.75 6 6 C2.75 4.1875 2.75 4.1875 0 2 C0 1.34 0 0.68 0 0 Z " fill="#246B48" transform="translate(161,518)"/>
<path d="M0 0 C-4.34384737 3.84740767 -7.25574154 5 -13 5 C-8.58490204 0.69258736 -6.42286118 -0.64228612 0 0 Z " fill="#CDDDDF" transform="translate(1039,474)"/>
<path d="M0 0 C-3.63 1.98 -7.26 3.96 -11 6 C-11 4.68 -11 3.36 -11 2 C-4.5 -1.125 -4.5 -1.125 0 0 Z " fill="#246B48" transform="translate(249,348)"/>
<path d="M0 0 C0.33 0.99 0.66 1.98 1 3 C-3.455 6.96 -3.455 6.96 -8 11 C-8.66 10.67 -9.32 10.34 -10 10 C-6.7 6.7 -3.4 3.4 0 0 Z " fill="#387457" transform="translate(344,288)"/>
<path d="M0 0 C0 0.99 0 1.98 0 3 C-1.65385233 4.34919532 -3.321702 5.68133728 -5 7 C-6.31165257 9.11660427 -6.31165257 9.11660427 -7 11 C-7.66 11 -8.32 11 -9 11 C-7.59928507 5.70841026 -4.14512755 3.22521956 0 0 Z " fill="#214049" transform="translate(1100,241)"/>
<path d="M0 0 C2.0625 0.4375 2.0625 0.4375 4 1 C1.14415227 2.90389849 -0.9311762 3.69462177 -4.1875 4.625 C-5.08855469 4.88539063 -5.98960937 5.14578125 -6.91796875 5.4140625 C-7.94857422 5.70410156 -7.94857422 5.70410156 -9 6 C-9.66 5.34 -10.32 4.68 -11 4 C-10.28972656 3.79503906 -9.57945312 3.59007812 -8.84765625 3.37890625 C-7.92855469 3.10949219 -7.00945312 2.84007812 -6.0625 2.5625 C-4.68771484 2.16224609 -4.68771484 2.16224609 -3.28515625 1.75390625 C-1.0597507 1.20973949 -1.0597507 1.20973949 0 0 Z " fill="#246846" transform="translate(373,471)"/>
<path d="M0 0 C1 3 1 3 0.14453125 4.7890625 C-0.51482422 5.69785156 -0.51482422 5.69785156 -1.1875 6.625 C-1.61417969 7.23601562 -2.04085938 7.84703125 -2.48046875 8.4765625 C-4.26692012 10.26760629 -5.53471865 10.60935585 -8 11 C-5.50127818 7.1626772 -2.9156164 3.54039134 0 0 Z " fill="#D3F2E3" transform="translate(286,441)"/>
<path d="M0 0 C0.99 0.495 0.99 0.495 2 1 C4.0374763 1.22858114 6.08040303 1.41024278 8.125 1.5625 C9.76855469 1.68818359 9.76855469 1.68818359 11.4453125 1.81640625 C12.28835938 1.87699219 13.13140625 1.93757812 14 2 C14 1.34 14 0.68 14 0 C14.99 0 15.98 0 17 0 C16.67 0.99 16.34 1.98 16 3 C10.72 3 5.44 3 0 3 C0 2.01 0 1.02 0 0 Z " fill="#274048" transform="translate(814,526)"/>
<path d="M0 0 C0.33 0.66 0.66 1.32 1 2 C-3.95 3.485 -3.95 3.485 -9 5 C-9.33 4.34 -9.66 3.68 -10 3 C-6.48812804 0.59185923 -4.27343092 -0.36629408 0 0 Z " fill="#226947" transform="translate(458,441)"/>
<path d="M0 0 C0.33 0.99 0.66 1.98 1 3 C-1.3500189 5.72107452 -3.55674975 6.96702492 -7 8 C-7.99 7.67 -8.98 7.34 -10 7 C-6.7 4.69 -3.4 2.38 0 0 Z " fill="#1B3A43" transform="translate(982,399)"/>
<path d="M0 0 C0.66 0 1.32 0 2 0 C0.22054913 4.04420651 -2.39529673 7.46078487 -5 11 C-5.33 9.68 -5.66 8.36 -6 7 C-5.01 6.67 -4.02 6.34 -3 6 C-2.40929986 4.05396726 -2.40929986 4.05396726 -2 2 C-1.34 1.34 -0.68 0.68 0 0 Z " fill="#226746" transform="translate(324,390)"/>
<path d="M0 0 C0.66 0 1.32 0 2 0 C0.61811547 3.21043882 -0.92421903 5.04936365 -3.625 7.25 C-4.57246094 8.03117187 -4.57246094 8.03117187 -5.5390625 8.828125 C-6.02117187 9.21484375 -6.50328125 9.6015625 -7 10 C-7 8.68 -7 7.36 -7 6 C-6.401875 5.7525 -5.80375 5.505 -5.1875 5.25 C-2.71222841 3.83555909 -1.66569196 2.27139812 0 0 Z " fill="#1C5F3E" transform="translate(343,279)"/>
<path d="M0 0 C-0.34879632 3.25543229 -1.02133261 4.01873107 -3.5625 6.25 C-4.366875 6.8275 -5.17125 7.405 -6 8 C-6.33 7.01 -6.66 6.02 -7 5 C-2.25 0 -2.25 0 0 0 Z " fill="#2C7452" transform="translate(218,518)"/>
<path d="M0 0 C0.33 0 0.66 0 1 0 C0.67 3.96 0.34 7.92 0 12 C-0.99 12.33 -1.98 12.66 -3 13 C-2.68991116 11.39536551 -2.37683713 9.79130769 -2.0625 8.1875 C-1.88847656 7.29417969 -1.71445313 6.40085937 -1.53515625 5.48046875 C-1 3 -1 3 0 0 Z " fill="#2A454D" transform="translate(1134,511)"/>
<path d="M0 0 C0.33 0.99 0.66 1.98 1 3 C-2.32307692 6.93846154 -2.32307692 6.93846154 -5.75 7.25 C-6.4925 7.1675 -7.235 7.085 -8 7 C-5.4837822 4.39391727 -2.94865641 2.10618315 0 0 Z " fill="#226A46" transform="translate(264,356)"/>
<path d="M0 0 C0.66 0.99 1.32 1.98 2 3 C1.375 6.0625 1.375 6.0625 0 9 C-2.125 10.375 -2.125 10.375 -4 11 C-2.7874262 7.27566618 -1.49140021 3.62197194 0 0 Z " fill="#206241" transform="translate(377,349)"/>
<path d="M0 0 C0.66 0.33 1.32 0.66 2 1 C-0.88406243 4.40843742 -2.3708265 5.86591384 -6.8125 6.8125 C-8.3903125 6.9053125 -8.3903125 6.9053125 -10 7 C-6.81404865 4.36021174 -3.69029454 1.89501612 0 0 Z " fill="#D3F1E4" transform="translate(280,328)"/>
<path d="M0 0 C0.33 0.99 0.66 1.98 1 3 C-0.09445838 3.86657116 -1.20097781 4.71792724 -2.3125 5.5625 C-2.92738281 6.03816406 -3.54226563 6.51382812 -4.17578125 7.00390625 C-4.77777344 7.33261719 -5.37976563 7.66132813 -6 8 C-6.99 7.67 -7.98 7.34 -9 7 C-6.03 4.69 -3.06 2.38 0 0 Z " fill="#13333C" transform="translate(856,313)"/>
<path d="M0 0 C0.66 0 1.32 0 2 0 C0.49776416 4.20626034 -2.28550034 5.73900021 -6 8 C-6 6.68 -6 5.36 -6 4 C-3 2 -3 2 0 2 C0 1.34 0 0.68 0 0 Z " fill="#256A49" transform="translate(332,289)"/>
<path d="M0 0 C-1.44253657 3.36591866 -3.33264727 5.51047079 -6 8 C-6.33 7.01 -6.66 6.02 -7 5 C-2.25 0 -2.25 0 0 0 Z " fill="#1D3A43" transform="translate(1003,218)"/>
<path d="M0 0 C0.66 0.33 1.32 0.66 2 1 C-1.0684847 3.97550031 -2.46236331 4.96474513 -6.8125 5.25 C-7.864375 5.1675 -8.91625 5.085 -10 5 C-6.76527494 2.84351662 -3.62848922 1.38542316 0 0 Z " fill="#D5F0E5" transform="translate(479,434)"/>
<path d="M0 0 C0 0.66 0 1.32 0 2 C-2.1875 3.5078125 -2.1875 3.5078125 -5 5.125 C-5.928125 5.66382813 -6.85625 6.20265625 -7.8125 6.7578125 C-8.8953125 7.37269531 -8.8953125 7.37269531 -10 8 C-9.62317841 5.54291673 -9.4083229 4.33157047 -7.44140625 2.734375 C-2.22222222 0 -2.22222222 0 0 0 Z " fill="#1A353F" transform="translate(1031,405)"/>
<path d="M0 0 C0.99 0.33 1.98 0.66 3 1 C0.69 3.97 -1.62 6.94 -4 10 C-4.33 9.01 -4.66 8.02 -5 7 C-4.34 6.01 -3.68 5.02 -3 4 C-2.34 4 -1.68 4 -1 4 C-0.67 2.68 -0.34 1.36 0 0 Z " fill="#236746" transform="translate(315,401)"/>
<path d="M0 0 C0.99 0.33 1.98 0.66 3 1 C-2.29230769 5.92307692 -2.29230769 5.92307692 -5.875 6.3125 C-6.926875 6.1578125 -6.926875 6.1578125 -8 6 C-5.38485683 3.87961365 -2.80362384 1.86908256 0 0 Z " fill="#206844" transform="translate(198,404)"/>
<path d="M0 0 C0.99 0.33 1.98 0.66 3 1 C0.42215154 3.64752004 -1.91648098 5.94432065 -5 8 C-5 4 -5 4 -2.6875 1.6875 C-1.800625 1.130625 -0.91375 0.57375 0 0 Z " fill="#143842" transform="translate(644,321)"/>
<path d="M0 0 C0.66 0 1.32 0 2 0 C0.68938409 4.23429756 -0.94356259 8.07407404 -3 12 C-3.88336837 9.5332355 -4.1312406 8.36140628 -3.22265625 5.859375 C-2.83980469 5.16328125 -2.45695313 4.4671875 -2.0625 3.75 C-1.68222656 3.04359375 -1.30195313 2.3371875 -0.91015625 1.609375 C-0.60980469 1.07828125 -0.30945313 0.5471875 0 0 Z " fill="#E3FCF1" transform="translate(253,219)"/>
<path d="M0 0 C0.99 0.33 1.98 0.66 3 1 C0.69 3.64 -1.62 6.28 -4 9 C-4.33 8.34 -4.66 7.68 -5 7 C-3.35 4.69 -1.7 2.38 0 0 Z " fill="#165938" transform="translate(264,464)"/>
<path d="M0 0 C3.9492568 0.55105909 7.34920174 1.38935371 11 3 C11 3.66 11 4.32 11 5 C7.37 4.01 3.74 3.02 0 2 C0 1.34 0 0.68 0 0 Z " fill="#1E3B43" transform="translate(624,418)"/>
<path d="M0 0 C1.1484375 1.734375 1.1484375 1.734375 2 4 C1.1015625 6.140625 1.1015625 6.140625 -0.375 8.25 C-0.85710937 8.95640625 -1.33921875 9.6628125 -1.8359375 10.390625 C-2.22007812 10.92171875 -2.60421875 11.4528125 -3 12 C-3.5859375 10.08984375 -3.5859375 10.08984375 -4 8 C-3.02246356 6.97803008 -2.0194119 5.98020375 -1 5 C-0.27802838 2.39388923 -0.27802838 2.39388923 0 0 Z " fill="#256748" transform="translate(510,403)"/>
<path d="M0 0 C-0.8125 1.9375 -0.8125 1.9375 -2 4 C-5.13349732 5.04449911 -5.98968256 4.93423645 -9 4 C-2.25 0 -2.25 0 0 0 Z " fill="#DAF4E9" transform="translate(218,366)"/>
<path d="M0 0 C0.33 0.66 0.66 1.32 1 2 C-0.23734984 3.03613033 -1.49044637 4.05347802 -2.75 5.0625 C-3.79414063 5.91521484 -3.79414063 5.91521484 -4.859375 6.78515625 C-7 8 -7 8 -11 7 C-7.37 4.69 -3.74 2.38 0 0 Z " fill="#D6F4E8" transform="translate(269,335)"/>
<path d="M0 0 C0.33 1.32 0.66 2.64 1 4 C-1.4375 6.75 -1.4375 6.75 -4 9 C-4.66 8.67 -5.32 8.34 -6 8 C-4.02 5.36 -2.04 2.72 0 0 Z " fill="#1A3841" transform="translate(585,323)"/>
<path d="M0 0 C0.66 0.66 1.32 1.32 2 2 C-1.465 4.97 -1.465 4.97 -5 8 C-5.66 7.34 -6.32 6.68 -7 6 C-4.69 4.02 -2.38 2.04 0 0 Z " fill="#236B48" transform="translate(309,320)"/>
<path d="M0 0 C1.32 0.33 2.64 0.66 4 1 C2.71034824 2.37562854 1.37310707 3.70766393 0 5 C-0.66 5 -1.32 5 -2 5 C-2.33 5.99 -2.66 6.98 -3 8 C-3.66 7.67 -4.32 7.34 -5 7 C-3.35 4.69 -1.7 2.38 0 0 Z " fill="#236C49" transform="translate(358,271)"/>
<path d="M0 0 C0.33 0 0.66 0 1 0 C1 1.65 1 3.3 1 5 C-3.62 5 -8.24 5 -13 5 C-13 4.67 -13 4.34 -13 4 C-12.22914063 3.96261719 -11.45828125 3.92523437 -10.6640625 3.88671875 C-9.15972656 3.78810547 -9.15972656 3.78810547 -7.625 3.6875 C-6.62726562 3.62949219 -5.62953125 3.57148437 -4.6015625 3.51171875 C-3.74304688 3.34285156 -2.88453125 3.17398438 -2 3 C-1.34 2.01 -0.68 1.02 0 0 Z " fill="#274047" transform="translate(619,524)"/>
<path d="M0 0 C1.33332095 2.6666419 0.67102033 4.16680303 0 7 C-1.65 7.33 -3.3 7.66 -5 8 C-3.62845496 5.04590299 -2.01136276 2.55991624 0 0 Z " fill="#3B6A53" transform="translate(290,497)"/>
<path d="M0 0 C1.18414294 3.55242882 0.69535532 4.69830562 -0.4375 8.1875 C-0.72496094 9.08855469 -1.01242188 9.98960937 -1.30859375 10.91796875 C-1.53675781 11.60503906 -1.76492187 12.29210937 -2 13 C-2.33 13 -2.66 13 -3 13 C-2.88610125 11.20759337 -2.75852313 9.41605165 -2.625 7.625 C-2.55539063 6.62726563 -2.48578125 5.62953125 -2.4140625 4.6015625 C-2 2 -2 2 0 0 Z " fill="#E2FAEF" transform="translate(155,447)"/>
<path d="M0 0 C0.8971875 0.309375 0.8971875 0.309375 1.8125 0.625 C0.8225 0.625 -0.1675 0.625 -1.1875 0.625 C-1.1875 1.615 -1.1875 2.605 -1.1875 3.625 C-3.8275 3.955 -6.4675 4.285 -9.1875 4.625 C-2.52118644 -0.43220339 -2.52118644 -0.43220339 0 0 Z " fill="#16603D" transform="translate(480.1875,431.375)"/>
<path d="M0 0 C0.33 1.32 0.66 2.64 1 4 C-1.97 6.475 -1.97 6.475 -5 9 C-4.42647107 5.12867972 -2.51295648 2.91827204 0 0 Z " fill="#E1F9EF" transform="translate(318,401)"/>
<path d="M0 0 C-0.5625 1.9375 -0.5625 1.9375 -2 4 C-5.625 4.75 -5.625 4.75 -9 5 C-6.45523312 2.20075644 -3.92372883 0 0 0 Z " fill="#D7F4E8" transform="translate(227,361)"/>
<path d="M0 0 C1.32 0.33 2.64 0.66 4 1 C0.04 4.465 0.04 4.465 -4 8 C-4.33 7.01 -4.66 6.02 -5 5 C-2.75 2.4375 -2.75 2.4375 0 0 Z " fill="#D6F5E7" transform="translate(323,305)"/>
<path d="M0 0 C2.125 0.375 2.125 0.375 4 1 C2.37660195 2.70884005 0.70680947 4.37446717 -1 6 C-1.66 6 -2.32 6 -3 6 C-2.42655063 3.13275314 -2.1385485 2.1385485 0 0 Z " fill="#082831" transform="translate(1096,290)"/>
<path d="M0 0 C0.95465783 2.16967689 1.14401212 3.56328793 0.3984375 5.82421875 C-0.35870385 7.5684743 -1.17609198 9.28627131 -2 11 C-2.66 10.67 -3.32 10.34 -4 10 C-2.8905928 6.51329166 -1.73662334 3.22515763 0 0 Z " fill="#296A4B" transform="translate(225,283)"/>
<path d="M0 0 C4.29 0 8.58 0 13 0 C13.33 0.99 13.66 1.98 14 3 C9.38 2.34 4.76 1.68 0 1 C0 0.67 0 0.34 0 0 Z " fill="#D4E4E7" transform="translate(1032,463)"/>
<path d="M0 0 C-4.94816714 2.80396138 -9.61682285 1.77350507 -15 1 C-15 0.67 -15 0.34 -15 0 C-13.25093341 -0.19601608 -11.50068154 -0.38147403 -9.75 -0.5625 C-8.77546875 -0.66691406 -7.8009375 -0.77132813 -6.796875 -0.87890625 C-4.2368648 -0.98974468 -2.41851841 -0.77738092 0 0 Z " fill="#D8E7EC" transform="translate(968,432)"/>
<path d="M0 0 C1.04449911 3.13349732 0.93423645 3.98968256 0 7 C-0.66 7 -1.32 7 -2 7 C-2 7.99 -2 8.98 -2 10 C-2.99 9.67 -3.98 9.34 -5 9 C-3.35 6.03 -1.7 3.06 0 0 Z " fill="#2C6D4C" transform="translate(341,418)"/>
<path d="M0 0 C0.66 0.33 1.32 0.66 2 1 C1.3125 3.375 1.3125 3.375 0 6 C-2.625 7.3125 -2.625 7.3125 -5 8 C-4.67 7.01 -4.34 6.02 -4 5 C-3.01 5 -2.02 5 -1 5 C-0.67 3.35 -0.34 1.7 0 0 Z " fill="#203E47" transform="translate(1242,418)"/>
<path d="M0 0 C0.99 0.33 1.98 0.66 3 1 C0.525 4.465 0.525 4.465 -2 8 C-2.33 6.68 -2.66 5.36 -3 4 C-1.5625 1.75 -1.5625 1.75 0 0 Z " fill="#206644" transform="translate(345,361)"/>
<path d="M0 0 C0.33 0 0.66 0 1 0 C1.125 6.625 1.125 6.625 0 10 C-0.99 10 -1.98 10 -3 10 C-2.01 6.7 -1.02 3.4 0 0 Z " fill="#D7F2E6" transform="translate(386,297)"/>
<path d="M0 0 C0.33 0 0.66 0 1 0 C0.25 7.625 0.25 7.625 -2 11 C-2.66 11 -3.32 11 -4 11 C-2.7874262 7.27566618 -1.49140021 3.62197194 0 0 Z " fill="#2A694A" transform="translate(217,300)"/>
<path d="M0 0 C2.64752004 2.57784846 4.94432065 4.91648098 7 8 C6.01 8 5.02 8 4 8 C0 3.77142857 0 3.77142857 0 0 Z " fill="#2F7250" transform="translate(444,297)"/>
<path d="M0 0 C-0.33 1.32 -0.66 2.64 -1 4 C-3.49064888 4.68707555 -5.37886292 5 -8 5 C-2.25 0 -2.25 0 0 0 Z " fill="#E9FEF8" transform="translate(354,275)"/>
<path d="M0 0 C0 3 0 3 -2 5.1875 C-2.66 5.785625 -3.32 6.38375 -4 7 C-4.99 6.67 -5.98 6.34 -7 6 C-2.25 1.125 -2.25 1.125 0 0 Z " fill="#1C3D47" transform="translate(1220,239)"/>
<path d="M0 0 C0.99 0.33 1.98 0.66 3 1 C2.34 2.98 1.68 4.96 1 7 C0.01 6.67 -0.98 6.34 -2 6 C-1.125 1.125 -1.125 1.125 0 0 Z " fill="#133642" transform="translate(963,479)"/>
<path d="M0 0 C0 3 0 3 -1.53125 4.60546875 C-2.1809375 5.12753906 -2.830625 5.64960938 -3.5 6.1875 C-4.1496875 6.71730469 -4.799375 7.24710937 -5.46875 7.79296875 C-5.9740625 8.19128906 -6.479375 8.58960938 -7 9 C-5.64978174 4.58110387 -3.73884332 2.65654657 0 0 Z " fill="#135B36" transform="translate(317,462)"/>
<path d="M0 0 C-1 3 -1 3 -3 4 C-5.3329866 4.04022391 -7.66706666 4.04320247 -10 4 C-6.86268382 1.90845588 -3.85464592 0 0 0 Z " fill="#D6F1E5" transform="translate(458,443)"/>
<path d="M0 0 C0.33 1.32 0.66 2.64 1 4 C-3.75 7 -3.75 7 -6 7 C-6 6.34 -6 5.68 -6 5 C-5.01 4.67 -4.02 4.34 -3 4 C-1.31461399 2.00334686 -1.31461399 2.00334686 0 0 Z " fill="#14653E" transform="translate(505,412)"/>
<path d="M0 0 C0.66 0.33 1.32 0.66 2 1 C0.68 3.64 -0.64 6.28 -2 9 C-2.33 9 -2.66 9 -3 9 C-3.36923077 3.46153846 -3.36923077 3.46153846 -1.5 1.125 C-1.005 0.75375 -0.51 0.3825 0 0 Z " fill="#DCF5E9" transform="translate(362,377)"/>
<path d="M0 0 C1.60080151 4.00200378 0.29279692 7.04556236 -1 11 C-2.1875 9.4375 -2.1875 9.4375 -3 7 C-1.625 3.25 -1.625 3.25 0 0 Z " fill="#1F6041" transform="translate(195,351)"/>
<path d="M0 0 C0.91058531 3.07322544 1.08886184 5.80097361 1 9 C0.01 9.33 -0.98 9.66 -2 10 C-1.54177532 6.53058454 -1.10868317 3.32604951 0 0 Z " fill="#D1E2E5" transform="translate(1248,270)"/>
<path d="M0 0 C0 0.66 0 1.32 0 2 C-2.8125 3.5625 -2.8125 3.5625 -6 5 C-6.99 4.67 -7.98 4.34 -9 4 C-6.10130984 1.70103884 -3.84906588 0 0 0 Z " fill="#204049" transform="translate(1141,268)"/>
<path d="M0 0 C1.8125 0.1875 1.8125 0.1875 4 1 C5.75 3.5625 5.75 3.5625 7 6 C6.01 6 5.02 6 4 6 C0 1.54285714 0 1.54285714 0 0 Z " fill="#1A3A43" transform="translate(1092,262)"/>
<path d="M0 0 C0.33 0 0.66 0 1 0 C1 2.97 1 5.94 1 9 C-0.32 9 -1.64 9 -3 9 C-3 8.34 -3 7.68 -3 7 C-2.34 7 -1.68 7 -1 7 C-0.67 4.69 -0.34 2.38 0 0 Z " fill="#072630" transform="translate(894,519)"/>
<path d="M0 0 C0.33 0.99 0.66 1.98 1 3 C0.01 3.33 -0.98 3.66 -2 4 C-3.20882096 6.00016466 -3.20882096 6.00016466 -4 8 C-4.99 8 -5.98 8 -7 8 C-4.69 5.36 -2.38 2.72 0 0 Z " fill="#CDEBDD" transform="translate(233,503)"/>
<path d="M0 0 C0.99 0.33 1.98 0.66 3 1 C0.37801226 3.15377564 -1.64404172 4.40072174 -5 5 C-4.67 3.68 -4.34 2.36 -4 1 C-2.02 1.495 -2.02 1.495 0 2 C0 1.34 0 0.68 0 0 Z " fill="#22434D" transform="translate(1014,414)"/>
<path d="M0 0 C0.99 0.33 1.98 0.66 3 1 C0.36 2.98 -2.28 4.96 -5 7 C-4 3 -4 3 -2.125 1.1875 C-1.42375 0.795625 -0.7225 0.40375 0 0 Z " fill="#CFF0E1" transform="translate(315,313)"/>
<path d="M0 0 C0.33 0 0.66 0 1 0 C1 2.64 1 5.28 1 8 C-0.65 7.67 -2.3 7.34 -4 7 C-3.34 6.34 -2.68 5.68 -2 5 C-1.29289322 3.35008418 -0.62056011 1.68437744 0 0 Z " fill="#E1F1F4" transform="translate(994,291)"/>
<path d="M0 0 C2.64 1.98 5.28 3.96 8 6 C7.34 6.66 6.68 7.32 6 8 C5.01 7.34 4.02 6.68 3 6 C3 5.34 3 4.68 3 4 C2.01 3.67 1.02 3.34 0 3 C0 2.01 0 1.02 0 0 Z " fill="#206643" transform="translate(336,188)"/>
<path d="M0 0 C0.33 0.66 0.66 1.32 1 2 C-0.32 3.65 -1.64 5.3 -3 7 C-3.99 6.67 -4.98 6.34 -6 6 C-4.02 4.02 -2.04 2.04 0 0 Z " fill="#D2ECE1" transform="translate(246,489)"/>
<path d="M0 0 C0.33 1.32 0.66 2.64 1 4 C-0.9375 6.25 -0.9375 6.25 -3 8 C-3.66 7.67 -4.32 7.34 -5 7 C-3.35 4.69 -1.7 2.38 0 0 Z " fill="#286344" transform="translate(300,483)"/>
<path d="M0 0 C0.99 0.33 1.98 0.66 3 1 C2.34 2.98 1.68 4.96 1 7 C0.34 7 -0.32 7 -1 7 C-0.67 4.69 -0.34 2.38 0 0 Z " fill="#1E3A42" transform="translate(1145,472)"/>
<path d="M0 0 C0.66 0.33 1.32 0.66 2 1 C-0.25 3.5625 -0.25 3.5625 -3 6 C-4.32 5.67 -5.64 5.34 -7 5 C-4.69 3.35 -2.38 1.7 0 0 Z " fill="#D5F1E5" transform="translate(497,423)"/>
<path d="M0 0 C0 0.99 0 1.98 0 3 C-2.5 5.1875 -2.5 5.1875 -5 7 C-5.66 6.34 -6.32 5.68 -7 5 C-4.69 3.35 -2.38 1.7 0 0 Z " fill="#226846" transform="translate(233,379)"/>
<path d="M0 0 C2.66735273 2.48952921 4.55746343 4.63408134 6 8 C5.01 8.495 5.01 8.495 4 9 C1.47740939 7.02579865 1.0070192 6.03254358 0.3125 2.8125 C0.209375 1.884375 0.10625 0.95625 0 0 Z " fill="#246645" transform="translate(497,362)"/>
<path d="M0 0 C4 2 4 2 5.3125 3.9375 C6 6 6 6 5 9 C3.35 6.03 1.7 3.06 0 0 Z " fill="#D1F0E2" transform="translate(496,359)"/>
<path d="M0 0 C0.33 0 0.66 0 1 0 C1.25 5.625 1.25 5.625 -1 9 C-1.66 9 -2.32 9 -3 9 C-2.01 6.03 -1.02 3.06 0 0 Z " fill="#246345" transform="translate(381,340)"/>
<path d="M0 0 C-0.99843096 2.99529289 -1.51384442 4.15840327 -4 6 C-6.1875 5.6875 -6.1875 5.6875 -8 5 C-2.25 0 -2.25 0 0 0 Z " fill="#286948" transform="translate(299,330)"/>
<path d="M0 0 C0.99 0.33 1.98 0.66 3 1 C2.1875 2.9375 2.1875 2.9375 1 5 C0.01 5.33 -0.98 5.66 -2 6 C-1.34 4.02 -0.68 2.04 0 0 Z " fill="#1D6341" transform="translate(236,259)"/>
</svg>
